<svg xmlns="http://www.w3.org/2000/svg" xmlns:xlink="http://www.w3.org/1999/xlink" fill="none" version="1.1" width="24" height="24" viewBox="0 0 24 24"><defs><clipPath id="master_svg0_715_7213"><rect x="0" y="0" width="24" height="24" rx="0"/></clipPath><clipPath id="master_svg1_715_7217"><rect x="0" y="0" width="24" height="24" rx="0"/></clipPath></defs><g clip-path="url(#master_svg0_715_7213)"><g><path d="M11.6482,19.587599761581423Q20.25,15.01909976158142,20.25,8.249999761581421Q20.25,6.705899761581421,19.1075,5.609189761581421Q17.951999999999998,4.500000761581421,16.311999999999998,4.500000761581421Q15.1022,4.499999761581421,14.1055,5.143869761581421Q13.1389,5.76821976158142,12.68524,6.78787976158142Q12.65521,6.8553697615814215,12.61259,6.915709761581421Q12.56997,6.97603976158142,12.5164,7.02689976158142Q12.46283,7.0777597615814205,12.40037,7.117199761581421Q12.33791,7.156629761581421,12.26895,7.1831197615814215Q12.19999,7.2096097615814205,12.1272,7.2221397615814205Q12.0544,7.234659761581421,11.98055,7.23274976158142Q11.90671,7.230829761581421,11.83466,7.214549761581421Q11.76261,7.19825976158142,11.69512,7.168239761581421Q11.56803,7.11168976158142,11.46967,7.013329761581421Q11.37131,6.914969761581421,11.31476,6.78787976158142Q10.86107,5.768179761581421,9.89447,5.143899761581421Q8.89751,4.499999761581421,7.687,4.499999761581421Q6.0482499999999995,4.499999761581421,4.8927499999999995,5.609189761581421Q3.75,6.7061397615814204,3.75,8.249999761581421Q3.75,15.01909976158142,12.3518,19.587599761581423L12,20.24999976158142L11.6482,19.587599761581423ZM12.3518,20.912399761581423Q12.27054,20.95549976158142,12.18127,20.97779976158142Q12.092,20.99999976158142,12,20.99999976158142Q11.908,20.99999976158142,11.81873,20.97779976158142Q11.72945,20.95549976158142,11.6482,20.912399761581423Q2.25,15.92089976158142,2.25,8.249999761581421Q2.25,6.0667797615814205,3.853998,4.527063761581421Q5.44482,2.999999761581421,7.687,2.999999761581421Q9.33979,2.999999761581421,10.70828,3.883851761581421Q12.05001,4.750419761581421,12.68524,6.178119761581421L12,6.482999761581421L11.31476,6.178119761581421Q11.94995,4.750509761581421,13.2915,3.883883761581421Q14.6599,2.999999761581421,16.311999999999998,3.000000761581421Q18.5554,3.000000761581421,20.1463,4.527064761581421Q21.75,6.066539761581421,21.75,8.249999761581421Q21.75,15.92089976158142,12.3518,20.912399761581423Z" fill="#000000" fill-opacity="1"/></g><g clip-path="url(#master_svg1_715_7217)"><g><path d="M11.645,20.910029189682007L11.638,20.907029189682007L11.616,20.895029189682006C11.48729,20.824229189682008,11.35961,20.751529189682007,11.233,20.677029189682006C9.71081,19.772529189682007,8.28827,18.709929189682008,6.989,17.507029189682008C4.688000000000001,15.360029189682006,2.25,12.173999189682007,2.25,8.249999189682008C2.25,5.321999189682007,4.714,2.999999999982007,7.688,2.999999999982007C9.36279,2.991796259682007,10.95007,3.747150189682007,12,5.051999189682007C13.0502,3.7468751896820067,14.6379,2.9914920296820067,16.313000000000002,2.999999999982007C19.286,2.999999999982007,21.75,5.321999189682007,21.75,8.249999189682008C21.75,12.174999189682007,19.312,15.361029189682007,17.011,17.506029189682007C15.7117,18.708929189682006,14.2892,19.771529189682006,12.767,20.67602918968201C12.6404,20.75082918968201,12.5127,20.823829189682005,12.384,20.895029189682006L12.362,20.907029189682007L12.355,20.911029189682008L12.352,20.912029189682006C12.13182,21.028629189682007,11.86818,21.028629189682007,11.648,20.912029189682006L11.645,20.911029189682008L11.645,20.910029189682007Z" fill="#000000" fill-opacity="1"/></g></g></g></svg>