<svg xmlns="http://www.w3.org/2000/svg" xmlns:xlink="http://www.w3.org/1999/xlink" fill="none" version="1.1" width="24" height="24" viewBox="0 0 24 24"><defs><clipPath id="master_svg0_303_0920"><rect x="0" y="0" width="24" height="24" rx="0"/></clipPath></defs><g clip-path="url(#master_svg0_303_0920)"><g><path d="M8.284320000000001,5.25597591369629L7.46333,6.5719759136962885Q6.69966,7.780685913696289,5.28726,7.973135913696289Q4.72063,8.053665913696289,4.17562,8.144745913696289Q3.66668,8.22932591369629,3.33495,8.631935913696289Q3,9.03843591369629,3,9.57399591369629L3,17.99999591369629Q3,18.621295913696287,3.43934,19.06069591369629Q3.87868,19.49999591369629,4.5,19.49999591369629L19.5,19.49999591369629Q20.1213,19.49999591369629,20.5607,19.06069591369629Q21,18.621295913696287,21,17.99999591369629L21,9.57399591369629Q21,9.03873591369629,20.6648,8.632045913696288Q20.3328,8.22931591369629,19.8249,8.144835913696289Q19.2677,8.051985913696289,18.7085,7.972545913696289Q17.300800000000002,7.780055913696289,16.5399,6.575555913696289L15.7159,5.256325913696289Q15.3201,4.6133809136962896,14.5713,4.568666913696289Q12,4.430570913696289,9.42422,4.568920913696289Q8.67992,4.6133809136962896,8.28668,5.252165913696289L8.284320000000001,5.25597591369629ZM7.00931,4.465831913696289Q7.8116,3.1625609136962893,9.34377,3.071079913696289Q12,2.928408913696289,14.6607,3.071333913696289Q16.1884,3.1625609136962893,16.9881,4.461674913696289L17.8081,5.7744459136962885Q18.195999999999998,6.388515913696289,18.9195,6.487455913696289Q19.4964,6.569425913696289,20.0711,6.665165913696288Q21.133,6.841815913696289,21.8222,7.677955913696289Q22.5,8.500205913696288,22.5,9.57399591369629L22.5,17.99999591369629Q22.5,19.24259591369629,21.6213,20.12129591369629Q20.7426,20.99999591369629,19.5,20.99999591369629L4.5,20.99999591369629Q3.2573600000000003,20.99999591369629,2.37868,20.12129591369629Q1.5,19.24259591369629,1.5,17.99999591369629L1.5,9.57399591369629Q1.5,8.50006591369629,2.1773015,7.6780659136962885Q2.8664,6.84174591369629,3.9283799999999998,6.665255913696289Q4.49145,6.571165913696289,5.08474,6.486865913696289Q5.804790000000001,6.388755913696289,6.19068,5.77802591369629L7.01167,4.462023913696289L7.00931,4.465831913696289Z" fill="#000000" fill-opacity="1"/></g><g><path d="M18,10.508L18,10.5Q18,10.42613,18.014400000000002,10.35368Q18.0288,10.28123,18.0571,10.21299Q18.0854,10.14474,18.1264,10.08332Q18.1674,10.0219,18.2197,9.96967Q18.271900000000002,9.91744,18.3333,9.8764Q18.3947,9.83536,18.463,9.80709Q18.5312,9.77882,18.6037,9.76441Q18.676099999999998,9.75,18.75,9.75L18.758,9.75Q18.831899999999997,9.75,18.9043,9.76441Q18.9768,9.77882,19.045,9.80709Q19.113300000000002,9.83536,19.1747,9.8764Q19.2361,9.91744,19.2883,9.96967Q19.340600000000002,10.0219,19.3816,10.08332Q19.4226,10.14474,19.4509,10.21299Q19.4792,10.28123,19.4936,10.35368Q19.508,10.42613,19.508,10.5L19.508,10.508Q19.508,10.58187,19.4936,10.65432Q19.4792,10.72677,19.4509,10.79501Q19.4226,10.86326,19.3816,10.92468Q19.340600000000002,10.9861,19.2883,11.03833Q19.2361,11.09056,19.1747,11.1316Q19.113300000000002,11.17264,19.045,11.20091Q18.9768,11.22918,18.9043,11.243590000000001Q18.831899999999997,11.258,18.758,11.258L18.75,11.258Q18.676099999999998,11.258,18.6037,11.243590000000001Q18.5312,11.22918,18.463,11.20091Q18.3947,11.17264,18.3333,11.1316Q18.271900000000002,11.09056,18.2197,11.03833Q18.1674,10.9861,18.1264,10.92468Q18.0854,10.86326,18.0571,10.79501Q18.0288,10.72677,18.014400000000002,10.65432Q18,10.58187,18,10.508ZM19.5,10.508L18.75,10.508L18.75,9.758L18.758,9.758L18.758,10.508L18.008,10.508L18.008,10.5L18.758,10.5L18.758,11.25L18.75,11.25L18.75,10.5L19.5,10.5L19.5,10.508ZM12,7.5Q14.17462,7.5,15.71231,9.03769Q17.25,10.57538,17.25,12.75Q17.25,14.92462,15.71231,16.462310000000002Q14.17462,18,12,18Q9.82538,18,8.28769,16.462310000000002Q6.75,14.92462,6.75,12.75Q6.75,10.57538,8.28769,9.037689Q9.82538,7.5,12,7.5ZM12,9Q10.4467,9,9.34835,10.09835Q8.25,11.1967,8.25,12.75Q8.25,14.3033,9.34835,15.40165Q10.4467,16.5,12,16.5Q13.5533,16.5,14.65165,15.40165Q15.75,14.3033,15.75,12.75Q15.75,11.1967,14.65165,10.09835Q13.5533,9,12,9Z" fill="#000000" fill-opacity="1"/></g></g></svg>