<svg xmlns="http://www.w3.org/2000/svg" xmlns:xlink="http://www.w3.org/1999/xlink" fill="none" version="1.1" width="24" height="24" viewBox="0 0 24 24"><defs><clipPath id="master_svg0_715_7225"><rect x="0" y="0" width="24" height="24" rx="0"/></clipPath></defs><g clip-path="url(#master_svg0_715_7225)"><g><path d="M8.250001841201783,15.553L8.250001841201783,5.25Q8.250001841201783,5.18928,8.259761841201783,5.1293500000000005Q8.269531841201783,5.0694300000000005,8.288811841201781,5.01185Q8.308091841201783,4.95428,8.336381841201781,4.90055Q8.364671841201783,4.846830000000001,8.401241841201783,4.79835Q8.437801841201782,4.74988,8.481691841201783,4.70792Q8.525571841201781,4.66596,8.575641841201783,4.631600000000001Q8.625701841201781,4.59725,8.680641841201783,4.57139Q8.735581841201782,4.54554,8.793961841201781,4.52886L19.293911841201783,1.528857Q19.365011841201785,1.508564,19.438611841201784,1.502517Q19.512211841201783,1.49647,19.585611841201782,1.504903Q19.65901184120178,1.513335,19.729311841201785,1.535922Q19.79961184120178,1.558508,19.864211841201783,1.594382Q19.92881184120178,1.6302560000000001,19.985111841201782,1.678038Q20.041511841201782,1.7258200000000001,20.08741184120178,1.783674Q20.13331184120178,1.841528,20.16711184120178,1.90723Q20.200811841201784,1.972933,20.221111841201783,2.043959Q20.250011841201783,2.144959,20.250011841201783,2.25L20.250011841201783,12.553Q20.250011841201783,12.6269,20.23561184120178,12.6993Q20.221211841201782,12.7718,20.19291184120178,12.84Q20.164611841201783,12.9083,20.123611841201782,12.9697Q20.082511841201782,13.0311,20.030311841201783,13.0833Q19.978111841201784,13.1356,19.91671184120178,13.1766Q19.855211841201783,13.2176,19.78701184120178,13.2459Q19.718811841201784,13.2742,19.646311841201783,13.2886Q19.573911841201785,13.303,19.500011841201783,13.303Q19.42611184120178,13.303,19.353711841201783,13.2886Q19.28121184120178,13.2742,19.213011841201784,13.2459Q19.144711841201783,13.2176,19.083311841201784,13.1766Q19.02191184120178,13.1356,18.969711841201782,13.0833Q18.917411841201783,13.0311,18.876411841201783,12.9697Q18.835311841201783,12.9083,18.80711184120178,12.84Q18.778811841201783,12.7718,18.764411841201785,12.6993Q18.750011841201783,12.6269,18.750011841201783,12.553L18.750011841201783,2.25L19.500011841201783,2.25L19.706011841201782,2.971143L9.206041841201781,5.97114L9.000001841201783,5.25L9.750001841201783,5.25L9.750001841201783,15.553Q9.750001841201783,15.6269,9.735591841201781,15.6993Q9.721181841201783,15.7718,9.692911841201783,15.84Q9.664641841201782,15.9083,9.623601841201783,15.9697Q9.582561841201782,16.031100000000002,9.530331841201782,16.0833Q9.478091841201781,16.1356,9.416671841201783,16.1766Q9.355261841201783,16.217599999999997,9.287011841201782,16.2459Q9.218761841201783,16.2742,9.146321841201782,16.288600000000002Q9.073871841201782,16.303,9.000001841201783,16.303Q8.926131841201782,16.303,8.853681841201782,16.288600000000002Q8.781231841201782,16.2742,8.712991841201783,16.2459Q8.644741841201782,16.217599999999997,8.583321841201784,16.1766Q8.521901841201782,16.1356,8.469671841201782,16.0833Q8.417441841201782,16.031100000000002,8.376401841201783,15.9697Q8.335361841201781,15.9083,8.307091841201782,15.84Q8.278821841201783,15.7718,8.264411841201781,15.6993Q8.250001841201783,15.6269,8.250001841201783,15.553ZM19.706011841201782,6.72114L9.206041841201781,9.72114Q9.135011841201782,9.74144,9.061391841201782,9.74748Q8.987771841201782,9.75353,8.914391841201782,9.7451Q8.841001841201782,9.73666,8.770671841201782,9.71408Q8.700341841201782,9.69149,8.635771841201782,9.655619999999999Q8.571191841201781,9.61974,8.514861841201782,9.57196Q8.458531841201783,9.524180000000001,8.412601841201782,9.46633Q8.366671841201782,9.408470000000001,8.332911841201781,9.34277Q8.299151841201782,9.27707,8.278861841201781,9.20604Q8.258561841201782,9.135010000000001,8.252511841201782,9.06139Q8.246471841201782,8.987770000000001,8.254901841201782,8.914390000000001Q8.263331841201783,8.841000000000001,8.285921841201782,8.770669999999999Q8.308511841201781,8.70034,8.344381841201782,8.63577Q8.380251841201783,8.57119,8.428041841201782,8.514859999999999Q8.475821841201782,8.45853,8.533671841201782,8.412600000000001Q8.591521841201782,8.36667,8.657231841201781,8.33291Q8.722931841201781,8.299150000000001,8.793961841201781,8.27886L19.293911841201783,5.27886Q19.365011841201785,5.25856,19.438611841201784,5.2525200000000005Q19.512211841201783,5.24647,19.585611841201782,5.2549Q19.65901184120178,5.26333,19.729311841201785,5.28592Q19.79961184120178,5.30851,19.864211841201783,5.34438Q19.92881184120178,5.38026,19.985111841201782,5.42804Q20.041511841201782,5.475820000000001,20.08741184120178,5.53367Q20.13331184120178,5.5915300000000006,20.16711184120178,5.65723Q20.200811841201784,5.72293,20.221111841201783,5.79396Q20.24141184120178,5.864990000000001,20.24751184120178,5.938610000000001Q20.25351184120178,6.012230000000001,20.245111841201783,6.08561Q20.23671184120178,6.159,20.21411184120178,6.22933Q20.191511841201784,6.29966,20.155611841201782,6.36423Q20.11971184120178,6.4288,20.071911841201782,6.48514Q20.024211841201783,6.54147,19.966311841201783,6.5874Q19.908511841201783,6.63333,19.842811841201783,6.66709Q19.777111841201783,6.70085,19.706011841201782,6.72114ZM7.161851841201782,16.9949Q7.645011841201782,16.8568,7.947561841201782,16.4558Q8.250001841201783,16.0549,8.250001841201783,15.553L9.000001841201783,15.553L9.750001841201783,15.553L9.750001841201783,19.303Q9.749791841201782,20.3076,9.144811841201783,21.1094Q8.539821841201782,21.9113,7.574001841201783,22.1872L6.253971841201782,22.5642Q5.232731841201782,22.839,4.322312841201782,22.3239Q3.4118928412017824,21.8088,3.1246738412017825,20.8029Q2.837454841201782,19.7971,3.338585841201782,18.8789Q3.8397170412017823,17.9607,4.841051841201782,17.658099999999997L7.161961841201782,16.9949L7.161851841201782,16.9949ZM7.574041841201782,18.4371L5.274951841201782,19.0939Q4.861941841201782,19.2187,4.655251841201782,19.5975Q4.448557841201782,19.9762,4.567022841201783,20.391Q4.685487841201782,20.8059,5.0609918412017825,21.0184Q5.436501841201782,21.2309,5.842031841201782,21.1218L7.162001841201782,20.7448Q7.6449118412017825,20.6069,7.947401841201782,20.206Q8.249891841201782,19.8051,8.250001841201783,19.303L8.250001841201783,15.553Q8.250001841201783,15.4791,8.264411841201781,15.4067Q8.278821841201783,15.3342,8.307091841201782,15.266Q8.335361841201781,15.1977,8.376401841201783,15.1363Q8.417441841201782,15.0749,8.469671841201782,15.0227Q8.521901841201782,14.9704,8.583321841201784,14.9294Q8.644741841201782,14.8884,8.712991841201783,14.8601Q8.781231841201782,14.8318,8.853681841201782,14.8174Q8.926131841201782,14.803,9.000001841201783,14.803Q9.073871841201782,14.803,9.146321841201782,14.8174Q9.218761841201783,14.8318,9.287011841201782,14.8601Q9.355261841201783,14.8884,9.416671841201783,14.9294Q9.478091841201781,14.9704,9.530331841201782,15.0227Q9.582561841201782,15.0749,9.623601841201783,15.1363Q9.664641841201782,15.1977,9.692911841201783,15.266Q9.721181841201783,15.3342,9.735591841201781,15.4067Q9.750001841201783,15.4791,9.750001841201783,15.553Q9.750001841201783,16.557299999999998,9.144961841201782,17.3592Q8.540031841201781,18.161,7.5741518412017825,18.4371L7.574041841201782,18.4371ZM17.661811841201782,13.9949Q18.145011841201782,13.8568,18.44751184120178,13.4558Q18.750011841201783,13.0549,18.750011841201783,12.553L19.500011841201783,12.553L20.250011841201783,12.553L20.250011841201783,16.303Q20.249811841201783,17.3076,19.644811841201783,18.1094Q19.039811841201782,18.9113,18.07401184120178,19.1872L16.75401184120178,19.5642Q15.741711841201782,19.8702,14.803411841201783,19.3581Q13.865111841201783,18.8459,13.571561841201783,17.8181Q13.278051841201782,16.7902,13.804511841201782,15.8598Q14.330911841201782,14.9295,15.363111841201782,14.6518L17.661911841201782,13.9949L17.661811841201782,13.9949ZM18.07401184120178,15.4371L15.752811841201781,16.1002Q15.327111841201782,16.2148,15.110011841201782,16.5985Q14.892811841201782,16.982300000000002,15.013911841201782,17.4062Q15.135011841201782,17.830199999999998,15.522011841201783,18.0414Q15.909011841201782,18.2526,16.34201184120178,18.1218L17.66201184120178,17.744799999999998Q18.144911841201782,17.6069,18.447411841201784,17.206Q18.749911841201783,16.8051,18.750011841201783,16.303L18.750011841201783,12.553Q18.750011841201783,12.4791,18.764411841201785,12.4067Q18.778811841201783,12.3342,18.80711184120178,12.266Q18.835311841201783,12.19774,18.876411841201783,12.13632Q18.917411841201783,12.0749,18.969711841201782,12.02267Q19.02191184120178,11.97044,19.083311841201784,11.9294Q19.144711841201783,11.88836,19.213011841201784,11.86009Q19.28121184120178,11.83182,19.353711841201783,11.81741Q19.42611184120178,11.803,19.500011841201783,11.803Q19.573911841201785,11.803,19.646311841201783,11.81741Q19.718811841201784,11.83182,19.78701184120178,11.86009Q19.855211841201783,11.88836,19.91671184120178,11.9294Q19.978111841201784,11.97044,20.030311841201783,12.02267Q20.082511841201782,12.0749,20.123611841201782,12.13632Q20.164611841201783,12.19774,20.19291184120178,12.266Q20.221211841201782,12.3342,20.23561184120178,12.4067Q20.250011841201783,12.4791,20.250011841201783,12.553Q20.250011841201783,13.5573,19.645011841201782,14.3592Q19.040011841201782,15.161,18.074111841201784,15.4371L18.07401184120178,15.4371ZM9.750001841201783,15.553Q9.750001841201783,15.6269,9.735591841201781,15.6993Q9.721181841201783,15.7718,9.692911841201783,15.84Q9.664641841201782,15.9083,9.623601841201783,15.9697Q9.582561841201782,16.031100000000002,9.530331841201782,16.0833Q9.478091841201781,16.1356,9.416671841201783,16.1766Q9.355261841201783,16.217599999999997,9.287011841201782,16.2459Q9.218761841201783,16.2742,9.146321841201782,16.288600000000002Q9.073871841201782,16.303,9.000001841201783,16.303Q8.926131841201782,16.303,8.853681841201782,16.288600000000002Q8.781231841201782,16.2742,8.712991841201783,16.2459Q8.644741841201782,16.217599999999997,8.583321841201784,16.1766Q8.521901841201782,16.1356,8.469671841201782,16.0833Q8.417441841201782,16.031100000000002,8.376401841201783,15.9697Q8.335361841201781,15.9083,8.307091841201782,15.84Q8.278821841201783,15.7718,8.264411841201781,15.6993Q8.250001841201783,15.6269,8.250001841201783,15.553Q8.250001841201783,15.4791,8.264411841201781,15.4067Q8.278821841201783,15.3342,8.307091841201782,15.266Q8.335361841201781,15.1977,8.376401841201783,15.1363Q8.417441841201782,15.0749,8.469671841201782,15.0227Q8.521901841201782,14.9704,8.583321841201784,14.9294Q8.644741841201782,14.8884,8.712991841201783,14.8601Q8.781231841201782,14.8318,8.853681841201782,14.8174Q8.926131841201782,14.803,9.000001841201783,14.803Q9.073871841201782,14.803,9.146321841201782,14.8174Q9.218761841201783,14.8318,9.287011841201782,14.8601Q9.355261841201783,14.8884,9.416671841201783,14.9294Q9.478091841201781,14.9704,9.530331841201782,15.0227Q9.582561841201782,15.0749,9.623601841201783,15.1363Q9.664641841201782,15.1977,9.692911841201783,15.266Q9.721181841201783,15.3342,9.735591841201781,15.4067Q9.750001841201783,15.4791,9.750001841201783,15.553ZM20.250011841201783,12.553Q20.250011841201783,12.6269,20.23561184120178,12.6993Q20.221211841201782,12.7718,20.19291184120178,12.84Q20.164611841201783,12.9083,20.123611841201782,12.9697Q20.082511841201782,13.0311,20.030311841201783,13.0833Q19.978111841201784,13.1356,19.91671184120178,13.1766Q19.855211841201783,13.2176,19.78701184120178,13.2459Q19.718811841201784,13.2742,19.646311841201783,13.2886Q19.573911841201785,13.303,19.500011841201783,13.303Q19.42611184120178,13.303,19.353711841201783,13.2886Q19.28121184120178,13.2742,19.213011841201784,13.2459Q19.144711841201783,13.2176,19.083311841201784,13.1766Q19.02191184120178,13.1356,18.969711841201782,13.0833Q18.917411841201783,13.0311,18.876411841201783,12.9697Q18.835311841201783,12.9083,18.80711184120178,12.84Q18.778811841201783,12.7718,18.764411841201785,12.6993Q18.750011841201783,12.6269,18.750011841201783,12.553Q18.750011841201783,12.4791,18.764411841201785,12.4067Q18.778811841201783,12.3342,18.80711184120178,12.266Q18.835311841201783,12.19774,18.876411841201783,12.13632Q18.917411841201783,12.0749,18.969711841201782,12.02267Q19.02191184120178,11.97044,19.083311841201784,11.9294Q19.144711841201783,11.88836,19.213011841201784,11.86009Q19.28121184120178,11.83182,19.353711841201783,11.81741Q19.42611184120178,11.803,19.500011841201783,11.803Q19.573911841201785,11.803,19.646311841201783,11.81741Q19.718811841201784,11.83182,19.78701184120178,11.86009Q19.855211841201783,11.88836,19.91671184120178,11.9294Q19.978111841201784,11.97044,20.030311841201783,12.02267Q20.082511841201782,12.0749,20.123611841201782,12.13632Q20.164611841201783,12.19774,20.19291184120178,12.266Q20.221211841201782,12.3342,20.23561184120178,12.4067Q20.250011841201783,12.4791,20.250011841201783,12.553ZM20.250011841201783,6Q20.250011841201783,6.073869999999999,20.23561184120178,6.146319999999999Q20.221211841201782,6.21877,20.19291184120178,6.28701Q20.164611841201783,6.35526,20.123611841201782,6.41668Q20.082511841201782,6.4781,20.030311841201783,6.53033Q19.978111841201784,6.58256,19.91671184120178,6.6236Q19.855211841201783,6.66464,19.78701184120178,6.69291Q19.718811841201784,6.72118,19.646311841201783,6.73559Q19.573911841201785,6.75,19.500011841201783,6.75Q19.42611184120178,6.75,19.353711841201783,6.73559Q19.28121184120178,6.72118,19.213011841201784,6.69291Q19.144711841201783,6.66464,19.083311841201784,6.6236Q19.02191184120178,6.58256,18.969711841201782,6.53033Q18.917411841201783,6.4781,18.876411841201783,6.41668Q18.835311841201783,6.35526,18.80711184120178,6.28701Q18.778811841201783,6.21877,18.764411841201785,6.146319999999999Q18.750011841201783,6.073869999999999,18.750011841201783,6Q18.750011841201783,5.926130000000001,18.764411841201785,5.853680000000001Q18.778811841201783,5.78123,18.80711184120178,5.71299Q18.835311841201783,5.6447400000000005,18.876411841201783,5.5833200000000005Q18.917411841201783,5.5219000000000005,18.969711841201782,5.46967Q19.02191184120178,5.41744,19.083311841201784,5.3764Q19.144711841201783,5.33536,19.213011841201784,5.3070900000000005Q19.28121184120178,5.27882,19.353711841201783,5.26441Q19.42611184120178,5.25,19.500011841201783,5.25Q19.573911841201785,5.25,19.646311841201783,5.26441Q19.718811841201784,5.27882,19.78701184120178,5.3070900000000005Q19.855211841201783,5.33536,19.91671184120178,5.3764Q19.978111841201784,5.41744,20.030311841201783,5.46967Q20.082511841201782,5.5219000000000005,20.123611841201782,5.5833200000000005Q20.164611841201783,5.6447400000000005,20.19291184120178,5.71299Q20.221211841201782,5.78123,20.23561184120178,5.853680000000001Q20.250011841201783,5.926130000000001,20.250011841201783,6ZM9.750001841201783,9Q9.750001841201783,9.07387,9.735591841201781,9.14632Q9.721181841201783,9.21877,9.692911841201783,9.28701Q9.664641841201782,9.355260000000001,9.623601841201783,9.41668Q9.582561841201782,9.478100000000001,9.530331841201782,9.53033Q9.478091841201781,9.58256,9.416671841201783,9.6236Q9.355261841201783,9.66464,9.287011841201782,9.692910000000001Q9.218761841201783,9.72118,9.146321841201782,9.73559Q9.073871841201782,9.75,9.000001841201783,9.75Q8.926131841201782,9.75,8.853681841201782,9.73559Q8.781231841201782,9.72118,8.712991841201783,9.692910000000001Q8.644741841201782,9.66464,8.583321841201784,9.6236Q8.521901841201782,9.58256,8.469671841201782,9.53033Q8.417441841201782,9.478100000000001,8.376401841201783,9.41668Q8.335361841201781,9.355260000000001,8.307091841201782,9.28701Q8.278821841201783,9.21877,8.264411841201781,9.14632Q8.250001841201783,9.07387,8.250001841201783,9Q8.250001841201783,8.92613,8.264411841201781,8.85368Q8.278821841201783,8.78123,8.307091841201782,8.71299Q8.335361841201781,8.644739999999999,8.376401841201783,8.58332Q8.417441841201782,8.521899999999999,8.469671841201782,8.46967Q8.521901841201782,8.41744,8.583321841201784,8.3764Q8.644741841201782,8.33536,8.712991841201783,8.307089999999999Q8.781231841201782,8.27882,8.853681841201782,8.26441Q8.926131841201782,8.25,9.000001841201783,8.25Q9.073871841201782,8.25,9.146321841201782,8.26441Q9.218761841201783,8.27882,9.287011841201782,8.307089999999999Q9.355261841201783,8.33536,9.416671841201783,8.3764Q9.478091841201781,8.41744,9.530331841201782,8.46967Q9.582561841201782,8.521899999999999,9.623601841201783,8.58332Q9.664641841201782,8.644739999999999,9.692911841201783,8.71299Q9.721181841201783,8.78123,9.735591841201781,8.85368Q9.750001841201783,8.92613,9.750001841201783,9Z" fill="#000000" fill-opacity="1"/></g></g></svg>