<svg xmlns="http://www.w3.org/2000/svg" xmlns:xlink="http://www.w3.org/1999/xlink" fill="none" version="1.1" width="24" height="24" viewBox="0 0 24 24"><defs><clipPath id="master_svg0_1438_6594"><rect x="0" y="0" width="24" height="24" rx="0"/></clipPath></defs><g clip-path="url(#master_svg0_1438_6594)"><g><path d="M9,11.24999754776001L15,11.24999754776001Q15.0739,11.24999754776001,15.1463,11.26440754776001Q15.2188,11.27881754776001,15.287,11.307087547760009Q15.3553,11.33535754776001,15.4167,11.37639754776001Q15.4781,11.41743754776001,15.5303,11.46966754776001Q15.5826,11.52190754776001,15.6236,11.583317547760009Q15.6646,11.644737547760009,15.6929,11.71298754776001Q15.7212,11.78122754776001,15.7356,11.85368754776001Q15.75,11.926127547760009,15.75,11.99999754776001Q15.75,12.07386754776001,15.7356,12.14631754776001Q15.7212,12.21876754776001,15.6929,12.287007547760009Q15.6646,12.35525754776001,15.6236,12.41667754776001Q15.5826,12.47809754776001,15.5303,12.53032754776001Q15.4781,12.582567547760009,15.4167,12.62359754776001Q15.3553,12.66463754776001,15.287,12.69290754776001Q15.2188,12.72117754776001,15.1463,12.73558754776001Q15.0739,12.74999754776001,15,12.74999754776001L9,12.74999754776001Q8.92613,12.74999754776001,8.85368,12.73558754776001Q8.78123,12.72117754776001,8.71299,12.69290754776001Q8.644739999999999,12.66463754776001,8.58332,12.62359754776001Q8.521899999999999,12.582567547760009,8.46967,12.53032754776001Q8.41744,12.47809754776001,8.3764,12.41667754776001Q8.33536,12.35525754776001,8.307089999999999,12.287007547760009Q8.27882,12.21876754776001,8.26441,12.14631754776001Q8.25,12.07386754776001,8.25,11.99999754776001Q8.25,11.926127547760009,8.26441,11.85368754776001Q8.27882,11.78122754776001,8.307089999999999,11.71298754776001Q8.33536,11.644737547760009,8.3764,11.583317547760009Q8.41744,11.52190754776001,8.46967,11.46966754776001Q8.521899999999999,11.41743754776001,8.58332,11.37639754776001Q8.644739999999999,11.33535754776001,8.71299,11.307087547760009Q8.78123,11.27881754776001,8.85368,11.26440754776001Q8.92613,11.24999754776001,9,11.24999754776001ZM11.25,15.00000754776001L11.25,8.99999754776001Q11.25,8.92612754776001,11.26441,8.853677547760011Q11.27882,8.781227547760011,11.30709,8.71298754776001Q11.33536,8.644737547760009,11.3764,8.58331754776001Q11.41744,8.521897547760009,11.46967,8.469667547760011Q11.5219,8.41743754776001,11.58332,8.37639754776001Q11.64474,8.33535754776001,11.71299,8.307087547760009Q11.78123,8.27881754776001,11.85368,8.26440754776001Q11.92613,8.24999754776001,12,8.24999754776001Q12.07387,8.24999754776001,12.14632,8.26440754776001Q12.21877,8.27881754776001,12.28701,8.307087547760009Q12.35526,8.33535754776001,12.41668,8.37639754776001Q12.4781,8.41743754776001,12.53033,8.469667547760011Q12.58256,8.521897547760009,12.6236,8.58331754776001Q12.66464,8.644737547760009,12.69291,8.71298754776001Q12.72118,8.781227547760011,12.73559,8.853677547760011Q12.75,8.92612754776001,12.75,8.99999754776001L12.75,15.00000754776001Q12.75,15.07390754776001,12.73559,15.14630754776001Q12.72118,15.21880754776001,12.69291,15.287007547760009Q12.66464,15.35520754776001,12.6236,15.41670754776001Q12.58256,15.47810754776001,12.53033,15.53030754776001Q12.4781,15.58260754776001,12.41668,15.62360754776001Q12.35526,15.66460754776001,12.28701,15.69290754776001Q12.21877,15.72120754776001,12.14632,15.73560754776001Q12.07387,15.75000754776001,12,15.75000754776001Q11.92613,15.75000754776001,11.85368,15.73560754776001Q11.78123,15.72120754776001,11.71299,15.69290754776001Q11.64474,15.66460754776001,11.58332,15.62360754776001Q11.5219,15.58260754776001,11.46967,15.53030754776001Q11.41744,15.47810754776001,11.3764,15.41670754776001Q11.33536,15.35520754776001,11.30709,15.287007547760009Q11.27882,15.21880754776001,11.26441,15.14630754776001Q11.25,15.07390754776001,11.25,15.00000754776001ZM12,2.2531075477600098Q13.9827,2.2531075477600098,15.7946,3.0192772477600096Q17.5441,3.7590805477600098,18.8931,5.10762754776001Q20.2421,6.45617754776001,20.9825,8.20544754776001Q21.7493,10.01707754776001,21.75,11.99973754776001Q21.7507,13.98330754776001,20.9845,15.79620754776001Q20.2446,17.54660754776001,18.8955,18.89620754776001Q17.546300000000002,20.24580754776001,15.7962,20.98620754776001Q13.9836,21.75310754776001,12,21.75310754776001Q10.0164,21.75310754776001,8.20381,20.98620754776001Q6.45366,20.24580754776001,5.10452,18.89620754776001Q3.755379,17.54660754776001,3.0155427,15.79620754776001Q2.249316,13.98330754776001,2.250002,11.99973754776001Q2.250685,10.01707754776001,3.0174797,8.20544754776001Q3.757887,6.45616754776001,5.1068999999999996,5.10762754776001Q6.455909999999999,3.7590805477600098,8.20544,3.0192777477600097Q10.01734,2.2531075477600098,12,2.2531075477600098L12,2.2531075477600098ZM12,3.7531075477600098Q8.58357,3.7531075477600098,6.16738,6.1684675477600095Q3.751179,8.58382754776001,3.750002,12.00025754776001Q3.748821,15.41830754776001,6.16536,17.83570754776001Q8.581900000000001,20.25310754776001,12,20.25310754776001Q15.4181,20.25310754776001,17.834600000000002,17.83570754776001Q20.2512,15.41830754776001,20.25,12.00025754776001Q20.2488,8.58382754776001,17.8326,6.1684675477600095Q15.4164,3.7531075477600098,12,3.7531075477600098L12,3.7531075477600098ZM9.75,11.99999754776001Q9.75,12.07386754776001,9.73559,12.14631754776001Q9.72118,12.21876754776001,9.692910000000001,12.287007547760009Q9.66464,12.35525754776001,9.6236,12.41667754776001Q9.58256,12.47809754776001,9.53033,12.53032754776001Q9.478100000000001,12.582567547760009,9.41668,12.62359754776001Q9.355260000000001,12.66463754776001,9.28701,12.69290754776001Q9.21877,12.72117754776001,9.14632,12.73558754776001Q9.07387,12.74999754776001,9,12.74999754776001Q8.92613,12.74999754776001,8.85368,12.73558754776001Q8.78123,12.72117754776001,8.71299,12.69290754776001Q8.644739999999999,12.66463754776001,8.58332,12.62359754776001Q8.521899999999999,12.582567547760009,8.46967,12.53032754776001Q8.41744,12.47809754776001,8.3764,12.41667754776001Q8.33536,12.35525754776001,8.307089999999999,12.287007547760009Q8.27882,12.21876754776001,8.26441,12.14631754776001Q8.25,12.07386754776001,8.25,11.99999754776001Q8.25,11.926127547760009,8.26441,11.85368754776001Q8.27882,11.78122754776001,8.307089999999999,11.71298754776001Q8.33536,11.644737547760009,8.3764,11.583317547760009Q8.41744,11.52190754776001,8.46967,11.46966754776001Q8.521899999999999,11.41743754776001,8.58332,11.37639754776001Q8.644739999999999,11.33535754776001,8.71299,11.307087547760009Q8.78123,11.27881754776001,8.85368,11.26440754776001Q8.92613,11.24999754776001,9,11.24999754776001Q9.07387,11.24999754776001,9.14632,11.26440754776001Q9.21877,11.27881754776001,9.28701,11.307087547760009Q9.355260000000001,11.33535754776001,9.41668,11.37639754776001Q9.478100000000001,11.41743754776001,9.53033,11.46966754776001Q9.58256,11.52190754776001,9.6236,11.583317547760009Q9.66464,11.644737547760009,9.692910000000001,11.71298754776001Q9.72118,11.78122754776001,9.73559,11.85368754776001Q9.75,11.926127547760009,9.75,11.99999754776001ZM15.75,11.99999754776001Q15.75,12.07386754776001,15.7356,12.14631754776001Q15.7212,12.21876754776001,15.6929,12.287007547760009Q15.6646,12.35525754776001,15.6236,12.41667754776001Q15.5826,12.47809754776001,15.5303,12.53032754776001Q15.4781,12.582567547760009,15.4167,12.62359754776001Q15.3553,12.66463754776001,15.287,12.69290754776001Q15.2188,12.72117754776001,15.1463,12.73558754776001Q15.0739,12.74999754776001,15,12.74999754776001Q14.9261,12.74999754776001,14.8537,12.73558754776001Q14.7812,12.72117754776001,14.713,12.69290754776001Q14.6447,12.66463754776001,14.5833,12.62359754776001Q14.5219,12.582567547760009,14.4697,12.53032754776001Q14.4174,12.47809754776001,14.3764,12.41667754776001Q14.3354,12.35525754776001,14.3071,12.287007547760009Q14.2788,12.21876754776001,14.2644,12.14631754776001Q14.25,12.07386754776001,14.25,11.99999754776001Q14.25,11.926127547760009,14.2644,11.85368754776001Q14.2788,11.78122754776001,14.3071,11.71298754776001Q14.3354,11.644737547760009,14.3764,11.583317547760009Q14.4174,11.52190754776001,14.4697,11.46966754776001Q14.5219,11.41743754776001,14.5833,11.37639754776001Q14.6447,11.33535754776001,14.713,11.307087547760009Q14.7812,11.27881754776001,14.8537,11.26440754776001Q14.9261,11.24999754776001,15,11.24999754776001Q15.0739,11.24999754776001,15.1463,11.26440754776001Q15.2188,11.27881754776001,15.287,11.307087547760009Q15.3553,11.33535754776001,15.4167,11.37639754776001Q15.4781,11.41743754776001,15.5303,11.46966754776001Q15.5826,11.52190754776001,15.6236,11.583317547760009Q15.6646,11.644737547760009,15.6929,11.71298754776001Q15.7212,11.78122754776001,15.7356,11.85368754776001Q15.75,11.926127547760009,15.75,11.99999754776001ZM12.75,15.00000754776001Q12.75,15.07390754776001,12.73559,15.14630754776001Q12.72118,15.21880754776001,12.69291,15.287007547760009Q12.66464,15.35520754776001,12.6236,15.41670754776001Q12.58256,15.47810754776001,12.53033,15.53030754776001Q12.4781,15.58260754776001,12.41668,15.62360754776001Q12.35526,15.66460754776001,12.28701,15.69290754776001Q12.21877,15.72120754776001,12.14632,15.73560754776001Q12.07387,15.75000754776001,12,15.75000754776001Q11.92613,15.75000754776001,11.85368,15.73560754776001Q11.78123,15.72120754776001,11.71299,15.69290754776001Q11.64474,15.66460754776001,11.58332,15.62360754776001Q11.5219,15.58260754776001,11.46967,15.53030754776001Q11.41744,15.47810754776001,11.3764,15.41670754776001Q11.33536,15.35520754776001,11.30709,15.287007547760009Q11.27882,15.21880754776001,11.26441,15.14630754776001Q11.25,15.07390754776001,11.25,15.00000754776001Q11.25,14.92610754776001,11.26441,14.85370754776001Q11.27882,14.78120754776001,11.30709,14.713007547760009Q11.33536,14.64470754776001,11.3764,14.58330754776001Q11.41744,14.52190754776001,11.46967,14.46970754776001Q11.5219,14.41740754776001,11.58332,14.37640754776001Q11.64474,14.33530754776001,11.71299,14.30710754776001Q11.78123,14.27880754776001,11.85368,14.26440754776001Q11.92613,14.25000754776001,12,14.25000754776001Q12.07387,14.25000754776001,12.14632,14.26440754776001Q12.21877,14.27880754776001,12.28701,14.30710754776001Q12.35526,14.33530754776001,12.41668,14.37640754776001Q12.4781,14.41740754776001,12.53033,14.46970754776001Q12.58256,14.52190754776001,12.6236,14.58330754776001Q12.66464,14.64470754776001,12.69291,14.713007547760009Q12.72118,14.78120754776001,12.73559,14.85370754776001Q12.75,14.92610754776001,12.75,15.00000754776001ZM12.75,8.99999754776001Q12.75,9.07386754776001,12.73559,9.14631754776001Q12.72118,9.21876754776001,12.69291,9.287007547760009Q12.66464,9.35525754776001,12.6236,9.41667754776001Q12.58256,9.47809754776001,12.53033,9.53032754776001Q12.4781,9.58255754776001,12.41668,9.62359754776001Q12.35526,9.664637547760009,12.28701,9.69290754776001Q12.21877,9.72117754776001,12.14632,9.735587547760009Q12.07387,9.74999754776001,12,9.74999754776001Q11.92613,9.74999754776001,11.85368,9.735587547760009Q11.78123,9.72117754776001,11.71299,9.69290754776001Q11.64474,9.664637547760009,11.58332,9.62359754776001Q11.5219,9.58255754776001,11.46967,9.53032754776001Q11.41744,9.47809754776001,11.3764,9.41667754776001Q11.33536,9.35525754776001,11.30709,9.287007547760009Q11.27882,9.21876754776001,11.26441,9.14631754776001Q11.25,9.07386754776001,11.25,8.99999754776001Q11.25,8.92612754776001,11.26441,8.853677547760011Q11.27882,8.781227547760011,11.30709,8.71298754776001Q11.33536,8.644737547760009,11.3764,8.58331754776001Q11.41744,8.521897547760009,11.46967,8.469667547760011Q11.5219,8.41743754776001,11.58332,8.37639754776001Q11.64474,8.33535754776001,11.71299,8.307087547760009Q11.78123,8.27881754776001,11.85368,8.26440754776001Q11.92613,8.24999754776001,12,8.24999754776001Q12.07387,8.24999754776001,12.14632,8.26440754776001Q12.21877,8.27881754776001,12.28701,8.307087547760009Q12.35526,8.33535754776001,12.41668,8.37639754776001Q12.4781,8.41743754776001,12.53033,8.469667547760011Q12.58256,8.521897547760009,12.6236,8.58331754776001Q12.66464,8.644737547760009,12.69291,8.71298754776001Q12.72118,8.781227547760011,12.73559,8.853677547760011Q12.75,8.92612754776001,12.75,8.99999754776001Z" fill="#000000" fill-opacity="1"/></g></g></svg>