<svg xmlns="http://www.w3.org/2000/svg" xmlns:xlink="http://www.w3.org/1999/xlink" fill="none" version="1.1" width="24" height="24" viewBox="0 0 24 24"><defs><clipPath id="master_svg0_675_4111"><rect x="0" y="0" width="24" height="24" rx="0"/></clipPath></defs><g clip-path="url(#master_svg0_675_4111)"><g><path d="M12,2.25C6.615,2.25,2.25,6.615,2.25,12C2.25,17.384999999999998,6.615,21.75,12,21.75C17.384999999999998,21.75,21.75,17.384999999999998,21.75,12C21.75,6.615,17.384999999999998,2.25,12,2.25ZM10.28,9.219999999999999C9.990549999999999,8.90936,9.501190000000001,8.90073,9.20096,9.20096C8.90073,9.501190000000001,8.90936,9.990549999999999,9.219999999999999,10.28L10.94,12L9.219999999999999,13.72C8.90936,14.0094,8.90073,14.4988,9.20096,14.799C9.501190000000001,15.0993,9.990549999999999,15.0906,10.28,14.78L12,13.06L13.72,14.78C14.0095,15.0906,14.4988,15.0993,14.799,14.799C15.0993,14.4988,15.0906,14.0095,14.78,13.72L13.06,12L14.78,10.28C15.0906,9.990549999999999,15.0993,9.501190000000001,14.799,9.20097C14.4988,8.900739999999999,14.0095,8.90937,13.72,9.219999999999999L12,10.94L10.28,9.219999999999999Z" fill-rule="evenodd" fill="#000000" fill-opacity="1"/></g></g></svg>