<svg xmlns="http://www.w3.org/2000/svg" xmlns:xlink="http://www.w3.org/1999/xlink" fill="none" version="1.1" width="24" height="24" viewBox="0 0 24 24"><defs><clipPath id="master_svg0_1410_5485"><rect x="0" y="0" width="24" height="24" rx="0"/></clipPath></defs><g clip-path="url(#master_svg0_1410_5485)"><g><path d="M3.47800002986145,2.4049999531768798C3.21344402986145,2.32827905317688,2.9281220298614503,2.40275335317688,2.73481202986145,2.5989855531768797C2.5415027298614503,2.79521755317688,2.4713177298614504,3.08162555317688,2.5520000298614502,3.34499955317688L4.98399802986145,11.25000255317688L13.49998802986145,11.25000255317688C13.91418802986145,11.25000255317688,14.24998802986145,11.58578255317688,14.24998802986145,12.00000255317688C14.24998802986145,12.41420255317688,13.91418802986145,12.75000255317688,13.49998802986145,12.75000255317688L4.98399802986145,12.75000255317688L2.55200032986145,20.655002553176878C2.4713177298614504,20.91840255317688,2.5415024298614504,21.20480255317688,2.73481202986145,21.40100255317688C2.9281220298614503,21.59720255317688,3.2134450298614503,21.67170255317688,3.47800002986145,21.59500255317688C10.09296802986145,19.67130255317688,16.33088802986145,16.632302553176878,21.92298802986145,12.60900255317688C22.33938802986145,12.30974255317688,22.33938802986145,11.69026255317688,21.92298802986145,11.39100255317688C16.33098802986145,7.36765255317688,10.092978029861449,4.32865255317688,3.47800002986145,2.4049999531768798Z" fill="#000000" fill-opacity="1"/></g></g></svg>