<svg xmlns="http://www.w3.org/2000/svg" xmlns:xlink="http://www.w3.org/1999/xlink" fill="none" version="1.1" width="24" height="24" viewBox="0 0 24 24"><defs><clipPath id="master_svg0_1568_8946"><rect x="0" y="0" width="24" height="24" rx="0"/></clipPath></defs><g clip-path="url(#master_svg0_1568_8946)"><g><path d="M12.75,9.375L12.75,4.875Q12.75,4.098591,13.2993,3.549295Q13.8486,3,14.625,3L19.125,3Q19.9014,3,20.4507,3.549295Q21,4.098588,21,4.875L21,9.375Q21,10.15141,20.4507,10.70071Q19.9014,11.25,19.125,11.25L14.625,11.25Q13.8484,11.25,13.29918,10.70083Q12.75,10.15165,12.75,9.375ZM14.25,9.375Q14.25,9.75,14.625,9.75L19.125,9.75Q19.5,9.75,19.5,9.375L19.5,4.875Q19.5,4.5,19.125,4.5L14.625,4.5Q14.25,4.5,14.25,4.875L14.25,9.375ZM3,19.125L3,14.625Q3,13.8486,3.549295,13.2993Q4.098591,12.75,4.875,12.75L9.375,12.75Q10.15141,12.75,10.70071,13.2993Q11.25,13.8486,11.25,14.625L11.25,19.125Q11.25,19.9014,10.70071,20.4507Q10.15141,21,9.375,21L4.875,21Q4.098348,21,3.549175,20.4508Q3,19.9017,3,19.125ZM4.5,19.125Q4.5,19.5,4.875,19.5L9.375,19.5Q9.75,19.5,9.75,19.125L9.75,14.625Q9.75,14.25,9.375,14.25L4.875,14.25Q4.5,14.25,4.5,14.625L4.5,19.125ZM3,9.375L3,4.875Q3,4.09859,3.549295,3.549295Q4.09859,3,4.875,3L9.375,3Q10.15141,3,10.70071,3.549295Q11.25,4.09859,11.25,4.875L11.25,9.375Q11.25,10.15141,10.70071,10.70071Q10.15141,11.25,9.375,11.25L4.875,11.25Q4.09835,11.25,3.549175,10.70083Q3,10.15165,3,9.375L3,9.375ZM4.5,9.375Q4.5,9.75,4.875,9.75L9.375,9.75Q9.75,9.75,9.75,9.375L9.75,4.875Q9.75,4.5,9.375,4.5L4.875,4.5Q4.5,4.5,4.5,4.875L4.5,9.375L4.5,9.375Z" fill="#000000" fill-opacity="1"/></g><g><path d="M15.75,17.25L15.75,16.5Q15.75,16.42613,15.76441,16.35368Q15.77882,16.28123,15.80709,16.212989999999998Q15.83536,16.14474,15.8764,16.08332Q15.91744,16.021900000000002,15.96967,15.96967Q16.021900000000002,15.91744,16.08332,15.8764Q16.14474,15.83536,16.212989999999998,15.80709Q16.28123,15.77882,16.35368,15.76441Q16.42613,15.75,16.5,15.75L17.25,15.75Q17.323900000000002,15.75,17.3963,15.76441Q17.4688,15.77882,17.537,15.80709Q17.6053,15.83536,17.6667,15.8764Q17.728099999999998,15.91744,17.7803,15.96967Q17.8326,16.021900000000002,17.8736,16.08332Q17.9146,16.14474,17.9429,16.212989999999998Q17.9712,16.28123,17.985599999999998,16.35368Q18,16.42613,18,16.5L18,17.25Q18,17.323900000000002,17.985599999999998,17.3963Q17.9712,17.4688,17.9429,17.537Q17.9146,17.6053,17.8736,17.6667Q17.8326,17.728099999999998,17.7803,17.7803Q17.728099999999998,17.8326,17.6667,17.8736Q17.6053,17.9146,17.537,17.9429Q17.4688,17.9712,17.3963,17.985599999999998Q17.323900000000002,18,17.25,18L16.5,18Q16.42613,18,16.35368,17.985599999999998Q16.28123,17.9712,16.212989999999998,17.9429Q16.14474,17.9146,16.08332,17.8736Q16.021900000000002,17.8326,15.96967,17.7803Q15.91744,17.728099999999998,15.8764,17.6667Q15.83536,17.6053,15.80709,17.537Q15.77882,17.4688,15.76441,17.3963Q15.75,17.323900000000002,15.75,17.25ZM17.25,17.25L16.5,17.25L16.5,16.5L17.25,16.5L17.25,17.25L16.5,17.25L16.5,16.5L17.25,16.5L17.25,17.25L16.5,17.25L16.5,16.5L17.25,16.5L17.25,17.25ZM18.75,20.25L18.75,19.5Q18.75,19.426099999999998,18.764400000000002,19.3537Q18.7788,19.2812,18.8071,19.213Q18.8354,19.1447,18.8764,19.0833Q18.9174,19.021900000000002,18.9697,18.9697Q19.021900000000002,18.9174,19.0833,18.8764Q19.1447,18.8354,19.213,18.8071Q19.2812,18.7788,19.3537,18.764400000000002Q19.426099999999998,18.75,19.5,18.75L20.25,18.75Q20.323900000000002,18.75,20.3963,18.764400000000002Q20.4688,18.7788,20.537,18.8071Q20.6053,18.8354,20.6667,18.8764Q20.728099999999998,18.9174,20.7803,18.9697Q20.8326,19.021900000000002,20.8736,19.0833Q20.9146,19.1447,20.9429,19.213Q20.9712,19.2812,20.985599999999998,19.3537Q21,19.426099999999998,21,19.5L21,20.25Q21,20.323900000000002,20.985599999999998,20.3963Q20.9712,20.4688,20.9429,20.537Q20.9146,20.6053,20.8736,20.6667Q20.8326,20.728099999999998,20.7803,20.7803Q20.728099999999998,20.8326,20.6667,20.8736Q20.6053,20.9146,20.537,20.9429Q20.4688,20.9712,20.3963,20.985599999999998Q20.323900000000002,21,20.25,21L19.5,21Q19.426099999999998,21,19.3537,20.985599999999998Q19.2812,20.9712,19.213,20.9429Q19.1447,20.9146,19.0833,20.8736Q19.021900000000002,20.8326,18.9697,20.7803Q18.9174,20.728099999999998,18.8764,20.6667Q18.8354,20.6053,18.8071,20.537Q18.7788,20.4688,18.764400000000002,20.3963Q18.75,20.323900000000002,18.75,20.25ZM20.25,20.25L19.5,20.25L19.5,19.5L20.25,19.5L20.25,20.25L19.5,20.25L19.5,19.5L20.25,19.5L20.25,20.25L19.5,20.25L19.5,19.5L20.25,19.5L20.25,20.25ZM18.75,14.25L18.75,13.5Q18.75,13.42613,18.764400000000002,13.35368Q18.7788,13.28123,18.8071,13.21299Q18.8354,13.144739999999999,18.8764,13.08332Q18.9174,13.021899999999999,18.9697,12.96967Q19.021900000000002,12.91744,19.0833,12.8764Q19.1447,12.83536,19.213,12.807089999999999Q19.2812,12.77882,19.3537,12.76441Q19.426099999999998,12.75,19.5,12.75L20.25,12.75Q20.323900000000002,12.75,20.3963,12.76441Q20.4688,12.77882,20.537,12.807089999999999Q20.6053,12.83536,20.6667,12.8764Q20.728099999999998,12.91744,20.7803,12.96967Q20.8326,13.021899999999999,20.8736,13.08332Q20.9146,13.144739999999999,20.9429,13.21299Q20.9712,13.28123,20.985599999999998,13.35368Q21,13.42613,21,13.5L21,14.25Q21,14.32387,20.985599999999998,14.39632Q20.9712,14.46877,20.9429,14.53701Q20.9146,14.605260000000001,20.8736,14.66668Q20.8326,14.728100000000001,20.7803,14.78033Q20.728099999999998,14.83256,20.6667,14.8736Q20.6053,14.91464,20.537,14.94291Q20.4688,14.97118,20.3963,14.98559Q20.323900000000002,15,20.25,15L19.5,15Q19.426099999999998,15,19.3537,14.98559Q19.2812,14.97118,19.213,14.94291Q19.1447,14.91464,19.0833,14.8736Q19.021900000000002,14.83256,18.9697,14.78033Q18.9174,14.728100000000001,18.8764,14.66668Q18.8354,14.605260000000001,18.8071,14.53701Q18.7788,14.46877,18.764400000000002,14.39632Q18.75,14.32387,18.75,14.25ZM20.25,14.25L19.5,14.25L19.5,13.5L20.25,13.5L20.25,14.25L19.5,14.25L19.5,13.5L20.25,13.5L20.25,14.25L19.5,14.25L19.5,13.5L20.25,13.5L20.25,14.25ZM12.75,20.25L12.75,19.5Q12.75,19.426099999999998,12.76441,19.3537Q12.77882,19.2812,12.807089999999999,19.213Q12.83536,19.1447,12.8764,19.0833Q12.91744,19.021900000000002,12.96967,18.9697Q13.021899999999999,18.9174,13.08332,18.8764Q13.144739999999999,18.8354,13.21299,18.8071Q13.28123,18.7788,13.35368,18.764400000000002Q13.42613,18.75,13.5,18.75L14.25,18.75Q14.32387,18.75,14.39632,18.764400000000002Q14.46877,18.7788,14.53701,18.8071Q14.605260000000001,18.8354,14.66668,18.8764Q14.728100000000001,18.9174,14.78033,18.9697Q14.83256,19.021900000000002,14.8736,19.0833Q14.91464,19.1447,14.94291,19.213Q14.97118,19.2812,14.98559,19.3537Q15,19.426099999999998,15,19.5L15,20.25Q15,20.323900000000002,14.98559,20.3963Q14.97118,20.4688,14.94291,20.537Q14.91464,20.6053,14.8736,20.6667Q14.83256,20.728099999999998,14.78033,20.7803Q14.728100000000001,20.8326,14.66668,20.8736Q14.605260000000001,20.9146,14.53701,20.9429Q14.46877,20.9712,14.39632,20.985599999999998Q14.32387,21,14.25,21L13.5,21Q13.42613,21,13.35368,20.985599999999998Q13.28123,20.9712,13.21299,20.9429Q13.144739999999999,20.9146,13.08332,20.8736Q13.021899999999999,20.8326,12.96967,20.7803Q12.91744,20.728099999999998,12.8764,20.6667Q12.83536,20.6053,12.807089999999999,20.537Q12.77882,20.4688,12.76441,20.3963Q12.75,20.323900000000002,12.75,20.25ZM14.25,20.25L13.5,20.25L13.5,19.5L14.25,19.5L14.25,20.25L13.5,20.25L13.5,19.5L14.25,19.5L14.25,20.25L13.5,20.25L13.5,19.5L14.25,19.5L14.25,20.25ZM12.75,14.25L12.75,13.5Q12.75,13.42613,12.76441,13.35368Q12.77882,13.28123,12.807089999999999,13.21299Q12.83536,13.144739999999999,12.8764,13.08332Q12.91744,13.021899999999999,12.96967,12.96967Q13.021899999999999,12.91744,13.08332,12.8764Q13.144739999999999,12.83536,13.21299,12.807089999999999Q13.28123,12.77882,13.35368,12.76441Q13.42613,12.75,13.5,12.75L14.25,12.75Q14.32387,12.75,14.39632,12.76441Q14.46877,12.77882,14.53701,12.807089999999999Q14.605260000000001,12.83536,14.66668,12.8764Q14.728100000000001,12.91744,14.78033,12.96967Q14.83256,13.021899999999999,14.8736,13.08332Q14.91464,13.144739999999999,14.94291,13.21299Q14.97118,13.28123,14.98559,13.35368Q15,13.42613,15,13.5L15,14.25Q15,14.32387,14.98559,14.39632Q14.97118,14.46877,14.94291,14.53701Q14.91464,14.605260000000001,14.8736,14.66668Q14.83256,14.728100000000001,14.78033,14.78033Q14.728100000000001,14.83256,14.66668,14.8736Q14.605260000000001,14.91464,14.53701,14.94291Q14.46877,14.97118,14.39632,14.98559Q14.32387,15,14.25,15L13.5,15Q13.42613,15,13.35368,14.98559Q13.28123,14.97118,13.21299,14.94291Q13.144739999999999,14.91464,13.08332,14.8736Q13.021899999999999,14.83256,12.96967,14.78033Q12.91744,14.728100000000001,12.8764,14.66668Q12.83536,14.605260000000001,12.807089999999999,14.53701Q12.77882,14.46877,12.76441,14.39632Q12.75,14.32387,12.75,14.25ZM14.25,14.25L13.5,14.25L13.5,13.5L14.25,13.5L14.25,14.25L13.5,14.25L13.5,13.5L14.25,13.5L14.25,14.25L13.5,14.25L13.5,13.5L14.25,13.5L14.25,14.25ZM15.75,7.5L15.75,6.75Q15.75,6.6761315,15.76441,6.603682Q15.77882,6.531233,15.80709,6.462987Q15.83536,6.394742,15.8764,6.333322Q15.91744,6.271903,15.96967,6.21967Q16.021900000000002,6.167437,16.08332,6.126398Q16.14474,6.085359,16.212989999999998,6.05709Q16.28123,6.028822,16.35368,6.014411Q16.42613,6,16.5,6L17.25,6Q17.323900000000002,6,17.3963,6.014411Q17.4688,6.028822,17.537,6.05709Q17.6053,6.085359,17.6667,6.126398Q17.728099999999998,6.167437,17.7803,6.21967Q17.8326,6.271903,17.8736,6.333322Q17.9146,6.394742,17.9429,6.462987Q17.9712,6.531233,17.985599999999998,6.603682Q18,6.6761315,18,6.75L18,7.5Q18,7.573869,17.985599999999998,7.646318Q17.9712,7.718767,17.9429,7.78701Q17.9146,7.8552599999999995,17.8736,7.9166799999999995Q17.8326,7.9780999999999995,17.7803,8.03033Q17.728099999999998,8.08256,17.6667,8.1236Q17.6053,8.16464,17.537,8.19291Q17.4688,8.22118,17.3963,8.23559Q17.323900000000002,8.25,17.25,8.25L16.5,8.25Q16.42613,8.25,16.35368,8.23559Q16.28123,8.22118,16.212989999999998,8.19291Q16.14474,8.16464,16.08332,8.1236Q16.021900000000002,8.08256,15.96967,8.03033Q15.91744,7.9780999999999995,15.8764,7.9166799999999995Q15.83536,7.8552599999999995,15.80709,7.78701Q15.77882,7.718767,15.76441,7.646318Q15.75,7.573869,15.75,7.5ZM17.25,7.5L16.5,7.5L16.5,6.75L17.25,6.75L17.25,7.5L16.5,7.5L16.5,6.75L17.25,6.75L17.25,7.5L16.5,7.5L16.5,6.75L17.25,6.75L17.25,7.5ZM6,17.25L6,16.5Q6,16.42613,6.014411,16.35368Q6.028822,16.28123,6.05709,16.212989999999998Q6.085359,16.14474,6.126398,16.08332Q6.167437,16.021900000000002,6.21967,15.96967Q6.271903,15.91744,6.333322,15.8764Q6.394742,15.83536,6.462987,15.80709Q6.531233,15.77882,6.603682,15.76441Q6.6761315,15.75,6.75,15.75L7.5,15.75Q7.573869,15.75,7.646318,15.76441Q7.718767,15.77882,7.78701,15.80709Q7.8552599999999995,15.83536,7.9166799999999995,15.8764Q7.9780999999999995,15.91744,8.03033,15.96967Q8.08256,16.021900000000002,8.1236,16.08332Q8.16464,16.14474,8.19291,16.212989999999998Q8.22118,16.28123,8.23559,16.35368Q8.25,16.42613,8.25,16.5L8.25,17.25Q8.25,17.323900000000002,8.23559,17.3963Q8.22118,17.4688,8.19291,17.537Q8.16464,17.6053,8.1236,17.6667Q8.08256,17.728099999999998,8.03033,17.7803Q7.9780999999999995,17.8326,7.9166799999999995,17.8736Q7.8552599999999995,17.9146,7.78701,17.9429Q7.718767,17.9712,7.646318,17.985599999999998Q7.573869,18,7.5,18L6.75,18Q6.6761315,18,6.603682,17.985599999999998Q6.531233,17.9712,6.462987,17.9429Q6.394742,17.9146,6.333322,17.8736Q6.271903,17.8326,6.21967,17.7803Q6.167437,17.728099999999998,6.126398,17.6667Q6.085359,17.6053,6.05709,17.537Q6.028822,17.4688,6.014411,17.3963Q6,17.323900000000002,6,17.25ZM7.5,17.25L6.75,17.25L6.75,16.5L7.5,16.5L7.5,17.25L6.75,17.25L6.75,16.5L7.5,16.5L7.5,17.25L6.75,17.25L6.75,16.5L7.5,16.5L7.5,17.25ZM6,7.5L6,6.75Q6,6.6761315,6.014411,6.603682Q6.028822,6.531233,6.05709,6.462987Q6.085359,6.394742,6.126398,6.333322Q6.167437,6.271903,6.21967,6.21967Q6.271903,6.167437,6.333322,6.126398Q6.394742,6.085359,6.462987,6.05709Q6.531233,6.028822,6.603682,6.014411Q6.6761315,6,6.75,6L7.5,6Q7.573869,6,7.646318,6.014411Q7.718767,6.028822,7.78701,6.05709Q7.8552599999999995,6.085359,7.9166799999999995,6.126398Q7.9780999999999995,6.167437,8.03033,6.21967Q8.08256,6.271903,8.1236,6.333322Q8.16464,6.394742,8.19291,6.462987Q8.22118,6.531233,8.23559,6.603682Q8.25,6.6761315,8.25,6.75L8.25,7.5Q8.25,7.573869,8.23559,7.646318Q8.22118,7.718767,8.19291,7.78701Q8.16464,7.8552599999999995,8.1236,7.9166799999999995Q8.08256,7.9780999999999995,8.03033,8.03033Q7.9780999999999995,8.08256,7.9166799999999995,8.1236Q7.8552599999999995,8.16464,7.78701,8.19291Q7.718767,8.22118,7.646318,8.23559Q7.573869,8.25,7.5,8.25L6.75,8.25Q6.6761315,8.25,6.603682,8.23559Q6.531233,8.22118,6.462987,8.19291Q6.394742,8.16464,6.333322,8.1236Q6.271903,8.08256,6.21967,8.03033Q6.167437,7.9780999999999995,6.126398,7.9166799999999995Q6.085359,7.8552599999999995,6.05709,7.78701Q6.028822,7.718767,6.014411,7.646318Q6,7.573869,6,7.5ZM7.5,7.5L6.75,7.5L6.75,6.75L7.5,6.75L7.5,7.5L6.75,7.5L6.75,6.75L7.5,6.75L7.5,7.5L6.75,7.5L6.75,6.75L7.5,6.75L7.5,7.5Z" fill="#000000" fill-opacity="1"/></g></g></svg>