<svg xmlns="http://www.w3.org/2000/svg" xmlns:xlink="http://www.w3.org/1999/xlink" fill="none" version="1.1" width="24" height="24" viewBox="0 0 24 24"><defs><clipPath id="master_svg0_572_6382"><rect x="0" y="0" width="24" height="24" rx="0"/></clipPath></defs><g clip-path="url(#master_svg0_572_6382)"><g><path d="M21.2197,16.2803L18.3107,13.37133Q17.871299999999998,12.93198,17.25,12.93198Q16.628700000000002,12.93198,16.1893,13.37133L14.7803,14.7803Q14.7281,14.8326,14.6667,14.8736Q14.6053,14.9146,14.537,14.9429Q14.4688,14.9712,14.3963,14.9856Q14.3239,15,14.25,15Q14.1761,15,14.1037,14.9856Q14.0312,14.9712,13.963,14.9429Q13.8947,14.9146,13.8333,14.8736Q13.7719,14.8326,13.7197,14.7803Q13.6674,14.7281,13.6264,14.6667Q13.5854,14.6053,13.5571,14.537Q13.5288,14.46877,13.5144,14.39632Q13.5,14.32387,13.5,14.25Q13.5,14.17613,13.5144,14.10368Q13.5288,14.03123,13.5571,13.96299Q13.5854,13.89474,13.6264,13.83332Q13.6674,13.7719,13.7197,13.71967L15.1287,12.31067Q16.0074,11.43198,17.25,11.43198Q18.4926,11.43198,19.3713,12.31067L22.2803,15.2197Q22.3326,15.2719,22.3736,15.3333Q22.4146,15.3947,22.4429,15.463Q22.4712,15.5312,22.4856,15.6037Q22.5,15.6761,22.5,15.75Q22.5,15.8239,22.4856,15.8963Q22.4712,15.9688,22.4429,16.037Q22.4146,16.1053,22.3736,16.1667Q22.3326,16.228099999999998,22.2803,16.2803Q22.2281,16.3326,22.1667,16.3736Q22.1053,16.4146,22.037,16.4429Q21.9688,16.4712,21.8963,16.485599999999998Q21.8239,16.5,21.75,16.5Q21.6761,16.5,21.6037,16.485599999999998Q21.5312,16.4712,21.463,16.4429Q21.3947,16.4146,21.3333,16.3736Q21.2719,16.3326,21.2197,16.2803ZM15.2197,16.2803L10.06067,11.12133Q9.62133,10.68198,9,10.68198Q8.37867,10.68198,7.93933,11.12133L2.78033,16.2803Q2.728097,16.3326,2.666678,16.3736Q2.605258,16.4146,2.537013,16.4429Q2.468767,16.4712,2.396318,16.485599999999998Q2.3238686,16.5,2.2500000349156,16.5Q2.1761315,16.5,2.103682,16.485599999999998Q2.031233,16.4712,1.962987,16.4429Q1.894742,16.4146,1.833322,16.3736Q1.771903,16.3326,1.71967,16.2803Q1.667437,16.228099999999998,1.626398,16.1667Q1.585359,16.1053,1.55709,16.037Q1.528822,15.9688,1.514411,15.8963Q1.5,15.8239,1.5,15.75Q1.5,15.6761,1.514411,15.6037Q1.528822,15.5312,1.55709,15.463Q1.585359,15.3947,1.626398,15.3333Q1.667437,15.2719,1.71967,15.2197L6.87867,10.06067Q7.75735,9.18198,9,9.18198Q10.242650000000001,9.18198,11.12133,10.06067L16.2803,15.2197Q16.3326,15.2719,16.3736,15.3333Q16.4146,15.3947,16.4429,15.463Q16.4712,15.5312,16.485599999999998,15.6037Q16.5,15.6761,16.5,15.75Q16.5,15.8239,16.485599999999998,15.8963Q16.4712,15.9688,16.4429,16.037Q16.4146,16.1053,16.3736,16.1667Q16.3326,16.228099999999998,16.2803,16.2803Q16.228099999999998,16.3326,16.1667,16.3736Q16.1053,16.4146,16.037,16.4429Q15.9688,16.4712,15.8963,16.485599999999998Q15.8239,16.5,15.75,16.5Q15.6761,16.5,15.6037,16.485599999999998Q15.5312,16.4712,15.463,16.4429Q15.3947,16.4146,15.3333,16.3736Q15.2719,16.3326,15.2197,16.2803ZM14.25,7.125Q14.716,7.125,15.0455,7.4544999999999995Q15.375,7.78401,15.375,8.25Q15.375,8.71599,15.0455,9.0455Q14.716,9.375,14.25,9.375Q13.784,9.375,13.4545,9.0455Q13.125,8.71599,13.125,8.25Q13.125,7.78401,13.4545,7.4544999999999995Q13.784,7.125,14.25,7.125ZM14.25,8.625Q14.625,8.625,14.625,8.25Q14.625,7.875,14.25,7.875Q13.875,7.875,13.875,8.25Q13.875,8.625,14.25,8.625ZM13.5,8.258L13.5,8.25Q13.5,8.17613,13.5144,8.10368Q13.5288,8.03123,13.5571,7.96299Q13.5854,7.8947400000000005,13.6264,7.8333200000000005Q13.6674,7.7719000000000005,13.7197,7.71967Q13.7719,7.66744,13.8333,7.6264Q13.8947,7.58536,13.963,7.5570900000000005Q14.0312,7.52882,14.1037,7.51441Q14.1761,7.5,14.25,7.5L14.258,7.5Q14.3319,7.5,14.4043,7.51441Q14.4768,7.52882,14.545,7.5570900000000005Q14.6133,7.58536,14.6747,7.6264Q14.7361,7.66744,14.7883,7.71967Q14.8406,7.7719000000000005,14.8816,7.8333200000000005Q14.9226,7.8947400000000005,14.9509,7.96299Q14.9792,8.03123,14.9936,8.10368Q15.008,8.17613,15.008,8.25L15.008,8.258Q15.008,8.33187,14.9936,8.40432Q14.9792,8.47677,14.9509,8.545010000000001Q14.9226,8.61326,14.8816,8.67468Q14.8406,8.7361,14.7883,8.78833Q14.7361,8.84056,14.6747,8.881599999999999Q14.6133,8.922640000000001,14.545,8.95091Q14.4768,8.97918,14.4043,8.993590000000001Q14.3319,9.008,14.258,9.008L14.25,9.008Q14.1761,9.008,14.1037,8.993590000000001Q14.0312,8.97918,13.963,8.95091Q13.8947,8.922640000000001,13.8333,8.881599999999999Q13.7719,8.84056,13.7197,8.78833Q13.6674,8.7361,13.6264,8.67468Q13.5854,8.61326,13.5571,8.545010000000001Q13.5288,8.47677,13.5144,8.40432Q13.5,8.33187,13.5,8.258ZM15,8.258L14.25,8.258L14.25,7.508L14.258,7.508L14.258,8.258L13.508,8.258L13.508,8.25L14.258,8.25L14.258,9L14.25,9L14.25,8.25L15,8.25L15,8.258ZM3,18Q3,18.3107,3.21967,18.5303Q3.43934,18.75,3.75,18.75L20.25,18.75Q20.5607,18.75,20.7803,18.5303Q21,18.3107,21,18L21,6Q21,5.68934,20.7803,5.46967Q20.5607,5.25,20.25,5.25L3.75,5.25Q3.43934,5.25,3.21967,5.46967Q3,5.68934,3,6L3,18ZM1.5,18L1.5,6Q1.5,5.068019,2.1590097,4.4090097Q2.818019,3.75,3.75,3.75L20.25,3.75Q21.182,3.75,21.841,4.4090096Q22.5,5.068019,22.5,6L22.5,18Q22.5,18.932000000000002,21.841,19.591Q21.182,20.25,20.25,20.25L3.75,20.25Q2.818021,20.25,2.1590096,19.591Q1.5,18.932000000000002,1.5,18ZM22.5,15.75Q22.5,15.8239,22.4856,15.8963Q22.4712,15.9688,22.4429,16.037Q22.4146,16.1053,22.3736,16.1667Q22.3326,16.228099999999998,22.2803,16.2803Q22.2281,16.3326,22.1667,16.3736Q22.1053,16.4146,22.037,16.4429Q21.9688,16.4712,21.8963,16.485599999999998Q21.8239,16.5,21.75,16.5Q21.6761,16.5,21.6037,16.485599999999998Q21.5312,16.4712,21.463,16.4429Q21.3947,16.4146,21.3333,16.3736Q21.2719,16.3326,21.2197,16.2803Q21.1674,16.228099999999998,21.1264,16.1667Q21.0854,16.1053,21.0571,16.037Q21.0288,15.9688,21.0144,15.8963Q21,15.8239,21,15.75Q21,15.6761,21.0144,15.6037Q21.0288,15.5312,21.0571,15.463Q21.0854,15.3947,21.1264,15.3333Q21.1674,15.2719,21.2197,15.2197Q21.2719,15.1674,21.3333,15.1264Q21.3947,15.0854,21.463,15.0571Q21.5312,15.0288,21.6037,15.0144Q21.6761,15,21.75,15Q21.8239,15,21.8963,15.0144Q21.9688,15.0288,22.037,15.0571Q22.1053,15.0854,22.1667,15.1264Q22.2281,15.1674,22.2803,15.2197Q22.3326,15.2719,22.3736,15.3333Q22.4146,15.3947,22.4429,15.463Q22.4712,15.5312,22.4856,15.6037Q22.5,15.6761,22.5,15.75ZM15,14.25Q15,14.32387,14.9856,14.39632Q14.9712,14.46877,14.9429,14.537Q14.9146,14.6053,14.8736,14.6667Q14.8326,14.7281,14.7803,14.7803Q14.7281,14.8326,14.6667,14.8736Q14.6053,14.9146,14.537,14.9429Q14.4688,14.9712,14.3963,14.9856Q14.3239,15,14.25,15Q14.1761,15,14.1037,14.9856Q14.0312,14.9712,13.963,14.9429Q13.8947,14.9146,13.8333,14.8736Q13.7719,14.8326,13.7197,14.7803Q13.6674,14.7281,13.6264,14.6667Q13.5854,14.6053,13.5571,14.537Q13.5288,14.46877,13.5144,14.39632Q13.5,14.32387,13.5,14.25Q13.5,14.17613,13.5144,14.10368Q13.5288,14.03123,13.5571,13.96299Q13.5854,13.89474,13.6264,13.83332Q13.6674,13.7719,13.7197,13.71967Q13.7719,13.66744,13.8333,13.6264Q13.8947,13.58536,13.963,13.55709Q14.0312,13.52882,14.1037,13.51441Q14.1761,13.5,14.25,13.5Q14.3239,13.5,14.3963,13.51441Q14.4688,13.52882,14.537,13.55709Q14.6053,13.58536,14.6667,13.6264Q14.7281,13.66744,14.7803,13.71967Q14.8326,13.7719,14.8736,13.83332Q14.9146,13.89474,14.9429,13.96299Q14.9712,14.03123,14.9856,14.10368Q15,14.17613,15,14.25ZM16.5,15.75Q16.5,15.8239,16.485599999999998,15.8963Q16.4712,15.9688,16.4429,16.037Q16.4146,16.1053,16.3736,16.1667Q16.3326,16.228099999999998,16.2803,16.2803Q16.228099999999998,16.3326,16.1667,16.3736Q16.1053,16.4146,16.037,16.4429Q15.9688,16.4712,15.8963,16.485599999999998Q15.8239,16.5,15.75,16.5Q15.6761,16.5,15.6037,16.485599999999998Q15.5312,16.4712,15.463,16.4429Q15.3947,16.4146,15.3333,16.3736Q15.2719,16.3326,15.2197,16.2803Q15.1674,16.228099999999998,15.1264,16.1667Q15.0854,16.1053,15.0571,16.037Q15.0288,15.9688,15.0144,15.8963Q15,15.8239,15,15.75Q15,15.6761,15.0144,15.6037Q15.0288,15.5312,15.0571,15.463Q15.0854,15.3947,15.1264,15.3333Q15.1674,15.2719,15.2197,15.2197Q15.2719,15.1674,15.3333,15.1264Q15.3947,15.0854,15.463,15.0571Q15.5312,15.0288,15.6037,15.0144Q15.6761,15,15.75,15Q15.8239,15,15.8963,15.0144Q15.9688,15.0288,16.037,15.0571Q16.1053,15.0854,16.1667,15.1264Q16.228099999999998,15.1674,16.2803,15.2197Q16.3326,15.2719,16.3736,15.3333Q16.4146,15.3947,16.4429,15.463Q16.4712,15.5312,16.485599999999998,15.6037Q16.5,15.6761,16.5,15.75ZM3,15.75Q3,15.8239,2.985589,15.8963Q2.971178,15.9688,2.94291,16.037Q2.914641,16.1053,2.873602,16.1667Q2.832563,16.228099999999998,2.78033,16.2803Q2.728097,16.3326,2.666678,16.3736Q2.605258,16.4146,2.537013,16.4429Q2.468767,16.4712,2.396318,16.485599999999998Q2.3238685,16.5,2.25,16.5Q2.1761315,16.5,2.103682,16.485599999999998Q2.031233,16.4712,1.962987,16.4429Q1.894742,16.4146,1.833322,16.3736Q1.771903,16.3326,1.71967,16.2803Q1.667437,16.228099999999998,1.626398,16.1667Q1.585359,16.1053,1.55709,16.037Q1.528822,15.9688,1.514411,15.8963Q1.5,15.8239,1.5,15.75Q1.5,15.6761,1.514411,15.6037Q1.528822,15.5312,1.55709,15.463Q1.585359,15.3947,1.626398,15.3333Q1.667437,15.2719,1.71967,15.2197Q1.771903,15.1674,1.833322,15.1264Q1.894742,15.0854,1.962987,15.0571Q2.031233,15.0288,2.103682,15.0144Q2.1761315,15,2.25,15Q2.3238685,15,2.396318,15.0144Q2.468767,15.0288,2.537013,15.0571Q2.605258,15.0854,2.666678,15.1264Q2.728097,15.1674,2.78033,15.2197Q2.832563,15.2719,2.873602,15.3333Q2.914641,15.3947,2.94291,15.463Q2.971178,15.5312,2.985589,15.6037Q3,15.6761,3,15.75Z" fill="#000000" fill-opacity="1"/></g></g></svg>