<svg xmlns="http://www.w3.org/2000/svg" xmlns:xlink="http://www.w3.org/1999/xlink" fill="none" version="1.1" width="24" height="24" viewBox="0 0 24 24"><defs><clipPath id="master_svg0_497_0969"><rect x="0" y="0" width="24" height="24" rx="0"/></clipPath></defs><g clip-path="url(#master_svg0_497_0969)"><g><path d="M7.572929007034301,15.9259Q6.756149007034302,17.203699999999998,6.749989007034301,18.722Q6.748599007034302,19.0287,6.782419007034302,19.333199999999998L6.036999007034302,19.416L6.410379007034302,18.7655Q8.996389007034303,20.25,11.999999007034301,20.25Q14.993899007034301,20.2548,17.5897990070343,18.7655L17.962999007034302,19.416L17.2177990070343,19.3309Q17.2499990070343,19.0492,17.2499990070343,18.75L17.9999990070343,18.75L17.250399007034304,18.7742L17.249399007034302,18.7432Q17.2469990070343,18.6693,17.2590990070343,18.5965Q17.2710990070343,18.523600000000002,17.2971990070343,18.4545Q17.3232990070343,18.3853,17.362299007034302,18.3226Q17.401299007034304,18.259900000000002,17.4518990070343,18.206Q17.502399007034303,18.1521,17.5623990070343,18.109099999999998Q17.6224990070343,18.0661,17.689799007034303,18.0357Q17.757099007034302,18.005200000000002,17.8290990070343,17.988500000000002Q17.9009990070343,17.9718,17.9747990070343,17.9694Q18.0486990070343,17.967,18.121499007034302,17.979100000000003Q18.1943990070343,17.9911,18.2634990070343,18.017200000000003Q18.3326990070343,18.043300000000002,18.395399007034303,18.0823Q18.458099007034303,18.121299999999998,18.5119990070343,18.1719Q18.5658990070343,18.2224,18.608799007034303,18.282400000000003Q18.651799007034302,18.3425,18.682299007034302,18.4098Q18.712799007034302,18.4771,18.729499007034303,18.5491Q18.746199007034303,18.621000000000002,18.7485990070343,18.6948L18.749599007034302,18.7258Q18.7499990070343,18.7379,18.7499990070343,18.75Q18.7499990070343,19.1346,18.708199007034302,19.5011Q18.6981990070343,19.5887,18.6680990070343,19.671599999999998Q18.638099007034302,19.7545,18.589599007034302,19.8281Q18.5411990070343,19.9018,18.4768990070343,19.9622Q18.412699007034302,20.0227,18.336199007034303,20.0665Q15.392599007034303,21.7554,11.999999007034301,21.75Q8.596459007034301,21.75,5.663619007034302,20.0665Q5.586919007034302,20.0224,5.522559007034301,19.9618Q5.458199007034302,19.9011,5.409719007034302,19.8271Q5.3612390070343015,19.7532,5.331299007034302,19.6699Q5.301349007034302,19.5867,5.291589007034302,19.4988Q5.248219007034302,19.1084,5.250009007034302,18.716Q5.257919007034301,16.7625,6.309069007034302,15.1181Q6.348859007034302,15.0558,6.4000190070343015,15.0025Q6.451179007034302,14.9493,6.511759007034302,14.907Q6.572329007034302,14.8647,6.639989007034302,14.8351Q6.707649007034302,14.8054,6.779789007034302,14.7895Q6.851929007034302,14.7737,6.925789007034302,14.7722Q6.999639007034302,14.7707,7.072369007034302,14.7836Q7.145089007034302,14.7965,7.213899007034302,14.8234Q7.282699007034302,14.8503,7.344939007034302,14.8901Q7.407179007034301,14.9299,7.460459007034301,14.981Q7.513749007034302,15.0322,7.556019007034302,15.0928Q7.598299007034302,15.1533,7.627949007034302,15.221Q7.657589007034302,15.2886,7.673469007034302,15.3608Q7.689349007034302,15.4329,7.690839007034302,15.5068Q7.692339007034302,15.5806,7.679409007034302,15.6534Q7.666469007034301,15.7261,7.639589007034302,15.7949Q7.612709007034302,15.8637,7.572929007034301,15.9259ZM6.519309007034302,16.1415Q5.982279007034302,15.7751,5.332599007034302,15.7516Q4.682909007034302,15.7281,4.1208090070343015,16.0548Q3.5587090070343015,16.3814,3.2574290070343017,16.9575Q2.9561530070343016,17.5335,3.008559007034302,18.1815L2.260999677034302,18.242L2.5098490070343016,17.5345Q4.176949007034302,18.1208,5.936649007034301,17.9717Q6.010259007034302,17.965400000000002,6.083659007034302,17.9737Q6.157069007034302,17.9819,6.227459007034302,18.0043Q6.297849007034301,18.026699999999998,6.362519007034302,18.0624Q6.427179007034302,18.098100000000002,6.483639007034302,18.1458Q6.540099007034302,18.1934,6.586179007034302,18.2511Q6.6322590070343015,18.3089,6.666189007034302,18.374499999999998Q6.700119007034302,18.4401,6.720599007034302,18.5111Q6.741079007034302,18.582,6.747319007034302,18.6556Q6.753559007034302,18.729300000000002,6.745319007034301,18.8027Q6.737079007034302,18.8761,6.714679007034301,18.9465Q6.692269007034302,19.0168,6.656569007034301,19.0815Q6.620859007034301,19.1462,6.573229007034302,19.2026Q6.525599007034302,19.2591,6.467859007034302,19.3052Q6.4101290070343016,19.351300000000002,6.344519007034302,19.385199999999998Q6.278899007034302,19.4191,6.207929007034302,19.4396Q6.136959007034301,19.4601,6.063349007034302,19.4663Q3.982909007034302,19.642699999999998,2.0121500070343017,18.9495Q1.9095680070343017,18.9134,1.8214580070343018,18.8497Q1.7333470070343018,18.786,1.6669650070343018,18.6998Q1.6005820070343018,18.6137,1.5613940070343018,18.5123Q1.5222060070343018,18.410800000000002,1.5134400070343017,18.302500000000002Q1.4260970070343018,17.2225,1.9282250070343019,16.2623Q2.430353007034302,15.3022,3.367189007034302,14.7578Q4.304029007034302,14.2134,5.386839007034302,14.2526Q6.469649007034302,14.2918,7.364689007034301,14.9025Q7.4257090070343015,14.9441,7.4774390070343015,14.9968Q7.529159007034302,15.0496,7.569599007034301,15.1114Q7.610049007034302,15.1732,7.637649007034302,15.2417Q7.665259007034302,15.3102,7.6789690070343015,15.3828Q7.692679007034302,15.4554,7.691969007034301,15.5293Q7.691249007034302,15.6031,7.676139007034302,15.6754Q7.661029007034302,15.7477,7.632099007034301,15.8157Q7.603169007034301,15.8837,7.561539007034302,15.9447Q7.519909007034301,16.005699999999997,7.467179007034302,16.0574Q7.414439007034302,16.1092,7.3526290070343014,16.1496Q7.2908090070343015,16.189999999999998,7.222299007034302,16.2177Q7.153779007034302,16.2453,7.081189007034301,16.259Q7.008609007034302,16.2727,6.934739007034302,16.272Q6.860879007034302,16.2712,6.788569007034302,16.2561Q6.716269007034302,16.241,6.648299007034302,16.2121Q6.580329007034302,16.1832,6.519309007034302,16.1415ZM6.309609007034302,15.1188Q7.239109007034302,13.66097,8.755279007034302,12.83004Q10.271449007034303,11.99911,12.000389007034302,12Q13.728699007034301,11.99883,15.245199007034302,12.82977Q16.761699007034302,13.66071,17.691399007034303,15.1188Q17.731099007034302,15.1811,17.757899007034304,15.2499Q17.784699007034302,15.3187,17.7975990070343,15.3915Q17.810399007034302,15.4642,17.808799007034303,15.5381Q17.8071990070343,15.6119,17.791299007034304,15.6841Q17.775299007034302,15.7562,17.7455990070343,15.8238Q17.715899007034302,15.8914,17.6734990070343,15.952Q17.631199007034304,16.0125,17.5777990070343,16.0636Q17.5244990070343,16.1147,17.4621990070343,16.154400000000003Q17.3998990070343,16.1941,17.331099007034304,16.2209Q17.2622990070343,16.247700000000002,17.1894990070343,16.2606Q17.116799007034302,16.273400000000002,17.0428990070343,16.2718Q16.969099007034302,16.270200000000003,16.8968990070343,16.2543Q16.8247990070343,16.238300000000002,16.757199007034302,16.2086Q16.689599007034303,16.1789,16.628999007034302,16.136499999999998Q16.5684990070343,16.0942,16.5173990070343,16.0408Q16.4662990070343,15.9875,16.4265990070343,15.9252Q15.703699007034302,14.7914,14.524399007034301,14.1452Q13.345199007034301,13.49909,11.999619007034301,13.5Q10.655169007034301,13.49931,9.476179007034302,14.1454Q8.297189007034302,14.7916,7.574389007034302,15.9252Q7.534679007034302,15.9875,7.483579007034302,16.0408Q7.432479007034302,16.0942,7.371949007034302,16.136499999999998Q7.3114290070343015,16.1789,7.243799007034302,16.2086Q7.1761790070343014,16.238300000000002,7.1040590070343015,16.2543Q7.031929007034302,16.270200000000003,6.958079007034302,16.2718Q6.8842290070343015,16.273400000000002,6.811489007034302,16.2606Q6.7387490070343015,16.247700000000002,6.669909007034302,16.2209Q6.6010790070343015,16.1941,6.5387890070343015,16.154400000000003Q6.476499007034302,16.1147,6.423159007034302,16.0636Q6.369819007034302,16.0125,6.327479007034301,15.952Q6.2851290070343016,15.8914,6.255399007034302,15.8238Q6.2256790070343015,15.7562,6.209719007034302,15.6841Q6.193759007034302,15.6119,6.192169007034302,15.5381Q6.190589007034301,15.4642,6.2034390070343015,15.3915Q6.216299007034301,15.3187,6.243099007034301,15.2499Q6.269889007034302,15.1811,6.309609007034302,15.1188ZM17.6907990070343,15.1179Q18.743299007034302,16.763199999999998,18.7499990070343,18.7164Q18.7501990070343,18.790300000000002,18.7360990070343,18.8628Q18.721899007034303,18.935299999999998,18.6938990070343,19.0036Q18.6658990070343,19.072,18.6249990070343,19.133499999999998Q18.5841990070343,19.1951,18.5320990070343,19.247500000000002Q18.4800990070343,19.2999,18.418799007034302,19.3412Q18.357499007034303,19.3824,18.2893990070343,19.410899999999998Q18.2211990070343,19.4394,18.148799007034302,19.4541Q18.076399007034304,19.4687,18.002599007034302,19.469Q17.928699007034304,19.4692,17.856199007034302,19.4551Q17.7836990070343,19.4409,17.7153990070343,19.4129Q17.646999007034303,19.384900000000002,17.5854990070343,19.344Q17.523899007034302,19.3032,17.471499007034303,19.2511Q17.4190990070343,19.1991,17.3777990070343,19.1378Q17.3365990070343,19.0765,17.3080990070343,19.0084Q17.2795990070343,18.9402,17.264899007034302,18.867800000000003Q17.2502990070343,18.7954,17.2499990070343,18.721600000000002Q17.244799007034302,17.2043,16.427199007034304,15.9261Q16.387399007034304,15.8639,16.3604990070343,15.7951Q16.3335990070343,15.7263,16.320599007034303,15.6536Q16.3076990070343,15.5809,16.3091990070343,15.507Q16.310599007034302,15.4332,16.3264990070343,15.361Q16.342299007034303,15.2889,16.3719990070343,15.2212Q16.4015990070343,15.1535,16.4437990070343,15.0929Q16.4860990070343,15.0324,16.5393990070343,14.9812Q16.592599007034302,14.93,16.654899007034302,14.8902Q16.7170990070343,14.8504,16.785899007034303,14.8235Q16.854699007034302,14.7966,16.927399007034303,14.7836Q17.0000990070343,14.7707,17.073999007034303,14.7721Q17.1477990070343,14.7736,17.219999007034303,14.7895Q17.292099007034302,14.8053,17.3597990070343,14.835Q17.4274990070343,14.8646,17.487999007034304,14.9068Q17.5485990070343,14.9491,17.5997990070343,15.0024Q17.6509990070343,15.0556,17.6907990070343,15.1179ZM16.6359990070343,14.9016Q17.5310990070343,14.2904,18.6141990070343,14.2509Q19.697399007034303,14.2115,20.634599007034303,14.7559Q21.5716990070343,15.3004,22.073999007034303,16.2608Q22.5761990070343,17.2213,22.488499007034303,18.3016Q22.479699007034302,18.4102,22.4403990070343,18.5118Q22.4010990070343,18.613300000000002,22.334499007034303,18.6995Q22.267899007034302,18.7857,22.1795990070343,18.8494Q22.0912990070343,18.9131,21.988399007034303,18.948999999999998Q20.0185990070343,19.6375,17.9388990070343,19.4675Q17.865299007034302,19.4615,17.794299007034304,19.441200000000002Q17.723199007034303,19.421,17.657499007034303,19.3872Q17.591799007034304,19.3535,17.5338990070343,19.3076Q17.475999007034304,19.261699999999998,17.4281990070343,19.205399999999997Q17.380399007034303,19.1491,17.3444990070343,19.0845Q17.308599007034303,19.0199,17.285999007034302,18.9496Q17.2633990070343,18.8793,17.254899007034304,18.8059Q17.246499007034302,18.7325,17.252499007034302,18.6589Q17.258499007034303,18.5853,17.2787990070343,18.5143Q17.298999007034304,18.443199999999997,17.332799007034303,18.377499999999998Q17.3664990070343,18.311799999999998,17.412399007034303,18.2539Q17.458299007034302,18.195999999999998,17.514599007034303,18.1482Q17.5708990070343,18.1004,17.6354990070343,18.064500000000002Q17.700099007034304,18.0286,17.7703990070343,18.006Q17.840699007034303,17.9834,17.914099007034302,17.974899999999998Q17.9874990070343,17.9665,18.0610990070343,17.9725Q19.823899007034303,18.116500000000002,21.4935990070343,17.533L21.7409990070343,18.241L20.993499007034302,18.1804Q21.0459990070343,17.5322,20.744699007034303,16.9559Q20.4433990070343,16.3796,19.8810990070343,16.0529Q19.3187990070343,15.7263,18.6688990070343,15.7499Q18.018999007034303,15.7736,17.481999007034304,16.1404Q17.420999007034304,16.182000000000002,17.352999007034303,16.211Q17.2849990070343,16.2399,17.212699007034303,16.2551Q17.140399007034304,16.270200000000003,17.066599007034302,16.271Q16.992699007034304,16.2717,16.920099007034302,16.258Q16.8474990070343,16.244300000000003,16.7789990070343,16.2168Q16.7104990070343,16.1892,16.6485990070343,16.1488Q16.5867990070343,16.1084,16.5340990070343,16.0567Q16.481299007034302,16.005000000000003,16.439599007034303,15.944Q16.3979990070343,15.883,16.368999007034304,15.815Q16.340099007034304,15.747,16.324899007034304,15.6747Q16.3097990070343,15.6024,16.308999007034302,15.5286Q16.3082990070343,15.4547,16.3219990070343,15.3821Q16.335599007034304,15.3095,16.363199007034304,15.241Q16.390799007034303,15.1725,16.4311990070343,15.1106Q16.4715990070343,15.0488,16.523299007034304,14.9961Q16.5749990070343,14.9433,16.6359990070343,14.9016ZM5.249999007034302,6.75078Q6.4923390070343014,6.75078,7.370959007034302,7.62909Q8.249569007034303,8.5074,8.249999007034301,9.74974Q8.250429007034302,10.99269,7.371689007034302,11.87173Q6.492939007034302,12.75078,5.249999007034302,12.75078Q4.007059007034302,12.75078,3.1283130070343015,11.87173Q2.249570607034302,10.99268,2.2500000570343017,9.74974Q2.2504289750343016,8.5074,3.129046007034302,7.62909Q4.0076590070343014,6.75078,5.249999007034302,6.75078ZM5.249999007034302,8.250779999999999Q4.628829007034302,8.250779999999999,4.189519007034302,8.68993Q3.7502190070343016,9.12909,3.749999007034302,9.75026Q3.749789007034302,10.37173,4.189159007034302,10.811250000000001Q4.628529007034302,11.250779999999999,5.249999007034302,11.250779999999999Q5.871469007034301,11.250779999999999,6.310839007034302,10.811250000000001Q6.7502190070343016,10.37173,6.749999007034302,9.75026Q6.749789007034302,9.12909,6.310479007034302,8.68993Q5.871169007034302,8.250779999999999,5.249999007034302,8.250779999999999ZM18.7499990070343,6.75155Q19.991999007034302,6.75155,20.8705990070343,7.6295Q21.749099007034303,8.50745,21.7499990070343,9.74948Q21.750899007034302,10.99273,20.8720990070343,11.87214Q19.993199007034303,12.75155,18.7499990070343,12.75155Q17.506799007034303,12.75155,16.6278990070343,11.87214Q15.749099007034301,10.99273,15.749999007034301,9.74948Q15.750899007034302,8.50745,16.6293990070343,7.6295Q17.5079990070343,6.75155,18.7499990070343,6.75155ZM18.7499990070343,8.25155Q18.128999007034302,8.25155,17.6896990070343,8.690529999999999Q17.250399007034304,9.1295,17.2499990070343,9.75052Q17.249599007034302,10.37214,17.6889990070343,10.81185Q18.128399007034304,11.25155,18.7499990070343,11.25155Q19.371599007034302,11.25155,19.8109990070343,10.81185Q20.2503990070343,10.37214,20.2499990070343,9.75052Q20.249599007034302,9.1295,19.810299007034303,8.690529999999999Q19.370999007034303,8.25155,18.7499990070343,8.25155ZM11.999999007034301,3Q13.553299007034301,3,14.651699007034301,4.098349Q15.749999007034301,5.1967,15.749999007034301,6.75Q15.749999007034301,8.3033,14.651699007034301,9.40165Q13.553299007034301,10.5,11.999999007034301,10.5Q10.4466990070343,10.5,9.348349007034301,9.40165Q8.249999007034301,8.3033,8.249999007034301,6.75Q8.249999007034301,5.1967,9.348349007034301,4.098349Q10.4466990070343,3,11.999999007034301,3ZM11.999999007034301,4.5Q11.068019007034302,4.5,10.409009007034301,5.15901Q9.749999007034301,5.818020000000001,9.749999007034301,6.75Q9.749999007034301,7.681979999999999,10.409009007034301,8.34099Q11.068019007034302,9,11.999999007034301,9Q12.931999007034301,9,13.590999007034302,8.34099Q14.249999007034301,7.681979999999999,14.249999007034301,6.75Q14.249999007034301,5.818020000000001,13.590999007034302,5.15901Q12.931999007034301,4.5,11.999999007034301,4.5ZM7.690999007034302,15.522Q7.690999007034302,15.5959,7.676589007034302,15.6683Q7.662179007034302,15.7408,7.633909007034302,15.809Q7.605639007034302,15.8773,7.564599007034301,15.9387Q7.523559007034302,16.0001,7.471329007034302,16.052300000000002Q7.419099007034302,16.104599999999998,7.357679007034302,16.1456Q7.296259007034302,16.1866,7.228009007034302,16.2149Q7.159769007034302,16.2432,7.087319007034302,16.2576Q7.014869007034302,16.272,6.940999007034302,16.272Q6.867129007034301,16.272,6.7946790070343015,16.2576Q6.722229007034302,16.2432,6.653989007034302,16.2149Q6.585739007034301,16.1866,6.524319007034301,16.1456Q6.462899007034302,16.104599999999998,6.4106690070343015,16.052300000000002Q6.358439007034302,16.0001,6.317399007034302,15.9387Q6.276359007034301,15.8773,6.248089007034302,15.809Q6.219819007034301,15.7408,6.2054090070343015,15.6683Q6.190999007034302,15.5959,6.190999007034302,15.522Q6.190999007034302,15.4481,6.2054090070343015,15.3757Q6.219819007034301,15.3032,6.248089007034302,15.235Q6.276359007034301,15.1667,6.317399007034302,15.1053Q6.358439007034302,15.0439,6.4106690070343015,14.9917Q6.462899007034302,14.9394,6.524319007034301,14.8984Q6.585739007034301,14.8574,6.653989007034302,14.8291Q6.722229007034302,14.8008,6.7946790070343015,14.7864Q6.867129007034301,14.772,6.940999007034302,14.772Q7.014869007034302,14.772,7.087319007034302,14.7864Q7.159769007034302,14.8008,7.228009007034302,14.8291Q7.296259007034302,14.8574,7.357679007034302,14.8984Q7.419099007034302,14.9394,7.471329007034302,14.9917Q7.523559007034302,15.0439,7.564599007034301,15.1053Q7.605639007034302,15.1667,7.633909007034302,15.235Q7.662179007034302,15.3032,7.676589007034302,15.3757Q7.690999007034302,15.4481,7.690999007034302,15.522ZM17.808999007034302,15.522Q17.808999007034302,15.5959,17.7945990070343,15.6683Q17.7801990070343,15.7408,17.751899007034304,15.809Q17.723599007034302,15.8773,17.6825990070343,15.9387Q17.6415990070343,16.0001,17.589299007034302,16.052300000000002Q17.5370990070343,16.104599999999998,17.4756990070343,16.1456Q17.414299007034302,16.1866,17.3459990070343,16.2149Q17.277799007034304,16.2432,17.205299007034302,16.2576Q17.132899007034304,16.272,17.058999007034302,16.272Q16.9850990070343,16.272,16.912699007034302,16.2576Q16.8401990070343,16.2432,16.771999007034303,16.2149Q16.703699007034302,16.1866,16.642299007034303,16.1456Q16.580899007034304,16.104599999999998,16.5286990070343,16.052300000000002Q16.476399007034303,16.0001,16.435399007034302,15.9387Q16.394399007034302,15.8773,16.3660990070343,15.809Q16.337799007034302,15.7408,16.323399007034304,15.6683Q16.308999007034302,15.5959,16.308999007034302,15.522Q16.308999007034302,15.4481,16.323399007034304,15.3757Q16.337799007034302,15.3032,16.3660990070343,15.235Q16.394399007034302,15.1667,16.435399007034302,15.1053Q16.476399007034303,15.0439,16.5286990070343,14.9917Q16.580899007034304,14.9394,16.642299007034303,14.8984Q16.703699007034302,14.8574,16.771999007034303,14.8291Q16.8401990070343,14.8008,16.912699007034302,14.7864Q16.9850990070343,14.772,17.058999007034302,14.772Q17.132899007034304,14.772,17.205299007034302,14.7864Q17.277799007034304,14.8008,17.3459990070343,14.8291Q17.414299007034302,14.8574,17.4756990070343,14.8984Q17.5370990070343,14.9394,17.589299007034302,14.9917Q17.6415990070343,15.0439,17.6825990070343,15.1053Q17.723599007034302,15.1667,17.751899007034304,15.235Q17.7801990070343,15.3032,17.7945990070343,15.3757Q17.808999007034302,15.4481,17.808999007034302,15.522ZM18.7499990070343,18.72Q18.7499990070343,18.7939,18.735599007034303,18.866300000000003Q18.7211990070343,18.9388,18.692899007034303,19.006999999999998Q18.6645990070343,19.0753,18.6235990070343,19.136699999999998Q18.5825990070343,19.1981,18.5302990070343,19.2503Q18.478099007034302,19.302599999999998,18.416699007034303,19.343600000000002Q18.3552990070343,19.3846,18.2869990070343,19.4129Q18.2187990070343,19.441200000000002,18.1462990070343,19.4556Q18.0738990070343,19.47,17.9999990070343,19.47Q17.926099007034303,19.47,17.8536990070343,19.4556Q17.781199007034303,19.441200000000002,17.712999007034302,19.4129Q17.6446990070343,19.3846,17.583299007034302,19.343600000000002Q17.5218990070343,19.302599999999998,17.4696990070343,19.2503Q17.4173990070343,19.1981,17.3763990070343,19.136699999999998Q17.3353990070343,19.0753,17.307099007034303,19.006999999999998Q17.2787990070343,18.9388,17.2643990070343,18.866300000000003Q17.2499990070343,18.7939,17.2499990070343,18.72Q17.2499990070343,18.6461,17.2643990070343,18.573700000000002Q17.2787990070343,18.5012,17.307099007034303,18.433Q17.3353990070343,18.3647,17.3763990070343,18.3033Q17.4173990070343,18.2419,17.4696990070343,18.189700000000002Q17.5218990070343,18.1374,17.583299007034302,18.0964Q17.6446990070343,18.0554,17.712999007034302,18.0271Q17.781199007034303,17.9988,17.8536990070343,17.9844Q17.926099007034303,17.97,17.9999990070343,17.97Q18.0738990070343,17.97,18.1462990070343,17.9844Q18.2187990070343,17.9988,18.2869990070343,18.0271Q18.3552990070343,18.0554,18.416699007034303,18.0964Q18.478099007034302,18.1374,18.5302990070343,18.189700000000002Q18.5825990070343,18.2419,18.6235990070343,18.3033Q18.6645990070343,18.3647,18.692899007034303,18.433Q18.7211990070343,18.5012,18.735599007034303,18.573700000000002Q18.7499990070343,18.6461,18.7499990070343,18.72ZM17.808999007034302,15.522Q17.808999007034302,15.5959,17.7945990070343,15.6683Q17.7801990070343,15.7408,17.751899007034304,15.809Q17.723599007034302,15.8773,17.6825990070343,15.9387Q17.6415990070343,16.0001,17.589299007034302,16.052300000000002Q17.5370990070343,16.104599999999998,17.4756990070343,16.1456Q17.414299007034302,16.1866,17.3459990070343,16.2149Q17.277799007034304,16.2432,17.205299007034302,16.2576Q17.132899007034304,16.272,17.058999007034302,16.272Q16.9850990070343,16.272,16.912699007034302,16.2576Q16.8401990070343,16.2432,16.771999007034303,16.2149Q16.703699007034302,16.1866,16.642299007034303,16.1456Q16.580899007034304,16.104599999999998,16.5286990070343,16.052300000000002Q16.476399007034303,16.0001,16.435399007034302,15.9387Q16.394399007034302,15.8773,16.3660990070343,15.809Q16.337799007034302,15.7408,16.323399007034304,15.6683Q16.308999007034302,15.5959,16.308999007034302,15.522Q16.308999007034302,15.4481,16.323399007034304,15.3757Q16.337799007034302,15.3032,16.3660990070343,15.235Q16.394399007034302,15.1667,16.435399007034302,15.1053Q16.476399007034303,15.0439,16.5286990070343,14.9917Q16.580899007034304,14.9394,16.642299007034303,14.8984Q16.703699007034302,14.8574,16.771999007034303,14.8291Q16.8401990070343,14.8008,16.912699007034302,14.7864Q16.9850990070343,14.772,17.058999007034302,14.772Q17.132899007034304,14.772,17.205299007034302,14.7864Q17.277799007034304,14.8008,17.3459990070343,14.8291Q17.414299007034302,14.8574,17.4756990070343,14.8984Q17.5370990070343,14.9394,17.589299007034302,14.9917Q17.6415990070343,15.0439,17.6825990070343,15.1053Q17.723599007034302,15.1667,17.751899007034304,15.235Q17.7801990070343,15.3032,17.7945990070343,15.3757Q17.808999007034302,15.4481,17.808999007034302,15.522ZM7.691999007034302,15.522Q7.691999007034302,15.5959,7.677589007034301,15.6683Q7.6631790070343015,15.7408,7.6349090070343015,15.809Q7.6066390070343015,15.8773,7.565599007034302,15.9387Q7.524559007034302,16.0001,7.472329007034301,16.052300000000002Q7.420099007034302,16.104599999999998,7.3586790070343016,16.1456Q7.2972590070343015,16.1866,7.229009007034302,16.2149Q7.160769007034302,16.2432,7.088319007034301,16.2576Q7.0158690070343015,16.272,6.941999007034302,16.272Q6.868129007034302,16.272,6.795679007034302,16.2576Q6.723229007034302,16.2432,6.654989007034302,16.2149Q6.586739007034302,16.1866,6.525319007034302,16.1456Q6.463899007034302,16.104599999999998,6.411669007034302,16.052300000000002Q6.359439007034302,16.0001,6.3183990070343015,15.9387Q6.277359007034302,15.8773,6.249089007034302,15.809Q6.220819007034302,15.7408,6.206409007034302,15.6683Q6.191999007034301,15.5959,6.191999007034301,15.522Q6.191999007034301,15.4481,6.206409007034302,15.3757Q6.220819007034302,15.3032,6.249089007034302,15.235Q6.277359007034302,15.1667,6.3183990070343015,15.1053Q6.359439007034302,15.0439,6.411669007034302,14.9917Q6.463899007034302,14.9394,6.525319007034302,14.8984Q6.586739007034302,14.8574,6.654989007034302,14.8291Q6.723229007034302,14.8008,6.795679007034302,14.7864Q6.868129007034302,14.772,6.941999007034302,14.772Q7.0158690070343015,14.772,7.088319007034301,14.7864Q7.160769007034302,14.8008,7.229009007034302,14.8291Q7.2972590070343015,14.8574,7.3586790070343016,14.8984Q7.420099007034302,14.9394,7.472329007034301,14.9917Q7.524559007034302,15.0439,7.565599007034302,15.1053Q7.6066390070343015,15.1667,7.6349090070343015,15.235Q7.6631790070343015,15.3032,7.677589007034301,15.3757Q7.691999007034302,15.4481,7.691999007034302,15.522ZM18.748999007034303,18.719Q18.748999007034303,18.7929,18.7345990070343,18.865299999999998Q18.720199007034303,18.9378,18.6918990070343,19.006Q18.663599007034303,19.0743,18.622599007034303,19.1357Q18.581599007034303,19.1971,18.5292990070343,19.249299999999998Q18.4770990070343,19.3016,18.415699007034302,19.342599999999997Q18.354299007034303,19.3836,18.285999007034302,19.4119Q18.2177990070343,19.4402,18.145299007034303,19.4546Q18.0728990070343,19.469,17.9989990070343,19.469Q17.9250990070343,19.469,17.852699007034303,19.4546Q17.7801990070343,19.4402,17.7119990070343,19.4119Q17.6436990070343,19.3836,17.5822990070343,19.342599999999997Q17.520899007034302,19.3016,17.468699007034303,19.249299999999998Q17.4163990070343,19.1971,17.375399007034304,19.1357Q17.3343990070343,19.0743,17.3060990070343,19.006Q17.277799007034304,18.9378,17.2633990070343,18.865299999999998Q17.2489990070343,18.7929,17.2489990070343,18.719Q17.2489990070343,18.6451,17.2633990070343,18.572699999999998Q17.277799007034304,18.5002,17.3060990070343,18.432000000000002Q17.3343990070343,18.3637,17.375399007034304,18.302300000000002Q17.4163990070343,18.2409,17.468699007034303,18.1887Q17.520899007034302,18.136400000000002,17.5822990070343,18.095399999999998Q17.6436990070343,18.0544,17.7119990070343,18.0261Q17.7801990070343,17.997799999999998,17.852699007034303,17.9834Q17.9250990070343,17.969,17.9989990070343,17.969Q18.0728990070343,17.969,18.145299007034303,17.9834Q18.2177990070343,17.997799999999998,18.285999007034302,18.0261Q18.354299007034303,18.0544,18.415699007034302,18.095399999999998Q18.4770990070343,18.136400000000002,18.5292990070343,18.1887Q18.581599007034303,18.2409,18.622599007034303,18.302300000000002Q18.663599007034303,18.3637,18.6918990070343,18.432000000000002Q18.720199007034303,18.5002,18.7345990070343,18.572699999999998Q18.748999007034303,18.6451,18.748999007034303,18.719ZM7.691999007034302,15.522Q7.691999007034302,15.5959,7.677589007034301,15.6683Q7.6631790070343015,15.7408,7.6349090070343015,15.809Q7.6066390070343015,15.8773,7.565599007034302,15.9387Q7.524559007034302,16.0001,7.472329007034301,16.052300000000002Q7.420099007034302,16.104599999999998,7.3586790070343016,16.1456Q7.2972590070343015,16.1866,7.229009007034302,16.2149Q7.160769007034302,16.2432,7.088319007034301,16.2576Q7.0158690070343015,16.272,6.941999007034302,16.272Q6.868129007034302,16.272,6.795679007034302,16.2576Q6.723229007034302,16.2432,6.654989007034302,16.2149Q6.586739007034302,16.1866,6.525319007034302,16.1456Q6.463899007034302,16.104599999999998,6.411669007034302,16.052300000000002Q6.359439007034302,16.0001,6.3183990070343015,15.9387Q6.277359007034302,15.8773,6.249089007034302,15.809Q6.220819007034302,15.7408,6.206409007034302,15.6683Q6.191999007034301,15.5959,6.191999007034301,15.522Q6.191999007034301,15.4481,6.206409007034302,15.3757Q6.220819007034302,15.3032,6.249089007034302,15.235Q6.277359007034302,15.1667,6.3183990070343015,15.1053Q6.359439007034302,15.0439,6.411669007034302,14.9917Q6.463899007034302,14.9394,6.525319007034302,14.8984Q6.586739007034302,14.8574,6.654989007034302,14.8291Q6.723229007034302,14.8008,6.795679007034302,14.7864Q6.868129007034302,14.772,6.941999007034302,14.772Q7.0158690070343015,14.772,7.088319007034301,14.7864Q7.160769007034302,14.8008,7.229009007034302,14.8291Q7.2972590070343015,14.8574,7.3586790070343016,14.8984Q7.420099007034302,14.9394,7.472329007034301,14.9917Q7.524559007034302,15.0439,7.565599007034302,15.1053Q7.6066390070343015,15.1667,7.6349090070343015,15.235Q7.6631790070343015,15.3032,7.677589007034301,15.3757Q7.691999007034302,15.4481,7.691999007034302,15.522ZM17.808999007034302,15.521Q17.808999007034302,15.5949,17.7945990070343,15.6673Q17.7801990070343,15.7398,17.751899007034304,15.808Q17.723599007034302,15.8763,17.6825990070343,15.9377Q17.6415990070343,15.9991,17.589299007034302,16.051299999999998Q17.5370990070343,16.1036,17.4756990070343,16.1446Q17.414299007034302,16.1856,17.3459990070343,16.213900000000002Q17.277799007034304,16.2422,17.205299007034302,16.2566Q17.132899007034304,16.271,17.058999007034302,16.271Q16.9850990070343,16.271,16.912699007034302,16.2566Q16.8401990070343,16.2422,16.771999007034303,16.213900000000002Q16.703699007034302,16.1856,16.642299007034303,16.1446Q16.580899007034304,16.1036,16.5286990070343,16.051299999999998Q16.476399007034303,15.9991,16.435399007034302,15.9377Q16.394399007034302,15.8763,16.3660990070343,15.808Q16.337799007034302,15.7398,16.323399007034304,15.6673Q16.308999007034302,15.5949,16.308999007034302,15.521Q16.308999007034302,15.4471,16.323399007034304,15.3747Q16.337799007034302,15.3022,16.3660990070343,15.234Q16.394399007034302,15.1657,16.435399007034302,15.1043Q16.476399007034303,15.0429,16.5286990070343,14.9907Q16.580899007034304,14.9384,16.642299007034303,14.8974Q16.703699007034302,14.8564,16.771999007034303,14.8281Q16.8401990070343,14.7998,16.912699007034302,14.7854Q16.9850990070343,14.771,17.058999007034302,14.771Q17.132899007034304,14.771,17.205299007034302,14.7854Q17.277799007034304,14.7998,17.3459990070343,14.8281Q17.414299007034302,14.8564,17.4756990070343,14.8974Q17.5370990070343,14.9384,17.589299007034302,14.9907Q17.6415990070343,15.0429,17.6825990070343,15.1043Q17.723599007034302,15.1657,17.751899007034304,15.234Q17.7801990070343,15.3022,17.7945990070343,15.3747Q17.808999007034302,15.4471,17.808999007034302,15.521ZM18.7499990070343,18.719Q18.7499990070343,18.7929,18.735599007034303,18.865299999999998Q18.7211990070343,18.9378,18.692899007034303,19.006Q18.6645990070343,19.0743,18.6235990070343,19.1357Q18.5825990070343,19.1971,18.5302990070343,19.249299999999998Q18.478099007034302,19.3016,18.416699007034303,19.342599999999997Q18.3552990070343,19.3836,18.2869990070343,19.4119Q18.2187990070343,19.4402,18.1462990070343,19.4546Q18.0738990070343,19.469,17.9999990070343,19.469Q17.926099007034303,19.469,17.8536990070343,19.4546Q17.781199007034303,19.4402,17.712999007034302,19.4119Q17.6446990070343,19.3836,17.583299007034302,19.342599999999997Q17.5218990070343,19.3016,17.4696990070343,19.249299999999998Q17.4173990070343,19.1971,17.3763990070343,19.1357Q17.3353990070343,19.0743,17.307099007034303,19.006Q17.2787990070343,18.9378,17.2643990070343,18.865299999999998Q17.2499990070343,18.7929,17.2499990070343,18.719Q17.2499990070343,18.6451,17.2643990070343,18.572699999999998Q17.2787990070343,18.5002,17.307099007034303,18.432000000000002Q17.3353990070343,18.3637,17.3763990070343,18.302300000000002Q17.4173990070343,18.2409,17.4696990070343,18.1887Q17.5218990070343,18.136400000000002,17.583299007034302,18.095399999999998Q17.6446990070343,18.0544,17.712999007034302,18.0261Q17.781199007034303,17.997799999999998,17.8536990070343,17.9834Q17.926099007034303,17.969,17.9999990070343,17.969Q18.0738990070343,17.969,18.1462990070343,17.9834Q18.2187990070343,17.997799999999998,18.2869990070343,18.0261Q18.3552990070343,18.0544,18.416699007034303,18.095399999999998Q18.478099007034302,18.136400000000002,18.5302990070343,18.1887Q18.5825990070343,18.2409,18.6235990070343,18.302300000000002Q18.6645990070343,18.3637,18.692899007034303,18.432000000000002Q18.7211990070343,18.5002,18.735599007034303,18.572699999999998Q18.7499990070343,18.6451,18.7499990070343,18.719Z" fill="#000000" fill-opacity="1"/></g></g></svg>