<svg xmlns="http://www.w3.org/2000/svg" xmlns:xlink="http://www.w3.org/1999/xlink" fill="none" version="1.1" width="24" height="24" viewBox="0 0 24 24"><defs><clipPath id="master_svg0_715_7205"><rect x="0" y="0" width="24" height="24" rx="0"/></clipPath></defs><g clip-path="url(#master_svg0_715_7205)"><g><path d="M15.692200953674316,6.140769532241821Q12.000010953674316,5.855419532241822,8.307790953674317,6.140769532241821Q6.5888909536743165,6.2738495322418215,4.884110953674316,6.5315695322418215Q4.811070953674316,6.5426195322418215,4.737283953674316,6.539199532241821Q4.663493953674316,6.535779532241821,4.591789953674317,6.518029532241822Q4.520085953674316,6.500279532241821,4.4532219536743165,6.4688795322418216Q4.386357953674317,6.437479532241821,4.326903953674316,6.393649532241821Q4.2674499536743165,6.349809532241821,4.217690953674317,6.295209532241821Q4.1679309536743165,6.240619532241821,4.129778953674316,6.177369532241821Q4.091626953674316,6.114109532241821,4.066547953674316,6.044629532241821Q4.0414689536743165,5.975149532241821,4.030426953674317,5.9021095322418216Q4.019384953674316,5.829069532241821,4.022804953674316,5.755279532241821Q4.026223953674316,5.681489532241821,4.0439729536743165,5.609789532241821Q4.061722953674316,5.538079532241822,4.093119953674316,5.471219532241822Q4.124516953674316,5.404359532241822,4.168354953674316,5.344899532241821Q4.212192953674316,5.285449532241821,4.266787953674316,5.235689532241821Q4.321382953674316,5.185929532241821,4.384635953674317,5.147779532241821Q4.447888953674316,5.109629532241821,4.517369953674317,5.084549532241821Q4.5868509536743165,5.059469532241821,4.659889953674316,5.048429532241821Q6.418660953674316,4.782539532241821,8.192210953674316,4.645229532241821Q12.000000953674316,4.350949532241821,15.807800953674317,4.645229532241821Q15.881400953674316,4.650919532241821,15.952600953674317,4.670869532241822Q16.023700953674314,4.690819532241822,16.089600953674317,4.724269532241822Q16.155400953674317,4.7577095322418215,16.213500953674316,4.803359532241821Q16.271600953674316,4.849009532241821,16.319600953674318,4.905109532241822Q16.367700953674316,4.9612095322418215,16.403900953674317,5.0256095322418215Q16.440000953674314,5.0900095322418215,16.463000953674317,5.1602295322418215Q16.485900953674317,5.230449532241821,16.494700953674318,5.303799532241822Q16.50350095367432,5.377139532241822,16.497800953674314,5.450789532241821Q16.492100953674317,5.524439532241821,16.472100953674314,5.595559532241822Q16.452200953674314,5.666689532241821,16.418700953674318,5.732549532241821Q16.385300953674317,5.798419532241821,16.339600953674317,5.856489532241821Q16.294000953674317,5.9145695322418215,16.237900953674316,5.962619532241821Q16.18180095367432,6.010669532241821,16.117400953674316,6.046859532241822Q16.053000953674317,6.083039532241822,15.982800953674316,6.105969532241821Q15.912500953674316,6.128889532241821,15.839200953674316,6.137679532241821Q15.765900953674317,6.146459532241821,15.692200953674316,6.140769532241821ZM15.000000953674316,5.392999532241822L15.000000953674316,4.4769995322418215Q15.000000953674316,3.8851295322418213,14.601600953674316,3.462109532241821Q14.207300953674316,3.043529532241821,13.636490953674317,3.025631532241821Q12.000000953674316,2.9733285322418213,10.363960953674315,3.0256175322418213Q9.792950953674318,3.0435215322418214,9.398530953674317,3.4623995322418213Q9.000000953674316,3.8856395322418216,9.000000953674316,4.4769995322418215L9.000000953674316,5.392999532241822Q9.000000953674316,5.466869532241821,8.985590953674317,5.539319532241821Q8.971180953674317,5.611769532241821,8.942910953674318,5.680009532241821Q8.914640953674317,5.748259532241821,8.873600953674316,5.809679532241821Q8.832560953674317,5.871099532241821,8.780330953674316,5.923329532241821Q8.728100953674318,5.975559532241821,8.666680953674316,6.0165995322418215Q8.605260953674318,6.057639532241821,8.537010953674317,6.085909532241821Q8.468770953674316,6.114179532241821,8.396320953674316,6.128589532241821Q8.323870953674316,6.142999532241822,8.250000953674316,6.142999532241822Q8.176130953674317,6.142999532241822,8.103680953674317,6.128589532241821Q8.031230953674317,6.114179532241821,7.962990953674316,6.085909532241821Q7.894740953674316,6.057639532241821,7.833320953674316,6.0165995322418215Q7.771900953674316,5.975559532241821,7.719670953674316,5.923329532241821Q7.667440953674316,5.871099532241821,7.626400953674317,5.809679532241821Q7.585360953674316,5.748259532241821,7.557090953674317,5.680009532241821Q7.528820953674316,5.611769532241821,7.514410953674316,5.539319532241821Q7.500000953674316,5.466869532241821,7.500000953674316,5.392999532241822L7.500000953674316,4.4769995322418215Q7.500000953674316,3.2905695322418214,8.306470953674317,2.4340985322418214Q9.126060953674315,1.5636955322418213,10.316040953674317,1.5263835322418213Q12.000000953674316,1.4725625322418212,13.683510953674316,1.5263685322418215Q14.874000953674317,1.5636985322418213,15.693400953674317,2.4336375322418213Q16.500000953674316,3.289929532241821,16.500000953674316,4.4769995322418215L16.500000953674316,5.392999532241822Q16.500000953674316,5.466869532241821,16.485600953674314,5.539319532241821Q16.471200953674316,5.611769532241821,16.442900953674318,5.680009532241821Q16.414600953674316,5.748259532241821,16.373600953674316,5.809679532241821Q16.332600953674316,5.871099532241821,16.280300953674317,5.923329532241821Q16.228100953674314,5.975559532241821,16.166700953674315,6.0165995322418215Q16.105300953674316,6.057639532241821,16.037000953674315,6.085909532241821Q15.968800953674316,6.114179532241821,15.896300953674317,6.128589532241821Q15.823900953674316,6.142999532241822,15.750000953674316,6.142999532241822Q15.676100953674316,6.142999532241822,15.603700953674316,6.128589532241821Q15.531200953674317,6.114179532241821,15.463000953674316,6.085909532241821Q15.394700953674317,6.057639532241821,15.333300953674316,6.0165995322418215Q15.271900953674317,5.975559532241821,15.219700953674316,5.923329532241821Q15.167400953674317,5.871099532241821,15.126400953674317,5.809679532241821Q15.085400953674316,5.748259532241821,15.057100953674317,5.680009532241821Q15.028800953674317,5.611769532241821,15.014400953674317,5.539319532241821Q15.000000953674316,5.466869532241821,15.000000953674316,5.392999532241822ZM4.882620953674317,6.531799532241822Q4.385562953674317,6.605919532241821,3.8782319536743164,6.693959532241822Q3.8054507536743163,6.706589532241821,3.7316044536743163,6.704769532241821Q3.6577581536743162,6.702959532241821,3.5856839536743164,6.686779532241821Q3.5136099536743166,6.670589532241821,3.4460789536743164,6.640659532241822Q3.3785469536743165,6.610729532241821,3.3181529536743164,6.568189532241822Q3.257757953674316,6.525659532241821,3.2068219536743165,6.472159532241822Q3.1558859536743165,6.418659532241821,3.1163659536743165,6.356259532241821Q3.0768459536743165,6.293849532241821,3.0502599536743165,6.224929532241822Q3.0236739536743165,6.156009532241821,3.0110439536743163,6.0832295322418215Q2.9984149536743163,6.010449532241822,3.0002269536743165,5.9365995322418215Q3.002038953674316,5.862759532241821,3.0182219536743164,5.790679532241821Q3.0344059536743164,5.718609532241821,3.0643399536743163,5.6510795322418215Q3.0942739536743167,5.583549532241822,3.1368069536743164,5.523149532241821Q3.1793399536743165,5.462759532241821,3.2328389536743165,5.411819532241822Q3.2863369536743163,5.360889532241821,3.3487449536743163,5.3213595322418215Q3.4111519536743162,5.281839532241822,3.4800709536743164,5.255259532241821Q3.5489889536743164,5.228669532241821,3.6217699536743164,5.216039532241821Q4.146666953674316,5.124959532241821,4.661381953674317,5.048199532241821Q4.734441953674317,5.037309532241821,4.808220953674317,5.040879532241821Q4.882010953674317,5.044439532241821,4.953670953674316,5.062339532241822Q5.025340953674316,5.080229532241821,5.092140953674317,5.1117595322418214Q5.158940953674317,5.1432895322418215,5.218310953674316,5.187249532241822Q5.2776809536743166,5.231209532241822,5.327320953674317,5.285899532241821Q5.376970953674316,5.340599532241821,5.415000953674316,5.403929532241822Q5.453020953674317,5.467259532241821,5.477960953674316,5.536789532241821Q5.502900953674317,5.606319532241821,5.513800953674316,5.679379532241821Q5.524690953674316,5.752439532241821,5.521120953674316,5.826219532241821Q5.517560953674316,5.900009532241821,5.499660953674317,5.971669532241821Q5.481770953674316,6.043339532241822,5.450240953674316,6.1101395322418215Q5.418710953674316,6.176939532241821,5.374750953674316,6.236309532241821Q5.330790953674317,6.295679532241821,5.276100953674316,6.345319532241821Q5.2214009536743164,6.394969532241821,5.158070953674317,6.432999532241821Q5.094740953674316,6.471019532241821,5.025210953674316,6.495959532241821Q4.9556809536743165,6.520899532241821,4.882620953674317,6.531799532241822ZM15.807900953674316,4.645239532241821Q17.581300953674315,4.782529532241821,19.340100953674316,5.048429532241821Q19.413100953674316,5.059469532241821,19.482600953674314,5.084549532241821Q19.552100953674316,5.109629532241821,19.615400953674317,5.147779532241821Q19.678600953674316,5.185929532241821,19.733200953674316,5.235689532241821Q19.787800953674317,5.285449532241821,19.831600953674318,5.344899532241821Q19.875500953674315,5.404359532241822,19.906900953674317,5.471219532241822Q19.938300953674318,5.5380895322418215,19.956000953674316,5.609789532241821Q19.973800953674317,5.681499532241821,19.977200953674316,5.755279532241821Q19.980600953674315,5.829069532241821,19.969600953674316,5.9021095322418216Q19.958500953674317,5.975149532241821,19.933400953674315,6.044629532241821Q19.908400953674317,6.114109532241821,19.870200953674317,6.177369532241821Q19.832100953674317,6.240619532241821,19.782300953674316,6.295209532241821Q19.732500953674318,6.349809532241821,19.673100953674314,6.393649532241821Q19.613600953674315,6.437479532241821,19.546800953674314,6.4688795322418216Q19.479900953674317,6.500279532241821,19.408200953674317,6.518029532241822Q19.336500953674317,6.535779532241821,19.26270095367432,6.539199532241821Q19.188900953674317,6.5426195322418215,19.115900953674316,6.5315695322418215Q17.411100953674314,6.273839532241821,15.692100953674316,6.140759532241821Q15.618500953674316,6.135059532241821,15.547300953674316,6.115099532241821Q15.476200953674317,6.095139532241822,15.410400953674316,6.061689532241822Q15.344500953674316,6.028239532241821,15.286400953674317,5.982579532241822Q15.228400953674317,5.936919532241822,15.180300953674317,5.8808095322418215Q15.132300953674317,5.824709532241821,15.096100953674316,5.760299532241821Q15.059900953674317,5.695899532241821,15.037000953674317,5.625669532241821Q15.014100953674316,5.555449532241822,15.005300953674316,5.482099532241821Q14.996500953674316,5.408759532241821,15.002200953674317,5.335109532241821Q15.007900953674316,5.261459532241821,15.027900953674317,5.190339532241821Q15.047900953674317,5.1192195322418215,15.081300953674317,5.053359532241821Q15.114800953674317,4.987499532241822,15.160400953674316,4.929429532241821Q15.206100953674316,4.871359532241821,15.262200953674316,4.823319532241822Q15.318300953674317,4.775269532241822,15.382700953674316,4.739099532241822Q15.447100953674317,4.702919532241822,15.517300953674317,4.679999532241821Q15.587500953674317,4.657089532241821,15.660900953674316,4.6483095322418215Q15.734200953674316,4.639539532241821,15.807900953674316,4.645239532241821ZM5.519790953674317,5.732469532241821L6.587790953674316,19.61547953224182Q6.632980953674316,20.201479532241823,7.064430953674316,20.600879532241823Q7.495880953674316,21.00017953224182,8.083780953674317,20.99997953224182L15.916000953674317,20.99997953224182Q16.504100953674318,21.00017953224182,16.935600953674317,20.600879532241823Q17.367000953674317,20.201479532241823,17.412200953674315,19.61537953224182L18.480200953674316,5.733469532241822Q18.485900953674317,5.659819532241821,18.505800953674317,5.588689532241821Q18.525700953674317,5.517559532241821,18.559100953674317,5.451679532241821Q18.592600953674314,5.385809532241821,18.638200953674314,5.327719532241821Q18.683800953674314,5.269619532241821,18.739900953674315,5.221549532241822Q18.796000953674316,5.173479532241821,18.860400953674315,5.137269532241821Q18.924800953674314,5.101069532241821,18.995000953674314,5.078119532241821Q19.065200953674317,5.0551695322418215,19.138500953674317,5.0463495322418215Q19.211900953674316,5.037539532241821,19.285500953674315,5.043209532241821Q19.359200953674318,5.048879532241822,19.43030095367432,5.068799532241821Q19.501400953674317,5.088729532241821,19.567300953674316,5.122149532241821Q19.63320095367432,5.155569532241821,19.691300953674315,5.201199532241821Q19.749400953674318,5.246829532241821,19.797400953674316,5.302909532241822Q19.845500953674318,5.358999532241821,19.881700953674315,5.423379532241821Q19.917900953674316,5.487769532241821,19.940900953674316,5.557979532241822Q19.963800953674316,5.628199532241821,19.972600953674316,5.701539532241821Q19.981500953674317,5.774879532241821,19.975800953674316,5.848529532241821L18.907800953674318,19.730679532241822Q18.817400953674316,20.902979532241822,17.954500953674316,21.701679532241823Q17.091600953674316,22.500379532241823,15.916000953674317,22.49997953224182L8.084220953674317,22.49997953224182Q6.9084309536743165,22.500379532241823,6.045530953674316,21.701679532241823Q5.182620953674316,20.902979532241822,5.092210953674316,19.730479532241823L4.024208953674316,5.847529532241822Q4.018543953674317,5.773879532241821,4.027354953674316,5.700529532241822Q4.036166953674316,5.627189532241822,4.059116953674317,5.556979532241821Q4.082066953674317,5.486769532241821,4.118274953674316,5.422379532241822Q4.154481953674316,5.357999532241822,4.2025549536743165,5.3019095322418215Q4.250626953674317,5.245819532241821,4.308717953674316,5.200189532241821Q4.366808953674316,5.154569532241821,4.4326849536743165,5.121149532241821Q4.498561953674317,5.087729532241822,4.569691953674316,5.067799532241821Q4.640821953674316,5.047879532241821,4.714472953674316,5.042209532241822Q4.788120953674317,5.036539532241822,4.8614609536743165,5.045359532241822Q4.934810953674316,5.054169532241821,5.005020953674316,5.077119532241822Q5.075230953674316,5.100069532241822,5.139620953674316,5.136269532241821Q5.204000953674316,5.172479532241821,5.260090953674316,5.220559532241822Q5.316170953674316,5.268629532241821,5.361800953674316,5.326719532241821Q5.407430953674316,5.384809532241821,5.440850953674317,5.450689532241821Q5.474270953674316,5.516559532241821,5.494200953674317,5.587689532241821Q5.5141209536743165,5.6588195322418215,5.519790953674317,5.732469532241821ZM20.121800953674317,6.694959532241821Q19.635700953674316,6.6106095322418215,19.115300953674314,6.531479532241821Q19.042200953674318,6.520369532241821,18.972800953674316,6.495239532241821Q18.903300953674318,6.4700995322418215,18.840100953674316,6.431889532241821Q18.776900953674314,6.3936895322418215,18.722300953674317,6.3438795322418216Q18.667800953674316,6.294079532241821,18.62400095367432,6.234589532241822Q18.580200953674314,6.175089532241821,18.548800953674316,6.108199532241821Q18.517500953674315,6.041309532241821,18.499800953674317,5.969589532241821Q18.48210095367432,5.897869532241821,18.478800953674316,5.8240795322418215Q18.475400953674317,5.750289532241821,18.486500953674316,5.677259532241822Q18.497600953674315,5.604229532241821,18.522800953674317,5.534769532241821Q18.547900953674315,5.465309532241822,18.58610095367432,5.402089532241821Q18.624300953674314,5.338869532241821,18.674100953674316,5.284319532241821Q18.723900953674317,5.229759532241822,18.783400953674317,5.185979532241822Q18.842900953674317,5.142189532241821,18.909800953674317,5.110849532241821Q18.976700953674317,5.079509532241821,19.048400953674317,5.061819532241821Q19.120100953674317,5.044129532241821,19.193900953674316,5.040779532241821Q19.267700953674314,5.037419532241821,19.340700953674315,5.048519532241821Q19.876700953674316,5.130019532241821,20.378200953674316,5.217039532241822Q20.451000953674317,5.229669532241822,20.519900953674316,5.256259532241821Q20.588800953674316,5.282839532241821,20.651300953674316,5.322359532241821Q20.713700953674316,5.361889532241822,20.767200953674315,5.412819532241821Q20.820700953674315,5.463759532241822,20.863200953674315,5.524149532241822Q20.905700953674316,5.584549532241821,20.935700953674317,5.652079532241821Q20.965600953674315,5.7196095322418214,20.981800953674316,5.791679532241821Q20.998000953674318,5.863759532241821,20.999800953674317,5.937599532241821Q21.001600953674316,6.011449532241821,20.989000953674317,6.084229532241821Q20.976300953674315,6.157009532241821,20.949700953674316,6.225929532241821Q20.923200953674318,6.294849532241821,20.883600953674318,6.357259532241821Q20.844100953674317,6.4196595322418215,20.793200953674315,6.473159532241821Q20.742200953674317,6.526659532241822,20.681800953674315,6.569189532241821Q20.621500953674317,6.611729532241822,20.553900953674315,6.641659532241821Q20.486400953674316,6.671589532241821,20.414300953674317,6.687779532241821Q20.342200953674315,6.7039595322418215,20.268400953674316,6.705769532241821Q20.194500953674318,6.707589532241821,20.121800953674317,6.694959532241821ZM10.009450953674317,8.971189532241821L10.355450953674318,17.97117953224182Q10.358280953674317,18.044979532241822,10.346660953674316,18.11797953224182Q10.335050953674315,18.190879532241823,10.309420953674316,18.26017953224182Q10.283800953674316,18.32947953224182,10.245150953674315,18.392379532241822Q10.206500953674317,18.45537953224182,10.156310953674318,18.509579532241823Q10.106120953674317,18.56377953224182,10.046320953674316,18.607179532241823Q9.986530953674317,18.65047953224182,9.919420953674315,18.68137953224182Q9.852310953674316,18.712279532241823,9.780470953674318,18.729379532241822Q9.708620953674316,18.74657953224182,9.634810953674316,18.74947953224182Q9.561000953674316,18.752279532241822,9.488050953674318,18.74067953224182Q9.415100953674315,18.729079532241823,9.345820953674316,18.703379532241822Q9.276540953674317,18.67777953224182,9.213580953674317,18.639179532241823Q9.150630953674316,18.60047953224182,9.096430953674316,18.55027953224182Q9.042230953674316,18.50007953224182,8.998860953674317,18.44027953224182Q8.955500953674317,18.38047953224182,8.924630953674317,18.31337953224182Q8.893760953674317,18.24627953224182,8.876570953674317,18.174479532241822Q8.859390953674318,18.10257953224182,8.856550953674317,18.02877953224182L8.510550953674317,9.028809532241821Q8.507710953674316,8.954999532241821,8.519330953674316,8.882049532241822Q8.530950953674317,8.80909953224182,8.556570953674317,8.739819532241821Q8.582200953674317,8.670539532241822,8.620850953674317,8.607589532241821Q8.659500953674318,8.54463953224182,8.709690953674317,8.490429532241821Q8.759870953674316,8.436229532241821,8.819670953674317,8.392859532241822Q8.879470953674318,8.349499532241822,8.946580953674317,8.318629532241822Q9.013690953674317,8.287759532241822,9.085530953674317,8.270569532241822Q9.157370953674317,8.253389532241822,9.231190953674316,8.250549532241822Q9.305000953674316,8.24771953224182,9.377950953674317,8.259329532241821Q9.450900953674317,8.270949532241822,9.520180953674316,8.296579532241822Q9.589460953674315,8.322199532241822,9.652410953674316,8.360849532241822Q9.715360953674317,8.39949953224182,9.769560953674317,8.449689532241822Q9.823770953674316,8.49987953224182,9.867130953674316,8.559669532241822Q9.910500953674315,8.61946953224182,9.941370953674316,8.686579532241822Q9.972240953674316,8.753689532241822,9.989420953674315,8.825529532241822Q10.006610953674317,8.897369532241822,10.009450953674317,8.971189532241821ZM13.644550953674317,17.97117953224182L13.990600953674317,8.971189532241821Q13.993400953674316,8.897369532241822,14.010600953674317,8.825529532241822Q14.027800953674316,8.753689532241822,14.058600953674317,8.686579532241822Q14.089500953674316,8.61946953224182,14.132900953674316,8.559669532241822Q14.176200953674316,8.49987953224182,14.230400953674316,8.449689532241822Q14.284600953674316,8.39949953224182,14.347600953674316,8.360849532241822Q14.410500953674317,8.322199532241822,14.479800953674316,8.296579532241822Q14.549100953674316,8.270949532241822,14.622000953674316,8.259329532241821Q14.695000953674317,8.24771953224182,14.768800953674317,8.250549532241822Q14.842600953674316,8.253389532241822,14.914500953674317,8.270569532241822Q14.986300953674316,8.287759532241822,15.053400953674316,8.318629532241822Q15.120500953674316,8.349499532241822,15.180300953674317,8.392869532241821Q15.240100953674316,8.436229532241821,15.290300953674317,8.490429532241821Q15.340500953674317,8.54463953224182,15.379100953674316,8.607589532241821Q15.417800953674316,8.670539532241822,15.443400953674317,8.739819532241821Q15.469000953674316,8.80909953224182,15.480700953674317,8.882049532241822Q15.492300953674317,8.954999532241821,15.489400953674316,9.028809532241821L15.143400953674316,18.02877953224182Q15.140600953674316,18.10257953224182,15.123400953674317,18.174479532241822Q15.106200953674316,18.24627953224182,15.075400953674317,18.31337953224182Q15.044500953674316,18.38047953224182,15.001100953674316,18.44027953224182Q14.957800953674317,18.50007953224182,14.903600953674317,18.55027953224182Q14.849400953674316,18.60047953224182,14.786400953674317,18.639179532241823Q14.723500953674316,18.67777953224182,14.654200953674316,18.703379532241822Q14.584900953674316,18.729079532241823,14.511900953674317,18.74067953224182Q14.439000953674316,18.752279532241822,14.365200953674316,18.74947953224182Q14.291400953674316,18.74657953224182,14.219500953674316,18.729379532241822Q14.147700953674317,18.712279532241823,14.080600953674317,18.68137953224182Q14.013500953674317,18.65047953224182,13.953700953674316,18.607179532241823Q13.893900953674317,18.56377953224182,13.843700953674317,18.509579532241823Q13.793500953674316,18.45537953224182,13.754800953674316,18.392379532241822Q13.716200953674317,18.32947953224182,13.690570953674316,18.26017953224182Q13.664950953674316,18.190879532241823,13.653330953674317,18.11797953224182Q13.641710953674316,18.044979532241822,13.644550953674317,17.97117953224182ZM16.500000953674316,5.392999532241822Q16.500000953674316,5.466869532241821,16.485600953674314,5.539319532241821Q16.471200953674316,5.611769532241821,16.442900953674318,5.680009532241821Q16.414600953674316,5.748259532241821,16.373600953674316,5.809679532241821Q16.332600953674316,5.871099532241821,16.280300953674317,5.923329532241821Q16.228100953674314,5.975559532241821,16.166700953674315,6.0165995322418215Q16.105300953674316,6.057639532241821,16.037000953674315,6.085909532241821Q15.968800953674316,6.114179532241821,15.896300953674317,6.128589532241821Q15.823900953674316,6.142999532241822,15.750000953674316,6.142999532241822Q15.676100953674316,6.142999532241822,15.603700953674316,6.128589532241821Q15.531200953674317,6.114179532241821,15.463000953674316,6.085909532241821Q15.394700953674317,6.057639532241821,15.333300953674316,6.0165995322418215Q15.271900953674317,5.975559532241821,15.219700953674316,5.923329532241821Q15.167400953674317,5.871099532241821,15.126400953674317,5.809679532241821Q15.085400953674316,5.748259532241821,15.057100953674317,5.680009532241821Q15.028800953674317,5.611769532241821,15.014400953674317,5.539319532241821Q15.000000953674316,5.466869532241821,15.000000953674316,5.392999532241822Q15.000000953674316,5.3191295322418215,15.014400953674317,5.246679532241821Q15.028800953674317,5.174229532241821,15.057100953674317,5.105989532241821Q15.085400953674316,5.0377395322418215,15.126400953674317,4.976319532241821Q15.167400953674317,4.914899532241821,15.219700953674316,4.862669532241821Q15.271900953674317,4.810439532241821,15.333300953674316,4.769399532241821Q15.394700953674317,4.7283595322418215,15.463000953674316,4.7000895322418215Q15.531200953674317,4.6718195322418214,15.603700953674316,4.657409532241822Q15.676100953674316,4.642999532241822,15.750000953674316,4.642999532241822Q15.823900953674316,4.642999532241822,15.896300953674317,4.657409532241822Q15.968800953674316,4.6718195322418214,16.037000953674315,4.7000895322418215Q16.105300953674316,4.7283595322418215,16.166700953674315,4.769399532241821Q16.228100953674314,4.810439532241821,16.280300953674317,4.862669532241821Q16.332600953674316,4.914899532241821,16.373600953674316,4.976319532241821Q16.414600953674316,5.0377395322418215,16.442900953674318,5.105989532241821Q16.471200953674316,5.174229532241821,16.485600953674314,5.246679532241821Q16.500000953674316,5.3191295322418215,16.500000953674316,5.392999532241822ZM5.522000953674317,5.789999532241821Q5.522000953674317,5.8638695322418215,5.507590953674317,5.936319532241821Q5.493180953674316,6.008769532241821,5.464910953674316,6.077009532241821Q5.436640953674316,6.1452595322418215,5.395600953674316,6.206679532241822Q5.354560953674317,6.268099532241822,5.302330953674316,6.320329532241821Q5.250100953674316,6.372559532241821,5.188680953674316,6.413599532241821Q5.127260953674316,6.4546395322418215,5.059010953674316,6.4829095322418215Q4.990770953674316,6.5111795322418216,4.918320953674316,6.525589532241821Q4.845870953674316,6.539999532241821,4.772000953674317,6.539999532241821Q4.6981319536743165,6.539999532241821,4.625682953674317,6.525589532241821Q4.553233953674316,6.5111795322418216,4.484987953674317,6.4829095322418215Q4.416741953674316,6.4546395322418215,4.3553229536743165,6.413599532241821Q4.293903953674317,6.372559532241821,4.2416709536743165,6.320329532241821Q4.189437953674316,6.268099532241822,4.148398953674317,6.206679532241822Q4.107358953674316,6.1452595322418215,4.079090953674316,6.077009532241821Q4.0508229536743166,6.008769532241821,4.036411953674317,5.936319532241821Q4.022000953674317,5.8638695322418215,4.022000953674317,5.789999532241821Q4.022000953674317,5.716129532241821,4.036411953674317,5.643679532241821Q4.0508229536743166,5.571229532241821,4.079090953674316,5.502989532241822Q4.107358953674316,5.434739532241821,4.148398953674317,5.373319532241821Q4.189437953674316,5.311899532241821,4.2416709536743165,5.259669532241821Q4.293903953674317,5.207439532241821,4.3553229536743165,5.1663995322418215Q4.416741953674316,5.125359532241822,4.484987953674317,5.097089532241821Q4.553233953674316,5.068819532241822,4.625682953674317,5.054409532241822Q4.6981319536743165,5.039999532241821,4.772000953674317,5.039999532241821Q4.845870953674316,5.039999532241821,4.918320953674316,5.054409532241822Q4.990770953674316,5.068819532241822,5.059010953674316,5.097089532241821Q5.127260953674316,5.125359532241822,5.188680953674316,5.1663995322418215Q5.250100953674316,5.207439532241821,5.302330953674316,5.259669532241821Q5.354560953674317,5.311899532241821,5.395600953674316,5.373319532241821Q5.436640953674316,5.434739532241821,5.464910953674316,5.502989532241822Q5.493180953674316,5.571229532241821,5.507590953674317,5.643679532241821Q5.522000953674317,5.716129532241821,5.522000953674317,5.789999532241821ZM5.522000953674317,5.789999532241821Q5.522000953674317,5.8638695322418215,5.507590953674317,5.936319532241821Q5.493180953674316,6.008769532241821,5.464910953674316,6.077009532241821Q5.436640953674316,6.1452595322418215,5.395600953674316,6.206679532241822Q5.354560953674317,6.268099532241822,5.302330953674316,6.320329532241821Q5.250100953674316,6.372559532241821,5.188680953674316,6.413599532241821Q5.127260953674316,6.4546395322418215,5.059010953674316,6.4829095322418215Q4.990770953674316,6.5111795322418216,4.918320953674316,6.525589532241821Q4.845870953674316,6.539999532241821,4.772000953674317,6.539999532241821Q4.6981319536743165,6.539999532241821,4.625682953674317,6.525589532241821Q4.553233953674316,6.5111795322418216,4.484987953674317,6.4829095322418215Q4.416741953674316,6.4546395322418215,4.3553229536743165,6.413599532241821Q4.293903953674317,6.372559532241821,4.2416709536743165,6.320329532241821Q4.189437953674316,6.268099532241822,4.148398953674317,6.206679532241822Q4.107358953674316,6.1452595322418215,4.079090953674316,6.077009532241821Q4.0508229536743166,6.008769532241821,4.036411953674317,5.936319532241821Q4.022000953674317,5.8638695322418215,4.022000953674317,5.789999532241821Q4.022000953674317,5.716129532241821,4.036411953674317,5.643679532241821Q4.0508229536743166,5.571229532241821,4.079090953674316,5.502989532241822Q4.107358953674316,5.434739532241821,4.148398953674317,5.373319532241821Q4.189437953674316,5.311899532241821,4.2416709536743165,5.259669532241821Q4.293903953674317,5.207439532241821,4.3553229536743165,5.1663995322418215Q4.416741953674316,5.125359532241822,4.484987953674317,5.097089532241821Q4.553233953674316,5.068819532241822,4.625682953674317,5.054409532241822Q4.6981319536743165,5.039999532241821,4.772000953674317,5.039999532241821Q4.845870953674316,5.039999532241821,4.918320953674316,5.054409532241822Q4.990770953674316,5.068819532241822,5.059010953674316,5.097089532241821Q5.127260953674316,5.125359532241822,5.188680953674316,5.1663995322418215Q5.250100953674316,5.207439532241821,5.302330953674316,5.259669532241821Q5.354560953674317,5.311899532241821,5.395600953674316,5.373319532241821Q5.436640953674316,5.434739532241821,5.464910953674316,5.502989532241822Q5.493180953674316,5.571229532241821,5.507590953674317,5.643679532241821Q5.522000953674317,5.716129532241821,5.522000953674317,5.789999532241821ZM19.978000953674318,5.7909995322418215Q19.978000953674318,5.864869532241821,19.963600953674316,5.937319532241821Q19.949200953674318,6.009769532241821,19.920900953674316,6.078009532241822Q19.892600953674318,6.146259532241821,19.851600953674318,6.207679532241821Q19.810600953674317,6.269099532241821,19.758300953674315,6.321329532241822Q19.706100953674316,6.3735595322418215,19.644700953674317,6.414599532241821Q19.583300953674318,6.455639532241821,19.515000953674317,6.483909532241821Q19.446800953674316,6.512179532241821,19.374300953674314,6.526589532241822Q19.301900953674316,6.5409995322418215,19.228000953674318,6.5409995322418215Q19.154100953674316,6.5409995322418215,19.081700953674314,6.526589532241822Q19.009200953674316,6.512179532241821,18.94100095367432,6.483909532241821Q18.872700953674318,6.455639532241821,18.811300953674316,6.414599532241821Q18.749900953674317,6.3735595322418215,18.697700953674314,6.321329532241822Q18.64540095367432,6.269099532241821,18.604400953674315,6.207679532241821Q18.563400953674318,6.146259532241821,18.535100953674316,6.078009532241822Q18.506800953674315,6.009769532241821,18.492400953674316,5.937319532241821Q18.478000953674318,5.864869532241821,18.478000953674318,5.7909995322418215Q18.478000953674318,5.717129532241821,18.492400953674316,5.644679532241821Q18.506800953674315,5.572229532241821,18.535100953674316,5.503989532241821Q18.563400953674318,5.435739532241821,18.604400953674315,5.374319532241821Q18.64540095367432,5.312899532241821,18.697700953674314,5.260669532241821Q18.749900953674317,5.208439532241821,18.811300953674316,5.167399532241822Q18.872700953674318,5.126359532241821,18.94100095367432,5.098089532241821Q19.009200953674316,5.069819532241821,19.081700953674314,5.055409532241821Q19.154100953674316,5.0409995322418215,19.228000953674318,5.0409995322418215Q19.301900953674316,5.0409995322418215,19.374300953674314,5.055409532241821Q19.446800953674316,5.069819532241821,19.515000953674317,5.098089532241821Q19.583300953674318,5.126359532241821,19.644700953674317,5.167399532241822Q19.706100953674316,5.208439532241821,19.758300953674315,5.260669532241821Q19.810600953674317,5.312899532241821,19.851600953674318,5.374319532241821Q19.892600953674318,5.435739532241821,19.920900953674316,5.503989532241821Q19.949200953674318,5.572229532241821,19.963600953674316,5.644679532241821Q19.978000953674318,5.717129532241821,19.978000953674318,5.7909995322418215ZM21.000000953674316,5.955999532241821Q21.000000953674316,6.029869532241822,20.985600953674318,6.102319532241822Q20.971200953674316,6.174769532241822,20.942900953674318,6.243009532241821Q20.914600953674316,6.311259532241821,20.873600953674316,6.372679532241821Q20.832600953674316,6.434099532241821,20.780300953674317,6.486329532241821Q20.728100953674318,6.5385595322418215,20.666700953674315,6.579599532241821Q20.605300953674316,6.620639532241821,20.537000953674315,6.648909532241821Q20.468800953674318,6.677179532241821,20.396300953674317,6.691589532241821Q20.323900953674315,6.7059995322418215,20.250000953674316,6.7059995322418215Q20.176100953674318,6.7059995322418215,20.103700953674316,6.691589532241821Q20.031200953674315,6.677179532241821,19.963000953674317,6.648909532241821Q19.894700953674317,6.620639532241821,19.833300953674318,6.579599532241821Q19.771900953674315,6.5385595322418215,19.719700953674316,6.486329532241821Q19.667400953674317,6.434099532241821,19.626400953674317,6.372679532241821Q19.585400953674316,6.311259532241821,19.557100953674315,6.243009532241821Q19.528800953674317,6.174769532241822,19.51440095367432,6.102319532241822Q19.500000953674316,6.029869532241822,19.500000953674316,5.955999532241821Q19.500000953674316,5.882129532241821,19.51440095367432,5.809679532241821Q19.528800953674317,5.737229532241821,19.557100953674315,5.668989532241821Q19.585400953674316,5.600739532241821,19.626400953674317,5.539319532241821Q19.667400953674317,5.477899532241821,19.719700953674316,5.425669532241821Q19.771900953674315,5.373439532241822,19.833300953674318,5.332399532241821Q19.894700953674317,5.291359532241821,19.963000953674317,5.263089532241821Q20.031200953674315,5.234819532241821,20.103700953674316,5.220409532241821Q20.176100953674318,5.205999532241821,20.250000953674316,5.205999532241821Q20.323900953674315,5.205999532241821,20.396300953674317,5.220409532241821Q20.468800953674318,5.234819532241821,20.537000953674315,5.263089532241821Q20.605300953674316,5.291359532241821,20.666700953674315,5.332399532241821Q20.728100953674318,5.373439532241822,20.780300953674317,5.425669532241821Q20.832600953674316,5.477899532241821,20.873600953674316,5.539319532241821Q20.914600953674316,5.600739532241821,20.942900953674318,5.668989532241821Q20.971200953674316,5.737229532241821,20.985600953674318,5.809679532241821Q21.000000953674316,5.882129532241821,21.000000953674316,5.955999532241821ZM19.978000953674318,5.789999532241821Q19.978000953674318,5.8638695322418215,19.963600953674316,5.936319532241821Q19.949200953674318,6.008769532241821,19.920900953674316,6.077009532241821Q19.892600953674318,6.1452595322418215,19.851600953674318,6.206679532241822Q19.810600953674317,6.268099532241822,19.758300953674315,6.320329532241821Q19.706100953674316,6.372559532241821,19.644700953674317,6.413599532241821Q19.583300953674318,6.4546395322418215,19.515000953674317,6.4829095322418215Q19.446800953674316,6.5111795322418216,19.374300953674314,6.525589532241821Q19.301900953674316,6.539999532241821,19.228000953674318,6.539999532241821Q19.154100953674316,6.539999532241821,19.081700953674314,6.525589532241821Q19.009200953674316,6.5111795322418216,18.94100095367432,6.4829095322418215Q18.872700953674318,6.4546395322418215,18.811300953674316,6.413599532241821Q18.749900953674317,6.372559532241821,18.697700953674314,6.320329532241821Q18.64540095367432,6.268099532241822,18.604400953674315,6.206679532241822Q18.563400953674318,6.1452595322418215,18.535100953674316,6.077009532241821Q18.506800953674315,6.008769532241821,18.492400953674316,5.936319532241821Q18.478000953674318,5.8638695322418215,18.478000953674318,5.789999532241821Q18.478000953674318,5.716129532241821,18.492400953674316,5.643679532241821Q18.506800953674315,5.571229532241821,18.535100953674316,5.502989532241822Q18.563400953674318,5.434739532241821,18.604400953674315,5.373319532241821Q18.64540095367432,5.311899532241821,18.697700953674314,5.259669532241821Q18.749900953674317,5.207439532241821,18.811300953674316,5.1663995322418215Q18.872700953674318,5.125359532241822,18.94100095367432,5.097089532241821Q19.009200953674316,5.068819532241822,19.081700953674314,5.054409532241822Q19.154100953674316,5.039999532241821,19.228000953674318,5.039999532241821Q19.301900953674316,5.039999532241821,19.374300953674314,5.054409532241822Q19.446800953674316,5.068819532241822,19.515000953674317,5.097089532241821Q19.583300953674318,5.125359532241822,19.644700953674317,5.1663995322418215Q19.706100953674316,5.207439532241821,19.758300953674315,5.259669532241821Q19.810600953674317,5.311899532241821,19.851600953674318,5.373319532241821Q19.892600953674318,5.434739532241821,19.920900953674316,5.502989532241822Q19.949200953674318,5.571229532241821,19.963600953674316,5.643679532241821Q19.978000953674318,5.716129532241821,19.978000953674318,5.789999532241821ZM4.500000953674316,5.954999532241821Q4.500000953674316,6.028869532241821,4.4855899536743165,6.101319532241821Q4.4711789536743165,6.173769532241821,4.442910953674317,6.242009532241822Q4.414641953674316,6.310259532241822,4.373602953674316,6.371679532241822Q4.332563953674317,6.433099532241822,4.280330953674317,6.485329532241821Q4.228097953674316,6.537559532241821,4.1666789536743165,6.578599532241821Q4.1052589536743165,6.6196395322418216,4.037013953674316,6.647909532241822Q3.9687679536743166,6.676179532241822,3.8963189536743164,6.690589532241821Q3.8238694536743165,6.704999532241821,3.7500009536743164,6.704999532241821Q3.6761324536743163,6.704999532241821,3.6036829536743165,6.690589532241821Q3.5312339536743163,6.676179532241822,3.4629879536743164,6.647909532241822Q3.3947429536743163,6.6196395322418216,3.3333229536743163,6.578599532241821Q3.2719039536743164,6.537559532241821,3.219670953674316,6.485329532241821Q3.1674379536743165,6.433099532241822,3.1263989536743164,6.371679532241822Q3.0853599536743164,6.310259532241822,3.0570909536743165,6.242009532241822Q3.0288229536743163,6.173769532241821,3.0144119536743164,6.101319532241821Q3.0000009536743164,6.028869532241821,3.0000009536743164,5.954999532241821Q3.0000009536743164,5.881129532241822,3.0144119536743164,5.808679532241822Q3.0288229536743163,5.736229532241821,3.0570909536743165,5.667989532241821Q3.0853599536743164,5.599739532241822,3.1263989536743164,5.538319532241822Q3.1674379536743165,5.476899532241822,3.219670953674316,5.424669532241822Q3.2719039536743164,5.372439532241821,3.3333229536743163,5.3313995322418215Q3.3947429536743163,5.290359532241821,3.4629879536743164,5.262089532241822Q3.5312339536743163,5.233819532241821,3.6036829536743165,5.219409532241821Q3.6761324536743163,5.204999532241821,3.7500009536743164,5.204999532241821Q3.8238694536743165,5.204999532241821,3.8963189536743164,5.219409532241821Q3.9687679536743166,5.233819532241821,4.037013953674316,5.262089532241822Q4.1052589536743165,5.290359532241821,4.1666789536743165,5.3313995322418215Q4.228097953674316,5.372439532241821,4.280330953674317,5.424669532241822Q4.332563953674317,5.476899532241822,4.373602953674316,5.538319532241822Q4.414641953674316,5.599739532241822,4.442910953674317,5.667989532241821Q4.4711789536743165,5.736229532241821,4.4855899536743165,5.808679532241822Q4.500000953674316,5.881129532241822,4.500000953674316,5.954999532241821ZM10.010000953674316,8.999999532241821Q10.010000953674316,9.073869532241822,9.995590953674316,9.146319532241822Q9.981180953674317,9.218769532241822,9.952910953674316,9.287009532241822Q9.924640953674317,9.35525953224182,9.883600953674318,9.416679532241822Q9.842560953674315,9.47809953224182,9.790330953674317,9.530329532241822Q9.738100953674316,9.58255953224182,9.676680953674317,9.62359953224182Q9.615260953674316,9.664639532241821,9.547010953674317,9.69290953224182Q9.478770953674317,9.721179532241822,9.406320953674317,9.735589532241821Q9.333870953674317,9.749999532241821,9.260000953674316,9.749999532241821Q9.186130953674317,9.749999532241821,9.113680953674315,9.735589532241821Q9.041230953674315,9.721179532241822,8.972990953674316,9.69290953224182Q8.904740953674317,9.664639532241821,8.843320953674317,9.62359953224182Q8.781900953674317,9.58255953224182,8.729670953674315,9.530329532241822Q8.677440953674317,9.47809953224182,8.636400953674316,9.416679532241822Q8.595360953674316,9.35525953224182,8.567090953674317,9.287009532241822Q8.538820953674318,9.218769532241822,8.524410953674316,9.146319532241822Q8.510000953674316,9.073869532241822,8.510000953674316,8.999999532241821Q8.510000953674316,8.926129532241822,8.524410953674316,8.85367953224182Q8.538820953674318,8.78122953224182,8.567090953674317,8.71298953224182Q8.595360953674316,8.644739532241822,8.636400953674316,8.583319532241822Q8.677440953674317,8.521899532241822,8.729670953674315,8.46966953224182Q8.781900953674317,8.417439532241822,8.843320953674317,8.376399532241821Q8.904740953674317,8.33535953224182,8.972990953674316,8.307089532241822Q9.041230953674315,8.278819532241823,9.113680953674315,8.264409532241821Q9.186130953674317,8.249999532241821,9.260000953674316,8.249999532241821Q9.333870953674317,8.249999532241821,9.406320953674317,8.264409532241821Q9.478770953674317,8.278819532241823,9.547010953674317,8.307089532241822Q9.615260953674316,8.33535953224182,9.676680953674317,8.376399532241821Q9.738100953674316,8.417439532241822,9.790330953674317,8.46966953224182Q9.842560953674315,8.521899532241822,9.883600953674318,8.583319532241822Q9.924640953674317,8.644739532241822,9.952910953674316,8.71298953224182Q9.981180953674317,8.78122953224182,9.995590953674316,8.85367953224182Q10.010000953674316,8.926129532241822,10.010000953674316,8.999999532241821ZM16.500000953674316,5.392999532241822Q16.500000953674316,5.466869532241821,16.485600953674314,5.539319532241821Q16.471200953674316,5.611769532241821,16.442900953674318,5.680009532241821Q16.414600953674316,5.748259532241821,16.373600953674316,5.809679532241821Q16.332600953674316,5.871099532241821,16.280300953674317,5.923329532241821Q16.228100953674314,5.975559532241821,16.166700953674315,6.0165995322418215Q16.105300953674316,6.057639532241821,16.037000953674315,6.085909532241821Q15.968800953674316,6.114179532241821,15.896300953674317,6.128589532241821Q15.823900953674316,6.142999532241822,15.750000953674316,6.142999532241822Q15.676100953674316,6.142999532241822,15.603700953674316,6.128589532241821Q15.531200953674317,6.114179532241821,15.463000953674316,6.085909532241821Q15.394700953674317,6.057639532241821,15.333300953674316,6.0165995322418215Q15.271900953674317,5.975559532241821,15.219700953674316,5.923329532241821Q15.167400953674317,5.871099532241821,15.126400953674317,5.809679532241821Q15.085400953674316,5.748259532241821,15.057100953674317,5.680009532241821Q15.028800953674317,5.611769532241821,15.014400953674317,5.539319532241821Q15.000000953674316,5.466869532241821,15.000000953674316,5.392999532241822Q15.000000953674316,5.3191295322418215,15.014400953674317,5.246679532241821Q15.028800953674317,5.174229532241821,15.057100953674317,5.105989532241821Q15.085400953674316,5.0377395322418215,15.126400953674317,4.976319532241821Q15.167400953674317,4.914899532241821,15.219700953674316,4.862669532241821Q15.271900953674317,4.810439532241821,15.333300953674316,4.769399532241821Q15.394700953674317,4.7283595322418215,15.463000953674316,4.7000895322418215Q15.531200953674317,4.6718195322418214,15.603700953674316,4.657409532241822Q15.676100953674316,4.642999532241822,15.750000953674316,4.642999532241822Q15.823900953674316,4.642999532241822,15.896300953674317,4.657409532241822Q15.968800953674316,4.6718195322418214,16.037000953674315,4.7000895322418215Q16.105300953674316,4.7283595322418215,16.166700953674315,4.769399532241821Q16.228100953674314,4.810439532241821,16.280300953674317,4.862669532241821Q16.332600953674316,4.914899532241821,16.373600953674316,4.976319532241821Q16.414600953674316,5.0377395322418215,16.442900953674318,5.105989532241821Q16.471200953674316,5.174229532241821,16.485600953674314,5.246679532241821Q16.500000953674316,5.3191295322418215,16.500000953674316,5.392999532241822ZM10.356000953674316,17.999979532241824Q10.356000953674316,18.073879532241822,10.341590953674316,18.14627953224182Q10.327180953674317,18.218779532241822,10.298910953674316,18.286979532241823Q10.270640953674317,18.35527953224182,10.229600953674316,18.416679532241822Q10.188560953674315,18.47807953224182,10.136330953674317,18.53037953224182Q10.084100953674316,18.582579532241823,10.022680953674318,18.62357953224182Q9.961260953674316,18.66467953224182,9.893010953674317,18.69287953224182Q9.824770953674317,18.72117953224182,9.752320953674317,18.73557953224182Q9.679870953674317,18.74997953224182,9.606000953674316,18.74997953224182Q9.532130953674317,18.74997953224182,9.459680953674315,18.73557953224182Q9.387230953674315,18.72117953224182,9.318990953674316,18.69287953224182Q9.250740953674317,18.66467953224182,9.189320953674317,18.62357953224182Q9.127900953674317,18.582579532241823,9.075670953674315,18.53037953224182Q9.023440953674317,18.47807953224182,8.982400953674317,18.416679532241822Q8.941360953674316,18.35527953224182,8.913090953674317,18.286979532241823Q8.884820953674318,18.218779532241822,8.870410953674316,18.14627953224182Q8.856000953674316,18.073879532241822,8.856000953674316,17.999979532241824Q8.856000953674316,17.92617953224182,8.870410953674316,17.85367953224182Q8.884820953674318,17.781279532241822,8.913090953674317,17.71297953224182Q8.941360953674316,17.64477953224182,8.982400953674317,17.58327953224182Q9.023440953674317,17.52187953224182,9.075670953674315,17.46967953224182Q9.127900953674317,17.41747953224182,9.189320953674317,17.37637953224182Q9.250740953674317,17.335379532241824,9.318990953674316,17.307079532241822Q9.387230953674315,17.27877953224182,9.459680953674315,17.264379532241822Q9.532130953674317,17.249979532241824,9.606000953674316,17.249979532241824Q9.679870953674317,17.249979532241824,9.752320953674317,17.264379532241822Q9.824770953674317,17.27877953224182,9.893010953674317,17.307079532241822Q9.961260953674316,17.335379532241824,10.022680953674318,17.37637953224182Q10.084100953674316,17.41747953224182,10.136330953674317,17.46967953224182Q10.188560953674315,17.52187953224182,10.229600953674316,17.58327953224182Q10.270640953674317,17.64477953224182,10.298910953674316,17.71297953224182Q10.327180953674317,17.781279532241822,10.341590953674316,17.85367953224182Q10.356000953674316,17.92617953224182,10.356000953674316,17.999979532241824ZM19.978000953674318,5.789999532241821Q19.978000953674318,5.8638695322418215,19.963600953674316,5.936319532241821Q19.949200953674318,6.008769532241821,19.920900953674316,6.077009532241821Q19.892600953674318,6.1452595322418215,19.851600953674318,6.206679532241822Q19.810600953674317,6.268099532241822,19.758300953674315,6.320329532241821Q19.706100953674316,6.372559532241821,19.644700953674317,6.413599532241821Q19.583300953674318,6.4546395322418215,19.515000953674317,6.4829095322418215Q19.446800953674316,6.5111795322418216,19.374300953674314,6.525589532241821Q19.301900953674316,6.539999532241821,19.228000953674318,6.539999532241821Q19.154100953674316,6.539999532241821,19.081700953674314,6.525589532241821Q19.009200953674316,6.5111795322418216,18.94100095367432,6.4829095322418215Q18.872700953674318,6.4546395322418215,18.811300953674316,6.413599532241821Q18.749900953674317,6.372559532241821,18.697700953674314,6.320329532241821Q18.64540095367432,6.268099532241822,18.604400953674315,6.206679532241822Q18.563400953674318,6.1452595322418215,18.535100953674316,6.077009532241821Q18.506800953674315,6.008769532241821,18.492400953674316,5.936319532241821Q18.478000953674318,5.8638695322418215,18.478000953674318,5.789999532241821Q18.478000953674318,5.716129532241821,18.492400953674316,5.643679532241821Q18.506800953674315,5.571229532241821,18.535100953674316,5.502989532241822Q18.563400953674318,5.434739532241821,18.604400953674315,5.373319532241821Q18.64540095367432,5.311899532241821,18.697700953674314,5.259669532241821Q18.749900953674317,5.207439532241821,18.811300953674316,5.1663995322418215Q18.872700953674318,5.125359532241822,18.94100095367432,5.097089532241821Q19.009200953674316,5.068819532241822,19.081700953674314,5.054409532241822Q19.154100953674316,5.039999532241821,19.228000953674318,5.039999532241821Q19.301900953674316,5.039999532241821,19.374300953674314,5.054409532241822Q19.446800953674316,5.068819532241822,19.515000953674317,5.097089532241821Q19.583300953674318,5.125359532241822,19.644700953674317,5.1663995322418215Q19.706100953674316,5.207439532241821,19.758300953674315,5.259669532241821Q19.810600953674317,5.311899532241821,19.851600953674318,5.373319532241821Q19.892600953674318,5.434739532241821,19.920900953674316,5.502989532241822Q19.949200953674318,5.571229532241821,19.963600953674316,5.643679532241821Q19.978000953674318,5.716129532241821,19.978000953674318,5.789999532241821ZM15.144000953674317,17.999979532241824Q15.144000953674317,18.073879532241822,15.129600953674316,18.14627953224182Q15.115200953674316,18.218779532241822,15.086900953674316,18.286979532241823Q15.058600953674317,18.35527953224182,15.017600953674316,18.416679532241822Q14.976600953674316,18.47807953224182,14.924300953674317,18.53037953224182Q14.872100953674316,18.582579532241823,14.810700953674317,18.62357953224182Q14.749300953674316,18.66467953224182,14.681000953674316,18.69287953224182Q14.612800953674316,18.72117953224182,14.540300953674317,18.73557953224182Q14.467900953674317,18.74997953224182,14.394000953674317,18.74997953224182Q14.320100953674316,18.74997953224182,14.247700953674316,18.73557953224182Q14.175200953674317,18.72117953224182,14.107000953674316,18.69287953224182Q14.038700953674317,18.66467953224182,13.977300953674316,18.62357953224182Q13.915900953674317,18.582579532241823,13.863700953674316,18.53037953224182Q13.811400953674317,18.47807953224182,13.770400953674317,18.416679532241822Q13.729360953674316,18.35527953224182,13.701090953674317,18.286979532241823Q13.672820953674316,18.218779532241822,13.658410953674316,18.14627953224182Q13.644000953674317,18.073879532241822,13.644000953674317,17.999979532241824Q13.644000953674317,17.92617953224182,13.658410953674316,17.85367953224182Q13.672820953674316,17.781279532241822,13.701090953674317,17.71297953224182Q13.729360953674316,17.64477953224182,13.770400953674317,17.58327953224182Q13.811400953674317,17.52187953224182,13.863700953674316,17.46967953224182Q13.915900953674317,17.41747953224182,13.977300953674316,17.37637953224182Q14.038700953674317,17.335379532241824,14.107000953674316,17.307079532241822Q14.175200953674317,17.27877953224182,14.247700953674316,17.264379532241822Q14.320100953674316,17.249979532241824,14.394000953674317,17.249979532241824Q14.467900953674317,17.249979532241824,14.540300953674317,17.264379532241822Q14.612800953674316,17.27877953224182,14.681000953674316,17.307079532241822Q14.749300953674316,17.335379532241824,14.810700953674317,17.37637953224182Q14.872100953674316,17.41747953224182,14.924300953674317,17.46967953224182Q14.976600953674316,17.52187953224182,15.017600953674316,17.58327953224182Q15.058600953674317,17.64477953224182,15.086900953674316,17.71297953224182Q15.115200953674316,17.781279532241822,15.129600953674316,17.85367953224182Q15.144000953674317,17.92617953224182,15.144000953674317,17.999979532241824ZM5.522000953674317,5.789999532241821Q5.522000953674317,5.8638695322418215,5.507590953674317,5.936319532241821Q5.493180953674316,6.008769532241821,5.464910953674316,6.077009532241821Q5.436640953674316,6.1452595322418215,5.395600953674316,6.206679532241822Q5.354560953674317,6.268099532241822,5.302330953674316,6.320329532241821Q5.250100953674316,6.372559532241821,5.188680953674316,6.413599532241821Q5.127260953674316,6.4546395322418215,5.059010953674316,6.4829095322418215Q4.990770953674316,6.5111795322418216,4.918320953674316,6.525589532241821Q4.845870953674316,6.539999532241821,4.772000953674317,6.539999532241821Q4.698130953674316,6.539999532241821,4.625681953674317,6.525589532241821Q4.553232953674316,6.5111795322418216,4.4849869536743165,6.4829095322418215Q4.416741953674316,6.4546395322418215,4.355321953674316,6.413599532241821Q4.2939029536743165,6.372559532241821,4.241669953674316,6.320329532241821Q4.189436953674316,6.268099532241822,4.1483979536743165,6.206679532241822Q4.107357953674317,6.1452595322418215,4.079089953674316,6.077009532241821Q4.050821953674316,6.008769532241821,4.0364109536743165,5.936319532241821Q4.0219999536743165,5.8638695322418215,4.0219999536743165,5.789999532241821Q4.0219999536743165,5.716129532241821,4.0364109536743165,5.643679532241821Q4.050821953674316,5.571229532241821,4.079089953674316,5.502989532241822Q4.107357953674317,5.434739532241821,4.1483979536743165,5.373319532241821Q4.189436953674316,5.311899532241821,4.241669953674316,5.259669532241821Q4.2939029536743165,5.207439532241821,4.355321953674316,5.1663995322418215Q4.416741953674316,5.125359532241822,4.4849869536743165,5.097089532241821Q4.553232953674316,5.068819532241822,4.625681953674317,5.054409532241822Q4.698130953674316,5.039999532241821,4.772000953674317,5.039999532241821Q4.845870953674316,5.039999532241821,4.918320953674316,5.054409532241822Q4.990770953674316,5.068819532241822,5.059010953674316,5.097089532241821Q5.127260953674316,5.125359532241822,5.188680953674316,5.1663995322418215Q5.250100953674316,5.207439532241821,5.302330953674316,5.259669532241821Q5.354560953674317,5.311899532241821,5.395600953674316,5.373319532241821Q5.436640953674316,5.434739532241821,5.464910953674316,5.502989532241822Q5.493180953674316,5.571229532241821,5.507590953674317,5.643679532241821Q5.522000953674317,5.716129532241821,5.522000953674317,5.789999532241821ZM16.500000953674316,5.392999532241822Q16.500000953674316,5.466869532241821,16.485600953674314,5.539319532241821Q16.471200953674316,5.611769532241821,16.442900953674318,5.680009532241821Q16.414600953674316,5.748259532241821,16.373600953674316,5.809679532241821Q16.332600953674316,5.871099532241821,16.280300953674317,5.923329532241821Q16.228100953674314,5.975559532241821,16.166700953674315,6.0165995322418215Q16.105300953674316,6.057639532241821,16.037000953674315,6.085909532241821Q15.968800953674316,6.114179532241821,15.896300953674317,6.128589532241821Q15.823900953674316,6.142999532241822,15.750000953674316,6.142999532241822Q15.676100953674316,6.142999532241822,15.603700953674316,6.128589532241821Q15.531200953674317,6.114179532241821,15.463000953674316,6.085909532241821Q15.394700953674317,6.057639532241821,15.333300953674316,6.0165995322418215Q15.271900953674317,5.975559532241821,15.219700953674316,5.923329532241821Q15.167400953674317,5.871099532241821,15.126400953674317,5.809679532241821Q15.085400953674316,5.748259532241821,15.057100953674317,5.680009532241821Q15.028800953674317,5.611769532241821,15.014400953674317,5.539319532241821Q15.000000953674316,5.466869532241821,15.000000953674316,5.392999532241822Q15.000000953674316,5.3191295322418215,15.014400953674317,5.246679532241821Q15.028800953674317,5.174229532241821,15.057100953674317,5.105989532241821Q15.085400953674316,5.0377395322418215,15.126400953674317,4.976319532241821Q15.167400953674317,4.914899532241821,15.219700953674316,4.862669532241821Q15.271900953674317,4.810439532241821,15.333300953674316,4.769399532241821Q15.394700953674317,4.7283595322418215,15.463000953674316,4.7000895322418215Q15.531200953674317,4.6718195322418214,15.603700953674316,4.657409532241822Q15.676100953674316,4.642999532241822,15.750000953674316,4.642999532241822Q15.823900953674316,4.642999532241822,15.896300953674317,4.657409532241822Q15.968800953674316,4.6718195322418214,16.037000953674315,4.7000895322418215Q16.105300953674316,4.7283595322418215,16.166700953674315,4.769399532241821Q16.228100953674314,4.810439532241821,16.280300953674317,4.862669532241821Q16.332600953674316,4.914899532241821,16.373600953674316,4.976319532241821Q16.414600953674316,5.0377395322418215,16.442900953674318,5.105989532241821Q16.471200953674316,5.174229532241821,16.485600953674314,5.246679532241821Q16.500000953674316,5.3191295322418215,16.500000953674316,5.392999532241822ZM15.490000953674317,8.999999532241821Q15.490000953674317,9.073869532241822,15.475600953674316,9.146319532241822Q15.461200953674316,9.218769532241822,15.432900953674316,9.287009532241822Q15.404600953674317,9.35525953224182,15.363600953674316,9.416679532241822Q15.322600953674316,9.47809953224182,15.270300953674317,9.530329532241822Q15.218100953674316,9.58255953224182,15.156700953674317,9.62359953224182Q15.095300953674316,9.664639532241821,15.027000953674316,9.69290953224182Q14.958800953674317,9.721179532241822,14.886300953674317,9.735589532241821Q14.813900953674317,9.749999532241821,14.740000953674317,9.749999532241821Q14.666100953674317,9.749999532241821,14.593700953674317,9.735589532241821Q14.521200953674317,9.721179532241822,14.453000953674316,9.69290953224182Q14.384700953674317,9.664639532241821,14.323300953674316,9.62359953224182Q14.261900953674317,9.58255953224182,14.209700953674316,9.530329532241822Q14.157400953674317,9.47809953224182,14.116400953674317,9.416679532241822Q14.075400953674317,9.35525953224182,14.047100953674317,9.287009532241822Q14.018800953674317,9.218769532241822,14.004400953674317,9.146319532241822Q13.990000953674317,9.073869532241822,13.990000953674317,8.999999532241821Q13.990000953674317,8.926129532241822,14.004400953674317,8.85367953224182Q14.018800953674317,8.78122953224182,14.047100953674317,8.71298953224182Q14.075400953674317,8.644739532241822,14.116400953674317,8.583319532241822Q14.157400953674317,8.521899532241822,14.209700953674316,8.46966953224182Q14.261900953674317,8.417439532241822,14.323300953674316,8.376399532241821Q14.384700953674317,8.33535953224182,14.453000953674316,8.307089532241822Q14.521200953674317,8.278819532241823,14.593700953674317,8.264409532241821Q14.666100953674317,8.249999532241821,14.740000953674317,8.249999532241821Q14.813900953674317,8.249999532241821,14.886300953674317,8.264409532241821Q14.958800953674317,8.278819532241823,15.027000953674316,8.307089532241822Q15.095300953674316,8.33535953224182,15.156700953674317,8.376399532241821Q15.218100953674316,8.417439532241822,15.270300953674317,8.46966953224182Q15.322600953674316,8.521899532241822,15.363600953674316,8.583319532241822Q15.404600953674317,8.644739532241822,15.432900953674316,8.71298953224182Q15.461200953674316,8.78122953224182,15.475600953674316,8.85367953224182Q15.490000953674317,8.926129532241822,15.490000953674317,8.999999532241821Z" fill="#000000" fill-opacity="1"/></g></g></svg>