<svg xmlns="http://www.w3.org/2000/svg" xmlns:xlink="http://www.w3.org/1999/xlink" fill="none" version="1.1" width="24" height="24" viewBox="0 0 24 24"><defs><clipPath id="master_svg0_716_6464"><rect x="0" y="0" width="24" height="24" rx="0"/></clipPath></defs><g clip-path="url(#master_svg0_716_6464)"><g><path d="M3.75,7.5L20.25,7.5Q20.3239,7.5,20.3963,7.485589Q20.4688,7.471178,20.537,7.44291Q20.6053,7.414641,20.6667,7.373602Q20.7281,7.332563,20.7803,7.28033Q20.8326,7.228097,20.8736,7.166678Q20.9146,7.105258,20.9429,7.037013Q20.9712,6.968767,20.9856,6.896318Q21,6.8238685,21,6.75Q21,6.6761315,20.9856,6.603682Q20.9712,6.531233,20.9429,6.462987Q20.9146,6.394742,20.8736,6.333322Q20.8326,6.271903,20.7803,6.21967Q20.7281,6.167437,20.6667,6.126398Q20.6053,6.085359,20.537,6.05709Q20.4688,6.028822,20.3963,6.014411Q20.3239,6,20.25,6L3.75,6Q3.6761315,6,3.603682,6.014411Q3.531233,6.028822,3.462987,6.05709Q3.394742,6.085359,3.333322,6.126398Q3.271903,6.167437,3.21967,6.21967Q3.167437,6.271903,3.126398,6.333322Q3.085359,6.394742,3.05709,6.462987Q3.028822,6.531233,3.014411,6.603682Q3,6.6761315,3,6.75Q3,6.8238685,3.014411,6.896318Q3.028822,6.968767,3.05709,7.037013Q3.085359,7.105258,3.126398,7.166678Q3.167437,7.228097,3.21967,7.28033Q3.271903,7.332563,3.333322,7.373602Q3.394742,7.414641,3.462987,7.44291Q3.531233,7.471178,3.603682,7.485589Q3.6761315,7.5,3.75,7.5ZM3.75,12.75L20.25,12.75Q20.3239,12.75,20.3963,12.73559Q20.4688,12.72118,20.537,12.692910000000001Q20.6053,12.66464,20.6667,12.6236Q20.7281,12.58256,20.7803,12.53033Q20.8326,12.478100000000001,20.8736,12.41668Q20.9146,12.355260000000001,20.9429,12.28701Q20.9712,12.21877,20.9856,12.14632Q21,12.07387,21,12Q21,11.92613,20.9856,11.85368Q20.9712,11.78123,20.9429,11.71299Q20.9146,11.644739999999999,20.8736,11.58332Q20.8326,11.521899999999999,20.7803,11.46967Q20.7281,11.41744,20.6667,11.3764Q20.6053,11.33536,20.537,11.307089999999999Q20.4688,11.27882,20.3963,11.26441Q20.3239,11.25,20.25,11.25L3.75,11.25Q3.6761315,11.25,3.603682,11.26441Q3.531233,11.27882,3.462987,11.307089999999999Q3.394742,11.33536,3.333322,11.3764Q3.271903,11.41744,3.21967,11.46967Q3.167437,11.521899999999999,3.126398,11.58332Q3.085359,11.644739999999999,3.05709,11.71299Q3.028822,11.78123,3.014411,11.85368Q3,11.92613,3,12Q3,12.07387,3.014411,12.14632Q3.028822,12.21877,3.05709,12.28701Q3.085359,12.355260000000001,3.126398,12.41668Q3.167437,12.478100000000001,3.21967,12.53033Q3.271903,12.58256,3.333322,12.6236Q3.394742,12.66464,3.462987,12.692910000000001Q3.531233,12.72118,3.603682,12.73559Q3.6761315,12.75,3.75,12.75ZM3.75,18L20.25,18Q20.3239,18,20.3963,17.985599999999998Q20.4688,17.9712,20.537,17.9429Q20.6053,17.9146,20.6667,17.8736Q20.7281,17.8326,20.7803,17.7803Q20.8326,17.728099999999998,20.8736,17.6667Q20.9146,17.6053,20.9429,17.537Q20.9712,17.4688,20.9856,17.3963Q21,17.323900000000002,21,17.25Q21,17.176099999999998,20.9856,17.1037Q20.9712,17.0312,20.9429,16.963Q20.9146,16.8947,20.8736,16.8333Q20.8326,16.771900000000002,20.7803,16.71967Q20.7281,16.66744,20.6667,16.6264Q20.6053,16.58536,20.537,16.557090000000002Q20.4688,16.52882,20.3963,16.514409999999998Q20.3239,16.5,20.25,16.5L3.75,16.5Q3.6761315,16.5,3.603682,16.514409999999998Q3.531233,16.52882,3.462987,16.557090000000002Q3.394742,16.58536,3.333322,16.6264Q3.271903,16.66744,3.21967,16.71967Q3.167437,16.771900000000002,3.126398,16.8333Q3.085359,16.8947,3.05709,16.963Q3.028822,17.0312,3.014411,17.1037Q3,17.176099999999998,3,17.25Q3,17.323900000000002,3.014411,17.3963Q3.028822,17.4688,3.05709,17.537Q3.085359,17.6053,3.126398,17.6667Q3.167437,17.728099999999998,3.21967,17.7803Q3.271903,17.8326,3.333322,17.8736Q3.394742,17.9146,3.462987,17.9429Q3.531233,17.9712,3.603682,17.985599999999998Q3.6761315,18,3.75,18Z" fill-rule="evenodd" fill="#000000" fill-opacity="1"/></g></g></svg>