<svg xmlns="http://www.w3.org/2000/svg" xmlns:xlink="http://www.w3.org/1999/xlink" fill="none" version="1.1" width="24" height="24" viewBox="0 0 24 24"><defs><clipPath id="master_svg0_1135_5333"><rect x="0" y="0" width="24" height="24" rx="0"/></clipPath></defs><g clip-path="url(#master_svg0_1135_5333)"><g><path d="M16.418814712524416,19.062613597106935L6.852794712524414,13.748613597106933Q6.7882147125244146,13.712713597106934,6.731884712524414,13.665013597106933Q6.675544712524414,13.617213597106934,6.629614712524415,13.559313597106934Q6.5836847125244145,13.501513597106934,6.5499247125244136,13.435813597106934Q6.516164712524414,13.370113597106934,6.495864712524414,13.299113597106933Q6.475564712524414,13.228013597106933,6.469524712524414,13.154413597106934Q6.463474712524414,13.080813597106934,6.471904712524414,13.007413597106934Q6.480324712524414,12.934013597106933,6.502914712524414,12.863713597106933Q6.525494712524415,12.793413597106934,6.5613747125244135,12.728813597106933Q6.5972447125244145,12.664213597106933,6.645024712524414,12.607913597106933Q6.6928047125244134,12.551513597106933,6.750654712524414,12.505613597106933Q6.808504712524414,12.459713597106933,6.8742047125244135,12.425913597106934Q6.939904712524414,12.392113597106933,7.010934712524414,12.371913597106934Q7.081954712524414,12.351613597106933,7.155584712524414,12.345513597106933Q7.229204712524414,12.339513597106933,7.302584712524414,12.347913597106933Q7.375974712524414,12.356313597106933,7.446304712524414,12.378913597106934Q7.516634712524414,12.401513597106934,7.581204712524414,12.437413597106934L17.147214712524416,17.751413597106932Q17.211814712524415,17.787213597106934,17.268114712524415,17.835013597106933Q17.324414712524415,17.88281359710693,17.370414712524415,17.940613597106932Q17.416314712524414,17.998513597106935,17.450114712524414,18.064213597106935Q17.483814712524413,18.129913597106935,17.504114712524412,18.200913597106933Q17.524414712524415,18.271913597106934,17.530514712524415,18.345613597106933Q17.536514712524415,18.419213597106932,17.528114712524413,18.492613597106935Q17.51971471252441,18.566013597106934,17.497114712524414,18.636313597106934Q17.474514712524414,18.706613597106934,17.438614712524412,18.771213597106932Q17.402714712524414,18.835813597106934,17.355014712524415,18.892113597106935Q17.307214712524413,18.948413597106935,17.249314712524416,18.994413597106934Q17.191514712524416,19.040313597106934,17.125814712524416,19.074113597106933Q17.060114712524413,19.107813597106933,16.98911471252441,19.128113597106932Q16.918014712524414,19.148413597106934,16.84441471252441,19.154513597106934Q16.770814712524412,19.160513597106934,16.697414712524413,19.152113597106933Q16.624014712524414,19.143713597106935,16.553714712524414,19.121113597106934Q16.483414712524414,19.098513597106933,16.418814712524416,19.062613597106935ZM17.147214712524416,6.248633597106934L7.581204712524414,11.562633597106933Q7.516634712524414,11.598503597106934,7.446304712524414,11.621083597106933Q7.375974712524414,11.643673597106934,7.302584712524414,11.652103597106933Q7.229194712524414,11.660533597106934,7.155574712524414,11.654483597106934Q7.081954712524414,11.648433597106933,7.010934712524414,11.628133597106933Q6.939904712524414,11.607843597106934,6.8742047125244135,11.574073597106933Q6.808504712524414,11.540313597106934,6.750654712524414,11.494383597106934Q6.6928047125244134,11.448453597106933,6.645024712524414,11.392113597106933Q6.5972447125244145,11.335783597106934,6.561364712524414,11.271213597106934Q6.525494712524415,11.206633597106933,6.502914712524414,11.136303597106934Q6.480324712524414,11.065973597106934,6.4718947125244135,10.992583597106934Q6.463464712524415,10.919203597106934,6.469514712524414,10.845583597106934Q6.475564712524414,10.771963597106934,6.495864712524414,10.700933597106934Q6.516164712524414,10.629903597106933,6.5499247125244136,10.564203597106934Q6.5836847125244145,10.498503597106934,6.629614712524415,10.440653597106934Q6.675544712524414,10.382803597106934,6.731884712524414,10.335023597106934Q6.7882147125244146,10.287243597106933,6.852794712524414,10.251373597106934L16.418814712524416,4.937373597106934Q16.483414712524414,4.901493597106933,16.553714712524414,4.8789135971069335Q16.624014712524414,4.856333597106934,16.697414712524413,4.847903597106933Q16.770814712524412,4.839473597106934,16.84441471252441,4.845523597106934Q16.918014712524414,4.851573597106934,16.98911471252441,4.871863597106934Q17.060114712524413,4.892163597106934,17.125814712524416,4.925923597106934Q17.191514712524416,4.959683597106934,17.249314712524416,5.005613597106933Q17.307214712524413,5.051543597106933,17.355014712524415,5.107883597106934Q17.402714712524414,5.164213597106933,17.438614712524412,5.228793597106934Q17.474514712524414,5.293363597106934,17.497114712524414,5.363693597106934Q17.51971471252441,5.4340235971069335,17.528114712524413,5.507413597106934Q17.536514712524415,5.580803597106934,17.530514712524415,5.654423597106934Q17.524414712524415,5.728043597106934,17.504114712524412,5.799063597106933Q17.483814712524413,5.8700935971069335,17.450114712524414,5.935793597106933Q17.416314712524414,6.001493597106934,17.370414712524415,6.059343597106933Q17.324414712524415,6.117203597106934,17.268114712524415,6.164983597106934Q17.211814712524415,6.2127635971069335,17.147214712524416,6.248633597106934ZM6.5618647125244145,12.727913597106934Q6.750004712524414,12.390313597106934,6.750004712524414,12.000003597106934Q6.750004712524414,11.610743597106934,6.561384712524414,11.271233597106933Q6.525504712524414,11.206653597106934,6.502924712524414,11.136323597106934Q6.480334712524414,11.065993597106933,6.471904712524414,10.992613597106933Q6.463474712524414,10.919223597106933,6.469514712524414,10.845603597106933Q6.475564712524414,10.771983597106933,6.495854712524414,10.700953597106933Q6.516154712524414,10.629933597106934,6.549914712524414,10.564223597106933Q6.583674712524414,10.498523597106933,6.629594712524414,10.440673597106933Q6.675524712524414,10.382813597106933,6.731864712524414,10.335033597106934Q6.7881947125244135,10.287253597106933,6.852764712524414,10.251383597106933Q6.9173447125244145,10.215503597106935,6.987674712524414,10.192923597106933Q7.058004712524414,10.170333597106934,7.131384712524414,10.161903597106933Q7.204774712524414,10.153473597106935,7.278394712524414,10.159513597106933Q7.352014712524414,10.165563597106933,7.423044712524414,10.185853597106934Q7.494064712524414,10.206153597106933,7.559774712524414,10.239913597106934Q7.625474712524414,10.273673597106933,7.683324712524414,10.319593597106934Q7.741184712524414,10.365523597106934,7.788964712524414,10.421863597106933Q7.836744712524414,10.478193597106934,7.872614712524414,10.542763597106934Q8.250004712524415,11.222053597106934,8.250004712524415,12.000003597106934Q8.250004712524415,12.780013597106933,7.872134712524414,13.458113597106934Q7.836184712524414,13.522613597106934,7.788324712524414,13.578913597106933Q7.740464712524414,13.635113597106933,7.682554712524414,13.681013597106933Q7.624644712524414,13.726913597106934,7.558894712524414,13.760513597106934Q7.493144712524414,13.794213597106934,7.422094712524414,13.814413597106933Q7.3510447125244145,13.834613597106934,7.277414712524414,13.840513597106934Q7.203784712524414,13.846513597106934,7.130404712524414,13.838013597106933Q7.057034712524414,13.829413597106933,6.986734712524414,13.806813597106933Q6.916434712524413,13.784113597106934,6.851904712524414,13.748113597106933Q6.787384712524414,13.712213597106933,6.731114712524414,13.664313597106933Q6.674844712524414,13.616513597106934,6.628984712524414,13.558513597106934Q6.583134712524414,13.500613597106934,6.549464712524414,13.434913597106934Q6.515784712524415,13.369113597106933,6.495584712524414,13.298113597106934Q6.475384712524415,13.227013597106934,6.469434712524414,13.153413597106933Q6.463484712524414,13.079813597106934,6.472014712524414,13.006413597106933Q6.480544712524415,12.933013597106934,6.503224712524414,12.862713597106934Q6.525904712524413,12.792413597106934,6.5618647125244145,12.727913597106934ZM7.872564712524414,13.457313597106934Q7.188154712524414,14.688813597106934,5.803424712524414,14.948613597106933Q4.4186847125244135,15.208313597106933,3.334501712524414,14.308613597106934Q2.250314712524414,13.408913597106933,2.250314712524414,12.000003597106934Q2.250314712524414,10.591113597106933,3.334502712524414,9.691393597106934Q4.418694712524414,8.791673597106934,5.803424712524414,9.051423597106933Q7.188154712524414,9.311183597106933,7.872564712524414,10.542663597106934Q7.908444712524414,10.607233597106934,7.931044712524414,10.677563597106934Q7.953644712524414,10.747883597106934,7.962084712524414,10.821273597106934Q7.970524712524414,10.894653597106933,7.964494712524414,10.968273597106933Q7.958454712524414,11.041903597106934,7.938174712524414,11.112933597106933Q7.917894712524414,11.183963597106933,7.884144712524414,11.249663597106933Q7.850394712524414,11.315373597106934,7.8044747125244145,11.373233597106934Q7.758554712524414,11.431093597106933,7.702224712524414,11.478883597106934Q7.645904712524414,11.526673597106933,7.581334712524414,11.562563597106934Q7.516764712524414,11.598443597106934,7.446434712524414,11.621043597106933Q7.376114712524414,11.643643597106934,7.302724712524414,11.652083597106934Q7.229344712524414,11.660523597106934,7.155724712524414,11.654493597106933Q7.082094712524414,11.648453597106933,7.011074712524414,11.628173597106933Q6.940044712524414,11.607893597106933,6.874334712524414,11.574143597106934Q6.808624712524415,11.540393597106934,6.750764712524414,11.494473597106934Q6.692904712524414,11.448553597106933,6.645114712524414,11.392223597106934Q6.597324712524414,11.335903597106933,6.561434712524414,11.271333597106933Q6.219234712524414,10.655593597106934,5.526864712524414,10.525713597106934Q4.834504712524414,10.395833597106934,4.292404712524414,10.845693597106933Q3.750314712524414,11.295553597106933,3.750314712524414,12.000003597106934Q3.750314712524414,12.704413597106933,4.292404712524414,13.154313597106933Q4.834504712524414,13.604113597106934,5.526864712524414,13.474313597106933Q6.219234712524414,13.344413597106934,6.561434712524414,12.728713597106934Q6.597324712524414,12.664113597106933,6.645114712524414,12.607813597106933Q6.692904712524414,12.551413597106933,6.750764712524414,12.505513597106933Q6.808624712524415,12.459613597106934,6.874334712524414,12.425813597106934Q6.940044712524414,12.392113597106933,7.011074712524414,12.371813597106934Q7.082104712524414,12.351513597106933,7.155724712524414,12.345513597106933Q7.229344712524414,12.339513597106933,7.302724712524414,12.347913597106933Q7.376114712524414,12.356313597106933,7.446434712524414,12.378913597106934Q7.516764712524414,12.401513597106934,7.581334712524414,12.437413597106934Q7.645904712524414,12.473313597106934,7.702224712524414,12.521113597106934Q7.758554712524414,12.568913597106933,7.8044747125244145,12.626713597106933Q7.850394712524414,12.684613597106933,7.884144712524414,12.750313597106933Q7.917894712524414,12.816013597106934,7.938174712524414,12.887113597106934Q7.958454712524414,12.958113597106934,7.964494712524414,13.031713597106934Q7.970524712524414,13.105313597106933,7.962084712524414,13.178713597106933Q7.953644712524414,13.252113597106934,7.931044712524414,13.322413597106934Q7.908444712524414,13.392813597106933,7.872564712524414,13.457313597106934ZM18.041714712524413,3.2265465971069336Q17.505914712524415,3.5242535971069335,17.331914712524416,4.112053597106934Q17.157914712524416,4.699853597106934,17.445414712524414,5.241263597106934Q17.740714712524415,5.797383597106934,18.344514712524415,5.976093597106933Q18.948214712524415,6.1548135971069335,19.498714712524414,5.849013597106934Q20.049114712524414,5.543223597106934,20.216314712524415,4.936173597106933Q20.383614712524412,4.329133597106933,20.067414712524414,3.7845935971069338Q19.759614712524414,3.254468597106934,19.168614712524413,3.0916555971069335Q18.577614712524415,2.9288435971069333,18.041714712524413,3.2265465971069336L18.041714712524413,3.2265465971069336ZM17.313314712524416,1.9153105971069335Q18.385014712524416,1.3199035971069337,19.567014712524415,1.6455285971069336Q20.749014712524414,1.9711525971069337,21.364614712524414,3.0314085971069336Q21.996914712524415,4.120473597106933,21.662414712524413,5.3345735971069335Q21.328014712524414,6.548673597106934,20.227114712524415,7.160253597106934Q19.126314712524415,7.771833597106934,17.918714712524412,7.414413597106933Q16.711214712524416,7.0569835971069335,16.120614712524414,5.944743597106934Q15.545614712524413,4.861913597106934,15.893614712524414,3.686313597106934Q16.241514712524413,2.5107175971069338,17.313314712524416,1.9153105971069335L17.313314712524416,1.9153105971069335ZM19.479314712524413,18.188113597106934Q18.935914712524415,17.886213597106934,18.33821471252441,18.057013597106934Q17.740514712524416,18.227813597106934,17.438614712524412,18.771213597106932Q17.136714712524416,19.314613597106934,17.307514712524416,19.912313597106934Q17.478314712524416,20.510013597106934,18.021714712524414,20.811913597106933Q18.565114712524412,21.113713597106933,19.162814712524415,20.943013597106933Q19.760514712524415,20.772213597106933,20.062414712524415,20.228813597106935Q20.364214712524415,19.685413597106933,20.193414712524415,19.087713597106934Q20.022714712524415,18.490013597106934,19.479314712524413,18.188113597106934L19.479314712524413,18.188113597106934ZM20.207714712524414,16.876913597106935Q21.294214712524415,17.480513597106935,21.635714712524415,18.675613597106935Q21.977214712524415,19.870713597106935,21.373614712524414,20.957213597106932Q20.770014712524414,22.043713597106933,19.574914712524414,22.385213597106933Q18.379814712524414,22.726713597106933,17.293314712524413,22.123113597106933Q16.206714712524416,21.519513597106933,15.865214712524415,20.324413597106933Q15.523814712524414,19.129313597106933,16.127414712524413,18.042813597106935Q16.731014712524413,16.95621359710693,17.926114712524416,16.614713597106935Q19.121214712524413,16.273313597106934,20.207714712524414,16.876913597106935L20.207714712524414,16.876913597106935ZM17.533014712524412,18.407013597106932Q17.533014712524412,18.480913597106934,17.518614712524414,18.553313597106932Q17.504214712524416,18.625813597106934,17.475914712524414,18.694013597106935Q17.447614712524413,18.762213597106932,17.406614712524416,18.823713597106934Q17.365514712524416,18.885113597106933,17.313314712524416,18.937313597106932Q17.261114712524414,18.989513597106935,17.199714712524415,19.030613597106935Q17.138214712524416,19.071613597106932,17.07001471252441,19.099913597106934Q17.001814712524414,19.128213597106935,16.929314712524416,19.142613597106934Q16.856914712524414,19.157013597106932,16.783014712524412,19.157013597106932Q16.709114712524414,19.157013597106932,16.636714712524416,19.142613597106934Q16.564214712524414,19.128213597106935,16.496014712524413,19.099913597106934Q16.427714712524413,19.071613597106932,16.366314712524414,19.030613597106935Q16.304914712524415,18.989513597106935,16.252714712524416,18.937313597106932Q16.200414712524413,18.885113597106933,16.159414712524416,18.823713597106934Q16.118314712524416,18.762213597106932,16.090114712524414,18.694013597106935Q16.061814712524416,18.625813597106934,16.047414712524414,18.553313597106932Q16.033014712524412,18.480913597106934,16.033014712524412,18.407013597106932Q16.033014712524412,18.333113597106934,16.047414712524414,18.260713597106935Q16.061814712524416,18.188213597106934,16.090114712524414,18.120013597106933Q16.118314712524416,18.051713597106932,16.159414712524416,17.990313597106933Q16.200414712524413,17.928913597106934,16.252714712524416,17.876713597106935Q16.304914712524415,17.824413597106933,16.366314712524414,17.783413597106936Q16.427714712524413,17.742313597106936,16.496014712524413,17.714113597106934Q16.564214712524414,17.685813597106936,16.636714712524416,17.671413597106934Q16.709114712524414,17.657013597106932,16.783014712524412,17.657013597106932Q16.856914712524414,17.657013597106932,16.929314712524416,17.671413597106934Q17.001814712524414,17.685813597106936,17.07001471252441,17.714113597106934Q17.138214712524416,17.742313597106936,17.199714712524415,17.783413597106936Q17.261114712524414,17.824413597106933,17.313314712524416,17.876713597106935Q17.365514712524416,17.928913597106934,17.406614712524416,17.990313597106933Q17.447614712524413,18.051713597106932,17.475914712524414,18.120013597106933Q17.504214712524416,18.188213597106934,17.518614712524414,18.260713597106935Q17.533014712524412,18.333113597106934,17.533014712524412,18.407013597106932ZM7.967004712524414,13.093013597106934Q7.967004712524414,13.166913597106934,7.9525847125244145,13.239313597106934Q7.938174712524414,13.311813597106934,7.909914712524414,13.380013597106933Q7.881644712524414,13.448213597106934,7.8406047125244145,13.509713597106934Q7.799564712524414,13.571113597106933,7.747334712524414,13.623313597106934Q7.695094712524414,13.675613597106933,7.633674712524414,13.716613597106933Q7.572254712524414,13.757613597106934,7.504014712524414,13.785913597106934Q7.435764712524414,13.814213597106933,7.3633147125244145,13.828613597106933Q7.290864712524414,13.843013597106934,7.217004712524414,13.843013597106934Q7.1431347125244145,13.843013597106934,7.070684712524414,13.828613597106933Q6.998234712524415,13.814213597106933,6.929984712524414,13.785913597106934Q6.861744712524414,13.757613597106934,6.800324712524414,13.716613597106933Q6.738904712524414,13.675613597106933,6.686674712524415,13.623313597106934Q6.634434712524413,13.571113597106933,6.593394712524415,13.509713597106934Q6.552354712524414,13.448213597106934,6.524094712524414,13.380013597106933Q6.4958247125244135,13.311813597106934,6.481414712524414,13.239313597106934Q6.467004712524414,13.166913597106934,6.467004712524414,13.093013597106934Q6.467004712524414,13.019113597106934,6.481414712524414,12.946713597106934Q6.4958247125244135,12.874213597106934,6.524094712524414,12.806013597106933Q6.552354712524414,12.737713597106934,6.593394712524415,12.676313597106933Q6.634434712524413,12.614913597106934,6.686674712524415,12.562713597106933Q6.738904712524414,12.510413597106934,6.800324712524414,12.469413597106934Q6.861744712524414,12.428313597106934,6.929984712524414,12.400113597106934Q6.998234712524415,12.371813597106934,7.070684712524414,12.357413597106934Q7.1431347125244145,12.343013597106934,7.217004712524414,12.343013597106934Q7.290864712524414,12.343013597106934,7.3633147125244145,12.357413597106934Q7.435764712524414,12.371813597106934,7.504014712524414,12.400113597106934Q7.572254712524414,12.428313597106934,7.633674712524414,12.469413597106934Q7.695094712524414,12.510413597106934,7.747334712524414,12.562713597106933Q7.799564712524414,12.614913597106934,7.8406047125244145,12.676313597106933Q7.881644712524414,12.737713597106934,7.909914712524414,12.806013597106933Q7.938174712524414,12.874213597106934,7.9525847125244145,12.946713597106934Q7.967004712524414,13.019113597106934,7.967004712524414,13.093013597106934ZM17.533014712524412,5.593003597106934Q17.533014712524412,5.6668735971069335,17.518614712524414,5.739313597106934Q17.504214712524416,5.811763597106934,17.475914712524414,5.880013597106934Q17.447614712524413,5.948253597106934,17.406614712524416,6.009673597106934Q17.365514712524416,6.071093597106934,17.313314712524416,6.123333597106933Q17.261114712524414,6.175563597106933,17.199714712524415,6.216603597106934Q17.138214712524416,6.2576435971069335,17.07001471252441,6.2859135971069335Q17.001814712524414,6.314173597106934,16.929314712524416,6.328593597106933Q16.856914712524414,6.343003597106933,16.783014712524412,6.343003597106933Q16.709114712524414,6.343003597106933,16.636714712524416,6.328593597106933Q16.564214712524414,6.314173597106934,16.496014712524413,6.2859135971069335Q16.427714712524413,6.2576435971069335,16.366314712524414,6.216603597106934Q16.304914712524415,6.175563597106933,16.252714712524416,6.123333597106933Q16.200414712524413,6.071093597106934,16.159414712524416,6.009673597106934Q16.118314712524416,5.948253597106934,16.090114712524414,5.880013597106934Q16.061814712524416,5.811763597106934,16.047414712524414,5.739313597106934Q16.033014712524412,5.6668735971069335,16.033014712524412,5.593003597106934Q16.033014712524412,5.519133597106934,16.047414712524414,5.446683597106933Q16.061814712524416,5.374233597106933,16.090114712524414,5.305983597106934Q16.118314712524416,5.237743597106934,16.159414712524416,5.176323597106934Q16.200414712524413,5.114903597106934,16.252714712524416,5.062673597106933Q16.304914712524415,5.010433597106934,16.366314712524414,4.969393597106933Q16.427714712524413,4.928353597106934,16.496014712524413,4.900093597106934Q16.564214712524414,4.871823597106934,16.636714712524416,4.857413597106934Q16.709114712524414,4.843003597106934,16.783014712524412,4.843003597106934Q16.856914712524414,4.843003597106934,16.929314712524416,4.857413597106934Q17.001814712524414,4.871823597106934,17.07001471252441,4.900093597106934Q17.138214712524416,4.928353597106934,17.199714712524415,4.969393597106933Q17.261114712524414,5.010433597106934,17.313314712524416,5.062673597106933Q17.365514712524416,5.114903597106934,17.406614712524416,5.176323597106934Q17.447614712524413,5.237743597106934,17.475914712524414,5.305983597106934Q17.504214712524416,5.374233597106933,17.518614712524414,5.446683597106933Q17.533014712524412,5.519133597106934,17.533014712524412,5.593003597106934ZM7.967004712524414,10.907003597106934Q7.966994712524414,10.980863597106934,7.9525847125244145,11.053313597106934Q7.938174712524414,11.125763597106934,7.909914712524414,11.194013597106933Q7.881644712524414,11.262253597106934,7.8406047125244145,11.323673597106934Q7.799564712524414,11.385093597106934,7.747334712524414,11.437333597106933Q7.695094712524414,11.489563597106933,7.633674712524414,11.530603597106934Q7.572254712524414,11.571643597106934,7.504014712524414,11.599913597106934Q7.435764712524414,11.628173597106933,7.3633147125244145,11.642583597106933Q7.290864712524414,11.657003597106934,7.217004712524414,11.657003597106934Q7.1431347125244145,11.657003597106934,7.070684712524414,11.642583597106933Q6.998234712524415,11.628173597106933,6.929984712524414,11.599913597106934Q6.861744712524414,11.571643597106934,6.800324712524414,11.530603597106934Q6.738904712524414,11.489563597106933,6.686664712524414,11.437333597106933Q6.634434712524413,11.385093597106934,6.593394712524415,11.323673597106934Q6.552354712524414,11.262253597106934,6.524094712524414,11.194013597106933Q6.4958247125244135,11.125763597106934,6.481414712524414,11.053313597106934Q6.467004712524414,10.980863597106934,6.467004712524414,10.907003597106934Q6.467004712524414,10.833133597106933,6.481414712524414,10.760683597106933Q6.4958247125244135,10.688233597106933,6.524094712524414,10.619983597106934Q6.552354712524414,10.551743597106933,6.593394712524415,10.490323597106933Q6.634434712524413,10.428903597106933,6.686664712524414,10.376673597106933Q6.738904712524414,10.324433597106934,6.800324712524414,10.283393597106933Q6.861744712524414,10.242363597106934,6.929984712524414,10.214093597106935Q6.998234712524415,10.185823597106934,7.070684712524414,10.171413597106934Q7.1431347125244145,10.157003597106932,7.217004712524414,10.157003597106932Q7.290864712524414,10.157003597106932,7.3633147125244145,10.171413597106934Q7.435764712524414,10.185823597106934,7.504014712524414,10.214093597106935Q7.572254712524414,10.242363597106934,7.633674712524414,10.283393597106933Q7.695094712524414,10.324433597106934,7.747334712524414,10.376673597106933Q7.799564712524414,10.428903597106933,7.8406047125244145,10.490323597106933Q7.881644712524414,10.551743597106933,7.909904712524414,10.619983597106934Q7.938174712524414,10.688233597106933,7.9525847125244145,10.760683597106933Q7.966994712524414,10.833133597106933,7.967004712524414,10.907003597106934ZM7.967004712524414,13.093013597106934Q7.966994712524414,13.166913597106934,7.9525847125244145,13.239313597106934Q7.938174712524414,13.311813597106934,7.909914712524414,13.380013597106933Q7.881644712524414,13.448213597106934,7.8406047125244145,13.509713597106934Q7.799564712524414,13.571113597106933,7.747334712524414,13.623313597106934Q7.695094712524414,13.675613597106933,7.633674712524414,13.716613597106933Q7.572254712524414,13.757613597106934,7.504014712524414,13.785913597106934Q7.435764712524414,13.814213597106933,7.3633147125244145,13.828613597106933Q7.290864712524414,13.843013597106934,7.217004712524414,13.843013597106934Q7.1431347125244145,13.843013597106934,7.070684712524414,13.828613597106933Q6.998234712524415,13.814213597106933,6.929984712524414,13.785913597106934Q6.861744712524414,13.757613597106934,6.800324712524414,13.716613597106933Q6.738904712524414,13.675613597106933,6.686664712524414,13.623313597106934Q6.634434712524413,13.571113597106933,6.593394712524415,13.509713597106934Q6.552354712524414,13.448213597106934,6.524094712524414,13.380013597106933Q6.4958247125244135,13.311813597106934,6.481414712524414,13.239313597106934Q6.467004712524414,13.166913597106934,6.467004712524414,13.093013597106934Q6.467004712524414,13.019113597106934,6.481414712524414,12.946713597106934Q6.4958247125244135,12.874213597106934,6.524094712524414,12.806013597106933Q6.552354712524414,12.737713597106934,6.593394712524415,12.676313597106933Q6.634434712524413,12.614913597106934,6.686664712524414,12.562713597106933Q6.738904712524414,12.510413597106934,6.800324712524414,12.469413597106934Q6.861744712524414,12.428313597106934,6.929984712524414,12.400113597106934Q6.998234712524415,12.371813597106934,7.070684712524414,12.357413597106934Q7.1431347125244145,12.343013597106934,7.217004712524414,12.343013597106934Q7.290864712524414,12.343013597106934,7.3633147125244145,12.357413597106934Q7.435764712524414,12.371813597106934,7.504014712524414,12.400113597106934Q7.572254712524414,12.428313597106934,7.633674712524414,12.469413597106934Q7.695094712524414,12.510413597106934,7.747334712524414,12.562713597106933Q7.799564712524414,12.614913597106934,7.8406047125244145,12.676313597106933Q7.881644712524414,12.737713597106934,7.909904712524414,12.806013597106933Q7.938174712524414,12.874213597106934,7.9525847125244145,12.946713597106934Q7.966994712524414,13.019113597106934,7.967004712524414,13.093013597106934ZM7.967004712524414,10.907003597106934Q7.966994712524414,10.980863597106934,7.9525847125244145,11.053313597106934Q7.938174712524414,11.125763597106934,7.909914712524414,11.194013597106933Q7.881644712524414,11.262253597106934,7.8406047125244145,11.323673597106934Q7.799564712524414,11.385093597106934,7.747334712524414,11.437333597106933Q7.695094712524414,11.489563597106933,7.633674712524414,11.530603597106934Q7.572254712524414,11.571643597106934,7.504014712524414,11.599903597106934Q7.435764712524414,11.628173597106933,7.3633147125244145,11.642583597106933Q7.290864712524414,11.657003597106934,7.217004712524414,11.657003597106934Q7.1431347125244145,11.657003597106934,7.070684712524414,11.642583597106933Q6.998234712524415,11.628173597106933,6.929984712524414,11.599903597106934Q6.861744712524414,11.571643597106934,6.800324712524414,11.530603597106934Q6.738904712524414,11.489563597106933,6.686664712524414,11.437333597106933Q6.634434712524413,11.385093597106934,6.593394712524415,11.323673597106934Q6.552354712524414,11.262253597106934,6.524094712524414,11.194013597106933Q6.4958247125244135,11.125763597106934,6.481414712524414,11.053313597106934Q6.467004712524414,10.980863597106934,6.467004712524414,10.907003597106934Q6.467004712524414,10.833133597106933,6.481414712524414,10.760683597106933Q6.4958247125244135,10.688233597106933,6.524094712524414,10.619983597106934Q6.552354712524414,10.551743597106933,6.593394712524415,10.490323597106933Q6.634434712524413,10.428903597106933,6.686664712524414,10.376673597106933Q6.738904712524414,10.324433597106934,6.800324712524414,10.283393597106933Q6.861744712524414,10.242353597106934,6.929984712524414,10.214093597106935Q6.998234712524415,10.185823597106934,7.070684712524414,10.171413597106934Q7.1431347125244145,10.157003597106932,7.217004712524414,10.157003597106932Q7.290864712524414,10.157003597106932,7.3633147125244145,10.171413597106934Q7.435764712524414,10.185823597106934,7.504014712524414,10.214093597106935Q7.572254712524414,10.242353597106934,7.633674712524414,10.283393597106933Q7.695094712524414,10.324433597106934,7.747334712524414,10.376673597106933Q7.799564712524414,10.428903597106933,7.8406047125244145,10.490323597106933Q7.881644712524414,10.551743597106933,7.909904712524414,10.619983597106934Q7.938174712524414,10.688233597106933,7.9525847125244145,10.760683597106933Q7.966994712524414,10.833133597106933,7.967004712524414,10.907003597106934ZM7.967004712524414,13.093013597106934Q7.966994712524414,13.166913597106934,7.9525847125244145,13.239313597106934Q7.938174712524414,13.311813597106934,7.909914712524414,13.380013597106933Q7.881644712524414,13.448213597106934,7.8406047125244145,13.509713597106934Q7.799564712524414,13.571113597106933,7.747334712524414,13.623313597106934Q7.695094712524414,13.675513597106933,7.633674712524414,13.716613597106933Q7.572254712524414,13.757613597106934,7.504014712524414,13.785913597106934Q7.435764712524414,13.814213597106933,7.3633147125244145,13.828613597106933Q7.290864712524414,13.843013597106934,7.217004712524414,13.843013597106934Q7.1431347125244145,13.843013597106934,7.070684712524414,13.828613597106933Q6.998234712524415,13.814213597106933,6.929984712524414,13.785913597106934Q6.861744712524414,13.757613597106934,6.800324712524414,13.716613597106933Q6.738904712524414,13.675513597106933,6.686664712524414,13.623313597106934Q6.634434712524413,13.571113597106933,6.593394712524415,13.509713597106934Q6.552354712524414,13.448213597106934,6.524094712524414,13.380013597106933Q6.4958247125244135,13.311813597106934,6.481414712524414,13.239313597106934Q6.467004712524414,13.166913597106934,6.467004712524414,13.093013597106934Q6.467004712524414,13.019113597106934,6.481414712524414,12.946713597106934Q6.4958247125244135,12.874213597106934,6.524094712524414,12.806013597106933Q6.552354712524414,12.737713597106934,6.593394712524415,12.676313597106933Q6.634434712524413,12.614913597106934,6.686664712524414,12.562713597106933Q6.738904712524414,12.510413597106934,6.800324712524414,12.469413597106934Q6.861744712524414,12.428313597106934,6.929984712524414,12.400113597106934Q6.998234712524415,12.371813597106934,7.070684712524414,12.357413597106934Q7.1431347125244145,12.343013597106934,7.217004712524414,12.343013597106934Q7.290864712524414,12.343013597106934,7.3633147125244145,12.357413597106934Q7.435764712524414,12.371813597106934,7.504014712524414,12.400113597106934Q7.572254712524414,12.428313597106934,7.633674712524414,12.469413597106934Q7.695094712524414,12.510413597106934,7.747334712524414,12.562713597106933Q7.799564712524414,12.614913597106934,7.8406047125244145,12.676313597106933Q7.881644712524414,12.737713597106934,7.909904712524414,12.806013597106933Q7.938174712524414,12.874213597106934,7.9525847125244145,12.946713597106934Q7.966994712524414,13.019113597106934,7.967004712524414,13.093013597106934ZM7.967004712524414,10.907003597106934Q7.966994712524414,10.980863597106934,7.9525847125244145,11.053313597106934Q7.938174712524414,11.125763597106934,7.909914712524414,11.194013597106933Q7.881644712524414,11.262253597106934,7.8406047125244145,11.323673597106934Q7.799564712524414,11.385093597106934,7.747334712524414,11.437333597106933Q7.695094712524414,11.489563597106933,7.633674712524414,11.530603597106934Q7.572254712524414,11.571643597106934,7.504014712524414,11.599903597106934Q7.435764712524414,11.628173597106933,7.3633147125244145,11.642583597106933Q7.290864712524414,11.657003597106934,7.217004712524414,11.657003597106934Q7.1431347125244145,11.657003597106934,7.070684712524414,11.642583597106933Q6.998234712524415,11.628173597106933,6.929984712524414,11.599903597106934Q6.861744712524414,11.571643597106934,6.800324712524414,11.530603597106934Q6.738904712524414,11.489563597106933,6.686664712524414,11.437333597106933Q6.634434712524413,11.385093597106934,6.593394712524415,11.323673597106934Q6.552354712524414,11.262253597106934,6.524094712524414,11.194013597106933Q6.4958247125244135,11.125763597106934,6.481414712524414,11.053313597106934Q6.467004712524414,10.980863597106934,6.467004712524414,10.907003597106934Q6.467004712524414,10.833133597106933,6.481414712524414,10.760683597106933Q6.4958247125244135,10.688233597106933,6.524094712524414,10.619983597106934Q6.552354712524414,10.551743597106933,6.593394712524415,10.490323597106933Q6.634434712524413,10.428903597106933,6.686664712524414,10.376673597106933Q6.738904712524414,10.324433597106934,6.800324712524414,10.283393597106933Q6.861744712524414,10.242353597106934,6.929984712524414,10.214093597106935Q6.998234712524415,10.185823597106934,7.070684712524414,10.171413597106934Q7.1431347125244145,10.157003597106932,7.217004712524414,10.157003597106932Q7.290864712524414,10.157003597106932,7.3633147125244145,10.171413597106934Q7.435764712524414,10.185823597106934,7.504014712524414,10.214093597106935Q7.572254712524414,10.242353597106934,7.633674712524414,10.283393597106933Q7.695094712524414,10.324433597106934,7.747334712524414,10.376673597106933Q7.799564712524414,10.428903597106933,7.8406047125244145,10.490323597106933Q7.881644712524414,10.551743597106933,7.909904712524414,10.619983597106934Q7.938174712524414,10.688233597106933,7.9525847125244145,10.760683597106933Q7.966994712524414,10.833133597106933,7.967004712524414,10.907003597106934Z" fill="#000000" fill-opacity="1"/></g></g></svg>