<svg xmlns="http://www.w3.org/2000/svg" xmlns:xlink="http://www.w3.org/1999/xlink" fill="none" version="1.1" width="24" height="24" viewBox="0 0 24 24"><defs><clipPath id="master_svg0_770_7231"><rect x="0" y="0" width="24" height="24" rx="0"/></clipPath></defs><g clip-path="url(#master_svg0_770_7231)"><g><path d="M3,11.25L21,11.25Q21.0739,11.25,21.1463,11.26441Q21.2188,11.27882,21.287,11.30709Q21.3553,11.33536,21.4167,11.3764Q21.4781,11.41744,21.5303,11.46967Q21.5826,11.5219,21.6236,11.58332Q21.6646,11.64474,21.6929,11.71299Q21.7212,11.78123,21.7356,11.85368Q21.75,11.92613,21.75,12Q21.75,12.07387,21.7356,12.14632Q21.7212,12.21877,21.6929,12.28701Q21.6646,12.355260000000001,21.6236,12.41668Q21.5826,12.478100000000001,21.5303,12.53033Q21.4781,12.58256,21.4167,12.6236Q21.3553,12.66464,21.287,12.692910000000001Q21.2188,12.72118,21.1463,12.73559Q21.0739,12.75,21,12.75L3,12.75Q2.9261315,12.75,2.853682,12.73559Q2.781233,12.72118,2.712987,12.692910000000001Q2.644742,12.66464,2.583322,12.6236Q2.521903,12.58256,2.46967,12.53033Q2.417437,12.478100000000001,2.376398,12.41668Q2.335359,12.355260000000001,2.30709,12.28701Q2.278822,12.21877,2.264411,12.14632Q2.25,12.07387,2.25,12Q2.25,11.92613,2.264411,11.85368Q2.278822,11.78123,2.30709,11.71299Q2.335359,11.64474,2.376398,11.58332Q2.417437,11.5219,2.46967,11.46967Q2.521903,11.41744,2.583322,11.3764Q2.644742,11.33536,2.712987,11.30709Q2.781233,11.27882,2.853682,11.26441Q2.9261315,11.25,3,11.25ZM16.7197,15.21967L20.4697,11.46967Q20.5219,11.41744,20.5833,11.3764Q20.6447,11.33536,20.713,11.30709Q20.7812,11.27882,20.8537,11.26441Q20.9261,11.25,21,11.25Q21.0739,11.25,21.1463,11.26441Q21.2188,11.27882,21.287,11.30709Q21.3553,11.33536,21.4167,11.3764Q21.4781,11.41744,21.5303,11.46967Q21.5826,11.5219,21.6236,11.58332Q21.6646,11.64474,21.6929,11.71299Q21.7212,11.78123,21.7356,11.85368Q21.75,11.92613,21.75,12Q21.75,12.07387,21.7356,12.14632Q21.7212,12.21877,21.6929,12.28701Q21.6646,12.355260000000001,21.6236,12.41668Q21.5826,12.478100000000001,21.5303,12.53033L17.7803,16.28033Q17.728099999999998,16.33256,17.6667,16.3736Q17.6053,16.41464,17.537,16.442909999999998Q17.4688,16.47118,17.3963,16.485590000000002Q17.323900000000002,16.5,17.25,16.5Q17.176099999999998,16.5,17.1037,16.485590000000002Q17.0312,16.47118,16.963,16.442909999999998Q16.8947,16.41464,16.8333,16.3736Q16.771900000000002,16.33256,16.7197,16.28033Q16.6674,16.2281,16.6264,16.16668Q16.5854,16.10526,16.5571,16.037010000000002Q16.5288,15.96877,16.514400000000002,15.89632Q16.5,15.82387,16.5,15.75Q16.5,15.67613,16.514400000000002,15.60368Q16.5288,15.53123,16.5571,15.46299Q16.5854,15.394739999999999,16.6264,15.33332Q16.6674,15.271899999999999,16.7197,15.21967ZM20.4697,12.53033L16.7197,8.78033Q16.6674,8.728097,16.6264,8.666678Q16.5854,8.605258,16.5571,8.537013Q16.5288,8.468767,16.514400000000002,8.396318Q16.5,8.3238685,16.5,8.25Q16.5,8.1761315,16.514400000000002,8.103682Q16.5288,8.031233,16.5571,7.962987Q16.5854,7.894742,16.6264,7.833322Q16.6674,7.771903,16.7197,7.71967Q16.771900000000002,7.667437,16.8333,7.626398Q16.8947,7.585359,16.963,7.55709Q17.0312,7.528822,17.1037,7.514411Q17.176099999999998,7.5,17.25,7.5Q17.323900000000002,7.5,17.3963,7.514411Q17.4688,7.528822,17.537,7.55709Q17.6053,7.585359,17.6667,7.626398Q17.728099999999998,7.667437,17.7803,7.71967L21.5303,11.46967Q21.5826,11.5219,21.6236,11.58332Q21.6646,11.64474,21.6929,11.71299Q21.7212,11.78123,21.7356,11.85368Q21.75,11.92613,21.75,12Q21.75,12.07387,21.7356,12.14632Q21.7212,12.21877,21.6929,12.28701Q21.6646,12.355260000000001,21.6236,12.41668Q21.5826,12.478100000000001,21.5303,12.53033Q21.4781,12.58256,21.4167,12.6236Q21.3553,12.66464,21.287,12.692910000000001Q21.2188,12.72118,21.1463,12.73559Q21.0739,12.75,21,12.75Q20.9261,12.75,20.8537,12.73559Q20.7812,12.72118,20.713,12.692910000000001Q20.6447,12.66464,20.5833,12.6236Q20.5219,12.58256,20.4697,12.53033ZM3.75,12Q3.75,12.07387,3.735589,12.14632Q3.721178,12.21877,3.69291,12.28701Q3.664641,12.355260000000001,3.623602,12.41668Q3.582563,12.478100000000001,3.53033,12.53033Q3.478097,12.58256,3.416678,12.6236Q3.355258,12.66464,3.287013,12.692910000000001Q3.218767,12.72118,3.146318,12.73559Q3.0738685,12.75,3,12.75Q2.9261315,12.75,2.853682,12.73559Q2.781233,12.72118,2.712987,12.692910000000001Q2.644742,12.66464,2.583322,12.6236Q2.521903,12.58256,2.46967,12.53033Q2.417437,12.478100000000001,2.376398,12.41668Q2.335359,12.355260000000001,2.30709,12.28701Q2.278822,12.21877,2.264411,12.14632Q2.25,12.07387,2.25,12Q2.25,11.92613,2.264411,11.85368Q2.278822,11.78123,2.30709,11.71299Q2.335359,11.64474,2.376398,11.58332Q2.417437,11.5219,2.46967,11.46967Q2.521903,11.41744,2.583322,11.3764Q2.644742,11.33536,2.712987,11.30709Q2.781233,11.27882,2.853682,11.26441Q2.9261315,11.25,3,11.25Q3.0738685,11.25,3.146318,11.26441Q3.218767,11.27882,3.287013,11.30709Q3.355258,11.33536,3.416678,11.3764Q3.478097,11.41744,3.53033,11.46967Q3.582563,11.5219,3.623602,11.58332Q3.664641,11.64474,3.69291,11.71299Q3.721178,11.78123,3.735589,11.85368Q3.75,11.92613,3.75,12ZM21.75,12Q21.75,12.07387,21.7356,12.14632Q21.7212,12.21877,21.6929,12.28701Q21.6646,12.355260000000001,21.6236,12.41668Q21.5826,12.478100000000001,21.5303,12.53033Q21.4781,12.58256,21.4167,12.6236Q21.3553,12.66464,21.287,12.692910000000001Q21.2188,12.72118,21.1463,12.73559Q21.0739,12.75,21,12.75Q20.9261,12.75,20.8537,12.73559Q20.7812,12.72118,20.713,12.692910000000001Q20.6447,12.66464,20.5833,12.6236Q20.5219,12.58256,20.4697,12.53033Q20.4174,12.478100000000001,20.3764,12.41668Q20.3354,12.355260000000001,20.3071,12.28701Q20.2788,12.21877,20.2644,12.14632Q20.25,12.07387,20.25,12Q20.25,11.92613,20.2644,11.85368Q20.2788,11.78123,20.3071,11.71299Q20.3354,11.64474,20.3764,11.58332Q20.4174,11.5219,20.4697,11.46967Q20.5219,11.41744,20.5833,11.3764Q20.6447,11.33536,20.713,11.30709Q20.7812,11.27882,20.8537,11.26441Q20.9261,11.25,21,11.25Q21.0739,11.25,21.1463,11.26441Q21.2188,11.27882,21.287,11.30709Q21.3553,11.33536,21.4167,11.3764Q21.4781,11.41744,21.5303,11.46967Q21.5826,11.5219,21.6236,11.58332Q21.6646,11.64474,21.6929,11.71299Q21.7212,11.78123,21.7356,11.85368Q21.75,11.92613,21.75,12ZM18,15.75Q18,15.82387,17.985599999999998,15.89632Q17.9712,15.96877,17.9429,16.037010000000002Q17.9146,16.10526,17.8736,16.16668Q17.8326,16.2281,17.7803,16.28033Q17.728099999999998,16.33256,17.6667,16.3736Q17.6053,16.41464,17.537,16.442909999999998Q17.4688,16.47118,17.3963,16.485590000000002Q17.323900000000002,16.5,17.25,16.5Q17.176099999999998,16.5,17.1037,16.485590000000002Q17.0312,16.47118,16.963,16.442909999999998Q16.8947,16.41464,16.8333,16.3736Q16.771900000000002,16.33256,16.7197,16.28033Q16.6674,16.2281,16.6264,16.16668Q16.5854,16.10526,16.5571,16.037010000000002Q16.5288,15.96877,16.514400000000002,15.89632Q16.5,15.82387,16.5,15.75Q16.5,15.67613,16.514400000000002,15.60368Q16.5288,15.53123,16.5571,15.46299Q16.5854,15.394739999999999,16.6264,15.33332Q16.6674,15.271899999999999,16.7197,15.21967Q16.771900000000002,15.16744,16.8333,15.1264Q16.8947,15.08536,16.963,15.057089999999999Q17.0312,15.02882,17.1037,15.01441Q17.176099999999998,15,17.25,15Q17.323900000000002,15,17.3963,15.01441Q17.4688,15.02882,17.537,15.057089999999999Q17.6053,15.08536,17.6667,15.1264Q17.728099999999998,15.16744,17.7803,15.21967Q17.8326,15.271899999999999,17.8736,15.33332Q17.9146,15.394739999999999,17.9429,15.46299Q17.9712,15.53123,17.985599999999998,15.60368Q18,15.67613,18,15.75ZM21.75,12Q21.75,12.07387,21.7356,12.14632Q21.7212,12.21877,21.6929,12.28701Q21.6646,12.355260000000001,21.6236,12.41668Q21.5826,12.478100000000001,21.5303,12.53033Q21.4781,12.58256,21.4167,12.6236Q21.3553,12.66464,21.287,12.692910000000001Q21.2188,12.72118,21.1463,12.73559Q21.0739,12.75,21,12.75Q20.9261,12.75,20.8537,12.73559Q20.7812,12.72118,20.713,12.692910000000001Q20.6447,12.66464,20.5833,12.6236Q20.5219,12.58256,20.4697,12.53033Q20.4174,12.478100000000001,20.3764,12.41668Q20.3354,12.355260000000001,20.3071,12.28701Q20.2788,12.21877,20.2644,12.14632Q20.25,12.07387,20.25,12Q20.25,11.92613,20.2644,11.85368Q20.2788,11.78123,20.3071,11.71299Q20.3354,11.64474,20.3764,11.58332Q20.4174,11.5219,20.4697,11.46967Q20.5219,11.41744,20.5833,11.3764Q20.6447,11.33536,20.713,11.30709Q20.7812,11.27882,20.8537,11.26441Q20.9261,11.25,21,11.25Q21.0739,11.25,21.1463,11.26441Q21.2188,11.27882,21.287,11.30709Q21.3553,11.33536,21.4167,11.3764Q21.4781,11.41744,21.5303,11.46967Q21.5826,11.5219,21.6236,11.58332Q21.6646,11.64474,21.6929,11.71299Q21.7212,11.78123,21.7356,11.85368Q21.75,11.92613,21.75,12ZM21.75,12Q21.75,12.07387,21.7356,12.14632Q21.7212,12.21877,21.6929,12.28701Q21.6646,12.355260000000001,21.6236,12.41668Q21.5826,12.478100000000001,21.5303,12.53033Q21.4781,12.58256,21.4167,12.6236Q21.3553,12.66464,21.287,12.692910000000001Q21.2188,12.72118,21.1463,12.73559Q21.0739,12.75,21,12.75Q20.9261,12.75,20.8537,12.73559Q20.7812,12.72118,20.713,12.692910000000001Q20.6447,12.66464,20.5833,12.6236Q20.5219,12.58256,20.4697,12.53033Q20.4174,12.478100000000001,20.3764,12.41668Q20.3354,12.355260000000001,20.3071,12.28701Q20.2788,12.21877,20.2644,12.14632Q20.25,12.07387,20.25,12Q20.25,11.92613,20.2644,11.85368Q20.2788,11.78123,20.3071,11.71299Q20.3354,11.64474,20.3764,11.58332Q20.4174,11.5219,20.4697,11.46967Q20.5219,11.41744,20.5833,11.3764Q20.6447,11.33536,20.713,11.30709Q20.7812,11.27882,20.8537,11.26441Q20.9261,11.25,21,11.25Q21.0739,11.25,21.1463,11.26441Q21.2188,11.27882,21.287,11.30709Q21.3553,11.33536,21.4167,11.3764Q21.4781,11.41744,21.5303,11.46967Q21.5826,11.5219,21.6236,11.58332Q21.6646,11.64474,21.6929,11.71299Q21.7212,11.78123,21.7356,11.85368Q21.75,11.92613,21.75,12ZM18,8.25Q18,8.3238685,17.985599999999998,8.396318Q17.9712,8.468767,17.9429,8.537013Q17.9146,8.605258,17.8736,8.666678Q17.8326,8.728097,17.7803,8.78033Q17.728099999999998,8.832563,17.6667,8.873602Q17.6053,8.914641,17.537,8.94291Q17.4688,8.971178,17.3963,8.985589000000001Q17.323900000000002,9,17.25,9Q17.176099999999998,9,17.1037,8.985589000000001Q17.0312,8.971178,16.963,8.94291Q16.8947,8.914641,16.8333,8.873602Q16.771900000000002,8.832563,16.7197,8.78033Q16.6674,8.728097,16.6264,8.666678Q16.5854,8.605258,16.5571,8.537013Q16.5288,8.468767,16.514400000000002,8.396318Q16.5,8.3238685,16.5,8.25Q16.5,8.1761315,16.514400000000002,8.103682Q16.5288,8.031233,16.5571,7.962987Q16.5854,7.894742,16.6264,7.833322Q16.6674,7.771903,16.7197,7.71967Q16.771900000000002,7.667437,16.8333,7.626398Q16.8947,7.585359,16.963,7.55709Q17.0312,7.528822,17.1037,7.514411Q17.176099999999998,7.5,17.25,7.5Q17.323900000000002,7.5,17.3963,7.514411Q17.4688,7.528822,17.537,7.55709Q17.6053,7.585359,17.6667,7.626398Q17.728099999999998,7.667437,17.7803,7.71967Q17.8326,7.771903,17.8736,7.833322Q17.9146,7.894742,17.9429,7.962987Q17.9712,8.031233,17.985599999999998,8.103682Q18,8.1761315,18,8.25Z" fill="#000000" fill-opacity="1"/></g></g></svg>