<svg xmlns="http://www.w3.org/2000/svg" xmlns:xlink="http://www.w3.org/1999/xlink" fill="none" version="1.1" width="24" height="24" viewBox="0 0 24 24"><defs><clipPath id="master_svg0_1421_5338"><rect x="0" y="0" width="24" height="24" rx="0"/></clipPath></defs><g clip-path="url(#master_svg0_1421_5338)"><g><path d="M11.645,20.910029189682007L11.638,20.907029189682007L11.616,20.895029189682006C11.48729,20.824229189682008,11.35961,20.751529189682007,11.233,20.677029189682006C9.71081,19.772529189682007,8.28827,18.709929189682008,6.989,17.507029189682008C4.688000000000001,15.360029189682006,2.25,12.173999189682007,2.25,8.249999189682008C2.25,5.321999189682007,4.714,2.999999999982007,7.688,2.999999999982007C9.36279,2.991796259682007,10.95007,3.747150189682007,12,5.051999189682007C13.0502,3.7468751896820067,14.6379,2.9914920296820067,16.313000000000002,2.999999999982007C19.286,2.999999999982007,21.75,5.321999189682007,21.75,8.249999189682008C21.75,12.174999189682007,19.312,15.361029189682007,17.011,17.506029189682007C15.7117,18.708929189682006,14.2892,19.771529189682006,12.767,20.67602918968201C12.6404,20.75082918968201,12.5127,20.823829189682005,12.384,20.895029189682006L12.362,20.907029189682007L12.355,20.911029189682008L12.352,20.912029189682006C12.13182,21.028629189682007,11.86818,21.028629189682007,11.648,20.912029189682006L11.645,20.911029189682008L11.645,20.910029189682007Z" fill="#000000" fill-opacity="1"/></g></g></svg>