<svg xmlns="http://www.w3.org/2000/svg" xmlns:xlink="http://www.w3.org/1999/xlink" fill="none" version="1.1" width="24" height="24" viewBox="0 0 24 24"><defs><clipPath id="master_svg0_1421_5326"><rect x="0" y="0" width="24" height="24" rx="0"/></clipPath></defs><g clip-path="url(#master_svg0_1421_5326)"><g><path d="M8.25,11.24999754776001L15.75,11.24999754776001Q15.8239,11.24999754776001,15.8963,11.26440754776001Q15.9688,11.27881754776001,16.037,11.307087547760009Q16.1053,11.33535754776001,16.1667,11.37639754776001Q16.228099999999998,11.41743754776001,16.2803,11.46966754776001Q16.3326,11.52190754776001,16.3736,11.583317547760009Q16.4146,11.644737547760009,16.4429,11.71298754776001Q16.4712,11.78122754776001,16.485599999999998,11.85368754776001Q16.5,11.926127547760009,16.5,11.99999754776001Q16.5,12.07386754776001,16.485599999999998,12.14631754776001Q16.4712,12.21876754776001,16.4429,12.287007547760009Q16.4146,12.35525754776001,16.3736,12.41667754776001Q16.3326,12.47809754776001,16.2803,12.53032754776001Q16.228099999999998,12.582567547760009,16.1667,12.62359754776001Q16.1053,12.66463754776001,16.037,12.69290754776001Q15.9688,12.72117754776001,15.8963,12.73558754776001Q15.8239,12.74999754776001,15.75,12.74999754776001L8.25,12.74999754776001Q8.17613,12.74999754776001,8.10368,12.73558754776001Q8.03123,12.72117754776001,7.96299,12.69290754776001Q7.89474,12.66463754776001,7.83332,12.62359754776001Q7.7719,12.582567547760009,7.71967,12.53032754776001Q7.66744,12.47809754776001,7.6264,12.41667754776001Q7.58536,12.35525754776001,7.55709,12.287007547760009Q7.52882,12.21876754776001,7.51441,12.14631754776001Q7.5,12.07386754776001,7.5,11.99999754776001Q7.5,11.926127547760009,7.51441,11.85368754776001Q7.52882,11.78122754776001,7.55709,11.71298754776001Q7.58536,11.644737547760009,7.6264,11.583317547760009Q7.66744,11.52190754776001,7.71967,11.46966754776001Q7.7719,11.41743754776001,7.83332,11.37639754776001Q7.89474,11.33535754776001,7.96299,11.307087547760009Q8.03123,11.27881754776001,8.10368,11.26440754776001Q8.17613,11.24999754776001,8.25,11.24999754776001ZM13.2803,8.469667547760011L16.2803,11.46966754776001Q16.3326,11.52190754776001,16.3736,11.583317547760009Q16.4146,11.644737547760009,16.4429,11.71298754776001Q16.4712,11.78122754776001,16.485599999999998,11.85367754776001Q16.5,11.926127547760009,16.5,11.99999754776001Q16.5,12.07386754776001,16.485599999999998,12.14631754776001Q16.4712,12.21876754776001,16.4429,12.287007547760009Q16.4146,12.35525754776001,16.3736,12.41667754776001Q16.3326,12.47809754776001,16.2803,12.53032754776001Q16.228099999999998,12.582567547760009,16.1667,12.62359754776001Q16.1053,12.66463754776001,16.037,12.69290754776001Q15.9688,12.72117754776001,15.8963,12.73558754776001Q15.8239,12.74999754776001,15.75,12.74999754776001Q15.6761,12.74999754776001,15.6037,12.73558754776001Q15.5312,12.72117754776001,15.463,12.69290754776001Q15.3947,12.66463754776001,15.3333,12.62359754776001Q15.2719,12.582567547760009,15.2197,12.53032754776001L12.21967,9.53032754776001Q12.16744,9.47809754776001,12.1264,9.41667754776001Q12.08536,9.35525754776001,12.05709,9.287007547760009Q12.02882,9.21876754776001,12.01441,9.14631754776001Q12,9.07386754776001,12,8.99999754776001Q12,8.92612754776001,12.01441,8.853677547760011Q12.02882,8.781227547760011,12.05709,8.71298754776001Q12.08536,8.644737547760009,12.1264,8.58331754776001Q12.16744,8.521907547760009,12.21967,8.469667547760011Q12.2719,8.41743754776001,12.33332,8.37639754776001Q12.39474,8.33535754776001,12.46299,8.307087547760009Q12.53123,8.27881754776001,12.60368,8.26440754776001Q12.67613,8.24999754776001,12.75,8.24999754776001Q12.82387,8.24999754776001,12.89632,8.26440754776001Q12.96877,8.27881754776001,13.037,8.307087547760009Q13.1053,8.33535754776001,13.1667,8.37639754776001Q13.2281,8.41743754776001,13.2803,8.469667547760011ZM16.2803,12.53032754776001L13.2803,15.53030754776001Q13.2281,15.58260754776001,13.1667,15.62360754776001Q13.1053,15.66460754776001,13.037,15.69290754776001Q12.96877,15.72120754776001,12.89632,15.73560754776001Q12.82387,15.75000754776001,12.75,15.75000754776001Q12.67613,15.75000754776001,12.60368,15.73560754776001Q12.53123,15.72120754776001,12.46299,15.69290754776001Q12.39474,15.66460754776001,12.33332,15.62360754776001Q12.2719,15.58260754776001,12.21967,15.53030754776001Q12.16744,15.47810754776001,12.1264,15.41670754776001Q12.08536,15.35520754776001,12.05709,15.287007547760009Q12.02882,15.21880754776001,12.01441,15.14630754776001Q12,15.07390754776001,12,15.00000754776001Q12,14.92610754776001,12.01441,14.85370754776001Q12.02882,14.78120754776001,12.05709,14.713007547760009Q12.08536,14.64470754776001,12.1264,14.58330754776001Q12.16744,14.52190754776001,12.21967,14.46970754776001L15.2197,11.46966754776001Q15.2719,11.41743754776001,15.3333,11.37639754776001Q15.3947,11.33535754776001,15.463,11.307087547760009Q15.5312,11.27881754776001,15.6037,11.26440754776001Q15.6761,11.24999754776001,15.75,11.24999754776001Q15.8239,11.24999754776001,15.8963,11.26440754776001Q15.9688,11.27881754776001,16.037,11.307087547760009Q16.1053,11.33535754776001,16.1667,11.37639754776001Q16.228099999999998,11.41743754776001,16.2803,11.46966754776001Q16.3326,11.52190754776001,16.3736,11.583317547760009Q16.4146,11.644737547760009,16.4429,11.71298754776001Q16.4712,11.78122754776001,16.485599999999998,11.85367754776001Q16.5,11.926127547760009,16.5,11.99999754776001Q16.5,12.07386754776001,16.485599999999998,12.14631754776001Q16.4712,12.21876754776001,16.4429,12.287007547760009Q16.4146,12.35525754776001,16.3736,12.41667754776001Q16.3326,12.47809754776001,16.2803,12.53032754776001ZM12,2.2531075477600098Q13.9827,2.2531075477600098,15.7946,3.0192772477600096Q17.5441,3.7590805477600098,18.8931,5.10762754776001Q20.2421,6.45617754776001,20.9825,8.20544754776001Q21.7493,10.01707754776001,21.75,11.99973754776001Q21.7507,13.98330754776001,20.9845,15.79620754776001Q20.2446,17.54660754776001,18.8955,18.89620754776001Q17.546300000000002,20.24580754776001,15.7962,20.98620754776001Q13.9836,21.75310754776001,12,21.75310754776001Q10.0164,21.75310754776001,8.20381,20.98620754776001Q6.45366,20.24580754776001,5.10452,18.89620754776001Q3.755379,17.54660754776001,3.0155427,15.79620754776001Q2.249316,13.98330754776001,2.250002,11.99973754776001Q2.250685,10.01707754776001,3.0174797,8.20544754776001Q3.757887,6.45616754776001,5.1068999999999996,5.10762754776001Q6.455909999999999,3.7590805477600098,8.20544,3.0192777477600097Q10.01734,2.2531075477600098,12,2.2531075477600098L12,2.2531075477600098ZM12,3.7531075477600098Q8.58357,3.7531075477600098,6.16738,6.1684675477600095Q3.751179,8.58382754776001,3.750002,12.00025754776001Q3.748821,15.41830754776001,6.16536,17.83570754776001Q8.581900000000001,20.25310754776001,12,20.25310754776001Q15.4181,20.25310754776001,17.834600000000002,17.83570754776001Q20.2512,15.41830754776001,20.25,12.00025754776001Q20.2488,8.58382754776001,17.8326,6.1684675477600095Q15.4164,3.7531075477600098,12,3.7531075477600098L12,3.7531075477600098ZM9,11.99999754776001Q9,12.07386754776001,8.98559,12.14631754776001Q8.97118,12.21876754776001,8.942910000000001,12.287007547760009Q8.91464,12.35525754776001,8.8736,12.41667754776001Q8.83256,12.47809754776001,8.78033,12.53032754776001Q8.728100000000001,12.582567547760009,8.66668,12.62359754776001Q8.605260000000001,12.66463754776001,8.53701,12.69290754776001Q8.46877,12.72117754776001,8.39632,12.73558754776001Q8.32387,12.74999754776001,8.25,12.74999754776001Q8.17613,12.74999754776001,8.10368,12.73558754776001Q8.03123,12.72117754776001,7.96299,12.69290754776001Q7.89474,12.66463754776001,7.83332,12.62359754776001Q7.7719,12.582567547760009,7.71967,12.53032754776001Q7.66744,12.47809754776001,7.6264,12.41667754776001Q7.58536,12.35525754776001,7.55709,12.287007547760009Q7.52882,12.21876754776001,7.51441,12.14631754776001Q7.5,12.07386754776001,7.5,11.99999754776001Q7.5,11.926127547760009,7.51441,11.85368754776001Q7.52882,11.78122754776001,7.55709,11.71298754776001Q7.58536,11.644737547760009,7.6264,11.583317547760009Q7.66744,11.52190754776001,7.71967,11.46966754776001Q7.7719,11.41743754776001,7.83332,11.37639754776001Q7.89474,11.33535754776001,7.96299,11.307087547760009Q8.03123,11.27881754776001,8.10368,11.26440754776001Q8.17613,11.24999754776001,8.25,11.24999754776001Q8.32387,11.24999754776001,8.39632,11.26440754776001Q8.46877,11.27881754776001,8.53701,11.307087547760009Q8.605260000000001,11.33535754776001,8.66668,11.37639754776001Q8.728100000000001,11.41743754776001,8.78033,11.46966754776001Q8.83256,11.52190754776001,8.8736,11.583317547760009Q8.91464,11.644737547760009,8.942910000000001,11.71298754776001Q8.97118,11.78122754776001,8.98559,11.85368754776001Q9,11.926127547760009,9,11.99999754776001ZM16.5,11.99999754776001Q16.5,12.07386754776001,16.485599999999998,12.14631754776001Q16.4712,12.21876754776001,16.4429,12.287007547760009Q16.4146,12.35525754776001,16.3736,12.41667754776001Q16.3326,12.47809754776001,16.2803,12.53032754776001Q16.228099999999998,12.582567547760009,16.1667,12.62359754776001Q16.1053,12.66463754776001,16.037,12.69290754776001Q15.9688,12.72117754776001,15.8963,12.73558754776001Q15.8239,12.74999754776001,15.75,12.74999754776001Q15.6761,12.74999754776001,15.6037,12.73558754776001Q15.5312,12.72117754776001,15.463,12.69290754776001Q15.3947,12.66463754776001,15.3333,12.62359754776001Q15.2719,12.582567547760009,15.2197,12.53032754776001Q15.1674,12.47809754776001,15.1264,12.41667754776001Q15.0854,12.35525754776001,15.0571,12.287007547760009Q15.0288,12.21876754776001,15.0144,12.14631754776001Q15,12.07386754776001,15,11.99999754776001Q15,11.926127547760009,15.0144,11.85368754776001Q15.0288,11.78122754776001,15.0571,11.71298754776001Q15.0854,11.644737547760009,15.1264,11.583317547760009Q15.1674,11.52190754776001,15.2197,11.46966754776001Q15.2719,11.41743754776001,15.3333,11.37639754776001Q15.3947,11.33535754776001,15.463,11.307087547760009Q15.5312,11.27881754776001,15.6037,11.26440754776001Q15.6761,11.24999754776001,15.75,11.24999754776001Q15.8239,11.24999754776001,15.8963,11.26440754776001Q15.9688,11.27881754776001,16.037,11.307087547760009Q16.1053,11.33535754776001,16.1667,11.37639754776001Q16.228099999999998,11.41743754776001,16.2803,11.46966754776001Q16.3326,11.52190754776001,16.3736,11.583317547760009Q16.4146,11.644737547760009,16.4429,11.71298754776001Q16.4712,11.78122754776001,16.485599999999998,11.85368754776001Q16.5,11.926127547760009,16.5,11.99999754776001ZM13.5,8.99999754776001Q13.5,9.07386754776001,13.4856,9.14631754776001Q13.4712,9.21876754776001,13.4429,9.287007547760009Q13.4146,9.35525754776001,13.3736,9.41667754776001Q13.3326,9.47809754776001,13.2803,9.53032754776001Q13.2281,9.58255754776001,13.1667,9.62359754776001Q13.1053,9.664637547760009,13.037,9.69290754776001Q12.96877,9.72117754776001,12.89632,9.735587547760009Q12.82387,9.74999754776001,12.75,9.74999754776001Q12.67613,9.74999754776001,12.60368,9.735587547760009Q12.53123,9.72117754776001,12.46299,9.69290754776001Q12.39474,9.664637547760009,12.33332,9.62359754776001Q12.2719,9.58255754776001,12.21967,9.53032754776001Q12.16744,9.47809754776001,12.1264,9.41667754776001Q12.08536,9.35525754776001,12.05709,9.287007547760009Q12.02882,9.21876754776001,12.01441,9.14631754776001Q12,9.07386754776001,12,8.99999754776001Q12,8.92612754776001,12.01441,8.853677547760011Q12.02882,8.781227547760011,12.05709,8.71298754776001Q12.08536,8.644737547760009,12.1264,8.58331754776001Q12.16744,8.521897547760009,12.21967,8.469667547760011Q12.2719,8.41743754776001,12.33332,8.37639754776001Q12.39474,8.33535754776001,12.46299,8.307087547760009Q12.53123,8.27881754776001,12.60368,8.26440754776001Q12.67613,8.24999754776001,12.75,8.24999754776001Q12.82387,8.24999754776001,12.89632,8.26440754776001Q12.96877,8.27881754776001,13.037,8.307087547760009Q13.1053,8.33535754776001,13.1667,8.37639754776001Q13.2281,8.41743754776001,13.2803,8.469667547760011Q13.3326,8.521897547760009,13.3736,8.58331754776001Q13.4146,8.644737547760009,13.4429,8.71298754776001Q13.4712,8.781227547760011,13.4856,8.853677547760011Q13.5,8.92612754776001,13.5,8.99999754776001ZM16.5,11.99999754776001Q16.5,12.07386754776001,16.485599999999998,12.14631754776001Q16.4712,12.21876754776001,16.4429,12.287007547760009Q16.4146,12.35525754776001,16.3736,12.41667754776001Q16.3326,12.47809754776001,16.2803,12.53032754776001Q16.228099999999998,12.582567547760009,16.1667,12.62359754776001Q16.1053,12.66463754776001,16.037,12.69290754776001Q15.9688,12.72117754776001,15.8963,12.73558754776001Q15.8239,12.74999754776001,15.75,12.74999754776001Q15.6761,12.74999754776001,15.6037,12.73558754776001Q15.5312,12.72117754776001,15.463,12.69290754776001Q15.3947,12.66463754776001,15.3333,12.62359754776001Q15.2719,12.582567547760009,15.2197,12.53032754776001Q15.1674,12.47809754776001,15.1264,12.41667754776001Q15.0854,12.35525754776001,15.0571,12.287007547760009Q15.0288,12.21876754776001,15.0144,12.14631754776001Q15,12.07386754776001,15,11.99999754776001Q15,11.926127547760009,15.0144,11.85368754776001Q15.0288,11.78122754776001,15.0571,11.71298754776001Q15.0854,11.644737547760009,15.1264,11.583317547760009Q15.1674,11.52190754776001,15.2197,11.46966754776001Q15.2719,11.41743754776001,15.3333,11.37639754776001Q15.3947,11.33535754776001,15.463,11.307087547760009Q15.5312,11.27881754776001,15.6037,11.26440754776001Q15.6761,11.24999754776001,15.75,11.24999754776001Q15.8239,11.24999754776001,15.8963,11.26440754776001Q15.9688,11.27881754776001,16.037,11.307087547760009Q16.1053,11.33535754776001,16.1667,11.37639754776001Q16.228099999999998,11.41743754776001,16.2803,11.46966754776001Q16.3326,11.52190754776001,16.3736,11.583317547760009Q16.4146,11.644737547760009,16.4429,11.71298754776001Q16.4712,11.78122754776001,16.485599999999998,11.85368754776001Q16.5,11.926127547760009,16.5,11.99999754776001ZM16.5,11.99999754776001Q16.5,12.07386754776001,16.485599999999998,12.14631754776001Q16.4712,12.21876754776001,16.4429,12.287007547760009Q16.4146,12.35525754776001,16.3736,12.41667754776001Q16.3326,12.47809754776001,16.2803,12.53032754776001Q16.228099999999998,12.582567547760009,16.1667,12.62359754776001Q16.1053,12.66463754776001,16.037,12.69290754776001Q15.9688,12.72117754776001,15.8963,12.73558754776001Q15.8239,12.74999754776001,15.75,12.74999754776001Q15.6761,12.74999754776001,15.6037,12.73558754776001Q15.5312,12.72117754776001,15.463,12.69290754776001Q15.3947,12.66463754776001,15.3333,12.62359754776001Q15.2719,12.582567547760009,15.2197,12.53032754776001Q15.1674,12.47809754776001,15.1264,12.41667754776001Q15.0854,12.35525754776001,15.0571,12.287007547760009Q15.0288,12.21876754776001,15.0144,12.14631754776001Q15,12.07386754776001,15,11.99999754776001Q15,11.926127547760009,15.0144,11.85368754776001Q15.0288,11.78122754776001,15.0571,11.71298754776001Q15.0854,11.644737547760009,15.1264,11.583317547760009Q15.1674,11.52190754776001,15.2197,11.46966754776001Q15.2719,11.41743754776001,15.3333,11.37639754776001Q15.3947,11.33535754776001,15.463,11.307087547760009Q15.5312,11.27881754776001,15.6037,11.26440754776001Q15.6761,11.24999754776001,15.75,11.24999754776001Q15.8239,11.24999754776001,15.8963,11.26440754776001Q15.9688,11.27881754776001,16.037,11.307087547760009Q16.1053,11.33535754776001,16.1667,11.37639754776001Q16.228099999999998,11.41743754776001,16.2803,11.46966754776001Q16.3326,11.52190754776001,16.3736,11.583317547760009Q16.4146,11.644737547760009,16.4429,11.71298754776001Q16.4712,11.78122754776001,16.485599999999998,11.85368754776001Q16.5,11.926127547760009,16.5,11.99999754776001ZM13.5,15.00000754776001Q13.5,15.07390754776001,13.4856,15.14630754776001Q13.4712,15.21880754776001,13.4429,15.287007547760009Q13.4146,15.35520754776001,13.3736,15.41670754776001Q13.3326,15.47810754776001,13.2803,15.53030754776001Q13.2281,15.58260754776001,13.1667,15.62360754776001Q13.1053,15.66460754776001,13.037,15.69290754776001Q12.96877,15.72120754776001,12.89632,15.73560754776001Q12.82387,15.75000754776001,12.75,15.75000754776001Q12.67613,15.75000754776001,12.60368,15.73560754776001Q12.53123,15.72120754776001,12.46299,15.69290754776001Q12.39474,15.66460754776001,12.33332,15.62360754776001Q12.2719,15.58260754776001,12.21967,15.53030754776001Q12.16744,15.47810754776001,12.1264,15.41670754776001Q12.08536,15.35520754776001,12.05709,15.287007547760009Q12.02882,15.21880754776001,12.01441,15.14630754776001Q12,15.07390754776001,12,15.00000754776001Q12,14.92610754776001,12.01441,14.85370754776001Q12.02882,14.78120754776001,12.05709,14.713007547760009Q12.08536,14.64470754776001,12.1264,14.58330754776001Q12.16744,14.52190754776001,12.21967,14.46970754776001Q12.2719,14.41740754776001,12.33332,14.37640754776001Q12.39474,14.33530754776001,12.46299,14.30710754776001Q12.53123,14.27880754776001,12.60368,14.26440754776001Q12.67613,14.25000754776001,12.75,14.25000754776001Q12.82387,14.25000754776001,12.89632,14.26440754776001Q12.96877,14.27880754776001,13.037,14.30710754776001Q13.1053,14.33530754776001,13.1667,14.37640754776001Q13.2281,14.41740754776001,13.2803,14.46970754776001Q13.3326,14.52190754776001,13.3736,14.58330754776001Q13.4146,14.64470754776001,13.4429,14.713007547760009Q13.4712,14.78120754776001,13.4856,14.85370754776001Q13.5,14.92610754776001,13.5,15.00000754776001Z" fill="#000000" fill-opacity="1"/></g></g></svg>