<svg xmlns="http://www.w3.org/2000/svg" xmlns:xlink="http://www.w3.org/1999/xlink" fill="none" version="1.1" width="24" height="24" viewBox="0 0 24 24"><defs><clipPath id="master_svg0_1421_5342"><rect x="0" y="0" width="24" height="24" rx="0"/></clipPath></defs><g clip-path="url(#master_svg0_1421_5342)"><g><path d="M8.60299713897705,3.798998092651367C9.456807138977052,2.814051092651367,10.696497138977051,2.248760942651367,11.99999713897705,2.2500000000013674C13.35699713897705,2.2500000000013674,14.572997138977051,2.850000092651367,15.396997138977051,3.798998092651367C16.69749713897705,3.7061480926513672,17.97409713897705,4.183138092651367,18.89499713897705,5.105998092651367C19.81749713897705,6.026778092651368,20.29439713897705,7.302898092651367,20.201997138977053,8.602998092651367C21.18659713897705,9.456988092651368,21.75149713897705,10.696658092651367,21.74999713897705,11.999998092651367C21.75119713897705,13.303498092651367,21.18599713897705,14.543198092651368,20.20099713897705,15.396998092651367C20.29339713897705,16.697098092651366,19.816497138977052,17.973198092651366,18.89399713897705,18.893998092651366C17.97319713897705,19.81649809265137,16.69709713897705,20.293398092651366,15.396997138977051,20.200998092651368C14.543197138977051,21.185998092651367,13.30349713897705,21.751198092651368,11.99999713897705,21.749998092651367C10.696497138977051,21.751198092651368,9.456807138977052,21.185998092651367,8.60299713897705,20.200998092651368C7.3026971389770505,20.294098092651367,6.026117138977051,19.817498092651366,5.104997138977051,18.894998092651367C4.182247138977051,17.973998092651367,3.705277138977051,16.69739809265137,3.797997138977051,15.396998092651367C2.813422138977051,14.542998092651366,2.248509168977051,13.303298092651367,2.249999999997051,11.999998092651367C2.249999999997051,10.642998092651368,2.850000138977051,9.426998092651367,3.7989971389770507,8.602998092651367C3.7064371389770505,7.302878092651367,4.183407138977051,6.026708092651367,5.105997138977051,5.105998092651367C6.02670713897705,4.1834080926513675,7.302877138977051,3.706438092651367,8.60299713897705,3.798998092651367ZM15.60999713897705,10.185998092651367C15.862697138977051,9.849248092651367,15.788797138977051,9.370478092651368,15.446297138977052,9.125648092651367C15.10369713897705,8.880818092651367,14.62679713897705,8.965868092651366,14.389997138977051,9.313998092651367L11.15399713897705,13.843998092651367L9.529997138977052,12.219998092651368C9.234487138977052,11.944638092651367,8.773987138977052,11.952758092651367,8.48836713897705,12.238368092651367C8.20275713897705,12.523998092651366,8.19463713897705,12.984498092651368,8.46999713897705,13.279998092651367L10.719997138977051,15.529998092651367C11.04754713897705,15.857298092651368,11.590497138977051,15.812498092651367,11.85999713897705,15.435998092651367L15.60999713897705,10.185998092651367Z" fill-rule="evenodd" fill="#000000" fill-opacity="1"/></g></g></svg>