<svg xmlns="http://www.w3.org/2000/svg" xmlns:xlink="http://www.w3.org/1999/xlink" fill="none" version="1.1" width="24" height="24" viewBox="0 0 24 24"><defs><clipPath id="master_svg0_715_7209"><rect x="0" y="0" width="24" height="24" rx="0"/></clipPath></defs><g clip-path="url(#master_svg0_715_7209)"><g><path d="M18,10.5Q18.621299999999998,10.5,19.0607,10.93934Q19.5,11.378681,19.5,12Q19.5,12.62132,19.0607,13.06066Q18.621299999999998,13.5,18,13.5Q17.378700000000002,13.5,16.9393,13.06066Q16.5,12.62132,16.5,12Q16.5,11.378681,16.9393,10.93934Q17.378700000000002,10.5,18,10.5ZM18,12L18,12L18,12L18,12L18,12ZM12,10.5Q12.62132,10.5,13.06066,10.93934Q13.5,11.37868,13.5,12Q13.5,12.62132,13.06066,13.06066Q12.62132,13.5,12,13.5Q11.37868,13.5,10.93934,13.06066Q10.5,12.62132,10.5,12Q10.5,11.37868,10.93934,10.93934Q11.37868,10.5,12,10.5ZM12,12L12,12L12,12L12,12L12,12ZM6,10.5Q6.62132,10.5,7.06066,10.93934Q7.5,11.37868,7.5,12Q7.5,12.62132,7.06066,13.06066Q6.62132,13.5,6,13.5Q5.37868,13.5,4.93934,13.06066Q4.5,12.62132,4.5,12Q4.5,11.37868,4.93934,10.93934Q5.37868,10.5,6,10.5ZM6,12L6,12L6,12L6,12L6,12Z" fill="#000000" fill-opacity="1"/></g></g></svg>