<svg xmlns="http://www.w3.org/2000/svg" xmlns:xlink="http://www.w3.org/1999/xlink" fill="none" version="1.1" width="24" height="24" viewBox="0 0 24 24"><defs><clipPath id="master_svg0_106_423"><rect x="0" y="0" width="24" height="24" rx="0"/></clipPath></defs><g clip-path="url(#master_svg0_106_423)"><g><path d="M15.932595708465577,15.181737474060059Q17.250395708465575,13.86373747406006,17.250395708465575,11.99999747406006Q17.250395708465575,10.13625747406006,15.932595708465577,8.818287474060059Q15.880395708465576,8.76604747406006,15.839395708465576,8.704627474060057Q15.798295708465576,8.64319747406006,15.770095708465576,8.574957474060058Q15.741795708465576,8.506707474060057,15.727395708465576,8.434257474060058Q15.712995708465575,8.361807474060058,15.712995708465575,8.287937474060058Q15.712995708465575,8.214067474060059,15.727395708465576,8.141617474060059Q15.741795708465576,8.069167474060059,15.770095708465576,8.00092747406006Q15.798395708465577,7.932687474060058,15.839395708465576,7.871267474060058Q15.880495708465576,7.809857474060059,15.932695708465577,7.757627474060059Q15.984995708465576,7.705397474060058,16.046395708465575,7.664357474060059Q16.107795708465574,7.6233274740600585,16.175995708465578,7.595067474060059Q16.24429570846558,7.566807474060059,16.316695708465577,7.552397474060059Q16.38919570846558,7.537997474060059,16.463095708465577,7.537997474060059Q16.536895708465575,7.538007474060058,16.609395708465577,7.5524274740600585Q16.68179570846558,7.566837474060058,16.750095708465576,7.595117474060059Q16.818295708465577,7.623387474060059,16.879695708465576,7.664427474060059Q16.941095708465575,7.705477474060059,16.993395708465577,7.757717474060058Q18.750395708465575,9.51500747406006,18.750395708465575,11.99999747406006Q18.750395708465575,14.48493747406006,16.993395708465577,16.242237474060058Q16.941095708465575,16.294537474060057,16.879695708465576,16.33553747406006Q16.818295708465577,16.37663747406006,16.750095708465576,16.40483747406006Q16.68179570846558,16.43313747406006,16.609395708465577,16.44753747406006Q16.536895708465575,16.46203747406006,16.463095708465577,16.46203747406006Q16.38919570846558,16.46203747406006,16.316695708465577,16.44763747406006Q16.24429570846558,16.433237474060057,16.175995708465578,16.40493747406006Q16.107795708465574,16.37663747406006,16.046395708465575,16.335637474060057Q15.984995708465576,16.29463747406006,15.932695708465577,16.242337474060058Q15.880495708465576,16.19013747406006,15.839395708465576,16.12873747406006Q15.798395708465577,16.06733747406006,15.770095708465576,15.999037474060058Q15.741795708465576,15.93083747406006,15.727395708465576,15.85833747406006Q15.712995708465575,15.78593747406006,15.712995708465575,15.71203747406006Q15.712995708465575,15.638237474060059,15.727395708465576,15.56573747406006Q15.741795708465576,15.49333747406006,15.770095708465576,15.425037474060058Q15.798295708465576,15.35683747406006,15.839395708465576,15.295337474060059Q15.880395708465576,15.233937474060058,15.932595708465577,15.181737474060059ZM18.583695708465577,17.83363747406006Q21.000095708465576,15.417237474060059,21.000095708465576,11.99999747406006Q21.000095708465576,8.582707474060058,18.583695708465577,6.166327474060059Q18.531395708465578,6.114097474060058,18.490395708465577,6.052677474060058Q18.449395708465577,5.991257474060058,18.421095708465575,5.9230174740600585Q18.392795708465577,5.854767474060059,18.378395708465575,5.782317474060059Q18.363995708465577,5.709867474060059,18.363995708465577,5.636007474060058Q18.363995708465577,5.562137474060059,18.378395708465575,5.489687474060059Q18.392795708465577,5.417237474060059,18.421095708465575,5.348987474060058Q18.449395708465577,5.280747474060059,18.490395708465577,5.219327474060059Q18.531395708465578,5.157907474060059,18.583695708465577,5.105677474060059Q18.635895708465576,5.0534374740600585,18.697295708465575,5.012397474060059Q18.758695708465577,4.971357474060058,18.826995708465578,4.943087474060059Q18.895195708465575,4.914827474060059,18.967695708465577,4.900407474060058Q19.040095708465575,4.8859974740600585,19.113995708465577,4.8859974740600585Q19.187895708465575,4.8859974740600585,19.260295708465577,4.900407474060058Q19.332795708465575,4.914817474060058,19.400995708465576,4.943087474060059Q19.469295708465577,4.971357474060058,19.530695708465576,5.012397474060059Q19.592095708465575,5.053427474060059,19.644295708465577,5.105667474060058Q21.046595708465578,6.507957474060058,21.786095708465577,8.331417474060059Q22.500095708465576,10.092107474060057,22.500095708465576,11.99999747406006Q22.500095708465576,13.90793747406006,21.786095708465577,15.66853747406006Q21.046595708465578,17.49203747406006,19.644295708465577,18.89433747406006Q19.592095708465575,18.946537474060058,19.530695708465576,18.987637474060058Q19.469295708465577,19.02863747406006,19.400995708465576,19.056937474060057Q19.332795708465575,19.08513747406006,19.260295708465577,19.09963747406006Q19.187895708465575,19.11403747406006,19.113995708465577,19.11403747406006Q19.040095708465575,19.11403747406006,18.967695708465577,19.099537474060057Q18.895195708465575,19.08513747406006,18.826995708465578,19.056937474060057Q18.758695708465577,19.02863747406006,18.697295708465575,18.987637474060058Q18.635895708465576,18.946537474060058,18.583695708465577,18.89433747406006Q18.531395708465578,18.84213747406006,18.490395708465577,18.780637474060057Q18.449395708465577,18.71923747406006,18.421095708465575,18.65103747406006Q18.392795708465577,18.58273747406006,18.378395708465575,18.51033747406006Q18.363995708465577,18.43783747406006,18.363995708465577,18.36403747406006Q18.363995708465577,18.29013747406006,18.378395708465575,18.21763747406006Q18.392795708465577,18.14523747406006,18.421095708465575,18.07693747406006Q18.449395708465577,18.00873747406006,18.490395708465577,17.947337474060056Q18.531395708465578,17.885937474060057,18.583695708465577,17.83363747406006ZM4.509995708465576,7.499997474060058L6.749995708465576,7.499997474060058L6.749995708465576,8.24999747406006L6.219665708465576,7.719667474060058L10.939665708465576,2.999670474060059Q11.261735708465576,2.6780094740600586,11.707725708465576,2.5894094740600586Q12.153725708465576,2.5008084740600585,12.573895708465576,2.6747654740600586Q12.993995708465576,2.8487224740600587,13.246795708465577,3.2266767740600586Q13.499595708465575,3.6046294740600584,13.499995708465576,4.059344474060058L13.499995708465576,19.94003747406006Q13.499595708465575,20.39533747406006,13.246795708465577,20.77333747406006Q12.993995708465576,21.151237474060057,12.573795708465576,21.32523747406006Q12.153725708465576,21.49923747406006,11.707725708465576,21.41063747406006Q11.261725708465576,21.322037474060057,10.939995708465576,21.00063747406006L6.219665708465576,16.280337474060058L6.749995708465576,15.750037474060058L6.749995708465576,16.500037474060058L4.509995708465576,16.500037474060058Q3.603015708465576,16.500037474060058,2.8796637084655763,16.012637474060057Q2.094338708465576,15.483437474060059,1.8490817084655762,14.595737474060059Q1.4987127084655762,13.320637474060058,1.5000007084655762,11.999267474060058Q1.4999997084655763,10.672607474060058,1.848888708465576,9.404977474060058Q2.094206708465576,8.515957474060059,2.879818708465576,7.986907474060058Q3.602855708465576,7.499997474060058,4.509995708465576,7.499997474060058ZM4.509995708465576,8.99999747406006Q4.060835708465576,8.99999747406006,3.7176857084655763,9.231087474060057Q3.392505708465576,9.45006747406006,3.295115708465576,9.80301747406006Q2.9999997084655763,10.875257474060058,2.9999997084655763,12.000727474060058Q2.9989097084655763,13.11898747406006,3.2949157084655765,14.196237474060059Q3.392475708465576,14.549437474060058,3.717835708465576,14.768637474060059Q4.061215708465577,15.000037474060058,4.509995708465576,15.000037474060058L6.749995708465576,15.000037474060058Q6.899185708465576,15.000037474060058,7.037015708465576,15.057137474060058Q7.174835708465576,15.114137474060058,7.280325708465576,15.21963747406006L11.999995708465576,19.939337474060057L12.000005708465576,19.939337474060057L12.000005708465576,19.939337474060057Q11.999995708465576,19.939337474060057,11.999995708465576,19.94003747406006L11.999995708465576,4.060656474060059Q11.999995708465576,4.060658474060059,11.999995708465576,4.060659474060058Q11.999995708465576,4.060658474060059,12.000325708465576,4.060330474060058L7.280325708465576,8.780327474060059Q7.174845708465576,8.885817474060058,7.037015708465576,8.942907474060059Q6.899185708465576,8.99999747406006,6.749995708465576,8.99999747406006L4.509995708465576,8.99999747406006ZM17.212995708465577,15.71203747406006Q17.212995708465577,15.785837474060058,17.198595708465575,15.85833747406006Q17.184195708465577,15.93073747406006,17.15589570846558,15.999037474060058Q17.127595708465577,16.067237474060057,17.086595708465577,16.128637474060056Q17.045595708465576,16.19013747406006,16.993295708465574,16.242337474060058Q16.941095708465575,16.294537474060057,16.879695708465576,16.335637474060057Q16.818295708465577,16.37663747406006,16.749995708465576,16.40493747406006Q16.68179570846558,16.43313747406006,16.609295708465574,16.44763747406006Q16.536895708465575,16.46203747406006,16.462995708465577,16.46203747406006Q16.389095708465575,16.46203747406006,16.316695708465577,16.44763747406006Q16.244195708465575,16.43313747406006,16.175995708465578,16.40493747406006Q16.107695708465577,16.37663747406006,16.04629570846558,16.335637474060057Q15.984895708465576,16.294537474060057,15.932695708465577,16.242337474060058Q15.880395708465576,16.19013747406006,15.839395708465576,16.128637474060056Q15.798395708465577,16.067237474060057,15.770095708465576,15.999037474060058Q15.741795708465576,15.93073747406006,15.727395708465576,15.85833747406006Q15.712995708465575,15.785837474060058,15.712995708465575,15.71203747406006Q15.712995708465575,15.63813747406006,15.727395708465576,15.56563747406006Q15.741795708465576,15.49323747406006,15.770095708465576,15.424937474060059Q15.798395708465577,15.356737474060058,15.839395708465576,15.295337474060059Q15.880395708465576,15.233937474060058,15.932695708465577,15.181637474060059Q15.984895708465576,15.129437474060058,16.04629570846558,15.088437474060058Q16.107695708465577,15.04733747406006,16.175995708465578,15.01913747406006Q16.244195708465575,14.990837474060058,16.316695708465577,14.97643747406006Q16.389095708465575,14.96203747406006,16.462995708465577,14.96203747406006Q16.536895708465575,14.96203747406006,16.609295708465574,14.97643747406006Q16.68179570846558,14.990837474060058,16.749995708465576,15.01913747406006Q16.818295708465577,15.04733747406006,16.879695708465576,15.088437474060058Q16.941095708465575,15.129437474060058,16.993295708465574,15.181637474060059Q17.045595708465576,15.233937474060058,17.086595708465577,15.295337474060059Q17.127595708465577,15.356737474060058,17.15589570846558,15.424937474060059Q17.184195708465577,15.49323747406006,17.198595708465575,15.56563747406006Q17.212995708465577,15.63813747406006,17.212995708465577,15.71203747406006ZM17.212995708465577,8.28799747406006Q17.212995708465577,8.361867474060059,17.198595708465575,8.434317474060059Q17.184195708465577,8.506767474060059,17.15589570846558,8.575007474060058Q17.127595708465577,8.643257474060059,17.086595708465577,8.704677474060059Q17.045595708465576,8.766097474060059,16.993295708465574,8.818327474060059Q16.941095708465575,8.870567474060058,16.879695708465576,8.91159747406006Q16.818295708465577,8.952637474060058,16.749995708465576,8.980907474060059Q16.68179570846558,9.00917747406006,16.609295708465574,9.023587474060058Q16.536895708465575,9.03799747406006,16.462995708465577,9.03799747406006Q16.389095708465575,9.03799747406006,16.316695708465577,9.023587474060058Q16.244195708465575,9.00917747406006,16.175995708465578,8.980907474060059Q16.107695708465577,8.952637474060058,16.04629570846558,8.91159747406006Q15.984895708465576,8.870567474060058,15.932695708465577,8.818327474060059Q15.880395708465576,8.766097474060059,15.839395708465576,8.704677474060059Q15.798395708465577,8.643257474060059,15.770095708465576,8.575007474060058Q15.741795708465576,8.506767474060059,15.727395708465576,8.434317474060059Q15.712995708465575,8.361867474060059,15.712995708465575,8.28799747406006Q15.712995708465575,8.214127474060058,15.727395708465576,8.141677474060058Q15.741795708465576,8.069227474060058,15.770095708465576,8.000987474060057Q15.798395708465577,7.932737474060058,15.839395708465576,7.871317474060058Q15.880395708465576,7.809907474060059,15.932695708465577,7.757667474060058Q15.984895708465576,7.705437474060059,16.04629570846558,7.664397474060059Q16.107695708465577,7.623357474060058,16.175995708465578,7.595087474060058Q16.244195708465575,7.566817474060058,16.316695708465577,7.552407474060058Q16.389095708465575,7.537997474060059,16.462995708465577,7.537997474060059Q16.536895708465575,7.537997474060059,16.609295708465574,7.552407474060058Q16.68179570846558,7.566817474060058,16.749995708465576,7.595087474060058Q16.818295708465577,7.623357474060058,16.879695708465576,7.664397474060059Q16.941095708465575,7.705437474060059,16.993295708465574,7.757667474060058Q17.045595708465576,7.809907474060059,17.086595708465577,7.871317474060058Q17.127595708465577,7.932737474060058,17.15589570846558,8.000987474060057Q17.184195708465577,8.069227474060058,17.198595708465575,8.141677474060058Q17.212995708465577,8.214127474060058,17.212995708465577,8.28799747406006ZM19.863995708465577,18.36403747406006Q19.863995708465577,18.43783747406006,19.849595708465575,18.51033747406006Q19.835195708465577,18.58273747406006,19.806895708465575,18.65103747406006Q19.778595708465577,18.71923747406006,19.737595708465577,18.780637474060057Q19.696595708465576,18.84213747406006,19.644295708465577,18.89433747406006Q19.592095708465575,18.946537474060058,19.530695708465576,18.987637474060058Q19.469295708465577,19.02863747406006,19.400995708465576,19.056937474060057Q19.332795708465575,19.08513747406006,19.260295708465577,19.09963747406006Q19.187895708465575,19.11403747406006,19.113995708465577,19.11403747406006Q19.040095708465575,19.11403747406006,18.967695708465577,19.099537474060057Q18.895195708465575,19.08513747406006,18.826995708465578,19.056937474060057Q18.758695708465577,19.02863747406006,18.697295708465575,18.987637474060058Q18.635895708465576,18.946537474060058,18.583695708465577,18.89433747406006Q18.531395708465578,18.84213747406006,18.490395708465577,18.780637474060057Q18.449395708465577,18.71923747406006,18.421095708465575,18.65103747406006Q18.392795708465577,18.58273747406006,18.378395708465575,18.51033747406006Q18.363995708465577,18.43783747406006,18.363995708465577,18.36403747406006Q18.363995708465577,18.29013747406006,18.378395708465575,18.21763747406006Q18.392795708465577,18.14523747406006,18.421095708465575,18.07693747406006Q18.449395708465577,18.00873747406006,18.490395708465577,17.947337474060056Q18.531395708465578,17.885937474060057,18.583695708465577,17.83363747406006Q18.635895708465576,17.78143747406006,18.697295708465575,17.74043747406006Q18.758695708465577,17.69933747406006,18.826995708465578,17.67113747406006Q18.895195708465575,17.64283747406006,18.967695708465577,17.628437474060057Q19.040095708465575,17.61403747406006,19.113995708465577,17.61403747406006Q19.187895708465575,17.61403747406006,19.260295708465577,17.628437474060057Q19.332795708465575,17.64283747406006,19.400995708465576,17.67113747406006Q19.469295708465577,17.69933747406006,19.530695708465576,17.74043747406006Q19.592095708465575,17.78143747406006,19.644295708465577,17.83363747406006Q19.696595708465576,17.885937474060057,19.737595708465577,17.947337474060056Q19.778595708465577,18.00873747406006,19.806895708465575,18.07693747406006Q19.835195708465577,18.14523747406006,19.849595708465575,18.21763747406006Q19.863995708465577,18.29013747406006,19.863995708465577,18.36403747406006ZM19.863995708465577,5.6359974740600585Q19.863995708465577,5.709867474060059,19.849595708465575,5.782317474060059Q19.835195708465577,5.854767474060059,19.806895708465575,5.9230174740600585Q19.778595708465577,5.991257474060058,19.737595708465577,6.052677474060058Q19.696595708465576,6.114097474060058,19.644295708465577,6.166327474060059Q19.592095708465575,6.218567474060059,19.530695708465576,6.259597474060058Q19.469295708465577,6.300637474060059,19.400995708465576,6.328907474060058Q19.332795708465575,6.357177474060059,19.260295708465577,6.371587474060059Q19.187895708465575,6.3859974740600585,19.113995708465577,6.3859974740600585Q19.040095708465575,6.3859974740600585,18.967695708465577,6.371587474060059Q18.895195708465575,6.357177474060059,18.826995708465578,6.328907474060058Q18.758695708465577,6.300637474060059,18.697295708465575,6.259597474060058Q18.635895708465576,6.218567474060059,18.583695708465577,6.166327474060059Q18.531395708465578,6.114097474060058,18.490395708465577,6.052677474060058Q18.449395708465577,5.991257474060058,18.421095708465575,5.9230174740600585Q18.392795708465577,5.854767474060059,18.378395708465575,5.782317474060059Q18.363995708465577,5.709867474060059,18.363995708465577,5.6359974740600585Q18.363995708465577,5.562127474060059,18.378395708465575,5.489677474060059Q18.392795708465577,5.417237474060059,18.421095708465575,5.348987474060058Q18.449395708465577,5.280737474060059,18.490395708465577,5.219317474060059Q18.531395708465578,5.157907474060059,18.583695708465577,5.105667474060058Q18.635895708465576,5.0534374740600585,18.697295708465575,5.012397474060059Q18.758695708465577,4.971357474060058,18.826995708465578,4.943087474060059Q18.895195708465575,4.914817474060058,18.967695708465577,4.900407474060058Q19.040095708465575,4.8859974740600585,19.113995708465577,4.8859974740600585Q19.187895708465575,4.8859974740600585,19.260295708465577,4.900407474060058Q19.332795708465575,4.914817474060058,19.400995708465576,4.943087474060059Q19.469295708465577,4.971357474060058,19.530695708465576,5.012397474060059Q19.592095708465575,5.0534374740600585,19.644295708465577,5.105667474060058Q19.696595708465576,5.157907474060059,19.737595708465577,5.219317474060059Q19.778595708465577,5.280737474060059,19.806895708465575,5.348987474060058Q19.835195708465577,5.417237474060059,19.849595708465575,5.489677474060059Q19.863995708465577,5.562127474060059,19.863995708465577,5.6359974740600585Z" fill="#000000" fill-opacity="1"/></g></g></svg>