<svg xmlns="http://www.w3.org/2000/svg" xmlns:xlink="http://www.w3.org/1999/xlink" fill="none" version="1.1" width="24" height="24" viewBox="0 0 24 24"><defs><clipPath id="master_svg0_106_419"><rect x="0" y="0" width="24" height="24" rx="0"/></clipPath></defs><g clip-path="url(#master_svg0_106_419)"><g><path d="M16.719695708465576,13.719637950897217L18.969695708465576,11.469667950897216Q19.021895708465575,11.417437950897217,19.083295708465577,11.376397950897216Q19.144695708465576,11.335357950897217,19.212995708465577,11.307087950897216Q19.281195708465575,11.278817950897217,19.353695708465576,11.264407950897215Q19.426095708465578,11.249997950897217,19.499995708465576,11.249997950897217Q19.573895708465574,11.249997950897217,19.646295708465576,11.264407950897215Q19.718795708465578,11.278817950897217,19.786995708465575,11.307087950897216Q19.855295708465576,11.335357950897217,19.916695708465575,11.376397950897216Q19.978095708465577,11.417437950897217,20.030295708465577,11.469667950897216Q20.082595708465576,11.521897950897216,20.123595708465576,11.583317950897216Q20.164595708465576,11.644737950897216,20.192895708465578,11.712987950897217Q20.221195708465576,11.781227950897216,20.235595708465578,11.853677950897216Q20.249995708465576,11.926127950897216,20.249995708465576,11.999997950897217Q20.249995708465576,12.073867950897217,20.235595708465578,12.146317950897217Q20.221195708465576,12.218767950897217,20.192895708465578,12.287007950897216Q20.164595708465576,12.355257950897217,20.123595708465576,12.416677950897217Q20.082595708465576,12.478097950897217,20.030295708465577,12.530327950897217L17.780295708465577,14.780337950897216Q17.728095708465574,14.832537950897217,17.666695708465575,14.873637950897217Q17.605295708465576,14.914637950897216,17.536995708465575,14.942937950897218Q17.468795708465578,14.971137950897218,17.396295708465576,14.985537950897216Q17.323895708465578,15.000037950897216,17.249995708465576,15.000037950897216Q17.176095708465574,15.000037950897216,17.103695708465576,14.985537950897216Q17.031195708465575,14.971137950897218,16.962995708465577,14.942937950897218Q16.894695708465576,14.914637950897216,16.833295708465577,14.873637950897217Q16.77189570846558,14.832537950897217,16.719695708465576,14.780337950897216Q16.667395708465577,14.728137950897217,16.626395708465576,14.666637950897217Q16.585395708465576,14.605237950897218,16.557095708465575,14.537037950897217Q16.528795708465577,14.468737950897216,16.514395708465578,14.396337950897216Q16.499995708465576,14.323837950897216,16.499995708465576,14.250037950897216Q16.499995708465576,14.176137950897218,16.514395708465578,14.103637950897216Q16.528795708465577,14.031237950897216,16.557095708465575,13.962937950897217Q16.585395708465576,13.894737950897216,16.626395708465576,13.833337950897217Q16.667395708465577,13.771937950897216,16.719695708465576,13.719637950897217ZM22.280295708465577,10.280327950897217L20.030295708465577,12.530327950897217Q19.978095708465577,12.582557950897217,19.916695708465575,12.623597950897217Q19.855295708465576,12.664637950897216,19.786995708465575,12.692907950897217Q19.718795708465578,12.721177950897216,19.646295708465576,12.735587950897218Q19.573895708465574,12.749997950897217,19.499995708465576,12.749997950897217Q19.426095708465578,12.749997950897217,19.353695708465576,12.735587950897218Q19.281195708465575,12.721177950897216,19.212995708465577,12.692907950897217Q19.144695708465576,12.664637950897216,19.083295708465577,12.623597950897217Q19.021895708465575,12.582557950897217,18.969695708465576,12.530327950897217Q18.917395708465577,12.478097950897217,18.876395708465576,12.416677950897217Q18.835395708465576,12.355257950897217,18.807095708465575,12.287007950897216Q18.778795708465577,12.218767950897217,18.764395708465575,12.146317950897217Q18.749995708465576,12.073867950897217,18.749995708465576,11.999997950897217Q18.749995708465576,11.926127950897216,18.764395708465575,11.853677950897216Q18.778795708465577,11.781227950897216,18.807095708465575,11.712987950897217Q18.835395708465576,11.644737950897216,18.876395708465576,11.583317950897216Q18.917395708465577,11.521897950897216,18.969695708465576,11.469667950897216L21.219695708465576,9.219667950897216Q21.271895708465575,9.167437950897217,21.333295708465577,9.126397950897218Q21.394695708465576,9.085357950897217,21.462995708465577,9.057087950897216Q21.531195708465575,9.028817950897217,21.603695708465576,9.014407950897215Q21.676095708465578,8.999997950897217,21.749995708465576,8.999997950897217Q21.823895708465574,8.999997950897217,21.896295708465576,9.014407950897215Q21.968795708465578,9.028817950897217,22.036995708465575,9.057087950897216Q22.105295708465576,9.085357950897217,22.166695708465575,9.126397950897218Q22.228095708465577,9.167437950897217,22.280295708465577,9.219667950897216Q22.332595708465576,9.271897950897216,22.373595708465576,9.333317950897218Q22.414595708465576,9.394737950897216,22.442895708465578,9.462987950897217Q22.471195708465576,9.531227950897216,22.485595708465578,9.603677950897218Q22.499995708465576,9.676127950897218,22.499995708465576,9.749997950897217Q22.499995708465576,9.823867950897217,22.485595708465578,9.896317950897217Q22.471195708465576,9.968767950897217,22.442895708465578,10.037007950897216Q22.414595708465576,10.105257950897217,22.373595708465576,10.166677950897217Q22.332595708465576,10.228097950897217,22.280295708465577,10.280327950897217ZM21.219695708465576,14.780337950897216L18.969695708465576,12.530327950897217Q18.917395708465577,12.478097950897217,18.876395708465576,12.416677950897217Q18.835395708465576,12.355257950897217,18.807095708465575,12.287007950897216Q18.778795708465577,12.218767950897217,18.764395708465575,12.146317950897217Q18.749995708465576,12.073867950897217,18.749995708465576,11.999997950897217Q18.749995708465576,11.926127950897216,18.764395708465575,11.853677950897216Q18.778795708465577,11.781227950897216,18.807095708465575,11.712987950897217Q18.835395708465576,11.644737950897216,18.876395708465576,11.583317950897216Q18.917395708465577,11.521897950897216,18.969695708465576,11.469667950897216Q19.021895708465575,11.417437950897217,19.083295708465577,11.376397950897216Q19.144695708465576,11.335357950897217,19.212995708465577,11.307087950897216Q19.281195708465575,11.278817950897217,19.353695708465576,11.264407950897215Q19.426095708465578,11.249997950897217,19.499995708465576,11.249997950897217Q19.573895708465574,11.249997950897217,19.646295708465576,11.264407950897215Q19.718795708465578,11.278817950897217,19.786995708465575,11.307087950897216Q19.855295708465576,11.335357950897217,19.916695708465575,11.376397950897216Q19.978095708465577,11.417437950897217,20.030295708465577,11.469667950897216L22.280295708465577,13.719637950897217Q22.332595708465576,13.771937950897216,22.373595708465576,13.833337950897217Q22.414595708465576,13.894737950897216,22.442895708465578,13.962937950897217Q22.471195708465576,14.031237950897216,22.485595708465578,14.103637950897216Q22.499995708465576,14.176137950897218,22.499995708465576,14.250037950897216Q22.499995708465576,14.323837950897216,22.485595708465578,14.396337950897216Q22.471195708465576,14.468737950897216,22.442895708465578,14.537037950897217Q22.414595708465576,14.605237950897218,22.373595708465576,14.666637950897217Q22.332595708465576,14.728137950897217,22.280295708465577,14.780337950897216Q22.228095708465577,14.832537950897217,22.166695708465575,14.873637950897217Q22.105295708465576,14.914637950897216,22.036995708465575,14.942937950897218Q21.968795708465578,14.971137950897218,21.896295708465576,14.985537950897216Q21.823895708465574,15.000037950897216,21.749995708465576,15.000037950897216Q21.676095708465578,15.000037950897216,21.603695708465576,14.985537950897216Q21.531195708465575,14.971137950897218,21.462995708465577,14.942937950897218Q21.394695708465576,14.914637950897216,21.333295708465577,14.873637950897217Q21.271895708465575,14.832537950897217,21.219695708465576,14.780337950897216ZM18.969695708465576,12.530327950897217L16.719695708465576,10.280327950897217Q16.667395708465577,10.228097950897217,16.626395708465576,10.166677950897217Q16.585395708465576,10.105257950897217,16.557095708465575,10.037007950897216Q16.528795708465577,9.968767950897217,16.514395708465578,9.896317950897217Q16.499995708465576,9.823867950897217,16.499995708465576,9.749997950897217Q16.499995708465576,9.676127950897218,16.514395708465578,9.603677950897218Q16.528795708465577,9.531227950897216,16.557095708465575,9.462987950897217Q16.585395708465576,9.394737950897216,16.626395708465576,9.333317950897218Q16.667395708465577,9.271897950897216,16.719695708465576,9.219667950897216Q16.77189570846558,9.167437950897217,16.833295708465577,9.126397950897218Q16.894695708465576,9.085357950897217,16.962995708465577,9.057087950897216Q17.031195708465575,9.028817950897217,17.103695708465576,9.014407950897215Q17.176095708465574,8.999997950897217,17.249995708465576,8.999997950897217Q17.323895708465578,8.999997950897217,17.396295708465576,9.014407950897215Q17.468795708465578,9.028817950897217,17.536995708465575,9.057087950897216Q17.605295708465576,9.085357950897217,17.666695708465575,9.126397950897218Q17.728095708465574,9.167437950897217,17.780295708465577,9.219667950897216L20.030295708465577,11.469667950897216Q20.082595708465576,11.521897950897216,20.123595708465576,11.583317950897216Q20.164595708465576,11.644737950897216,20.192895708465578,11.712987950897217Q20.221195708465576,11.781227950897216,20.235595708465578,11.853677950897216Q20.249995708465576,11.926127950897216,20.249995708465576,11.999997950897217Q20.249995708465576,12.073867950897217,20.235595708465578,12.146317950897217Q20.221195708465576,12.218767950897217,20.192895708465578,12.287007950897216Q20.164595708465576,12.355257950897217,20.123595708465576,12.416677950897217Q20.082595708465576,12.478097950897217,20.030295708465577,12.530327950897217Q19.978095708465577,12.582557950897217,19.916695708465575,12.623597950897217Q19.855295708465576,12.664637950897216,19.786995708465575,12.692907950897217Q19.718795708465578,12.721177950897216,19.646295708465576,12.735587950897218Q19.573895708465574,12.749997950897217,19.499995708465576,12.749997950897217Q19.426095708465578,12.749997950897217,19.353695708465576,12.735587950897218Q19.281195708465575,12.721177950897216,19.212995708465577,12.692907950897217Q19.144695708465576,12.664637950897216,19.083295708465577,12.623597950897217Q19.021895708465575,12.582557950897217,18.969695708465576,12.530327950897217ZM4.509995708465576,7.4999979508972165L6.749995708465576,7.4999979508972165L6.749995708465576,8.249997950897217L6.219665708465576,7.719667950897216L10.939665708465576,2.999669950897217Q11.261925708465576,2.677816950897217,11.708215708465577,2.589311950897217Q12.154515708465576,2.500807950897217,12.574795708465576,2.675148950897217Q12.994995708465575,2.849490950897217,13.247595708465576,3.2279230508972168Q13.500195708465576,3.606356950897217,13.499995708465576,4.061344950897217L13.499995708465576,19.940037950897217Q13.499595708465575,20.39533795089722,13.246795708465577,20.77333795089722Q12.993995708465576,21.151237950897215,12.573795708465576,21.32523795089722Q12.153725708465576,21.499237950897218,11.707725708465576,21.410637950897218Q11.261725708465576,21.322037950897215,10.939995708465576,21.000637950897218L6.219665708465576,16.280337950897216L6.749995708465576,15.750037950897216L6.749995708465576,16.500037950897216L4.509995708465576,16.500037950897216Q3.602855708465576,16.500037950897216,2.879818708465576,16.013137950897217Q2.094206708465576,15.484037950897218,1.849020708465576,14.595537950897217Q1.4987127084655762,13.320637950897217,1.5000007084655762,11.999267950897217Q1.4999997084655763,10.671947950897216,1.848955708465576,9.405737950897217Q2.094183708465576,8.517047950897217,2.8795087084655764,7.987617950897217Q3.602815708465576,7.4999979508972165,4.509995708465576,7.4999979508972165ZM4.509995708465576,8.999997950897217Q4.061215708465577,8.999997950897217,3.717995708465576,9.231377950897217Q3.392595708465576,9.450747950897217,3.295045708465576,9.804257950897217Q2.9999997084655763,10.874857950897216,2.9999997084655763,12.000727950897216Q2.9989097084655763,13.118987950897218,3.294975708465576,14.196537950897216Q3.392505708465576,14.549937950897217,3.7176857084655763,14.768937950897216Q4.060835708465576,15.000037950897216,4.509995708465576,15.000037950897216L6.749995708465576,15.000037950897216Q6.899185708465576,15.000037950897216,7.037015708465576,15.057137950897216Q7.174835708465576,15.114137950897216,7.280325708465576,15.219637950897217L11.999995708465576,19.939337950897215Q11.999995708465576,19.939337950897215,12.000005708465576,19.939337950897215Q12.000005708465576,19.939337950897215,12.000005708465576,19.939337950897215Q11.999995708465576,19.939337950897215,11.999995708465576,19.940037950897217L11.999995708465576,4.060655950897217Q11.999995708465576,4.060658950897217,11.999995708465576,4.060659950897216Q11.999995708465576,4.060659950897216,12.000325708465576,4.060329950897216L7.280325708465576,8.780327950897217Q7.174845708465576,8.885817950897216,7.037015708465576,8.942907950897217Q6.899185708465576,8.999997950897217,6.749995708465576,8.999997950897217L4.509995708465576,8.999997950897217ZM17.999995708465576,14.250037950897216Q17.999995708465576,14.323837950897216,17.985595708465574,14.396337950897216Q17.971195708465576,14.468737950897216,17.942895708465578,14.537037950897217Q17.914595708465576,14.605237950897218,17.873595708465576,14.666637950897217Q17.832595708465576,14.728137950897217,17.780295708465577,14.780337950897216Q17.728095708465574,14.832537950897217,17.666695708465575,14.873637950897217Q17.605295708465576,14.914637950897216,17.536995708465575,14.942937950897218Q17.468795708465578,14.971137950897218,17.396295708465576,14.985537950897216Q17.323895708465578,15.000037950897216,17.249995708465576,15.000037950897216Q17.176095708465574,15.000037950897216,17.103695708465576,14.985537950897216Q17.031195708465575,14.971137950897218,16.962995708465577,14.942937950897218Q16.894695708465576,14.914637950897216,16.833295708465577,14.873637950897217Q16.77189570846558,14.832537950897217,16.719695708465576,14.780337950897216Q16.667395708465577,14.728137950897217,16.626395708465576,14.666637950897217Q16.585395708465576,14.605237950897218,16.557095708465575,14.537037950897217Q16.528795708465577,14.468737950897216,16.514395708465578,14.396337950897216Q16.499995708465576,14.323837950897216,16.499995708465576,14.250037950897216Q16.499995708465576,14.176137950897218,16.514395708465578,14.103637950897216Q16.528795708465577,14.031237950897216,16.557095708465575,13.962937950897217Q16.585395708465576,13.894737950897216,16.626395708465576,13.833337950897217Q16.667395708465577,13.771937950897216,16.719695708465576,13.719637950897217Q16.77189570846558,13.667437950897217,16.833295708465577,13.626437950897216Q16.894695708465576,13.585337950897216,16.962995708465577,13.557137950897216Q17.031195708465575,13.528837950897216,17.103695708465576,13.514437950897216Q17.176095708465574,13.500037950897216,17.249995708465576,13.500037950897216Q17.323895708465578,13.500037950897216,17.396295708465576,13.514437950897216Q17.468795708465578,13.528837950897216,17.536995708465575,13.557137950897216Q17.605295708465576,13.585337950897216,17.666695708465575,13.626437950897216Q17.728095708465574,13.667437950897217,17.780295708465577,13.719637950897217Q17.832595708465576,13.771937950897216,17.873595708465576,13.833337950897217Q17.914595708465576,13.894737950897216,17.942895708465578,13.962937950897217Q17.971195708465576,14.031237950897216,17.985595708465574,14.103637950897216Q17.999995708465576,14.176137950897218,17.999995708465576,14.250037950897216ZM20.249995708465576,11.999997950897217Q20.249995708465576,12.073867950897217,20.235595708465578,12.146317950897217Q20.221195708465576,12.218767950897217,20.192895708465578,12.287007950897216Q20.164595708465576,12.355257950897217,20.123595708465576,12.416677950897217Q20.082595708465576,12.478097950897217,20.030295708465577,12.530327950897217Q19.978095708465577,12.582557950897217,19.916695708465575,12.623597950897217Q19.855295708465576,12.664637950897216,19.786995708465575,12.692907950897217Q19.718795708465578,12.721177950897216,19.646295708465576,12.735587950897218Q19.573895708465574,12.749997950897217,19.499995708465576,12.749997950897217Q19.426095708465578,12.749997950897217,19.353695708465576,12.735587950897218Q19.281195708465575,12.721177950897216,19.212995708465577,12.692907950897217Q19.144695708465576,12.664637950897216,19.083295708465577,12.623597950897217Q19.021895708465575,12.582557950897217,18.969695708465576,12.530327950897217Q18.917395708465577,12.478097950897217,18.876395708465576,12.416677950897217Q18.835395708465576,12.355257950897217,18.807095708465575,12.287007950897216Q18.778795708465577,12.218767950897217,18.764395708465575,12.146317950897217Q18.749995708465576,12.073867950897217,18.749995708465576,11.999997950897217Q18.749995708465576,11.926127950897216,18.764395708465575,11.853677950897216Q18.778795708465577,11.781227950897216,18.807095708465575,11.712987950897217Q18.835395708465576,11.644737950897216,18.876395708465576,11.583317950897216Q18.917395708465577,11.521897950897216,18.969695708465576,11.469667950897216Q19.021895708465575,11.417437950897217,19.083295708465577,11.376397950897216Q19.144695708465576,11.335357950897217,19.212995708465577,11.307087950897216Q19.281195708465575,11.278817950897217,19.353695708465576,11.264407950897215Q19.426095708465578,11.249997950897217,19.499995708465576,11.249997950897217Q19.573895708465574,11.249997950897217,19.646295708465576,11.264407950897215Q19.718795708465578,11.278817950897217,19.786995708465575,11.307087950897216Q19.855295708465576,11.335357950897217,19.916695708465575,11.376397950897216Q19.978095708465577,11.417437950897217,20.030295708465577,11.469667950897216Q20.082595708465576,11.521897950897216,20.123595708465576,11.583317950897216Q20.164595708465576,11.644737950897216,20.192895708465578,11.712987950897217Q20.221195708465576,11.781227950897216,20.235595708465578,11.853677950897216Q20.249995708465576,11.926127950897216,20.249995708465576,11.999997950897217ZM22.499995708465576,9.749997950897217Q22.499995708465576,9.823867950897217,22.485595708465578,9.896317950897217Q22.471195708465576,9.968767950897217,22.442895708465578,10.037007950897216Q22.414595708465576,10.105257950897217,22.373595708465576,10.166677950897217Q22.332595708465576,10.228097950897217,22.280295708465577,10.280327950897217Q22.228095708465577,10.332557950897217,22.166695708465575,10.373597950897217Q22.105295708465576,10.414637950897216,22.036995708465575,10.442907950897217Q21.968795708465578,10.471177950897218,21.896295708465576,10.485587950897216Q21.823895708465574,10.499997950897217,21.749995708465576,10.499997950897217Q21.676095708465578,10.499997950897217,21.603695708465576,10.485587950897216Q21.531195708465575,10.471177950897218,21.462995708465577,10.442907950897217Q21.394695708465576,10.414637950897216,21.333295708465577,10.373597950897217Q21.271895708465575,10.332557950897217,21.219695708465576,10.280327950897217Q21.167395708465577,10.228097950897217,21.126395708465576,10.166677950897217Q21.085395708465576,10.105257950897217,21.057095708465575,10.037007950897216Q21.028795708465577,9.968767950897217,21.014395708465575,9.896317950897217Q20.999995708465576,9.823867950897217,20.999995708465576,9.749997950897217Q20.999995708465576,9.676127950897218,21.014395708465575,9.603677950897218Q21.028795708465577,9.531227950897216,21.057095708465575,9.462987950897217Q21.085395708465576,9.394737950897216,21.126395708465576,9.333317950897218Q21.167395708465577,9.271897950897216,21.219695708465576,9.219667950897216Q21.271895708465575,9.167437950897217,21.333295708465577,9.126397950897218Q21.394695708465576,9.085357950897217,21.462995708465577,9.057087950897216Q21.531195708465575,9.028817950897217,21.603695708465576,9.014407950897215Q21.676095708465578,8.999997950897217,21.749995708465576,8.999997950897217Q21.823895708465574,8.999997950897217,21.896295708465576,9.014407950897215Q21.968795708465578,9.028817950897217,22.036995708465575,9.057087950897216Q22.105295708465576,9.085357950897217,22.166695708465575,9.126397950897218Q22.228095708465577,9.167437950897217,22.280295708465577,9.219667950897216Q22.332595708465576,9.271897950897216,22.373595708465576,9.333317950897218Q22.414595708465576,9.394737950897216,22.442895708465578,9.462987950897217Q22.471195708465576,9.531227950897216,22.485595708465578,9.603677950897218Q22.499995708465576,9.676127950897218,22.499995708465576,9.749997950897217ZM20.249995708465576,11.999997950897217Q20.249995708465576,12.073867950897217,20.235595708465578,12.146317950897217Q20.221195708465576,12.218767950897217,20.192895708465578,12.287007950897216Q20.164595708465576,12.355257950897217,20.123595708465576,12.416677950897217Q20.082595708465576,12.478097950897217,20.030295708465577,12.530327950897217Q19.978095708465577,12.582557950897217,19.916695708465575,12.623597950897217Q19.855295708465576,12.664637950897216,19.786995708465575,12.692907950897217Q19.718795708465578,12.721177950897216,19.646295708465576,12.735587950897218Q19.573895708465574,12.749997950897217,19.499995708465576,12.749997950897217Q19.426095708465578,12.749997950897217,19.353695708465576,12.735587950897218Q19.281195708465575,12.721177950897216,19.212995708465577,12.692907950897217Q19.144695708465576,12.664637950897216,19.083295708465577,12.623597950897217Q19.021895708465575,12.582557950897217,18.969695708465576,12.530327950897217Q18.917395708465577,12.478097950897217,18.876395708465576,12.416677950897217Q18.835395708465576,12.355257950897217,18.807095708465575,12.287007950897216Q18.778795708465577,12.218767950897217,18.764395708465575,12.146317950897217Q18.749995708465576,12.073867950897217,18.749995708465576,11.999997950897217Q18.749995708465576,11.926127950897216,18.764395708465575,11.853677950897216Q18.778795708465577,11.781227950897216,18.807095708465575,11.712987950897217Q18.835395708465576,11.644737950897216,18.876395708465576,11.583317950897216Q18.917395708465577,11.521897950897216,18.969695708465576,11.469667950897216Q19.021895708465575,11.417437950897217,19.083295708465577,11.376397950897216Q19.144695708465576,11.335357950897217,19.212995708465577,11.307087950897216Q19.281195708465575,11.278817950897217,19.353695708465576,11.264407950897215Q19.426095708465578,11.249997950897217,19.499995708465576,11.249997950897217Q19.573895708465574,11.249997950897217,19.646295708465576,11.264407950897215Q19.718795708465578,11.278817950897217,19.786995708465575,11.307087950897216Q19.855295708465576,11.335357950897217,19.916695708465575,11.376397950897216Q19.978095708465577,11.417437950897217,20.030295708465577,11.469667950897216Q20.082595708465576,11.521897950897216,20.123595708465576,11.583317950897216Q20.164595708465576,11.644737950897216,20.192895708465578,11.712987950897217Q20.221195708465576,11.781227950897216,20.235595708465578,11.853677950897216Q20.249995708465576,11.926127950897216,20.249995708465576,11.999997950897217ZM22.499995708465576,14.250037950897216Q22.499995708465576,14.323837950897216,22.485595708465578,14.396337950897216Q22.471195708465576,14.468737950897216,22.442895708465578,14.537037950897217Q22.414595708465576,14.605237950897218,22.373595708465576,14.666637950897217Q22.332595708465576,14.728137950897217,22.280295708465577,14.780337950897216Q22.228095708465577,14.832537950897217,22.166695708465575,14.873637950897217Q22.105295708465576,14.914637950897216,22.036995708465575,14.942937950897218Q21.968795708465578,14.971137950897218,21.896295708465576,14.985537950897216Q21.823895708465574,15.000037950897216,21.749995708465576,15.000037950897216Q21.676095708465578,15.000037950897216,21.603695708465576,14.985537950897216Q21.531195708465575,14.971137950897218,21.462995708465577,14.942937950897218Q21.394695708465576,14.914637950897216,21.333295708465577,14.873637950897217Q21.271895708465575,14.832537950897217,21.219695708465576,14.780337950897216Q21.167395708465577,14.728137950897217,21.126395708465576,14.666637950897217Q21.085395708465576,14.605237950897218,21.057095708465575,14.537037950897217Q21.028795708465577,14.468737950897216,21.014395708465575,14.396337950897216Q20.999995708465576,14.323837950897216,20.999995708465576,14.250037950897216Q20.999995708465576,14.176137950897218,21.014395708465575,14.103637950897216Q21.028795708465577,14.031237950897216,21.057095708465575,13.962937950897217Q21.085395708465576,13.894737950897216,21.126395708465576,13.833337950897217Q21.167395708465577,13.771937950897216,21.219695708465576,13.719637950897217Q21.271895708465575,13.667437950897217,21.333295708465577,13.626437950897216Q21.394695708465576,13.585337950897216,21.462995708465577,13.557137950897216Q21.531195708465575,13.528837950897216,21.603695708465576,13.514437950897216Q21.676095708465578,13.500037950897216,21.749995708465576,13.500037950897216Q21.823895708465574,13.500037950897216,21.896295708465576,13.514437950897216Q21.968795708465578,13.528837950897216,22.036995708465575,13.557137950897216Q22.105295708465576,13.585337950897216,22.166695708465575,13.626437950897216Q22.228095708465577,13.667437950897217,22.280295708465577,13.719637950897217Q22.332595708465576,13.771937950897216,22.373595708465576,13.833337950897217Q22.414595708465576,13.894737950897216,22.442895708465578,13.962937950897217Q22.471195708465576,14.031237950897216,22.485595708465578,14.103637950897216Q22.499995708465576,14.176137950897218,22.499995708465576,14.250037950897216ZM20.249995708465576,11.999997950897217Q20.249995708465576,12.073867950897217,20.235595708465578,12.146317950897217Q20.221195708465576,12.218767950897217,20.192895708465578,12.287007950897216Q20.164595708465576,12.355257950897217,20.123595708465576,12.416677950897217Q20.082595708465576,12.478097950897217,20.030295708465577,12.530327950897217Q19.978095708465577,12.582557950897217,19.916695708465575,12.623597950897217Q19.855295708465576,12.664637950897216,19.786995708465575,12.692907950897217Q19.718795708465578,12.721177950897216,19.646295708465576,12.735587950897218Q19.573895708465574,12.749997950897217,19.499995708465576,12.749997950897217Q19.426095708465578,12.749997950897217,19.353695708465576,12.735587950897218Q19.281195708465575,12.721177950897216,19.212995708465577,12.692907950897217Q19.144695708465576,12.664637950897216,19.083295708465577,12.623597950897217Q19.021895708465575,12.582557950897217,18.969695708465576,12.530327950897217Q18.917395708465577,12.478097950897217,18.876395708465576,12.416677950897217Q18.835395708465576,12.355257950897217,18.807095708465575,12.287007950897216Q18.778795708465577,12.218767950897217,18.764395708465575,12.146317950897217Q18.749995708465576,12.073867950897217,18.749995708465576,11.999997950897217Q18.749995708465576,11.926127950897216,18.764395708465575,11.853677950897216Q18.778795708465577,11.781227950897216,18.807095708465575,11.712987950897217Q18.835395708465576,11.644737950897216,18.876395708465576,11.583317950897216Q18.917395708465577,11.521897950897216,18.969695708465576,11.469667950897216Q19.021895708465575,11.417437950897217,19.083295708465577,11.376397950897216Q19.144695708465576,11.335357950897217,19.212995708465577,11.307087950897216Q19.281195708465575,11.278817950897217,19.353695708465576,11.264407950897215Q19.426095708465578,11.249997950897217,19.499995708465576,11.249997950897217Q19.573895708465574,11.249997950897217,19.646295708465576,11.264407950897215Q19.718795708465578,11.278817950897217,19.786995708465575,11.307087950897216Q19.855295708465576,11.335357950897217,19.916695708465575,11.376397950897216Q19.978095708465577,11.417437950897217,20.030295708465577,11.469667950897216Q20.082595708465576,11.521897950897216,20.123595708465576,11.583317950897216Q20.164595708465576,11.644737950897216,20.192895708465578,11.712987950897217Q20.221195708465576,11.781227950897216,20.235595708465578,11.853677950897216Q20.249995708465576,11.926127950897216,20.249995708465576,11.999997950897217ZM20.249995708465576,11.999997950897217Q20.249995708465576,12.073867950897217,20.235595708465578,12.146317950897217Q20.221195708465576,12.218767950897217,20.192895708465578,12.287007950897216Q20.164595708465576,12.355257950897217,20.123595708465576,12.416677950897217Q20.082595708465576,12.478097950897217,20.030295708465577,12.530327950897217Q19.978095708465577,12.582557950897217,19.916695708465575,12.623597950897217Q19.855295708465576,12.664637950897216,19.786995708465575,12.692907950897217Q19.718795708465578,12.721177950897216,19.646295708465576,12.735587950897218Q19.573895708465574,12.749997950897217,19.499995708465576,12.749997950897217Q19.426095708465578,12.749997950897217,19.353695708465576,12.735587950897218Q19.281195708465575,12.721177950897216,19.212995708465577,12.692907950897217Q19.144695708465576,12.664637950897216,19.083295708465577,12.623597950897217Q19.021895708465575,12.582557950897217,18.969695708465576,12.530327950897217Q18.917395708465577,12.478097950897217,18.876395708465576,12.416677950897217Q18.835395708465576,12.355257950897217,18.807095708465575,12.287007950897216Q18.778795708465577,12.218767950897217,18.764395708465575,12.146317950897217Q18.749995708465576,12.073867950897217,18.749995708465576,11.999997950897217Q18.749995708465576,11.926127950897216,18.764395708465575,11.853677950897216Q18.778795708465577,11.781227950897216,18.807095708465575,11.712987950897217Q18.835395708465576,11.644737950897216,18.876395708465576,11.583317950897216Q18.917395708465577,11.521897950897216,18.969695708465576,11.469667950897216Q19.021895708465575,11.417437950897217,19.083295708465577,11.376397950897216Q19.144695708465576,11.335357950897217,19.212995708465577,11.307087950897216Q19.281195708465575,11.278817950897217,19.353695708465576,11.264407950897215Q19.426095708465578,11.249997950897217,19.499995708465576,11.249997950897217Q19.573895708465574,11.249997950897217,19.646295708465576,11.264407950897215Q19.718795708465578,11.278817950897217,19.786995708465575,11.307087950897216Q19.855295708465576,11.335357950897217,19.916695708465575,11.376397950897216Q19.978095708465577,11.417437950897217,20.030295708465577,11.469667950897216Q20.082595708465576,11.521897950897216,20.123595708465576,11.583317950897216Q20.164595708465576,11.644737950897216,20.192895708465578,11.712987950897217Q20.221195708465576,11.781227950897216,20.235595708465578,11.853677950897216Q20.249995708465576,11.926127950897216,20.249995708465576,11.999997950897217ZM17.999995708465576,9.749997950897217Q17.999995708465576,9.823867950897217,17.985595708465574,9.896317950897217Q17.971195708465576,9.968767950897217,17.942895708465578,10.037007950897216Q17.914595708465576,10.105257950897217,17.873595708465576,10.166677950897217Q17.832595708465576,10.228097950897217,17.780295708465577,10.280327950897217Q17.728095708465574,10.332557950897217,17.666695708465575,10.373597950897217Q17.605295708465576,10.414637950897216,17.536995708465575,10.442907950897217Q17.468795708465578,10.471177950897218,17.396295708465576,10.485587950897216Q17.323895708465578,10.499997950897217,17.249995708465576,10.499997950897217Q17.176095708465574,10.499997950897217,17.103695708465576,10.485587950897216Q17.031195708465575,10.471177950897218,16.962995708465577,10.442907950897217Q16.894695708465576,10.414637950897216,16.833295708465577,10.373597950897217Q16.77189570846558,10.332557950897217,16.719695708465576,10.280327950897217Q16.667395708465577,10.228097950897217,16.626395708465576,10.166677950897217Q16.585395708465576,10.105257950897217,16.557095708465575,10.037007950897216Q16.528795708465577,9.968767950897217,16.514395708465578,9.896317950897217Q16.499995708465576,9.823867950897217,16.499995708465576,9.749997950897217Q16.499995708465576,9.676127950897218,16.514395708465578,9.603677950897218Q16.528795708465577,9.531227950897216,16.557095708465575,9.462987950897217Q16.585395708465576,9.394737950897216,16.626395708465576,9.333317950897218Q16.667395708465577,9.271897950897216,16.719695708465576,9.219667950897216Q16.77189570846558,9.167437950897217,16.833295708465577,9.126397950897218Q16.894695708465576,9.085357950897217,16.962995708465577,9.057087950897216Q17.031195708465575,9.028817950897217,17.103695708465576,9.014407950897215Q17.176095708465574,8.999997950897217,17.249995708465576,8.999997950897217Q17.323895708465578,8.999997950897217,17.396295708465576,9.014407950897215Q17.468795708465578,9.028817950897217,17.536995708465575,9.057087950897216Q17.605295708465576,9.085357950897217,17.666695708465575,9.126397950897218Q17.728095708465574,9.167437950897217,17.780295708465577,9.219667950897216Q17.832595708465576,9.271897950897216,17.873595708465576,9.333317950897218Q17.914595708465576,9.394737950897216,17.942895708465578,9.462987950897217Q17.971195708465576,9.531227950897216,17.985595708465574,9.603677950897218Q17.999995708465576,9.676127950897218,17.999995708465576,9.749997950897217Z" fill="#000000" fill-opacity="1"/></g></g></svg>