<svg xmlns="http://www.w3.org/2000/svg" xmlns:xlink="http://www.w3.org/1999/xlink" fill="none" version="1.1" width="24" height="24" viewBox="0 0 24 24"><defs><clipPath id="master_svg0_1421_5330"><rect x="0" y="0" width="24" height="24" rx="0"/></clipPath></defs><g clip-path="url(#master_svg0_1421_5330)"><g><path d="M1.5,6C1.499999880791,4.75736,2.5073600000000003,3.750000238419,3.75,3.75L20.25,3.75C21.4926,3.750000238419,22.5,4.75736,22.5,6L22.5,18C22.5,19.2426,21.4926,20.25,20.25,20.25L3.75,20.25C2.5073600000000003,20.25,1.500000119209,19.2426,1.5,18L1.5,6ZM3,16.060000000000002L3,18C3,18.414,3.3360000000000003,18.75,3.75,18.75L20.25,18.75C20.6642,18.75,21,18.4142,21,18L21,16.060000000000002L18.31,13.371C17.7244,12.78609,16.7756,12.78609,16.189999999999998,13.371L15.31,14.25L16.28,15.22C16.590600000000002,15.5094,16.5993,15.9988,16.2991,16.2991C15.9988,16.5993,15.5094,16.590600000000002,15.22,16.28L10.06,11.121C9.47436,10.53609,8.52563,10.53609,7.94,11.121L3,16.060000000000002L3,16.060000000000002ZM13.125,8.25C13.125,7.62868,13.6287,7.125,14.25,7.125C14.8713,7.125,15.375,7.62868,15.375,8.25C15.375,8.87132,14.8713,9.375,14.25,9.375C13.6287,9.375,13.125,8.87132,13.125,8.25Z" fill-rule="evenodd" fill="#000000" fill-opacity="1"/></g></g></svg>