<svg xmlns="http://www.w3.org/2000/svg" xmlns:xlink="http://www.w3.org/1999/xlink" fill="none" version="1.1" width="24" height="24" viewBox="0 0 24 24"><defs><clipPath id="master_svg0_1421_5367"><rect x="0" y="0" width="24" height="24" rx="0"/></clipPath></defs><g clip-path="url(#master_svg0_1421_5367)"><g><path d="M7.501999855041504,6L14.629999855041504,6C16.492009855041502,6.00276,17.9999998550415,7.51299,17.9999998550415,9.375L17.9999998550415,18.75C19.6568998550415,18.75,20.9999998550415,17.4069,20.9999998550415,15.75L20.9999998550415,6.108C20.9999998550415,4.603,19.8749998550415,3.2969999999999997,18.335999855041504,3.168C18.111799855041504,3.1497900000000003,17.887399855041505,3.13312,17.662999855041505,3.1180000000000003C17.147169855041504,2.1239179999999998,16.120289855041506,1.5,14.999999855041505,1.5L13.499999855041505,1.5C12.379879855041505,1.499895215,11.352999855041503,2.123814,10.836999855041505,3.1180000000000003C10.611999855041503,3.133,10.386999855041504,3.15,10.163999855041503,3.168C8.661999855041504,3.295,7.5539998550415035,4.542,7.501999855041504,6ZM13.499999855041505,3C12.671569855041504,3,11.999999855041505,3.67157,11.999999855041505,4.5L16.4999998550415,4.5C16.4999998550415,3.67157,15.828429855041504,3,14.999999855041505,3L13.499999855041505,3Z" fill-rule="evenodd" fill="#000000" fill-opacity="1"/></g><g><path d="M3,9.375C3,8.339,3.84,7.5,4.875,7.5L14.625,7.5C15.661,7.5,16.5,8.34,16.5,9.375L16.5,20.625C16.5,21.66,15.66,22.5,14.625,22.5L4.875,22.5C3.839467,22.5,3.000000238419,21.6605,3,20.625L3,9.375ZM6,12C6,11.58579,6.335789999999999,11.25,6.75,11.25L6.758,11.25C7.17221,11.25,7.508,11.58579,7.508,12L7.508,12.008C7.508,12.42221,7.17221,12.758,6.758,12.758L6.75,12.758C6.335789999999999,12.758,6,12.42221,6,12.008L6,12ZM8.25,12C8.25,11.58579,8.58579,11.25,9,11.25L12.75,11.25C13.1642,11.25,13.5,11.58579,13.5,12C13.5,12.41421,13.1642,12.75,12.75,12.75L9,12.75C8.58579,12.75,8.25,12.41421,8.25,12ZM6,15C6,14.58579,6.335789999999999,14.25,6.75,14.25L6.758,14.25C7.17221,14.25,7.508,14.58579,7.508,15L7.508,15.008C7.508,15.42221,7.17221,15.758,6.758,15.758L6.75,15.758C6.335789999999999,15.758,6,15.42221,6,15.008L6,15ZM8.25,15C8.25,14.58579,8.58579,14.25,9,14.25L12.75,14.25C13.1642,14.25,13.5,14.58579,13.5,15C13.5,15.41421,13.1642,15.75,12.75,15.75L9,15.75C8.58579,15.75,8.25,15.41421,8.25,15ZM6,18C6,17.5858,6.335789999999999,17.25,6.75,17.25L6.758,17.25C7.17221,17.25,7.508,17.5858,7.508,18L7.508,18.008C7.508,18.4222,7.17221,18.758,6.758,18.758L6.75,18.758C6.335789999999999,18.758,6,18.4222,6,18.008L6,18ZM8.25,18C8.25,17.5858,8.58579,17.25,9,17.25L12.75,17.25C13.1642,17.25,13.5,17.5858,13.5,18C13.5,18.4142,13.1642,18.75,12.75,18.75L9,18.75C8.58579,18.75,8.25,18.4142,8.25,18Z" fill-rule="evenodd" fill="#000000" fill-opacity="1"/></g></g></svg>