<svg xmlns="http://www.w3.org/2000/svg" xmlns:xlink="http://www.w3.org/1999/xlink" fill="none" version="1.1" width="24" height="24" viewBox="0 0 24 24"><defs><clipPath id="master_svg0_1410_5481"><rect x="0" y="0" width="24" height="24" rx="0"/></clipPath></defs><g clip-path="url(#master_svg0_1410_5481)"><g><path d="M11.43533023841858,17.3753L7.280330238418579,21.5303Q7.2281002384185795,21.5826,7.1666802384185795,21.6236Q7.1052602384185795,21.6646,7.0370102384185795,21.6929Q6.968770238418579,21.7212,6.896320238418579,21.7356Q6.823870238418579,21.75,6.750000238418579,21.75Q6.676130238418579,21.75,6.603680238418579,21.7356Q6.531230238418579,21.7212,6.462990238418579,21.6929Q6.394740238418579,21.6646,6.333320238418579,21.6236Q6.271900238418579,21.5826,6.219670238418579,21.5303Q6.114180238418579,21.4248,6.05709023841858,21.287Q6.000000238418579,21.1492,6.000000238418579,21L6.000000238418579,16.292L6.750000238418579,16.292L6.680830238418579,17.038800000000002Q5.805890238418579,16.9578,4.913330238418579,16.8417Q3.427540238418579,16.648600000000002,2.453599238418579,15.4934Q1.500000238418579,14.3624,1.500000238418579,12.863L1.500000238418579,6.6370000000000005Q1.500000238418579,5.13762,2.453599238418579,4.00656Q3.427550238418579,2.851371,4.913330238418579,2.658256Q8.05921023841858,2.25,11.250000238418579,2.25Q14.44280023841858,2.249995,17.58660023841858,2.658245Q19.07250023841858,2.851371,20.046400238418578,4.00656Q21.00000023841858,5.13762,21.00000023841858,6.6370000000000005L21.00000023841858,8.511Q21.00000023841858,8.584869999999999,20.98560023841858,8.65732Q20.97120023841858,8.72977,20.94290023841858,8.79801Q20.91460023841858,8.86626,20.87360023841858,8.927679999999999Q20.83260023841858,8.9891,20.78030023841858,9.04133Q20.72810023841858,9.09356,20.666700238418578,9.134599999999999Q20.60530023841858,9.17564,20.537000238418578,9.20391Q20.46880023841858,9.23218,20.39630023841858,9.246590000000001Q20.323900238418577,9.261,20.25000023841858,9.261Q20.17610023841858,9.261,20.10370023841858,9.246590000000001Q20.031200238418577,9.23218,19.96300023841858,9.20391Q19.89470023841858,9.17564,19.83330023841858,9.134599999999999Q19.771900238418578,9.09356,19.71970023841858,9.04133Q19.66740023841858,8.9891,19.62640023841858,8.927679999999999Q19.58540023841858,8.86626,19.557100238418577,8.79801Q19.52880023841858,8.72977,19.514400238418578,8.65732Q19.50000023841858,8.584869999999999,19.50000023841858,8.511L19.50000023841858,6.6370000000000005Q19.50000023841858,5.68557,18.89960023841858,4.97344Q18.30130023841858,4.26375,17.39340023841858,4.14576Q14.34580023841858,3.749995,11.250000238418579,3.75Q8.15614023841858,3.75,5.1066702384185785,4.14574Q4.198740238418579,4.26375,3.600400238418579,4.97344Q3.000000238418579,5.68557,3.000000238418579,6.6370000000000005L3.000000238418579,12.863Q3.000000238418579,13.8144,3.600400238418579,14.5266Q4.198740238418579,15.2362,5.106680238418579,15.3543Q5.971780238418579,15.4667,6.819170238418579,15.5452Q6.888380238418579,15.5516,6.955220238418579,15.5706Q7.022070238418579,15.5896,7.084280238418579,15.6206Q7.146500238418579,15.6516,7.201960238418579,15.6935Q7.257420238418579,15.7354,7.304250238418579,15.7867Q7.351070238418579,15.8381,7.387660238418579,15.8972Q7.424240238418579,15.9563,7.449350238418579,16.0211Q7.474460238418579,16.085900000000002,7.487230238418579,16.1542Q7.500000238418579,16.2225,7.500000238418579,16.292L7.500000238418579,21L6.750000238418579,21L6.219670238418579,20.4697L10.37467023841858,16.314700000000002Q10.426900238418579,16.2624,10.488320238418579,16.2214Q10.549740238418579,16.1804,10.61799023841858,16.1521Q10.68623023841858,16.1238,10.75868023841858,16.1094Q10.831130238418579,16.095,10.905000238418578,16.095Q10.97887023841858,16.095,11.05132023841858,16.1094Q11.12377023841858,16.1238,11.192010238418579,16.1521Q11.26026023841858,16.1804,11.32168023841858,16.2214Q11.38310023841858,16.2624,11.43533023841858,16.314700000000002Q11.48756023841858,16.3669,11.52860023841858,16.4283Q11.569640238418579,16.4897,11.59791023841858,16.558Q11.626180238418579,16.6262,11.640590238418579,16.698700000000002Q11.655000238418578,16.7711,11.655000238418578,16.845Q11.655000238418578,16.9189,11.640590238418579,16.991300000000003Q11.626180238418579,17.0638,11.59791023841858,17.131999999999998Q11.569640238418579,17.2003,11.52860023841858,17.261699999999998Q11.48756023841858,17.3231,11.43533023841858,17.3753ZM10.551810238418579,17.5066Q9.84194023841858,17.1277,9.42361023841858,16.4299Q9.000000238418579,15.7232,9.000000238418579,14.894L9.000000238418579,10.608Q9.000000238418579,9.46586,9.75478023841858,8.62172Q10.522170238418578,7.76347,11.66388023841858,7.66858Q15.750000238418579,7.32937,19.836000238418578,7.66857Q20.165200238418578,7.69582,20.47980023841858,7.79707Q20.55010023841858,7.8197,20.61470023841858,7.85562Q20.67920023841858,7.89153,20.735500238418577,7.93935Q20.791800238418578,7.98717,20.83770023841858,8.04505Q20.88360023841858,8.10293,20.91730023841858,8.16866Q20.95100023841858,8.23438,20.97130023841858,8.30542Q20.991500238418578,8.37646,20.997500238418578,8.45009Q21.003500238418578,8.523710000000001,20.99500023841858,8.59709Q20.98660023841858,8.67047,20.963900238418578,8.74079Q20.941300238418577,8.8111,20.90540023841858,8.87565Q20.869500238418578,8.9402,20.82160023841858,8.99651Q20.77380023841858,9.052810000000001,20.71590023841858,9.098700000000001Q20.65810023841858,9.14459,20.59230023841858,9.17831Q20.526600238418578,9.21203,20.45560023841858,9.23228Q20.38450023841858,9.25252,20.31090023841858,9.25852Q20.23730023841858,9.264520000000001,20.16390023841858,9.256039999999999Q20.090500238418578,9.24756,20.020200238418578,9.22493Q19.86970023841858,9.176490000000001,19.71200023841858,9.16343Q15.750000238418579,8.83453,11.788120238418578,9.16342Q11.24200023841858,9.20881,10.87297023841858,9.62153Q10.500000238418579,10.03867,10.500000238418579,10.608L10.500000238418579,14.894Q10.500000238418579,15.7786,11.25819023841858,16.1834Q11.323350238418579,16.2182,11.38048023841858,16.265Q11.437600238418579,16.311799999999998,11.48450023841858,16.3689Q11.53139023841858,16.426000000000002,11.56625023841858,16.4911Q11.60110023841858,16.5562,11.62259023841858,16.6269Q11.644070238418578,16.6976,11.65135023841858,16.7711Q11.65863023841858,16.8446,11.651430238418579,16.918100000000003Q11.64423023841858,16.9916,11.62282023841858,17.0623Q11.601420238418578,17.133,11.566630238418579,17.1982Q11.53185023841858,17.2634,11.48501023841858,17.3205Q11.438180238418578,17.3776,11.381110238418579,17.424500000000002Q11.32403023841858,17.4714,11.25891023841858,17.5062Q11.19378023841858,17.5411,11.12310023841858,17.5626Q11.052430238418578,17.5841,10.97892023841858,17.5913Q10.905410238418579,17.598599999999998,10.831890238418579,17.5914Q10.758370238418578,17.5842,10.68767023841858,17.5628Q10.616980238418579,17.5414,10.551810238418579,17.5066ZM11.257980238418579,16.1833Q11.507990238418579,16.3166,11.790420238418578,16.339399999999998Q13.761800238418578,16.5,15.750000238418579,16.5Q15.89920023841858,16.5,16.037000238418578,16.5571Q16.174800238418577,16.6142,16.28030023841858,16.7197L19.28030023841858,19.7197L18.75000023841858,20.25L18.00000023841858,20.25L18.00000023841858,17.159Q18.00000023841858,17.087899999999998,18.01340023841858,17.0181Q18.026700238418577,16.9483,18.05290023841858,16.882199999999997Q18.07920023841858,16.8161,18.11740023841858,16.7562Q18.15560023841858,16.696199999999997,18.20430023841858,16.6445Q18.25310023841858,16.5928,18.31070023841858,16.551099999999998Q18.36830023841858,16.5095,18.43270023841858,16.4794Q18.49720023841858,16.4493,18.566100238418578,16.4319Q18.63500023841858,16.4145,18.70600023841858,16.4103Q19.13550023841858,16.384999999999998,19.71060023841858,16.339399999999998Q20.25610023841858,16.294600000000003,20.62610023841858,15.8813Q21.00000023841858,15.4638,21.00000023841858,14.894L21.00000023841858,10.608Q21.00000023841858,10.126059999999999,20.72270023841858,9.740649999999999Q20.45130023841858,9.36342,20.02060023841858,9.22505Q19.950300238418578,9.20246,19.88570023841858,9.16658Q19.82110023841858,9.130700000000001,19.76480023841858,9.08291Q19.70850023841858,9.03512,19.66250023841858,8.977260000000001Q19.616600238418577,8.91941,19.582900238418578,8.8537Q19.54910023841858,8.78799,19.52880023841858,8.71697Q19.50850023841858,8.64594,19.50250023841858,8.572320000000001Q19.49650023841858,8.49869,19.50490023841858,8.42531Q19.51340023841858,8.35193,19.53590023841858,8.281600000000001Q19.558500238418578,8.211269999999999,19.59440023841858,8.1467Q19.630300238418577,8.08213,19.67810023841858,8.0258Q19.72590023841858,7.96947,19.78370023841858,7.92355Q19.84160023841858,7.87763,19.90730023841858,7.84387Q19.973000238418578,7.81012,20.04400023841858,7.78983Q20.11510023841858,7.76955,20.18870023841858,7.76351Q20.26230023841858,7.75747,20.33570023841858,7.76591Q20.409100238418578,7.77435,20.479400238418577,7.79694Q21.38040023841858,8.08641,21.94030023841858,8.8646Q22.50000023841858,9.642520000000001,22.50000023841858,10.608L22.50000023841858,14.894Q22.50000023841858,16.037300000000002,21.74360023841858,16.8819Q20.974700238418578,17.7406,19.82940023841858,17.834600000000002Q19.23890023841858,17.881500000000003,18.79400023841858,17.9077L18.75000023841858,17.159L19.50000023841858,17.159L19.50000023841858,20.25Q19.50000023841858,20.3992,19.44290023841858,20.537Q19.38580023841858,20.6748,19.28030023841858,20.7803Q19.22810023841858,20.8326,19.166700238418578,20.8736Q19.10530023841858,20.9146,19.037000238418578,20.9429Q18.96880023841858,20.9712,18.89630023841858,20.9856Q18.823900238418577,21,18.75000023841858,21Q18.67610023841858,21,18.60370023841858,20.9856Q18.531200238418577,20.9712,18.46300023841858,20.9429Q18.39470023841858,20.9146,18.33330023841858,20.8736Q18.271900238418578,20.8326,18.21970023841858,20.7803L15.219700238418579,17.7803L15.750000238418579,17.25L15.750000238418579,18Q13.700800238418578,18,11.669580238418579,17.834600000000002Q11.076780238418579,17.7867,10.55202023841858,17.506700000000002Q10.48685023841858,17.472,10.42970023841858,17.4252Q10.372560238418579,17.3784,10.325650238418579,17.3213Q10.27874023841858,17.264200000000002,10.243860238418579,17.1991Q10.208990238418579,17.134,10.18748023841858,17.063299999999998Q10.16598023841858,16.9927,10.15867023841858,16.9192Q10.151370238418579,16.845599999999997,10.158550238418579,16.772100000000002Q10.16572023841858,16.6986,10.18711023841858,16.6279Q10.20849023841858,16.5572,10.243250238418579,16.492Q10.278020238418579,16.4268,10.32483023841858,16.3697Q10.371640238418578,16.3126,10.428700238418578,16.2656Q10.48576023841858,16.2187,10.550880238418578,16.1839Q10.616000238418579,16.149,10.686670238418579,16.127499999999998Q10.757330238418579,16.106,10.83084023841858,16.0987Q10.90435023841858,16.0914,10.977870238418578,16.0985Q11.051390238418579,16.1057,11.12209023841858,16.1271Q11.19280023841858,16.1485,11.257980238418579,16.1833ZM11.655000238418578,16.845Q11.655000238418578,16.9189,11.640590238418579,16.991300000000003Q11.626180238418579,17.0638,11.59791023841858,17.131999999999998Q11.569640238418579,17.2003,11.52860023841858,17.261699999999998Q11.48756023841858,17.3231,11.43533023841858,17.3753Q11.38310023841858,17.427599999999998,11.32168023841858,17.468600000000002Q11.26026023841858,17.5096,11.192010238418579,17.5379Q11.12377023841858,17.566200000000002,11.05132023841858,17.5806Q10.97887023841858,17.595,10.905000238418578,17.595Q10.831130238418579,17.595,10.75868023841858,17.5806Q10.68623023841858,17.566200000000002,10.61799023841858,17.5379Q10.549740238418579,17.5096,10.488320238418579,17.468600000000002Q10.426900238418579,17.427599999999998,10.37467023841858,17.3753Q10.32244023841858,17.3231,10.281400238418579,17.261699999999998Q10.240360238418578,17.2003,10.212090238418579,17.131999999999998Q10.18382023841858,17.0638,10.169410238418578,16.991300000000003Q10.15500023841858,16.9189,10.15500023841858,16.845Q10.15500023841858,16.7711,10.169410238418578,16.698700000000002Q10.18382023841858,16.6262,10.212090238418579,16.558Q10.240360238418578,16.4897,10.281400238418579,16.4283Q10.32244023841858,16.3669,10.37467023841858,16.314700000000002Q10.426900238418579,16.2624,10.488320238418579,16.2214Q10.549740238418579,16.1804,10.61799023841858,16.1521Q10.68623023841858,16.1238,10.75868023841858,16.1094Q10.831130238418579,16.095,10.905000238418578,16.095Q10.97887023841858,16.095,11.05132023841858,16.1094Q11.12377023841858,16.1238,11.192010238418579,16.1521Q11.26026023841858,16.1804,11.32168023841858,16.2214Q11.38310023841858,16.2624,11.43533023841858,16.314700000000002Q11.48756023841858,16.3669,11.52860023841858,16.4283Q11.569640238418579,16.4897,11.59791023841858,16.558Q11.626180238418579,16.6262,11.640590238418579,16.698700000000002Q11.655000238418578,16.7711,11.655000238418578,16.845ZM11.655000238418578,16.845Q11.655000238418578,16.9189,11.640590238418579,16.991300000000003Q11.626180238418579,17.0638,11.59791023841858,17.131999999999998Q11.569640238418579,17.2003,11.52860023841858,17.261699999999998Q11.48756023841858,17.3231,11.43533023841858,17.3753Q11.38310023841858,17.427599999999998,11.32168023841858,17.468600000000002Q11.26026023841858,17.5096,11.192010238418579,17.5379Q11.12376023841858,17.566200000000002,11.05132023841858,17.5806Q10.97887023841858,17.595,10.905000238418578,17.595Q10.831130238418579,17.595,10.75868023841858,17.5806Q10.68623023841858,17.566200000000002,10.61799023841858,17.5379Q10.549740238418579,17.5096,10.488320238418579,17.468600000000002Q10.426900238418579,17.427599999999998,10.37467023841858,17.3753Q10.32244023841858,17.3231,10.281400238418579,17.261699999999998Q10.240360238418578,17.2003,10.212090238418579,17.131999999999998Q10.18382023841858,17.0638,10.169410238418578,16.991300000000003Q10.15500023841858,16.9189,10.15500023841858,16.845Q10.15500023841858,16.7711,10.169410238418578,16.698700000000002Q10.18382023841858,16.6262,10.212090238418579,16.558Q10.240360238418578,16.4897,10.281400238418579,16.4283Q10.32244023841858,16.3669,10.37467023841858,16.314700000000002Q10.426900238418579,16.2624,10.488320238418579,16.2214Q10.549740238418579,16.1804,10.61799023841858,16.1521Q10.68623023841858,16.1238,10.75868023841858,16.1094Q10.831130238418579,16.095,10.905000238418578,16.095Q10.97887023841858,16.095,11.05132023841858,16.1094Q11.12377023841858,16.1238,11.192010238418579,16.1521Q11.26026023841858,16.1804,11.32168023841858,16.2214Q11.38310023841858,16.2624,11.43533023841858,16.314700000000002Q11.48756023841858,16.3669,11.52860023841858,16.4283Q11.569640238418579,16.4897,11.59791023841858,16.558Q11.626180238418579,16.6262,11.640590238418579,16.698700000000002Q11.655000238418578,16.7711,11.655000238418578,16.845ZM21.00000023841858,8.511Q21.00000023841858,8.584869999999999,20.98560023841858,8.65732Q20.97120023841858,8.72977,20.94290023841858,8.79801Q20.91460023841858,8.86626,20.87360023841858,8.927679999999999Q20.83260023841858,8.9891,20.78030023841858,9.04133Q20.72810023841858,9.09356,20.666700238418578,9.134599999999999Q20.60530023841858,9.17564,20.537000238418578,9.20391Q20.46880023841858,9.23218,20.39630023841858,9.246590000000001Q20.323900238418577,9.261,20.25000023841858,9.261Q20.17610023841858,9.261,20.10370023841858,9.246590000000001Q20.031200238418577,9.23218,19.96300023841858,9.20391Q19.89470023841858,9.17564,19.83330023841858,9.134599999999999Q19.771900238418578,9.09356,19.71970023841858,9.04133Q19.66740023841858,8.9891,19.62640023841858,8.927679999999999Q19.58540023841858,8.86626,19.557100238418577,8.79801Q19.52880023841858,8.72977,19.514400238418578,8.65732Q19.50000023841858,8.584869999999999,19.50000023841858,8.511Q19.50000023841858,8.43713,19.514400238418578,8.36468Q19.52880023841858,8.29223,19.557100238418577,8.22399Q19.58540023841858,8.15574,19.62640023841858,8.09432Q19.66740023841858,8.0329,19.71970023841858,7.98067Q19.771900238418578,7.92844,19.83330023841858,7.8874Q19.89470023841858,7.84636,19.96300023841858,7.81809Q20.031200238418577,7.78982,20.10370023841858,7.77541Q20.17610023841858,7.761,20.25000023841858,7.761Q20.323900238418577,7.761,20.39630023841858,7.77541Q20.46880023841858,7.78982,20.537000238418578,7.81809Q20.60530023841858,7.84636,20.666700238418578,7.8874Q20.72810023841858,7.92844,20.78030023841858,7.98067Q20.83260023841858,8.0329,20.87360023841858,8.09432Q20.91460023841858,8.15574,20.94290023841858,8.22399Q20.97120023841858,8.29223,20.98560023841858,8.36468Q21.00000023841858,8.43713,21.00000023841858,8.511ZM11.655000238418578,16.845Q11.655000238418578,16.9189,11.640590238418579,16.991300000000003Q11.626180238418579,17.0638,11.59791023841858,17.131999999999998Q11.569640238418579,17.2003,11.52860023841858,17.261699999999998Q11.48756023841858,17.3231,11.43533023841858,17.3753Q11.38310023841858,17.427599999999998,11.32168023841858,17.468600000000002Q11.26026023841858,17.5096,11.192010238418579,17.5379Q11.12376023841858,17.566200000000002,11.05132023841858,17.5806Q10.97887023841858,17.595,10.905000238418578,17.595Q10.831130238418579,17.595,10.75868023841858,17.5806Q10.68623023841858,17.566200000000002,10.61799023841858,17.5379Q10.549740238418579,17.5096,10.488320238418579,17.468600000000002Q10.426900238418579,17.427599999999998,10.37467023841858,17.3753Q10.32244023841858,17.3231,10.281400238418579,17.261699999999998Q10.240360238418578,17.2003,10.212090238418579,17.131999999999998Q10.18382023841858,17.0638,10.169410238418578,16.991300000000003Q10.15500023841858,16.9189,10.15500023841858,16.845Q10.15500023841858,16.7711,10.169410238418578,16.698700000000002Q10.18382023841858,16.6262,10.212090238418579,16.558Q10.240360238418578,16.4897,10.281400238418579,16.4283Q10.32244023841858,16.3669,10.37467023841858,16.314700000000002Q10.426900238418579,16.2624,10.488320238418579,16.2214Q10.549740238418579,16.1804,10.61799023841858,16.1521Q10.68623023841858,16.1238,10.75868023841858,16.1094Q10.831130238418579,16.095,10.905000238418578,16.095Q10.97887023841858,16.095,11.05132023841858,16.1094Q11.12377023841858,16.1238,11.192010238418579,16.1521Q11.26026023841858,16.1804,11.32168023841858,16.2214Q11.38310023841858,16.2624,11.43533023841858,16.314700000000002Q11.48756023841858,16.3669,11.52860023841858,16.4283Q11.569640238418579,16.4897,11.59791023841858,16.558Q11.626180238418579,16.6262,11.640590238418579,16.698700000000002Q11.655000238418578,16.7711,11.655000238418578,16.845ZM21.00000023841858,8.511Q21.00000023841858,8.584869999999999,20.98560023841858,8.65732Q20.97120023841858,8.72977,20.94290023841858,8.79801Q20.91460023841858,8.86626,20.87360023841858,8.927679999999999Q20.83260023841858,8.9891,20.78030023841858,9.04133Q20.72810023841858,9.09356,20.666700238418578,9.134599999999999Q20.60530023841858,9.17564,20.537000238418578,9.20391Q20.46880023841858,9.23218,20.39630023841858,9.246590000000001Q20.323900238418577,9.261,20.25000023841858,9.261Q20.17610023841858,9.261,20.10370023841858,9.246590000000001Q20.031200238418577,9.23218,19.96300023841858,9.20391Q19.89470023841858,9.17564,19.83330023841858,9.134599999999999Q19.771900238418578,9.09356,19.71970023841858,9.04133Q19.66740023841858,8.9891,19.62640023841858,8.927679999999999Q19.58540023841858,8.86626,19.557100238418577,8.79801Q19.52880023841858,8.72977,19.514400238418578,8.65732Q19.50000023841858,8.584869999999999,19.50000023841858,8.511Q19.50000023841858,8.43713,19.514400238418578,8.36468Q19.52880023841858,8.29223,19.557100238418577,8.22399Q19.58540023841858,8.15574,19.62640023841858,8.09432Q19.66740023841858,8.0329,19.71970023841858,7.98067Q19.771900238418578,7.92844,19.83330023841858,7.8874Q19.89470023841858,7.84636,19.96300023841858,7.81809Q20.031200238418577,7.78982,20.10370023841858,7.77541Q20.17610023841858,7.761,20.25000023841858,7.761Q20.323900238418577,7.761,20.39630023841858,7.77541Q20.46880023841858,7.78982,20.537000238418578,7.81809Q20.60530023841858,7.84636,20.666700238418578,7.8874Q20.72810023841858,7.92844,20.78030023841858,7.98067Q20.83260023841858,8.0329,20.87360023841858,8.09432Q20.91460023841858,8.15574,20.94290023841858,8.22399Q20.97120023841858,8.29223,20.98560023841858,8.36468Q21.00000023841858,8.43713,21.00000023841858,8.511ZM21.00000023841858,8.511Q21.00000023841858,8.584869999999999,20.98560023841858,8.65732Q20.97120023841858,8.72977,20.94290023841858,8.79801Q20.91460023841858,8.86626,20.87360023841858,8.927679999999999Q20.83260023841858,8.9891,20.78030023841858,9.04133Q20.72810023841858,9.09356,20.666700238418578,9.134599999999999Q20.60530023841858,9.17564,20.537000238418578,9.20391Q20.46880023841858,9.23218,20.39630023841858,9.246590000000001Q20.323900238418577,9.261,20.25000023841858,9.261Q20.17610023841858,9.261,20.10370023841858,9.246590000000001Q20.031200238418577,9.23218,19.96300023841858,9.20391Q19.89470023841858,9.17564,19.83330023841858,9.134599999999999Q19.771900238418578,9.09356,19.71970023841858,9.04133Q19.66740023841858,8.9891,19.62640023841858,8.927679999999999Q19.58540023841858,8.86626,19.557100238418577,8.79801Q19.52880023841858,8.72977,19.514400238418578,8.65732Q19.50000023841858,8.584869999999999,19.50000023841858,8.511Q19.50000023841858,8.43713,19.514400238418578,8.36468Q19.52880023841858,8.29223,19.557100238418577,8.22399Q19.58540023841858,8.15574,19.62640023841858,8.09432Q19.66740023841858,8.0329,19.71970023841858,7.98067Q19.771900238418578,7.92844,19.83330023841858,7.8874Q19.89470023841858,7.84636,19.96300023841858,7.81809Q20.031200238418577,7.78982,20.10370023841858,7.77541Q20.17610023841858,7.761,20.25000023841858,7.761Q20.323900238418577,7.761,20.39630023841858,7.77541Q20.46880023841858,7.78982,20.537000238418578,7.81809Q20.60530023841858,7.84636,20.666700238418578,7.8874Q20.72810023841858,7.92844,20.78030023841858,7.98067Q20.83260023841858,8.0329,20.87360023841858,8.09432Q20.91460023841858,8.15574,20.94290023841858,8.22399Q20.97120023841858,8.29223,20.98560023841858,8.36468Q21.00000023841858,8.43713,21.00000023841858,8.511Z" fill="#000000" fill-opacity="1"/></g></g></svg>