<svg xmlns="http://www.w3.org/2000/svg" xmlns:xlink="http://www.w3.org/1999/xlink" fill="none" version="1.1" width="20" height="20" viewBox="0 0 20 20"><defs><clipPath id="master_svg0_108_1527"><rect x="0" y="0" width="20" height="20" rx="0"/></clipPath></defs><g clip-path="url(#master_svg0_108_1527)"><g><path d="M16.403015009880065,12.652016082763671C17.385715009880066,12.132316082763673,18.000515009880065,11.111716082763673,18.000515009880065,9.999996082763673C18.000515009880065,8.888286082763672,17.385715009880066,7.867716082763672,16.403015009880065,7.347996082763672C16.73061500988007,6.285636082763672,16.443815009880066,5.129226082763672,15.657815009880066,4.343016082763672C14.871815009880066,3.556806082763672,13.715415009880067,3.269716082763672,12.653015009880066,3.5969960827636718C12.133415009880066,2.6137170827636718,11.112605009880065,1.9985160827636719,10.000495009880066,1.9985160827636719C8.888395009880066,1.9985160827636719,7.867545009880066,2.6137170827636718,7.347995009880066,3.5969960827636718C6.285635009880066,3.269436082763672,5.1292250098800665,3.556216082763672,4.343015009880066,4.342216082763672C3.556805009880066,5.128216082763672,3.2697150098800662,6.284546082763672,3.597005009880066,7.346996082763672C2.613717009880066,7.866546082763672,1.998515009880066,8.887396082763672,1.998515009880066,9.999506082763672C1.998515009880066,11.111606082763672,2.613717009880066,12.132416082763672,3.597005009880066,12.652016082763671C3.269435009880066,13.714416082763671,3.556215009880066,14.870816082763671,4.342215009880066,15.657016082763672C5.128215009880066,16.44321608276367,6.284545009880066,16.73031608276367,7.346995009880066,16.40301608276367C7.866545009880066,17.38631608276367,8.887395009880066,18.001516082763672,9.999505009880066,18.001516082763672C11.111605009880066,18.001516082763672,12.132415009880066,17.38631608276367,12.652015009880065,16.40301608276367C13.714415009880065,16.730616082763675,14.870815009880065,16.44381608276367,15.657015009880066,15.657816082763672C16.443215009880063,14.871816082763672,16.730315009880066,13.715416082763673,16.403015009880065,12.653016082763672L16.403015009880065,12.652016082763671ZM13.857015009880065,8.191996082763673C14.100515009880066,7.856756082763672,14.026315009880065,7.387596082763672,13.691215009880066,7.1438660827636715C13.356115009880066,6.900136082763672,12.886915009880067,6.9740560827636715,12.643015009880067,7.308996082763672L9.160005009880066,12.099016082763672L7.280005009880066,10.218996082763672C6.9885550098800655,9.917526082763672,6.506555009880066,9.913556082763673,6.210195009880066,10.210206082763673C5.913835009880065,10.506846082763673,5.918255009880066,10.988846082763672,6.220005009880066,11.279996082763672L8.720005009880065,13.780016082763671C9.045825009880065,14.106016082763672,9.585865009880067,14.063716082763673,9.857005009880066,13.691016082763673L13.857015009880065,8.190996082763672L13.857015009880065,8.191996082763673Z" fill-rule="evenodd" fill="#000000" fill-opacity="1"/></g></g></svg>