<svg xmlns="http://www.w3.org/2000/svg" xmlns:xlink="http://www.w3.org/1999/xlink" fill="none" version="1.1" width="24" height="24" viewBox="0 0 24 24"><defs><clipPath id="master_svg0_497_0973"><rect x="0" y="0" width="24" height="24" rx="0"/></clipPath></defs><g clip-path="url(#master_svg0_497_0973)"><g><path d="M15.999999523162842,9.750000238418579L18.999999523162842,9.750000238418579Q19.073899523162844,9.750000238418579,19.146299523162842,9.764410238418579Q19.218799523162843,9.778820238418579,19.28699952316284,9.807090238418578Q19.35529952316284,9.835360238418579,19.41669952316284,9.87640023841858Q19.47809952316284,9.917440238418578,19.530299523162842,9.96967023841858Q19.58259952316284,10.021900238418578,19.62359952316284,10.08332023841858Q19.664599523162842,10.144740238418578,19.692899523162843,10.212990238418579Q19.72119952316284,10.28123023841858,19.73559952316284,10.35368023841858Q19.749999523162842,10.42613023841858,19.749999523162842,10.500000238418579Q19.749999523162842,10.573870238418579,19.73559952316284,10.646320238418578Q19.72119952316284,10.718770238418578,19.692899523162843,10.78701023841858Q19.664599523162842,10.85526023841858,19.62359952316284,10.916680238418579Q19.58259952316284,10.97810023841858,19.530299523162842,11.030330238418578Q19.47809952316284,11.08256023841858,19.41669952316284,11.123600238418579Q19.35529952316284,11.16464023841858,19.28699952316284,11.192910238418579Q19.218799523162843,11.22118023841858,19.146299523162842,11.23559023841858Q19.073899523162844,11.250000238418579,18.999999523162842,11.250000238418579L15.999999523162842,11.250000238418579Q15.926099523162842,11.250000238418579,15.853699523162842,11.23559023841858Q15.781199523162842,11.22118023841858,15.712999523162841,11.192910238418579Q15.644699523162842,11.16464023841858,15.583299523162841,11.123600238418579Q15.521899523162842,11.08256023841858,15.469699523162841,11.030330238418578Q15.417399523162842,10.97810023841858,15.376399523162842,10.916680238418579Q15.335399523162842,10.85526023841858,15.307099523162842,10.78701023841858Q15.278799523162842,10.718770238418578,15.264399523162842,10.646320238418578Q15.249999523162842,10.573870238418579,15.249999523162842,10.500000238418579Q15.249999523162842,10.42613023841858,15.264399523162842,10.35368023841858Q15.278799523162842,10.28123023841858,15.307099523162842,10.212990238418579Q15.335399523162842,10.144740238418578,15.376399523162842,10.08332023841858Q15.417399523162842,10.021900238418578,15.469699523162841,9.96967023841858Q15.521899523162842,9.917440238418578,15.583299523162841,9.87640023841858Q15.644699523162842,9.835360238418579,15.712999523162841,9.807090238418578Q15.781199523162842,9.778820238418579,15.853699523162842,9.764410238418579Q15.926099523162842,9.750000238418579,15.999999523162842,9.750000238418579ZM21.999999523162842,11.250000238418579L18.999999523162842,11.250000238418579Q18.92609952316284,11.250000238418579,18.85369952316284,11.23559023841858Q18.78119952316284,11.22118023841858,18.712999523162843,11.192910238418579Q18.644699523162842,11.16464023841858,18.583299523162843,11.123600238418579Q18.521899523162844,11.08256023841858,18.46969952316284,11.030330238418578Q18.417399523162842,10.97810023841858,18.376399523162842,10.916680238418579Q18.33539952316284,10.85526023841858,18.30709952316284,10.78701023841858Q18.278799523162842,10.718770238418578,18.264399523162844,10.646320238418578Q18.249999523162842,10.573870238418579,18.249999523162842,10.500000238418579Q18.249999523162842,10.42613023841858,18.264399523162844,10.35368023841858Q18.278799523162842,10.28123023841858,18.30709952316284,10.212990238418579Q18.33539952316284,10.144740238418578,18.376399523162842,10.08332023841858Q18.417399523162842,10.021900238418578,18.46969952316284,9.96967023841858Q18.521899523162844,9.917440238418578,18.583299523162843,9.87640023841858Q18.644699523162842,9.835360238418579,18.712999523162843,9.807090238418578Q18.78119952316284,9.778820238418579,18.85369952316284,9.764410238418579Q18.92609952316284,9.750000238418579,18.999999523162842,9.750000238418579L21.999999523162842,9.750000238418579Q22.07389952316284,9.750000238418579,22.146299523162842,9.764410238418579Q22.218799523162843,9.778820238418579,22.28699952316284,9.807090238418578Q22.35529952316284,9.835360238418579,22.41669952316284,9.87640023841858Q22.478099523162843,9.917440238418578,22.530299523162842,9.96967023841858Q22.58259952316284,10.021900238418578,22.62359952316284,10.08332023841858Q22.664599523162842,10.144740238418578,22.692899523162843,10.212990238418579Q22.72119952316284,10.28123023841858,22.735599523162843,10.35368023841858Q22.749999523162842,10.42613023841858,22.749999523162842,10.500000238418579Q22.749999523162842,10.573870238418579,22.735599523162843,10.646320238418578Q22.72119952316284,10.718770238418578,22.692899523162843,10.78701023841858Q22.664599523162842,10.85526023841858,22.62359952316284,10.916680238418579Q22.58259952316284,10.97810023841858,22.530299523162842,11.030330238418578Q22.478099523162843,11.08256023841858,22.41669952316284,11.123600238418579Q22.35529952316284,11.16464023841858,22.28699952316284,11.192910238418579Q22.218799523162843,11.22118023841858,22.146299523162842,11.23559023841858Q22.07389952316284,11.250000238418579,21.999999523162842,11.250000238418579ZM18.249999523162842,13.500000238418579L18.249999523162842,10.500000238418579Q18.249999523162842,10.42613023841858,18.264399523162844,10.35368023841858Q18.278799523162842,10.28123023841858,18.30709952316284,10.212990238418579Q18.33539952316284,10.144740238418578,18.376399523162842,10.08332023841858Q18.417399523162842,10.021900238418578,18.46969952316284,9.96967023841858Q18.521899523162844,9.917440238418578,18.583299523162843,9.87640023841858Q18.644699523162842,9.835360238418579,18.712999523162843,9.807090238418578Q18.78119952316284,9.778820238418579,18.85369952316284,9.764410238418579Q18.92609952316284,9.750000238418579,18.999999523162842,9.750000238418579Q19.073899523162844,9.750000238418579,19.146299523162842,9.764410238418579Q19.218799523162843,9.778820238418579,19.28699952316284,9.807090238418578Q19.35529952316284,9.835360238418579,19.41669952316284,9.87640023841858Q19.47809952316284,9.917440238418578,19.530299523162842,9.96967023841858Q19.58259952316284,10.021900238418578,19.62359952316284,10.08332023841858Q19.664599523162842,10.144740238418578,19.692899523162843,10.212990238418579Q19.72119952316284,10.28123023841858,19.73559952316284,10.35368023841858Q19.749999523162842,10.42613023841858,19.749999523162842,10.500000238418579L19.749999523162842,13.500000238418579Q19.749999523162842,13.57390023841858,19.73559952316284,13.64630023841858Q19.72119952316284,13.718800238418579,19.692899523162843,13.78700023841858Q19.664599523162842,13.855300238418579,19.62359952316284,13.91670023841858Q19.58259952316284,13.978100238418579,19.530299523162842,14.03030023841858Q19.47809952316284,14.082600238418578,19.41669952316284,14.123600238418579Q19.35529952316284,14.16460023841858,19.28699952316284,14.192900238418579Q19.218799523162843,14.221200238418579,19.146299523162842,14.235600238418579Q19.073899523162844,14.250000238418579,18.999999523162842,14.250000238418579Q18.92609952316284,14.250000238418579,18.85369952316284,14.235600238418579Q18.78119952316284,14.221200238418579,18.712999523162843,14.192900238418579Q18.644699523162842,14.16460023841858,18.583299523162843,14.123600238418579Q18.521899523162844,14.082600238418578,18.46969952316284,14.03030023841858Q18.417399523162842,13.978100238418579,18.376399523162842,13.91670023841858Q18.33539952316284,13.855300238418579,18.30709952316284,13.78700023841858Q18.278799523162842,13.718800238418579,18.264399523162844,13.64630023841858Q18.249999523162842,13.57390023841858,18.249999523162842,13.500000238418579ZM18.249999523162842,10.500000238418579L18.249999523162842,7.500000238418579Q18.249999523162842,7.426130238418579,18.264399523162844,7.353680238418579Q18.278799523162842,7.281230238418579,18.30709952316284,7.212990238418579Q18.33539952316284,7.144740238418579,18.376399523162842,7.083320238418579Q18.417399523162842,7.021900238418579,18.46969952316284,6.969670238418579Q18.521899523162844,6.917440238418579,18.583299523162843,6.876400238418579Q18.644699523162842,6.835360238418579,18.712999523162843,6.80709023841858Q18.78119952316284,6.778820238418579,18.85369952316284,6.764410238418579Q18.92609952316284,6.750000238418579,18.999999523162842,6.750000238418579Q19.073899523162844,6.750000238418579,19.146299523162842,6.764410238418579Q19.218799523162843,6.778820238418579,19.28699952316284,6.80709023841858Q19.35529952316284,6.835360238418579,19.41669952316284,6.876400238418579Q19.47809952316284,6.917440238418579,19.530299523162842,6.969670238418579Q19.58259952316284,7.021900238418579,19.62359952316284,7.083320238418579Q19.664599523162842,7.144740238418579,19.692899523162843,7.212990238418579Q19.72119952316284,7.281230238418579,19.73559952316284,7.353680238418579Q19.749999523162842,7.426130238418579,19.749999523162842,7.500000238418579L19.749999523162842,10.500000238418579Q19.749999523162842,10.573870238418579,19.73559952316284,10.646320238418578Q19.72119952316284,10.718770238418578,19.692899523162843,10.78701023841858Q19.664599523162842,10.85526023841858,19.62359952316284,10.916680238418579Q19.58259952316284,10.97810023841858,19.530299523162842,11.030330238418578Q19.47809952316284,11.08256023841858,19.41669952316284,11.123600238418579Q19.35529952316284,11.16464023841858,19.28699952316284,11.192910238418579Q19.218799523162843,11.22118023841858,19.146299523162842,11.23559023841858Q19.073899523162844,11.250000238418579,18.999999523162842,11.250000238418579Q18.92609952316284,11.250000238418579,18.85369952316284,11.23559023841858Q18.78119952316284,11.22118023841858,18.712999523162843,11.192910238418579Q18.644699523162842,11.16464023841858,18.583299523162843,11.123600238418579Q18.521899523162844,11.08256023841858,18.46969952316284,11.030330238418578Q18.417399523162842,10.97810023841858,18.376399523162842,10.916680238418579Q18.33539952316284,10.85526023841858,18.30709952316284,10.78701023841858Q18.278799523162842,10.718770238418578,18.264399523162844,10.646320238418578Q18.249999523162842,10.573870238418579,18.249999523162842,10.500000238418579ZM4.749999523162842,19.23360023841858L4.749999523162842,19.23460023841858L3.999999999999842,19.23500023841858L3.249999523162842,19.23500023841858L3.249999523162842,19.12500023841858Q3.250000523162842,16.17370023841858,5.336869523162842,14.086900238418579Q7.423729523162842,12.000000238418579,10.374999523162842,12.000000238418579Q13.326279523162842,12.000000238418579,15.413099523162842,14.086900238418579Q17.499999523162842,16.17370023841858,17.499999523162842,19.12500023841858L17.499999523162842,19.23400023841858Q17.499999523162842,19.33100023841858,17.475299523162843,19.42480023841858Q17.45069952316284,19.51850023841858,17.40299952316284,19.60300023841858Q17.35529952316284,19.68740023841858,17.28759952316284,19.75690023841858Q17.21999952316284,19.82640023841858,17.136899523162842,19.87650023841858Q14.015999523162842,21.75610023841858,10.372739523162842,21.75000023841858Q6.7250195231628425,21.75000023841858,3.6131635231628416,19.87650023841858L3.999999523162842,19.23400023841858L4.749999523162842,19.23360023841858ZM3.249999523162842,19.23440023841858Q3.2499005231628417,19.02580023841858,3.357459523162842,18.84720023841858Q3.395559523162842,18.78390023841858,3.4452735231628417,18.729200238418578Q3.494987523162842,18.674600238418577,3.554405523162842,18.630700238418576Q3.613822523162842,18.58680023841858,3.680660523162842,18.555400238418578Q3.747499523162842,18.523900238418577,3.819188523162842,18.50610023841858Q3.8908785231628418,18.48830023841858,3.9646652231628416,18.48480023841858Q4.038451823162842,18.481300238418576,4.111499523162842,18.49230023841858Q4.184547523162842,18.50330023841858,4.254048523162842,18.52830023841858Q4.323550523162842,18.55340023841858,4.3868355231628415,18.59150023841858Q7.141699523162842,20.25000023841858,10.375269523162842,20.25000023841858Q13.600349523162842,20.25540023841858,16.36309952316284,18.59150023841858L16.749999523162842,19.23400023841858L15.999999523162842,19.23400023841858L15.999999523162842,19.12500023841858Q15.999999523162842,16.795100238418577,14.352499523162841,15.14750023841858Q12.704949523162842,13.500000238418579,10.374999523162842,13.500000238418579Q8.045049523162842,13.500000238418579,6.3975295231628415,15.14750023841858Q4.750000523162842,16.79500023841858,4.749999523162842,19.12500023841858L4.749999523162842,19.23500023841858Q4.749999523162842,19.30880023841858,4.735597523162841,19.38130023841858Q4.721195523162842,19.45370023841858,4.692943523162842,19.521900238418578Q4.6646925231628416,19.59020023841858,4.623676523162842,19.651600238418578Q4.582660523162842,19.71300023841858,4.530456523162842,19.76520023841858Q4.478251523162842,19.81740023841858,4.416863523162842,19.85850023841858Q4.355474523162842,19.89950023841858,4.287259523162842,19.92780023841858Q4.219045523162841,19.95610023841858,4.146624523162842,19.97050023841858Q4.0742031231628415,19.98500023841858,4.000357143162842,19.98500023841858Q3.9264886231628418,19.98500023841858,3.8540325231628416,19.97070023841858Q3.7815765231628418,19.956300238418578,3.713317523162842,19.92800023841858Q3.6450585231628416,19.899800238418578,3.5836195231628416,19.858800238418578Q3.5221805231628416,19.817800238418577,3.469922523162842,19.76560023841858Q3.4176645231628417,19.71340023841858,3.3765965231628416,19.65200023841858Q3.335527523162842,19.590600238418578,3.3072275231628416,19.52230023841858Q3.2789265231628417,19.45410023841858,3.2644805231628418,19.381700238418578Q3.250035523162842,19.30920023841858,3.250000523162842,19.235400238418578L3.249999523162842,19.23440023841858L3.249999523162842,19.23440023841858ZM10.374999523162842,2.250000238418579Q12.083629523162841,2.250000238418579,13.291819523162841,3.4581842384185792Q14.499999523162842,4.666370238418579,14.499999523162842,6.375000238418579Q14.499999523162842,8.083630238418579,13.291819523162841,9.29182023841858Q12.083629523162841,10.500000238418579,10.374999523162842,10.500000238418579Q8.666369523162842,10.500000238418579,7.458189523162842,9.29182023841858Q6.249999523162842,8.083630238418579,6.249999523162842,6.375000238418579Q6.249999523162842,4.666370238418579,7.458189523162842,3.4581842384185792Q8.666369523162842,2.250000238418579,10.374999523162842,2.250000238418579L10.374999523162842,2.250000238418579ZM10.374999523162842,3.750000238418579Q9.287689523162841,3.750000238418579,8.518849523162842,4.518840238418579Q7.749999523162842,5.287690238418579,7.749999523162842,6.375000238418579Q7.749999523162842,7.4623102384185795,8.518849523162842,8.231160238418578Q9.287689523162841,9.000000238418579,10.374999523162842,9.000000238418579Q11.462309523162842,9.000000238418579,12.231159523162841,8.231160238418578Q12.999999523162842,7.4623102384185795,12.999999523162842,6.375000238418579Q12.999999523162842,5.287690238418579,12.231159523162841,4.518840238418579Q11.462309523162842,3.750000238418579,10.374999523162842,3.750000238418579L10.374999523162842,3.750000238418579ZM16.749999523162842,10.500000238418579Q16.749999523162842,10.573870238418579,16.73559952316284,10.646320238418578Q16.72119952316284,10.718770238418578,16.692899523162843,10.78701023841858Q16.664599523162842,10.85526023841858,16.62359952316284,10.916680238418579Q16.58259952316284,10.97810023841858,16.530299523162842,11.030330238418578Q16.47809952316284,11.08256023841858,16.41669952316284,11.123600238418579Q16.35529952316284,11.16464023841858,16.28699952316284,11.192910238418579Q16.218799523162843,11.22118023841858,16.146299523162842,11.23559023841858Q16.073899523162844,11.250000238418579,15.999999523162842,11.250000238418579Q15.926099523162842,11.250000238418579,15.853699523162842,11.23559023841858Q15.781199523162842,11.22118023841858,15.712999523162841,11.192910238418579Q15.644699523162842,11.16464023841858,15.583299523162841,11.123600238418579Q15.521899523162842,11.08256023841858,15.469699523162841,11.030330238418578Q15.417399523162842,10.97810023841858,15.376399523162842,10.916680238418579Q15.335399523162842,10.85526023841858,15.307099523162842,10.78701023841858Q15.278799523162842,10.718770238418578,15.264399523162842,10.646320238418578Q15.249999523162842,10.573870238418579,15.249999523162842,10.500000238418579Q15.249999523162842,10.42613023841858,15.264399523162842,10.35368023841858Q15.278799523162842,10.28123023841858,15.307099523162842,10.212990238418579Q15.335399523162842,10.144740238418578,15.376399523162842,10.08332023841858Q15.417399523162842,10.021900238418578,15.469699523162841,9.96967023841858Q15.521899523162842,9.917440238418578,15.583299523162841,9.87640023841858Q15.644699523162842,9.835360238418579,15.712999523162841,9.807090238418578Q15.781199523162842,9.778820238418579,15.853699523162842,9.764410238418579Q15.926099523162842,9.750000238418579,15.999999523162842,9.750000238418579Q16.073899523162844,9.750000238418579,16.146299523162842,9.764410238418579Q16.218799523162843,9.778820238418579,16.28699952316284,9.807090238418578Q16.35529952316284,9.835360238418579,16.41669952316284,9.87640023841858Q16.47809952316284,9.917440238418578,16.530299523162842,9.96967023841858Q16.58259952316284,10.021900238418578,16.62359952316284,10.08332023841858Q16.664599523162842,10.144740238418578,16.692899523162843,10.212990238418579Q16.72119952316284,10.28123023841858,16.73559952316284,10.35368023841858Q16.749999523162842,10.42613023841858,16.749999523162842,10.500000238418579ZM19.749999523162842,10.500000238418579Q19.749999523162842,10.573870238418579,19.73559952316284,10.646320238418578Q19.72119952316284,10.718770238418578,19.692899523162843,10.78701023841858Q19.664599523162842,10.85526023841858,19.62359952316284,10.916680238418579Q19.58259952316284,10.97810023841858,19.530299523162842,11.030330238418578Q19.47809952316284,11.08256023841858,19.41669952316284,11.123600238418579Q19.35529952316284,11.16464023841858,19.28699952316284,11.192910238418579Q19.218799523162843,11.22118023841858,19.146299523162842,11.23559023841858Q19.073899523162844,11.250000238418579,18.999999523162842,11.250000238418579Q18.92609952316284,11.250000238418579,18.85369952316284,11.23559023841858Q18.78119952316284,11.22118023841858,18.712999523162843,11.192910238418579Q18.644699523162842,11.16464023841858,18.583299523162843,11.123600238418579Q18.521899523162844,11.08256023841858,18.46969952316284,11.030330238418578Q18.417399523162842,10.97810023841858,18.376399523162842,10.916680238418579Q18.33539952316284,10.85526023841858,18.30709952316284,10.78701023841858Q18.278799523162842,10.718770238418578,18.264399523162844,10.646320238418578Q18.249999523162842,10.573870238418579,18.249999523162842,10.500000238418579Q18.249999523162842,10.42613023841858,18.264399523162844,10.35368023841858Q18.278799523162842,10.28123023841858,18.30709952316284,10.212990238418579Q18.33539952316284,10.144740238418578,18.376399523162842,10.08332023841858Q18.417399523162842,10.021900238418578,18.46969952316284,9.96967023841858Q18.521899523162844,9.917440238418578,18.583299523162843,9.87640023841858Q18.644699523162842,9.835360238418579,18.712999523162843,9.807090238418578Q18.78119952316284,9.778820238418579,18.85369952316284,9.764410238418579Q18.92609952316284,9.750000238418579,18.999999523162842,9.750000238418579Q19.073899523162844,9.750000238418579,19.146299523162842,9.764410238418579Q19.218799523162843,9.778820238418579,19.28699952316284,9.807090238418578Q19.35529952316284,9.835360238418579,19.41669952316284,9.87640023841858Q19.47809952316284,9.917440238418578,19.530299523162842,9.96967023841858Q19.58259952316284,10.021900238418578,19.62359952316284,10.08332023841858Q19.664599523162842,10.144740238418578,19.692899523162843,10.212990238418579Q19.72119952316284,10.28123023841858,19.73559952316284,10.35368023841858Q19.749999523162842,10.42613023841858,19.749999523162842,10.500000238418579ZM22.749999523162842,10.500000238418579Q22.749999523162842,10.573870238418579,22.735599523162843,10.646320238418578Q22.72119952316284,10.718770238418578,22.692899523162843,10.78701023841858Q22.664599523162842,10.85526023841858,22.62359952316284,10.916680238418579Q22.58259952316284,10.97810023841858,22.530299523162842,11.030330238418578Q22.478099523162843,11.08256023841858,22.41669952316284,11.123600238418579Q22.35529952316284,11.16464023841858,22.28699952316284,11.192910238418579Q22.218799523162843,11.22118023841858,22.146299523162842,11.23559023841858Q22.07389952316284,11.250000238418579,21.999999523162842,11.250000238418579Q21.926099523162843,11.250000238418579,21.85369952316284,11.23559023841858Q21.78119952316284,11.22118023841858,21.712999523162843,11.192910238418579Q21.644699523162842,11.16464023841858,21.583299523162843,11.123600238418579Q21.52189952316284,11.08256023841858,21.46969952316284,11.030330238418578Q21.417399523162842,10.97810023841858,21.376399523162842,10.916680238418579Q21.33539952316284,10.85526023841858,21.30709952316284,10.78701023841858Q21.278799523162842,10.718770238418578,21.26439952316284,10.646320238418578Q21.249999523162842,10.573870238418579,21.249999523162842,10.500000238418579Q21.249999523162842,10.42613023841858,21.26439952316284,10.35368023841858Q21.278799523162842,10.28123023841858,21.30709952316284,10.212990238418579Q21.33539952316284,10.144740238418578,21.376399523162842,10.08332023841858Q21.417399523162842,10.021900238418578,21.46969952316284,9.96967023841858Q21.52189952316284,9.917440238418578,21.583299523162843,9.87640023841858Q21.644699523162842,9.835360238418579,21.712999523162843,9.807090238418578Q21.78119952316284,9.778820238418579,21.85369952316284,9.764410238418579Q21.926099523162843,9.750000238418579,21.999999523162842,9.750000238418579Q22.07389952316284,9.750000238418579,22.146299523162842,9.764410238418579Q22.218799523162843,9.778820238418579,22.28699952316284,9.807090238418578Q22.35529952316284,9.835360238418579,22.41669952316284,9.87640023841858Q22.478099523162843,9.917440238418578,22.530299523162842,9.96967023841858Q22.58259952316284,10.021900238418578,22.62359952316284,10.08332023841858Q22.664599523162842,10.144740238418578,22.692899523162843,10.212990238418579Q22.72119952316284,10.28123023841858,22.735599523162843,10.35368023841858Q22.749999523162842,10.42613023841858,22.749999523162842,10.500000238418579ZM19.749999523162842,10.500000238418579Q19.749999523162842,10.573870238418579,19.73559952316284,10.646320238418578Q19.72119952316284,10.718770238418578,19.692899523162843,10.78701023841858Q19.664599523162842,10.85526023841858,19.62359952316284,10.916680238418579Q19.58259952316284,10.97810023841858,19.530299523162842,11.030330238418578Q19.47809952316284,11.08256023841858,19.41669952316284,11.123600238418579Q19.35529952316284,11.16464023841858,19.28699952316284,11.192910238418579Q19.218799523162843,11.22118023841858,19.146299523162842,11.23559023841858Q19.073899523162844,11.250000238418579,18.999999523162842,11.250000238418579Q18.92609952316284,11.250000238418579,18.85369952316284,11.23559023841858Q18.78119952316284,11.22118023841858,18.712999523162843,11.192910238418579Q18.644699523162842,11.16464023841858,18.583299523162843,11.123600238418579Q18.521899523162844,11.08256023841858,18.46969952316284,11.030330238418578Q18.417399523162842,10.97810023841858,18.376399523162842,10.916680238418579Q18.33539952316284,10.85526023841858,18.30709952316284,10.78701023841858Q18.278799523162842,10.718770238418578,18.264399523162844,10.646320238418578Q18.249999523162842,10.573870238418579,18.249999523162842,10.500000238418579Q18.249999523162842,10.42613023841858,18.264399523162844,10.35368023841858Q18.278799523162842,10.28123023841858,18.30709952316284,10.212990238418579Q18.33539952316284,10.144740238418578,18.376399523162842,10.08332023841858Q18.417399523162842,10.021900238418578,18.46969952316284,9.96967023841858Q18.521899523162844,9.917440238418578,18.583299523162843,9.87640023841858Q18.644699523162842,9.835360238418579,18.712999523162843,9.807090238418578Q18.78119952316284,9.778820238418579,18.85369952316284,9.764410238418579Q18.92609952316284,9.750000238418579,18.999999523162842,9.750000238418579Q19.073899523162844,9.750000238418579,19.146299523162842,9.764410238418579Q19.218799523162843,9.778820238418579,19.28699952316284,9.807090238418578Q19.35529952316284,9.835360238418579,19.41669952316284,9.87640023841858Q19.47809952316284,9.917440238418578,19.530299523162842,9.96967023841858Q19.58259952316284,10.021900238418578,19.62359952316284,10.08332023841858Q19.664599523162842,10.144740238418578,19.692899523162843,10.212990238418579Q19.72119952316284,10.28123023841858,19.73559952316284,10.35368023841858Q19.749999523162842,10.42613023841858,19.749999523162842,10.500000238418579ZM19.749999523162842,13.500000238418579Q19.749999523162842,13.57390023841858,19.73559952316284,13.64630023841858Q19.72119952316284,13.718800238418579,19.692899523162843,13.78700023841858Q19.664599523162842,13.855300238418579,19.62359952316284,13.91670023841858Q19.58259952316284,13.978100238418579,19.530299523162842,14.03030023841858Q19.47809952316284,14.082600238418578,19.41669952316284,14.123600238418579Q19.35529952316284,14.16460023841858,19.28699952316284,14.192900238418579Q19.218799523162843,14.221200238418579,19.146299523162842,14.235600238418579Q19.073899523162844,14.250000238418579,18.999999523162842,14.250000238418579Q18.92609952316284,14.250000238418579,18.85369952316284,14.235600238418579Q18.78119952316284,14.221200238418579,18.712999523162843,14.192900238418579Q18.644699523162842,14.16460023841858,18.583299523162843,14.123600238418579Q18.521899523162844,14.082600238418578,18.46969952316284,14.03030023841858Q18.417399523162842,13.978100238418579,18.376399523162842,13.91670023841858Q18.33539952316284,13.855300238418579,18.30709952316284,13.78700023841858Q18.278799523162842,13.718800238418579,18.264399523162844,13.64630023841858Q18.249999523162842,13.57390023841858,18.249999523162842,13.500000238418579Q18.249999523162842,13.426100238418579,18.264399523162844,13.353700238418579Q18.278799523162842,13.28120023841858,18.30709952316284,13.213000238418578Q18.33539952316284,13.14470023841858,18.376399523162842,13.083300238418579Q18.417399523162842,13.02190023841858,18.46969952316284,12.96967023841858Q18.521899523162844,12.917440238418578,18.583299523162843,12.87640023841858Q18.644699523162842,12.835360238418579,18.712999523162843,12.80709023841858Q18.78119952316284,12.778820238418579,18.85369952316284,12.764410238418579Q18.92609952316284,12.750000238418579,18.999999523162842,12.750000238418579Q19.073899523162844,12.750000238418579,19.146299523162842,12.764410238418579Q19.218799523162843,12.778820238418579,19.28699952316284,12.80709023841858Q19.35529952316284,12.835360238418579,19.41669952316284,12.87640023841858Q19.47809952316284,12.917440238418578,19.530299523162842,12.96967023841858Q19.58259952316284,13.02190023841858,19.62359952316284,13.083300238418579Q19.664599523162842,13.14470023841858,19.692899523162843,13.213000238418578Q19.72119952316284,13.28120023841858,19.73559952316284,13.353700238418579Q19.749999523162842,13.426100238418579,19.749999523162842,13.500000238418579ZM19.749999523162842,10.500000238418579Q19.749999523162842,10.573870238418579,19.73559952316284,10.646320238418578Q19.72119952316284,10.718770238418578,19.692899523162843,10.78701023841858Q19.664599523162842,10.85526023841858,19.62359952316284,10.916680238418579Q19.58259952316284,10.97810023841858,19.530299523162842,11.030330238418578Q19.47809952316284,11.08256023841858,19.41669952316284,11.123600238418579Q19.35529952316284,11.16464023841858,19.28699952316284,11.192910238418579Q19.218799523162843,11.22118023841858,19.146299523162842,11.23559023841858Q19.073899523162844,11.250000238418579,18.999999523162842,11.250000238418579Q18.92609952316284,11.250000238418579,18.85369952316284,11.23559023841858Q18.78119952316284,11.22118023841858,18.712999523162843,11.192910238418579Q18.644699523162842,11.16464023841858,18.583299523162843,11.123600238418579Q18.521899523162844,11.08256023841858,18.46969952316284,11.030330238418578Q18.417399523162842,10.97810023841858,18.376399523162842,10.916680238418579Q18.33539952316284,10.85526023841858,18.30709952316284,10.78701023841858Q18.278799523162842,10.718770238418578,18.264399523162844,10.646320238418578Q18.249999523162842,10.573870238418579,18.249999523162842,10.500000238418579Q18.249999523162842,10.42613023841858,18.264399523162844,10.35368023841858Q18.278799523162842,10.28123023841858,18.30709952316284,10.212990238418579Q18.33539952316284,10.144740238418578,18.376399523162842,10.08332023841858Q18.417399523162842,10.021900238418578,18.46969952316284,9.96967023841858Q18.521899523162844,9.917440238418578,18.583299523162843,9.87640023841858Q18.644699523162842,9.835360238418579,18.712999523162843,9.807090238418578Q18.78119952316284,9.778820238418579,18.85369952316284,9.764410238418579Q18.92609952316284,9.750000238418579,18.999999523162842,9.750000238418579Q19.073899523162844,9.750000238418579,19.146299523162842,9.764410238418579Q19.218799523162843,9.778820238418579,19.28699952316284,9.807090238418578Q19.35529952316284,9.835360238418579,19.41669952316284,9.87640023841858Q19.47809952316284,9.917440238418578,19.530299523162842,9.96967023841858Q19.58259952316284,10.021900238418578,19.62359952316284,10.08332023841858Q19.664599523162842,10.144740238418578,19.692899523162843,10.212990238418579Q19.72119952316284,10.28123023841858,19.73559952316284,10.35368023841858Q19.749999523162842,10.42613023841858,19.749999523162842,10.500000238418579ZM19.749999523162842,10.500000238418579Q19.749999523162842,10.573870238418579,19.73559952316284,10.646320238418578Q19.72119952316284,10.718770238418578,19.692899523162843,10.78701023841858Q19.664599523162842,10.85526023841858,19.62359952316284,10.916680238418579Q19.58259952316284,10.97810023841858,19.530299523162842,11.030330238418578Q19.47809952316284,11.08256023841858,19.41669952316284,11.123600238418579Q19.35529952316284,11.16464023841858,19.28699952316284,11.192910238418579Q19.218799523162843,11.22118023841858,19.146299523162842,11.23559023841858Q19.073899523162844,11.250000238418579,18.999999523162842,11.250000238418579Q18.92609952316284,11.250000238418579,18.85369952316284,11.23559023841858Q18.78119952316284,11.22118023841858,18.712999523162843,11.192910238418579Q18.644699523162842,11.16464023841858,18.583299523162843,11.123600238418579Q18.521899523162844,11.08256023841858,18.46969952316284,11.030330238418578Q18.417399523162842,10.97810023841858,18.376399523162842,10.916680238418579Q18.33539952316284,10.85526023841858,18.30709952316284,10.78701023841858Q18.278799523162842,10.718770238418578,18.264399523162844,10.646320238418578Q18.249999523162842,10.573870238418579,18.249999523162842,10.500000238418579Q18.249999523162842,10.42613023841858,18.264399523162844,10.35368023841858Q18.278799523162842,10.28123023841858,18.30709952316284,10.212990238418579Q18.33539952316284,10.144740238418578,18.376399523162842,10.08332023841858Q18.417399523162842,10.021900238418578,18.46969952316284,9.96967023841858Q18.521899523162844,9.917440238418578,18.583299523162843,9.87640023841858Q18.644699523162842,9.835360238418579,18.712999523162843,9.807090238418578Q18.78119952316284,9.778820238418579,18.85369952316284,9.764410238418579Q18.92609952316284,9.750000238418579,18.999999523162842,9.750000238418579Q19.073899523162844,9.750000238418579,19.146299523162842,9.764410238418579Q19.218799523162843,9.778820238418579,19.28699952316284,9.807090238418578Q19.35529952316284,9.835360238418579,19.41669952316284,9.87640023841858Q19.47809952316284,9.917440238418578,19.530299523162842,9.96967023841858Q19.58259952316284,10.021900238418578,19.62359952316284,10.08332023841858Q19.664599523162842,10.144740238418578,19.692899523162843,10.212990238418579Q19.72119952316284,10.28123023841858,19.73559952316284,10.35368023841858Q19.749999523162842,10.42613023841858,19.749999523162842,10.500000238418579ZM19.749999523162842,7.500000238418579Q19.749999523162842,7.573870238418579,19.73559952316284,7.646320238418579Q19.72119952316284,7.718770238418579,19.692899523162843,7.7870102384185795Q19.664599523162842,7.8552602384185795,19.62359952316284,7.9166802384185795Q19.58259952316284,7.9781002384185795,19.530299523162842,8.030330238418578Q19.47809952316284,8.08256023841858,19.41669952316284,8.123600238418579Q19.35529952316284,8.16464023841858,19.28699952316284,8.19291023841858Q19.218799523162843,8.22118023841858,19.146299523162842,8.23559023841858Q19.073899523162844,8.250000238418579,18.999999523162842,8.250000238418579Q18.92609952316284,8.250000238418579,18.85369952316284,8.23559023841858Q18.78119952316284,8.22118023841858,18.712999523162843,8.19291023841858Q18.644699523162842,8.16464023841858,18.583299523162843,8.123600238418579Q18.521899523162844,8.08256023841858,18.46969952316284,8.030330238418578Q18.417399523162842,7.9781002384185795,18.376399523162842,7.9166802384185795Q18.33539952316284,7.8552602384185795,18.30709952316284,7.7870102384185795Q18.278799523162842,7.718770238418579,18.264399523162844,7.646320238418579Q18.249999523162842,7.573870238418579,18.249999523162842,7.500000238418579Q18.249999523162842,7.426130238418579,18.264399523162844,7.353680238418579Q18.278799523162842,7.281230238418579,18.30709952316284,7.212990238418579Q18.33539952316284,7.144740238418579,18.376399523162842,7.083320238418579Q18.417399523162842,7.021900238418579,18.46969952316284,6.969670238418579Q18.521899523162844,6.917440238418579,18.583299523162843,6.876400238418579Q18.644699523162842,6.835360238418579,18.712999523162843,6.80709023841858Q18.78119952316284,6.778820238418579,18.85369952316284,6.764410238418579Q18.92609952316284,6.750000238418579,18.999999523162842,6.750000238418579Q19.073899523162844,6.750000238418579,19.146299523162842,6.764410238418579Q19.218799523162843,6.778820238418579,19.28699952316284,6.80709023841858Q19.35529952316284,6.835360238418579,19.41669952316284,6.876400238418579Q19.47809952316284,6.917440238418579,19.530299523162842,6.969670238418579Q19.58259952316284,7.021900238418579,19.62359952316284,7.083320238418579Q19.664599523162842,7.144740238418579,19.692899523162843,7.212990238418579Q19.72119952316284,7.281230238418579,19.73559952316284,7.353680238418579Q19.749999523162842,7.426130238418579,19.749999523162842,7.500000238418579Z" fill="#000000" fill-opacity="1"/></g></g></svg>