<svg xmlns="http://www.w3.org/2000/svg" xmlns:xlink="http://www.w3.org/1999/xlink" fill="none" version="1.1" width="24" height="24" viewBox="0 0 24 24"><defs><clipPath id="master_svg0_1421_5363"><rect x="0" y="0" width="24" height="24" rx="0"/></clipPath></defs><g clip-path="url(#master_svg0_1421_5363)"><g><path d="M9.401004705734252,3.003000020980835C10.555994705734253,1.003000020980835,13.444034705734254,1.003000020980835,14.598034705734253,3.003000020980835L21.953034705734254,15.751000020980834C23.107034705734254,17.751000020980836,21.66303470573425,20.251000020980836,19.354034705734254,20.251000020980836L4.645004705734253,20.251000020980836C2.335999705734253,20.251000020980836,0.8929997057342529,17.751000020980836,2.046999705734253,15.751000020980834L9.399994705734253,3.003000020980835L9.401004705734252,3.003000020980835ZM12.000034705734253,8.250000020980835C12.414234705734254,8.250000020980835,12.750034705734253,8.585790020980834,12.750034705734253,9.000000020980835L12.750034705734253,12.750000020980835C12.750034705734253,13.164200020980834,12.414234705734254,13.500000020980835,12.000034705734253,13.500000020980835C11.585784705734254,13.500000020980835,11.250004705734252,13.164200020980834,11.250004705734252,12.750000020980835L11.250004705734252,9.000000020980835C11.250004705734252,8.585790020980834,11.585784705734254,8.250000020980835,12.000034705734253,8.250000020980835ZM12.000034705734253,16.500000020980835C12.414234705734254,16.500000020980835,12.750034705734253,16.164200020980836,12.750034705734253,15.750000020980835C12.750034705734253,15.335800020980836,12.414234705734254,15.000000020980835,12.000034705734253,15.000000020980835C11.585784705734254,15.000000020980835,11.250004705734252,15.335800020980836,11.250004705734252,15.750000020980835C11.250004705734252,16.164200020980836,11.585784705734254,16.500000020980835,12.000034705734253,16.500000020980835Z" fill-rule="evenodd" fill="#000000" fill-opacity="1"/></g></g></svg>