<svg xmlns="http://www.w3.org/2000/svg" xmlns:xlink="http://www.w3.org/1999/xlink" fill="none" version="1.1" width="24" height="24" viewBox="0 0 24 24"><defs><clipPath id="master_svg0_1147_5132"><rect x="0" y="0" width="24" height="24" rx="0"/></clipPath></defs><g clip-path="url(#master_svg0_1147_5132)"><g><path d="M11.99999992752075,22.500000476837158Q7.892279927520752,22.500000476837158,4.188107927520752,20.79960047683716Q4.088855927520752,20.75410047683716,4.006718927520752,20.682100476837157Q3.924580927520752,20.610100476837157,3.866379927520752,20.51770047683716Q3.808178927520752,20.425300476837158,3.778747927520752,20.32010047683716Q3.749316927520752,20.215000476837158,3.7510999275207517,20.105800476837157Q3.806253927520752,16.72830047683716,6.214189927520752,14.359400476837159Q8.622129927520753,11.990460476837159,11.99999992752075,11.990460476837159Q15.377899927520751,11.990460476837159,17.785799927520753,14.359400476837159Q20.193699927520754,16.72830047683716,20.248899927520753,20.105800476837157Q20.250699927520753,20.215000476837158,20.22119992752075,20.320200476837158Q20.19179992752075,20.425400476837158,20.133499927520752,20.51780047683716Q20.075299927520753,20.610300476837157,19.993099927520753,20.68220047683716Q19.910899927520752,20.75420047683716,19.811599927520753,20.79970047683716Q16.09149992752075,22.50560047683716,11.998979927520752,22.500000476837158L11.99999992752075,22.500000476837158ZM12.001019927520751,21.000000476837158Q15.764999927520751,21.005100476837157,19.186399927520753,19.436300476837157L19.49899992752075,20.118000476837157L18.749099927520753,20.130200476837157Q18.70399992752075,17.36690047683716,16.73379992752075,15.428700476837157Q14.763699927520753,13.490500476837159,11.99999992752075,13.490500476837159Q9.236289927520751,13.490500476837159,7.266159927520752,15.428700476837157Q5.296025927520752,17.36690047683716,5.250899927520752,20.130200476837157L4.500999927520752,20.118000476837157L4.813891927520752,19.436400476837157Q8.220109927520753,21.000000476837158,11.99999992752075,21.000000476837158L12.001019927520751,21.000000476837158ZM11.99999992752075,1.5000004768371582Q13.863959927520751,1.5000004768371582,15.181999927520751,2.8180194768371583Q16.499999927520754,4.136040476837158,16.499999927520754,6.000000476837158Q16.499999927520754,7.863960476837158,15.181999927520751,9.181980476837158Q13.863959927520751,10.500000476837158,11.99999992752075,10.500000476837158Q10.136039927520752,10.500000476837158,8.818019927520751,9.181980476837158Q7.4999999275207525,7.863960476837158,7.4999999275207525,6.000000476837158Q7.4999999275207525,4.136040476837158,8.818019927520751,2.8180194768371583Q10.136039927520752,1.5000004768371582,11.99999992752075,1.5000004768371582ZM11.99999992752075,3.000000476837158Q10.757359927520753,3.000000476837158,9.878679927520752,3.8786804768371583Q8.99999992752075,4.7573604768371585,8.99999992752075,6.000000476837158Q8.99999992752075,7.242640476837158,9.878679927520752,8.121320476837159Q10.757359927520753,9.000000476837158,11.99999992752075,9.000000476837158Q13.242639927520752,9.000000476837158,14.121319927520751,8.121320476837159Q14.999999927520753,7.242640476837158,14.999999927520753,6.000000476837158Q14.999999927520753,4.7573604768371585,14.121319927520751,3.8786804768371583Q13.242639927520752,3.000000476837158,11.99999992752075,3.000000476837158Z" fill="#000000" fill-opacity="1"/></g></g></svg>