<svg xmlns="http://www.w3.org/2000/svg" xmlns:xlink="http://www.w3.org/1999/xlink" fill="none" version="1.1" width="24" height="24" viewBox="0 0 24 24"><defs><clipPath id="master_svg0_66_12401"><rect x="0" y="0" width="24" height="24" rx="0"/></clipPath></defs><g clip-path="url(#master_svg0_66_12401)"><g><path d="M7.5,11.25L6.75,11.25Q6.12868,11.25,5.68934,11.68934Q5.25,12.12868,5.25,12.75L5.25,19.5Q5.25,20.1213,5.68934,20.5607Q6.12868,21,6.75,21L17.25,21Q17.871299999999998,21,18.3107,20.5607Q18.75,20.1213,18.75,19.5L18.75,12.75Q18.75,12.12868,18.3107,11.68934Q17.871299999999998,11.25,17.25,11.25L7.5,11.25ZM17.25,9.75Q18.4926,9.75,19.371299999999998,10.62868Q20.25,11.50736,20.25,12.75L20.25,19.5Q20.25,20.7426,19.371299999999998,21.6213Q18.4926,22.5,17.25,22.5L6.75,22.5Q5.50736,22.5,4.62868,21.6213Q3.75,20.7426,3.75,19.5L3.75,12.75Q3.75,11.50736,4.62868,10.62868Q5.50736,9.75,6.75,9.75L6.75,6.75Q6.75,4.57538,8.28769,3.037689Q9.82538,1.5,12,1.5Q14.17462,1.5,15.7123,3.037689Q17.25,4.57538,17.25,6.75L17.25,9.75ZM15.75,9.75L15.75,6.75Q15.75,5.1967,14.6517,4.09835Q13.5533,3,12,3Q10.4467,3,9.34835,4.09835Q8.25,5.1967,8.25,6.75L8.25,9.75L15.75,9.75Z" fill-rule="evenodd" fill="#000000" fill-opacity="1"/></g></g></svg>