<svg xmlns="http://www.w3.org/2000/svg" xmlns:xlink="http://www.w3.org/1999/xlink" fill="none" version="1.1" width="24" height="24" viewBox="0 0 24 24"><defs><clipPath id="master_svg0_1421_5358"><rect x="0" y="0" width="24" height="24" rx="0"/></clipPath></defs><g clip-path="url(#master_svg0_1421_5358)"><g><path d="M8.25,10.87499826171875C8.249292374,9.42474826171875,9.42475,8.24871826171875,10.875,8.24871826171875C12.32525,8.24871826171875,13.50071,9.42474826171875,13.5,10.87499826171875C13.49929,12.32424826171875,12.32425,13.49871826171875,10.875,13.49871826171875C9.42575,13.49871826171875,8.250707626,12.32424826171875,8.25,10.87499826171875Z" fill="#000000" fill-opacity="1"/></g><g><path d="M12,2.25C6.615,2.25,2.25,6.615,2.25,12C2.25,17.384999999999998,6.615,21.75,12,21.75C17.384999999999998,21.75,21.75,17.384999999999998,21.75,12C21.75,6.615,17.384999999999998,2.25,12,2.25ZM10.875,6.75C8.095220000000001,6.75055,6.11174,9.44449,6.93662,12.09906C7.7615,14.7536,10.92246,15.849,13.213,14.274L15.22,16.28C15.5095,16.590600000000002,15.9988,16.5993,16.299,16.299C16.5993,15.9988,16.590600000000002,15.5095,16.28,15.22L14.274,13.213C15.1424,11.95068,15.2396,10.31103,14.5264,8.95494C13.8136,7.59906,12.4075,6.75,10.875,6.75Z" fill-rule="evenodd" fill="#000000" fill-opacity="1"/></g></g></svg>