<svg xmlns="http://www.w3.org/2000/svg" xmlns:xlink="http://www.w3.org/1999/xlink" fill="none" version="1.1" width="24" height="24" viewBox="0 0 24 24"><defs><clipPath id="master_svg0_1421_5346"><rect x="0" y="0" width="24" height="24" rx="0"/></clipPath></defs><g clip-path="url(#master_svg0_1421_5346)"><g><path d="M12,2.25C6.615,2.25,2.25,6.615,2.25,12C2.25,17.384999999999998,6.615,21.75,12,21.75C17.384999999999998,21.75,21.75,17.384999999999998,21.75,12C21.75,6.615,17.384999999999998,2.25,12,2.25ZM12.75,6C12.75,5.585789999999999,12.4142,5.25,12,5.25C11.58579,5.25,11.25,5.585789999999999,11.25,6L11.25,12C11.25,12.414,11.586,12.75,12,12.75L16.5,12.75C16.9142,12.75,17.25,12.4142,17.25,12C17.25,11.58579,16.9142,11.25,16.5,11.25L12.75,11.25L12.75,6Z" fill-rule="evenodd" fill="#000000" fill-opacity="1"/></g></g></svg>