<svg xmlns="http://www.w3.org/2000/svg" xmlns:xlink="http://www.w3.org/1999/xlink" fill="none" version="1.1" width="24" height="24" viewBox="0 0 24 24"><defs><clipPath id="master_svg0_196_0799"><rect x="0" y="0" width="24" height="24" rx="0"/></clipPath></defs><g clip-path="url(#master_svg0_196_0799)"><g><path d="M2.25,18.75L2.25,11.25Q2.25,10.00736,3.128679,9.12868Q4.00736,8.25,5.25,8.25L18.75,8.25Q19.9926,8.25,20.8713,9.12868Q21.75,10.00736,21.75,11.25L21.75,18.75Q21.75,18.823900000000002,21.7356,18.8963Q21.7212,18.9688,21.6929,19.037Q21.6646,19.1053,21.6236,19.1667Q21.5826,19.2281,21.5303,19.2803Q21.4781,19.3326,21.4167,19.3736Q21.3553,19.4146,21.287,19.4429Q21.2188,19.4712,21.1463,19.4856Q21.0739,19.5,21,19.5Q20.9261,19.5,20.8537,19.4856Q20.7812,19.4712,20.713,19.4429Q20.6447,19.4146,20.5833,19.3736Q20.5219,19.3326,20.4697,19.2803Q20.4174,19.2281,20.3764,19.1667Q20.3354,19.1053,20.3071,19.037Q20.2788,18.9688,20.2644,18.8963Q20.25,18.823900000000002,20.25,18.75L20.25,11.25Q20.25,10.62868,19.8107,10.18934Q19.3713,9.75,18.75,9.75L5.25,9.75Q4.62868,9.75,4.18934,10.18934Q3.75,10.62868,3.75,11.25L3.75,18.75Q3.75,18.823900000000002,3.735589,18.8963Q3.721178,18.9688,3.69291,19.037Q3.664641,19.1053,3.623602,19.1667Q3.582563,19.2281,3.53033,19.2803Q3.478097,19.3326,3.416678,19.3736Q3.355258,19.4146,3.287013,19.4429Q3.218767,19.4712,3.146318,19.4856Q3.0738685,19.5,3,19.5Q2.9261315,19.5,2.853682,19.4856Q2.781233,19.4712,2.712987,19.4429Q2.644742,19.4146,2.583322,19.3736Q2.521903,19.3326,2.46967,19.2803Q2.417437,19.2281,2.376398,19.1667Q2.335359,19.1053,2.30709,19.037Q2.278822,18.9688,2.264411,18.8963Q2.25,18.823900000000002,2.25,18.75ZM3.75,18.75Q3.75,19.3713,4.18934,19.8107Q4.62868,20.25,5.25,20.25L18.75,20.25Q19.3713,20.25,19.8107,19.8107Q20.25,19.3713,20.25,18.75L20.25,7.5Q20.25,6.87868,19.8107,6.43934Q19.3713,6,18.75,6L5.25,6Q4.62868,6,4.18934,6.43934Q3.75,6.87868,3.75,7.5L3.75,18.75Q3.75,18.823900000000002,3.735589,18.8963Q3.721178,18.9688,3.69291,19.037Q3.664641,19.1053,3.623602,19.1667Q3.582563,19.2281,3.53033,19.2803Q3.478097,19.3326,3.416678,19.3736Q3.355258,19.4146,3.287013,19.4429Q3.218767,19.4712,3.146318,19.4856Q3.0738685,19.5,3,19.5Q2.9261315,19.5,2.853682,19.4856Q2.781233,19.4712,2.712987,19.4429Q2.644742,19.4146,2.583322,19.3736Q2.521903,19.3326,2.46967,19.2803Q2.417437,19.2281,2.376398,19.1667Q2.335359,19.1053,2.30709,19.037Q2.278822,18.9688,2.264411,18.8963Q2.25,18.823900000000002,2.25,18.75L2.25,7.5Q2.25,6.25736,3.128679,5.37868Q4.00736,4.5,5.25,4.5L18.75,4.5Q19.9926,4.5,20.8713,5.37868Q21.75,6.25736,21.75,7.5L21.75,18.75Q21.75,19.9926,20.8713,20.8713Q19.9926,21.75,18.75,21.75L5.25,21.75Q4.00736,21.75,3.12868,20.8713Q2.25,19.9926,2.25,18.75Q2.25,18.676099999999998,2.264411,18.6037Q2.278822,18.5312,2.307091,18.463Q2.335359,18.3947,2.376398,18.3333Q2.417437,18.271900000000002,2.46967,18.2197Q2.521903,18.1674,2.583322,18.1264Q2.644742,18.0854,2.712988,18.0571Q2.781233,18.0288,2.853682,18.014400000000002Q2.9261316,18,3.000000143898,18Q3.0738687,18,3.146318,18.014400000000002Q3.218767,18.0288,3.287013,18.0571Q3.355258,18.0854,3.416678,18.1264Q3.478097,18.1674,3.53033,18.2197Q3.582563,18.271900000000002,3.623602,18.3333Q3.664641,18.3947,3.69291,18.463Q3.721178,18.5312,3.735589,18.6037Q3.75,18.676099999999998,3.75,18.75ZM16.5,5.25L16.5,3Q16.5,2.9261315,16.514400000000002,2.853682Q16.5288,2.781233,16.5571,2.712987Q16.5854,2.644742,16.6264,2.583322Q16.6674,2.521903,16.7197,2.46967Q16.771900000000002,2.417437,16.8333,2.376398Q16.8947,2.335359,16.963,2.30709Q17.0312,2.278822,17.1037,2.264411Q17.176099999999998,2.25,17.25,2.25Q17.323900000000002,2.25,17.3963,2.264411Q17.4688,2.278822,17.537,2.30709Q17.6053,2.335359,17.6667,2.376398Q17.728099999999998,2.417437,17.7803,2.46967Q17.8326,2.521903,17.8736,2.583322Q17.9146,2.644742,17.9429,2.712987Q17.9712,2.781233,17.985599999999998,2.853682Q18,2.9261315,18,3L18,5.25Q18,5.323869999999999,17.985599999999998,5.396319999999999Q17.9712,5.46877,17.9429,5.53701Q17.9146,5.6052599999999995,17.8736,5.6666799999999995Q17.8326,5.7280999999999995,17.7803,5.78033Q17.728099999999998,5.83256,17.6667,5.8736Q17.6053,5.91464,17.537,5.9429099999999995Q17.4688,5.97118,17.3963,5.98559Q17.323900000000002,6,17.25,6Q17.176099999999998,6,17.1037,5.98559Q17.0312,5.97118,16.963,5.9429099999999995Q16.8947,5.91464,16.8333,5.8736Q16.771900000000002,5.83256,16.7197,5.78033Q16.6674,5.7280999999999995,16.6264,5.6666799999999995Q16.5854,5.6052599999999995,16.5571,5.53701Q16.5288,5.46877,16.514400000000002,5.396319999999999Q16.5,5.323869999999999,16.5,5.25ZM6,5.25L6,3Q6,2.9261315,6.01441,2.853682Q6.02882,2.781233,6.0570900000000005,2.712987Q6.08536,2.644742,6.1264,2.583322Q6.16744,2.521903,6.21967,2.46967Q6.2719000000000005,2.417437,6.3333200000000005,2.376398Q6.3947400000000005,2.335359,6.46299,2.30709Q6.53123,2.278822,6.603680000000001,2.264411Q6.676130000000001,2.25,6.75,2.25Q6.823869999999999,2.25,6.896319999999999,2.264411Q6.96877,2.278822,7.03701,2.30709Q7.10526,2.335359,7.16668,2.376398Q7.2281,2.417437,7.28033,2.46967Q7.33256,2.521903,7.3736,2.583322Q7.41464,2.644742,7.44291,2.712987Q7.47118,2.781233,7.48559,2.853682Q7.5,2.9261315,7.5,3L7.5,5.25Q7.5,5.323869999999999,7.48559,5.396319999999999Q7.47118,5.46877,7.44291,5.53701Q7.41464,5.6052599999999995,7.3736,5.6666799999999995Q7.33256,5.7280999999999995,7.28033,5.78033Q7.2281,5.83256,7.16668,5.8736Q7.10526,5.91464,7.03701,5.9429099999999995Q6.96877,5.97118,6.896319999999999,5.98559Q6.823869999999999,6,6.75,6Q6.676130000000001,6,6.603680000000001,5.98559Q6.53123,5.97118,6.46299,5.9429099999999995Q6.3947400000000005,5.91464,6.3333200000000005,5.8736Q6.2719000000000005,5.83256,6.21967,5.78033Q6.16744,5.7280999999999995,6.1264,5.6666799999999995Q6.08536,5.6052599999999995,6.0570900000000005,5.53701Q6.02882,5.46877,6.01441,5.396319999999999Q6,5.323869999999999,6,5.25ZM15.75,15.008L15.75,15Q15.75,14.9261,15.7644,14.8537Q15.7788,14.7812,15.8071,14.713Q15.8354,14.6447,15.8764,14.5833Q15.9174,14.5219,15.9697,14.4697Q16.021900000000002,14.4174,16.0833,14.3764Q16.1447,14.3354,16.213,14.3071Q16.2812,14.2788,16.3537,14.2644Q16.426099999999998,14.25,16.5,14.25L16.508,14.25Q16.581899999999997,14.25,16.6543,14.2644Q16.7268,14.2788,16.795,14.3071Q16.863300000000002,14.3354,16.9247,14.3764Q16.9861,14.4174,17.0383,14.4697Q17.090600000000002,14.5219,17.1316,14.5833Q17.1726,14.6447,17.2009,14.713Q17.2292,14.7812,17.2436,14.8537Q17.258,14.9261,17.258,15L17.258,15.008Q17.258,15.0819,17.2436,15.1543Q17.2292,15.2268,17.2009,15.295Q17.1726,15.3633,17.1316,15.4247Q17.090600000000002,15.4861,17.0383,15.5383Q16.9861,15.5906,16.9247,15.6316Q16.863300000000002,15.6726,16.795,15.7009Q16.7268,15.7292,16.6543,15.7436Q16.581899999999997,15.758,16.508,15.758L16.5,15.758Q16.426099999999998,15.758,16.3537,15.7436Q16.2812,15.7292,16.213,15.7009Q16.1447,15.6726,16.0833,15.6316Q16.021900000000002,15.5906,15.9697,15.5383Q15.9174,15.4861,15.8764,15.4247Q15.8354,15.3633,15.8071,15.295Q15.7788,15.2268,15.7644,15.1543Q15.75,15.0819,15.75,15.008ZM17.25,15.008L16.5,15.008L16.5,14.258L16.508,14.258L16.508,15.008L15.758,15.008L15.758,15L16.508,15L16.508,15.75L16.5,15.75L16.5,15L17.25,15L17.25,15.008ZM15.75,12.758L15.75,12.75Q15.75,12.67613,15.7644,12.60368Q15.7788,12.53123,15.8071,12.46299Q15.8354,12.39474,15.8764,12.33332Q15.9174,12.2719,15.9697,12.21967Q16.021900000000002,12.16744,16.0833,12.1264Q16.1447,12.08536,16.213,12.05709Q16.2812,12.02882,16.3537,12.01441Q16.426099999999998,12,16.5,12L16.508,12Q16.581899999999997,12,16.6543,12.01441Q16.7268,12.02882,16.795,12.05709Q16.863300000000002,12.08536,16.9247,12.1264Q16.9861,12.16744,17.0383,12.21967Q17.090600000000002,12.2719,17.1316,12.33332Q17.1726,12.39474,17.2009,12.46299Q17.2292,12.53123,17.2436,12.60368Q17.258,12.67613,17.258,12.75L17.258,12.758Q17.258,12.83187,17.2436,12.90432Q17.2292,12.97677,17.2009,13.045Q17.1726,13.1133,17.1316,13.1747Q17.090600000000002,13.2361,17.0383,13.2883Q16.9861,13.3406,16.9247,13.3816Q16.863300000000002,13.4226,16.795,13.4509Q16.7268,13.4792,16.6543,13.4936Q16.581899999999997,13.508,16.508,13.508L16.5,13.508Q16.426099999999998,13.508,16.3537,13.4936Q16.2812,13.4792,16.213,13.4509Q16.1447,13.4226,16.0833,13.3816Q16.021900000000002,13.3406,15.9697,13.2883Q15.9174,13.2361,15.8764,13.1747Q15.8354,13.1133,15.8071,13.045Q15.7788,12.97677,15.7644,12.90432Q15.75,12.83187,15.75,12.758ZM17.25,12.758L16.5,12.758L16.5,12.008L16.508,12.008L16.508,12.758L15.758,12.758L15.758,12.75L16.508,12.75L16.508,13.5L16.5,13.5L16.5,12.75L17.25,12.75L17.25,12.758ZM13.5,17.258L13.5,17.25Q13.5,17.176099999999998,13.5144,17.1037Q13.5288,17.0312,13.5571,16.963Q13.5854,16.8947,13.6264,16.8333Q13.6674,16.771900000000002,13.7197,16.7197Q13.7719,16.6674,13.8333,16.6264Q13.8947,16.5854,13.963,16.5571Q14.0312,16.5288,14.1037,16.514400000000002Q14.1761,16.5,14.25,16.5L14.258,16.5Q14.3319,16.5,14.4043,16.514400000000002Q14.4768,16.5288,14.545,16.5571Q14.6133,16.5854,14.6747,16.6264Q14.7361,16.6674,14.7883,16.7197Q14.8406,16.771900000000002,14.8816,16.8333Q14.9226,16.8947,14.9509,16.963Q14.9792,17.0312,14.9936,17.1037Q15.008,17.176099999999998,15.008,17.25L15.008,17.258Q15.008,17.331899999999997,14.9936,17.4043Q14.9792,17.4768,14.9509,17.545Q14.9226,17.613300000000002,14.8816,17.6747Q14.8406,17.7361,14.7883,17.7883Q14.7361,17.840600000000002,14.6747,17.8816Q14.6133,17.9226,14.545,17.9509Q14.4768,17.9792,14.4043,17.9936Q14.3319,18.008,14.258,18.008L14.25,18.008Q14.1761,18.008,14.1037,17.9936Q14.0312,17.9792,13.963,17.9509Q13.8947,17.9226,13.8333,17.8816Q13.7719,17.840600000000002,13.7197,17.7883Q13.6674,17.7361,13.6264,17.6747Q13.5854,17.613300000000002,13.5571,17.545Q13.5288,17.4768,13.5144,17.4043Q13.5,17.331899999999997,13.5,17.258ZM15,17.258L14.25,17.258L14.25,16.508L14.258,16.508L14.258,17.258L13.508,17.258L13.508,17.25L14.258,17.25L14.258,18L14.25,18L14.25,17.25L15,17.25L15,17.258ZM13.5,15.008L13.5,15Q13.5,14.9261,13.5144,14.8537Q13.5288,14.7812,13.5571,14.713Q13.5854,14.6447,13.6264,14.5833Q13.6674,14.5219,13.7197,14.4697Q13.7719,14.4174,13.8333,14.3764Q13.8947,14.3354,13.963,14.3071Q14.0312,14.2788,14.1037,14.2644Q14.1761,14.25,14.25,14.25L14.258,14.25Q14.3319,14.25,14.4043,14.2644Q14.4768,14.2788,14.545,14.3071Q14.6133,14.3354,14.6747,14.3764Q14.7361,14.4174,14.7883,14.4697Q14.8406,14.5219,14.8816,14.5833Q14.9226,14.6447,14.9509,14.713Q14.9792,14.7812,14.9936,14.8537Q15.008,14.9261,15.008,15L15.008,15.008Q15.008,15.0819,14.9936,15.1543Q14.9792,15.2268,14.9509,15.295Q14.9226,15.3633,14.8816,15.4247Q14.8406,15.4861,14.7883,15.5383Q14.7361,15.5906,14.6747,15.6316Q14.6133,15.6726,14.545,15.7009Q14.4768,15.7292,14.4043,15.7436Q14.3319,15.758,14.258,15.758L14.25,15.758Q14.1761,15.758,14.1037,15.7436Q14.0312,15.7292,13.963,15.7009Q13.8947,15.6726,13.8333,15.6316Q13.7719,15.5906,13.7197,15.5383Q13.6674,15.4861,13.6264,15.4247Q13.5854,15.3633,13.5571,15.295Q13.5288,15.2268,13.5144,15.1543Q13.5,15.0819,13.5,15.008ZM15,15.008L14.25,15.008L14.25,14.258L14.258,14.258L14.258,15.008L13.508,15.008L13.508,15L14.258,15L14.258,15.75L14.25,15.75L14.25,15L15,15L15,15.008ZM13.5,12.758L13.5,12.75Q13.5,12.67613,13.5144,12.60368Q13.5288,12.53123,13.5571,12.46299Q13.5854,12.39474,13.6264,12.33332Q13.6674,12.2719,13.7197,12.21967Q13.7719,12.16744,13.8333,12.1264Q13.8947,12.08536,13.963,12.05709Q14.0312,12.02882,14.1037,12.01441Q14.1761,12,14.25,12L14.258,12Q14.3319,12,14.4043,12.01441Q14.4768,12.02882,14.545,12.05709Q14.6133,12.08536,14.6747,12.1264Q14.7361,12.16744,14.7883,12.21967Q14.8406,12.2719,14.8816,12.33332Q14.9226,12.39474,14.9509,12.46299Q14.9792,12.53123,14.9936,12.60368Q15.008,12.67613,15.008,12.75L15.008,12.758Q15.008,12.83187,14.9936,12.90432Q14.9792,12.97677,14.9509,13.045Q14.9226,13.1133,14.8816,13.1747Q14.8406,13.2361,14.7883,13.2883Q14.7361,13.3406,14.6747,13.3816Q14.6133,13.4226,14.545,13.4509Q14.4768,13.4792,14.4043,13.4936Q14.3319,13.508,14.258,13.508L14.25,13.508Q14.1761,13.508,14.1037,13.4936Q14.0312,13.4792,13.963,13.4509Q13.8947,13.4226,13.8333,13.3816Q13.7719,13.3406,13.7197,13.2883Q13.6674,13.2361,13.6264,13.1747Q13.5854,13.1133,13.5571,13.045Q13.5288,12.97677,13.5144,12.90432Q13.5,12.83187,13.5,12.758ZM15,12.758L14.25,12.758L14.25,12.008L14.258,12.008L14.258,12.758L13.508,12.758L13.508,12.75L14.258,12.75L14.258,13.5L14.25,13.5L14.25,12.75L15,12.75L15,12.758ZM6.75,17.258L6.75,17.25Q6.75,17.176099999999998,6.76441,17.1037Q6.77882,17.0312,6.8070900000000005,16.963Q6.83536,16.8947,6.8764,16.8333Q6.91744,16.771900000000002,6.96967,16.7197Q7.0219,16.6674,7.08332,16.6264Q7.14474,16.5854,7.21299,16.5571Q7.28123,16.5288,7.35368,16.514400000000002Q7.42613,16.5,7.5,16.5L7.508,16.5Q7.58187,16.5,7.65432,16.514400000000002Q7.72677,16.5288,7.79501,16.5571Q7.86326,16.5854,7.92468,16.6264Q7.9861,16.6674,8.03833,16.7197Q8.09056,16.771900000000002,8.131599999999999,16.8333Q8.172640000000001,16.8947,8.20091,16.963Q8.22918,17.0312,8.243590000000001,17.1037Q8.258,17.176099999999998,8.258,17.25L8.258,17.258Q8.258,17.331899999999997,8.243590000000001,17.4043Q8.22918,17.4768,8.20091,17.545Q8.172640000000001,17.613300000000002,8.131599999999999,17.6747Q8.09056,17.7361,8.03833,17.7883Q7.9861,17.840600000000002,7.92468,17.8816Q7.86326,17.9226,7.79501,17.9509Q7.72677,17.9792,7.65432,17.9936Q7.58187,18.008,7.508,18.008L7.5,18.008Q7.42613,18.008,7.35368,17.9936Q7.28123,17.9792,7.21299,17.9509Q7.14474,17.9226,7.08332,17.8816Q7.0219,17.840600000000002,6.96967,17.7883Q6.91744,17.7361,6.8764,17.6747Q6.83536,17.613300000000002,6.8070900000000005,17.545Q6.77882,17.4768,6.76441,17.4043Q6.75,17.331899999999997,6.75,17.258ZM8.25,17.258L7.5,17.258L7.5,16.508L7.508,16.508L7.508,17.258L6.758,17.258L6.758,17.25L7.508,17.25L7.508,18L7.5,18L7.5,17.25L8.25,17.25L8.25,17.258ZM6.75,15.008L6.75,15Q6.75,14.9261,6.76441,14.8537Q6.77882,14.7812,6.8070900000000005,14.713Q6.83536,14.6447,6.8764,14.5833Q6.91744,14.5219,6.96967,14.4697Q7.0219,14.4174,7.08332,14.3764Q7.14474,14.3354,7.21299,14.3071Q7.28123,14.2788,7.35368,14.2644Q7.42613,14.25,7.5,14.25L7.508,14.25Q7.58187,14.25,7.65432,14.2644Q7.72677,14.2788,7.79501,14.3071Q7.86326,14.3354,7.92468,14.3764Q7.9861,14.4174,8.03833,14.4697Q8.09056,14.5219,8.131599999999999,14.5833Q8.172640000000001,14.6447,8.20091,14.713Q8.22918,14.7812,8.243590000000001,14.8537Q8.258,14.9261,8.258,15L8.258,15.008Q8.258,15.0819,8.243590000000001,15.1543Q8.22918,15.2268,8.20091,15.295Q8.172640000000001,15.3633,8.131599999999999,15.4247Q8.09056,15.4861,8.03833,15.5383Q7.9861,15.5906,7.92468,15.6316Q7.86326,15.6726,7.79501,15.7009Q7.72677,15.7292,7.65432,15.7436Q7.58187,15.758,7.508,15.758L7.5,15.758Q7.42613,15.758,7.35368,15.7436Q7.28123,15.7292,7.21299,15.7009Q7.14474,15.6726,7.08332,15.6316Q7.0219,15.5906,6.96967,15.5383Q6.91744,15.4861,6.8764,15.4247Q6.83536,15.3633,6.8070900000000005,15.295Q6.77882,15.2268,6.76441,15.1543Q6.75,15.0819,6.75,15.008ZM8.25,15.008L7.5,15.008L7.5,14.258L7.508,14.258L7.508,15.008L6.758,15.008L6.758,15L7.508,15L7.508,15.75L7.5,15.75L7.5,15L8.25,15L8.25,15.008ZM9,17.258L9,17.25Q9,17.176099999999998,9.01441,17.1037Q9.02882,17.0312,9.057089999999999,16.963Q9.08536,16.8947,9.1264,16.8333Q9.16744,16.771900000000002,9.21967,16.7197Q9.271899999999999,16.6674,9.33332,16.6264Q9.394739999999999,16.5854,9.46299,16.5571Q9.53123,16.5288,9.60368,16.514400000000002Q9.67613,16.5,9.75,16.5L9.758,16.5Q9.83187,16.5,9.90432,16.514400000000002Q9.97677,16.5288,10.045010000000001,16.5571Q10.11326,16.5854,10.17468,16.6264Q10.2361,16.6674,10.28833,16.7197Q10.34056,16.771900000000002,10.381599999999999,16.8333Q10.422640000000001,16.8947,10.45091,16.963Q10.47918,17.0312,10.493590000000001,17.1037Q10.508,17.176099999999998,10.508,17.25L10.508,17.258Q10.508,17.331899999999997,10.493590000000001,17.4043Q10.47918,17.4768,10.45091,17.545Q10.422640000000001,17.613300000000002,10.381599999999999,17.6747Q10.34056,17.7361,10.28833,17.7883Q10.2361,17.840600000000002,10.17468,17.8816Q10.11326,17.9226,10.045010000000001,17.9509Q9.97677,17.9792,9.90432,17.9936Q9.83187,18.008,9.758,18.008L9.75,18.008Q9.67613,18.008,9.60368,17.9936Q9.53123,17.9792,9.46299,17.9509Q9.394739999999999,17.9226,9.33332,17.8816Q9.271899999999999,17.840600000000002,9.21967,17.7883Q9.16744,17.7361,9.1264,17.6747Q9.08536,17.613300000000002,9.057089999999999,17.545Q9.02882,17.4768,9.01441,17.4043Q9,17.331899999999997,9,17.258ZM10.5,17.258L9.75,17.258L9.75,16.508L9.758,16.508L9.758,17.258L9.008,17.258L9.008,17.25L9.758,17.25L9.758,18L9.75,18L9.75,17.25L10.5,17.25L10.5,17.258ZM9,15.008L9,15Q9,14.9261,9.01441,14.8537Q9.02882,14.7812,9.057089999999999,14.713Q9.08536,14.6447,9.1264,14.5833Q9.16744,14.5219,9.21967,14.4697Q9.271899999999999,14.4174,9.33332,14.3764Q9.394739999999999,14.3354,9.46299,14.3071Q9.53123,14.2788,9.60368,14.2644Q9.67613,14.25,9.75,14.25L9.758,14.25Q9.83187,14.25,9.90432,14.2644Q9.97677,14.2788,10.045010000000001,14.3071Q10.11326,14.3354,10.17468,14.3764Q10.2361,14.4174,10.28833,14.4697Q10.34056,14.5219,10.381599999999999,14.5833Q10.422640000000001,14.6447,10.45091,14.713Q10.47918,14.7812,10.493590000000001,14.8537Q10.508,14.9261,10.508,15L10.508,15.008Q10.508,15.0819,10.493590000000001,15.1543Q10.47918,15.2268,10.45091,15.295Q10.422640000000001,15.3633,10.381599999999999,15.4247Q10.34056,15.4861,10.28833,15.5383Q10.2361,15.5906,10.17468,15.6316Q10.11326,15.6726,10.045010000000001,15.7009Q9.97677,15.7292,9.90432,15.7436Q9.83187,15.758,9.758,15.758L9.75,15.758Q9.67613,15.758,9.60368,15.7436Q9.53123,15.7292,9.46299,15.7009Q9.394739999999999,15.6726,9.33332,15.6316Q9.271899999999999,15.5906,9.21967,15.5383Q9.16744,15.4861,9.1264,15.4247Q9.08536,15.3633,9.057089999999999,15.295Q9.02882,15.2268,9.01441,15.1543Q9,15.0819,9,15.008ZM10.5,15.008L9.75,15.008L9.75,14.258L9.758,14.258L9.758,15.008L9.008,15.008L9.008,15L9.758,15L9.758,15.75L9.75,15.75L9.75,15L10.5,15L10.5,15.008ZM11.25,17.258L11.25,17.25Q11.25,17.176099999999998,11.26441,17.1037Q11.27882,17.0312,11.30709,16.963Q11.33536,16.8947,11.3764,16.8333Q11.41744,16.771900000000002,11.46967,16.7197Q11.5219,16.6674,11.58332,16.6264Q11.64474,16.5854,11.71299,16.5571Q11.78123,16.5288,11.85368,16.514400000000002Q11.92613,16.5,12,16.5L12.008,16.5Q12.08187,16.5,12.15432,16.514400000000002Q12.22677,16.5288,12.29501,16.5571Q12.36326,16.5854,12.42468,16.6264Q12.4861,16.6674,12.53833,16.7197Q12.59056,16.771900000000002,12.6316,16.8333Q12.67264,16.8947,12.70091,16.963Q12.72918,17.0312,12.74359,17.1037Q12.758,17.176099999999998,12.758,17.25L12.758,17.258Q12.758,17.331899999999997,12.74359,17.4043Q12.72918,17.4768,12.70091,17.545Q12.67264,17.613300000000002,12.6316,17.6747Q12.59056,17.7361,12.53833,17.7883Q12.4861,17.840600000000002,12.42468,17.8816Q12.36326,17.9226,12.29501,17.9509Q12.22677,17.9792,12.15432,17.9936Q12.08187,18.008,12.008,18.008L12,18.008Q11.92613,18.008,11.85368,17.9936Q11.78123,17.9792,11.71299,17.9509Q11.64474,17.9226,11.58332,17.8816Q11.5219,17.840600000000002,11.46967,17.7883Q11.41744,17.7361,11.3764,17.6747Q11.33536,17.613300000000002,11.30709,17.545Q11.27882,17.4768,11.26441,17.4043Q11.25,17.331899999999997,11.25,17.258ZM12.75,17.258L12,17.258L12,16.508L12.008,16.508L12.008,17.258L11.258,17.258L11.258,17.25L12.008,17.25L12.008,18L12,18L12,17.25L12.75,17.25L12.75,17.258ZM11.25,15.008L11.25,15Q11.25,14.9261,11.26441,14.8537Q11.27882,14.7812,11.30709,14.713Q11.33536,14.6447,11.3764,14.5833Q11.41744,14.5219,11.46967,14.4697Q11.5219,14.4174,11.58332,14.3764Q11.64474,14.3354,11.71299,14.3071Q11.78123,14.2788,11.85368,14.2644Q11.92613,14.25,12,14.25L12.008,14.25Q12.08187,14.25,12.15432,14.2644Q12.22677,14.2788,12.29501,14.3071Q12.36326,14.3354,12.42468,14.3764Q12.4861,14.4174,12.53833,14.4697Q12.59056,14.5219,12.6316,14.5833Q12.67264,14.6447,12.70091,14.713Q12.72918,14.7812,12.74359,14.8537Q12.758,14.9261,12.758,15L12.758,15.008Q12.758,15.0819,12.74359,15.1543Q12.72918,15.2268,12.70091,15.295Q12.67264,15.3633,12.6316,15.4247Q12.59056,15.4861,12.53833,15.5383Q12.4861,15.5906,12.42468,15.6316Q12.36326,15.6726,12.29501,15.7009Q12.22677,15.7292,12.15432,15.7436Q12.08187,15.758,12.008,15.758L12,15.758Q11.92613,15.758,11.85368,15.7436Q11.78123,15.7292,11.71299,15.7009Q11.64474,15.6726,11.58332,15.6316Q11.5219,15.5906,11.46967,15.5383Q11.41744,15.4861,11.3764,15.4247Q11.33536,15.3633,11.30709,15.295Q11.27882,15.2268,11.26441,15.1543Q11.25,15.0819,11.25,15.008ZM12.75,15.008L12,15.008L12,14.258L12.008,14.258L12.008,15.008L11.258,15.008L11.258,15L12.008,15L12.008,15.75L12,15.75L12,15L12.75,15L12.75,15.008ZM11.25,12.758L11.25,12.75Q11.25,12.67613,11.26441,12.60368Q11.27882,12.53123,11.30709,12.46299Q11.33536,12.39474,11.3764,12.33332Q11.41744,12.2719,11.46967,12.21967Q11.5219,12.16744,11.58332,12.1264Q11.64474,12.08536,11.71299,12.05709Q11.78123,12.02882,11.85368,12.01441Q11.92613,12,12,12L12.008,12Q12.08187,12,12.15432,12.01441Q12.22677,12.02882,12.29501,12.05709Q12.36326,12.08536,12.42468,12.1264Q12.4861,12.16744,12.53833,12.21967Q12.59056,12.2719,12.6316,12.33332Q12.67264,12.39474,12.70091,12.46299Q12.72918,12.53123,12.74359,12.60368Q12.758,12.67613,12.758,12.75L12.758,12.758Q12.758,12.83187,12.74359,12.90432Q12.72918,12.97677,12.70091,13.045Q12.67264,13.1133,12.6316,13.1747Q12.59056,13.2361,12.53833,13.2883Q12.4861,13.3406,12.42468,13.3816Q12.36326,13.4226,12.29501,13.4509Q12.22677,13.4792,12.15432,13.4936Q12.08187,13.508,12.008,13.508L12,13.508Q11.92613,13.508,11.85368,13.4936Q11.78123,13.4792,11.71299,13.4509Q11.64474,13.4226,11.58332,13.3816Q11.5219,13.3406,11.46967,13.2883Q11.41744,13.2361,11.3764,13.1747Q11.33536,13.1133,11.30709,13.045Q11.27882,12.97677,11.26441,12.90432Q11.25,12.83187,11.25,12.758ZM12.75,12.758L12,12.758L12,12.008L12.008,12.008L12.008,12.758L11.258,12.758L11.258,12.75L12.008,12.75L12.008,13.5L12,13.5L12,12.75L12.75,12.75L12.75,12.758ZM3.75,18.75Q3.75,18.823900000000002,3.735589,18.8963Q3.721178,18.9688,3.69291,19.037Q3.664641,19.1053,3.623602,19.1667Q3.582563,19.2281,3.53033,19.2803Q3.478097,19.3326,3.416678,19.3736Q3.355258,19.4146,3.287013,19.4429Q3.218767,19.4712,3.146318,19.4856Q3.0738685,19.5,3,19.5Q2.9261315,19.5,2.853682,19.4856Q2.781233,19.4712,2.712987,19.4429Q2.644742,19.4146,2.583322,19.3736Q2.521903,19.3326,2.46967,19.2803Q2.417437,19.2281,2.376398,19.1667Q2.335359,19.1053,2.30709,19.037Q2.278822,18.9688,2.264411,18.8963Q2.25,18.823900000000002,2.25,18.75Q2.25,18.676099999999998,2.264411,18.6037Q2.278822,18.5312,2.30709,18.463Q2.335359,18.3947,2.376398,18.3333Q2.417437,18.271900000000002,2.46967,18.2197Q2.521903,18.1674,2.583322,18.1264Q2.644742,18.0854,2.712987,18.0571Q2.781233,18.0288,2.853682,18.014400000000002Q2.9261315,18,3,18Q3.0738685,18,3.146318,18.014400000000002Q3.218767,18.0288,3.287013,18.0571Q3.355258,18.0854,3.416678,18.1264Q3.478097,18.1674,3.53033,18.2197Q3.582563,18.271900000000002,3.623602,18.3333Q3.664641,18.3947,3.69291,18.463Q3.721178,18.5312,3.735589,18.6037Q3.75,18.676099999999998,3.75,18.75ZM3.75,18.75Q3.75,18.823900000000002,3.735589,18.8963Q3.721178,18.9688,3.69291,19.037Q3.664641,19.1053,3.623602,19.1667Q3.582563,19.2281,3.53033,19.2803Q3.478097,19.3326,3.416678,19.3736Q3.355258,19.4146,3.287013,19.4429Q3.218767,19.4712,3.146318,19.4856Q3.0738685,19.5,3,19.5Q2.9261315,19.5,2.853682,19.4856Q2.781233,19.4712,2.712987,19.4429Q2.644742,19.4146,2.583322,19.3736Q2.521903,19.3326,2.46967,19.2803Q2.417437,19.2281,2.376398,19.1667Q2.335359,19.1053,2.30709,19.037Q2.278822,18.9688,2.264411,18.8963Q2.25,18.823900000000002,2.25,18.75Q2.25,18.676099999999998,2.264411,18.6037Q2.278822,18.5312,2.30709,18.463Q2.335359,18.3947,2.376398,18.3333Q2.417437,18.271900000000002,2.46967,18.2197Q2.521903,18.1674,2.583322,18.1264Q2.644742,18.0854,2.712987,18.0571Q2.781233,18.0288,2.853682,18.014400000000002Q2.9261315,18,3,18Q3.0738685,18,3.146318,18.014400000000002Q3.218767,18.0288,3.287013,18.0571Q3.355258,18.0854,3.416678,18.1264Q3.478097,18.1674,3.53033,18.2197Q3.582563,18.271900000000002,3.623602,18.3333Q3.664641,18.3947,3.69291,18.463Q3.721178,18.5312,3.735589,18.6037Q3.75,18.676099999999998,3.75,18.75ZM18,5.25Q18,5.323869999999999,17.985599999999998,5.396319999999999Q17.9712,5.46877,17.9429,5.53701Q17.9146,5.6052599999999995,17.8736,5.6666799999999995Q17.8326,5.7280999999999995,17.7803,5.78033Q17.728099999999998,5.83256,17.6667,5.8736Q17.6053,5.91464,17.537,5.9429099999999995Q17.4688,5.97118,17.3963,5.98559Q17.323900000000002,6,17.25,6Q17.176099999999998,6,17.1037,5.98559Q17.0312,5.97118,16.963,5.9429099999999995Q16.8947,5.91464,16.8333,5.8736Q16.771900000000002,5.83256,16.7197,5.78033Q16.6674,5.7280999999999995,16.6264,5.6666799999999995Q16.5854,5.6052599999999995,16.5571,5.53701Q16.5288,5.46877,16.514400000000002,5.396319999999999Q16.5,5.323869999999999,16.5,5.25Q16.5,5.176130000000001,16.514400000000002,5.103680000000001Q16.5288,5.03123,16.5571,4.96299Q16.5854,4.8947400000000005,16.6264,4.8333200000000005Q16.6674,4.7719000000000005,16.7197,4.71967Q16.771900000000002,4.66744,16.8333,4.6264Q16.8947,4.58536,16.963,4.5570900000000005Q17.0312,4.52882,17.1037,4.51441Q17.176099999999998,4.5,17.25,4.5Q17.323900000000002,4.5,17.3963,4.51441Q17.4688,4.52882,17.537,4.5570900000000005Q17.6053,4.58536,17.6667,4.6264Q17.728099999999998,4.66744,17.7803,4.71967Q17.8326,4.7719000000000005,17.8736,4.8333200000000005Q17.9146,4.8947400000000005,17.9429,4.96299Q17.9712,5.03123,17.985599999999998,5.103680000000001Q18,5.176130000000001,18,5.25ZM3.75,18.75Q3.75,18.823900000000002,3.735589,18.8963Q3.721178,18.9688,3.69291,19.037Q3.664641,19.1053,3.623602,19.1667Q3.582563,19.2281,3.53033,19.2803Q3.478097,19.3326,3.416678,19.3736Q3.355258,19.4146,3.287013,19.4429Q3.218767,19.4712,3.146318,19.4856Q3.0738685,19.5,3,19.5Q2.9261315,19.5,2.853682,19.4856Q2.781233,19.4712,2.712987,19.4429Q2.644742,19.4146,2.583322,19.3736Q2.521903,19.3326,2.46967,19.2803Q2.417437,19.2281,2.376398,19.1667Q2.335359,19.1053,2.30709,19.037Q2.278822,18.9688,2.264411,18.8963Q2.25,18.823900000000002,2.25,18.75Q2.25,18.676099999999998,2.264411,18.6037Q2.278822,18.5312,2.30709,18.463Q2.335359,18.3947,2.376398,18.3333Q2.417437,18.271900000000002,2.46967,18.2197Q2.521903,18.1674,2.583322,18.1264Q2.644742,18.0854,2.712987,18.0571Q2.781233,18.0288,2.853682,18.014400000000002Q2.9261315,18,3,18Q3.0738685,18,3.146318,18.014400000000002Q3.218767,18.0288,3.287013,18.0571Q3.355258,18.0854,3.416678,18.1264Q3.478097,18.1674,3.53033,18.2197Q3.582563,18.271900000000002,3.623602,18.3333Q3.664641,18.3947,3.69291,18.463Q3.721178,18.5312,3.735589,18.6037Q3.75,18.676099999999998,3.75,18.75ZM18,3Q18,3.0738685,17.985599999999998,3.146318Q17.9712,3.218767,17.9429,3.287013Q17.9146,3.355258,17.8736,3.416678Q17.8326,3.478097,17.7803,3.53033Q17.728099999999998,3.582563,17.6667,3.623602Q17.6053,3.664641,17.537,3.69291Q17.4688,3.721178,17.3963,3.735589Q17.323900000000002,3.75,17.25,3.75Q17.176099999999998,3.75,17.1037,3.735589Q17.0312,3.721178,16.963,3.69291Q16.8947,3.664641,16.8333,3.623602Q16.771900000000002,3.582563,16.7197,3.53033Q16.6674,3.478097,16.6264,3.416678Q16.5854,3.355258,16.5571,3.287013Q16.5288,3.218767,16.514400000000002,3.146318Q16.5,3.0738685,16.5,3Q16.5,2.9261315,16.514400000000002,2.853682Q16.5288,2.781233,16.5571,2.712987Q16.5854,2.644742,16.6264,2.583322Q16.6674,2.521903,16.7197,2.46967Q16.771900000000002,2.417437,16.8333,2.376398Q16.8947,2.335359,16.963,2.30709Q17.0312,2.278822,17.1037,2.264411Q17.176099999999998,2.25,17.25,2.25Q17.323900000000002,2.25,17.3963,2.264411Q17.4688,2.278822,17.537,2.30709Q17.6053,2.335359,17.6667,2.376398Q17.728099999999998,2.417437,17.7803,2.46967Q17.8326,2.521903,17.8736,2.583322Q17.9146,2.644742,17.9429,2.712987Q17.9712,2.781233,17.985599999999998,2.853682Q18,2.9261315,18,3ZM7.5,5.25Q7.5,5.323869999999999,7.48559,5.396319999999999Q7.47118,5.46877,7.44291,5.53701Q7.41464,5.6052599999999995,7.3736,5.6666799999999995Q7.33256,5.7280999999999995,7.28033,5.78033Q7.2281,5.83256,7.16668,5.8736Q7.10526,5.91464,7.03701,5.9429099999999995Q6.96877,5.97118,6.896319999999999,5.98559Q6.823869999999999,6,6.75,6Q6.676130000000001,6,6.603680000000001,5.98559Q6.53123,5.97118,6.46299,5.9429099999999995Q6.3947400000000005,5.91464,6.3333200000000005,5.8736Q6.2719000000000005,5.83256,6.21967,5.78033Q6.16744,5.7280999999999995,6.1264,5.6666799999999995Q6.08536,5.6052599999999995,6.0570900000000005,5.53701Q6.02882,5.46877,6.01441,5.396319999999999Q6,5.323869999999999,6,5.25Q6,5.176130000000001,6.01441,5.103680000000001Q6.02882,5.03123,6.0570900000000005,4.96299Q6.08536,4.8947400000000005,6.1264,4.8333200000000005Q6.16744,4.7719000000000005,6.21967,4.71967Q6.2719000000000005,4.66744,6.3333200000000005,4.6264Q6.3947400000000005,4.58536,6.46299,4.5570900000000005Q6.53123,4.52882,6.603680000000001,4.51441Q6.676130000000001,4.5,6.75,4.5Q6.823869999999999,4.5,6.896319999999999,4.51441Q6.96877,4.52882,7.03701,4.5570900000000005Q7.10526,4.58536,7.16668,4.6264Q7.2281,4.66744,7.28033,4.71967Q7.33256,4.7719000000000005,7.3736,4.8333200000000005Q7.41464,4.8947400000000005,7.44291,4.96299Q7.47118,5.03123,7.48559,5.103680000000001Q7.5,5.176130000000001,7.5,5.25ZM7.5,3Q7.5,3.0738685,7.48559,3.146318Q7.47118,3.218767,7.44291,3.287013Q7.41464,3.355258,7.3736,3.416678Q7.33256,3.478097,7.28033,3.53033Q7.2281,3.582563,7.16668,3.623602Q7.10526,3.664641,7.03701,3.69291Q6.96877,3.721178,6.896319999999999,3.735589Q6.823869999999999,3.75,6.75,3.75Q6.676130000000001,3.75,6.603680000000001,3.735589Q6.53123,3.721178,6.46299,3.69291Q6.3947400000000005,3.664641,6.3333200000000005,3.623602Q6.2719000000000005,3.582563,6.21967,3.53033Q6.16744,3.478097,6.1264,3.416678Q6.08536,3.355258,6.0570900000000005,3.287013Q6.02882,3.218767,6.01441,3.146318Q6,3.0738685,6,3Q6,2.9261315,6.01441,2.853682Q6.02882,2.781233,6.0570900000000005,2.712987Q6.08536,2.644742,6.1264,2.583322Q6.16744,2.521903,6.21967,2.46967Q6.2719000000000005,2.417437,6.3333200000000005,2.376398Q6.3947400000000005,2.335359,6.46299,2.30709Q6.53123,2.278822,6.603680000000001,2.264411Q6.676130000000001,2.25,6.75,2.25Q6.823869999999999,2.25,6.896319999999999,2.264411Q6.96877,2.278822,7.03701,2.30709Q7.10526,2.335359,7.16668,2.376398Q7.2281,2.417437,7.28033,2.46967Q7.33256,2.521903,7.3736,2.583322Q7.41464,2.644742,7.44291,2.712987Q7.47118,2.781233,7.48559,2.853682Q7.5,2.9261315,7.5,3Z" fill="#000000" fill-opacity="1"/></g></g></svg>