<svg xmlns="http://www.w3.org/2000/svg" xmlns:xlink="http://www.w3.org/1999/xlink" fill="none" version="1.1" width="24" height="24" viewBox="0 0 24 24"><defs><clipPath id="master_svg0_1421_5354"><rect x="0" y="0" width="24" height="24" rx="0"/></clipPath></defs><g clip-path="url(#master_svg0_1421_5354)"><g><path d="M4.804,21.644C5.1987000000000005,21.715,5.59897,21.7505,6,21.75C7.26747,21.7517,8.50959,21.395,9.583,20.721C10.357,20.903,11.167,21,12,21C17.322,21,21.75,17.03,21.75,12C21.75,6.970000000000001,17.322,3,12,3C6.678,3,2.25,6.970000000000001,2.25,12C2.25,14.409,3.275,16.587,4.9239999999999995,18.192C5.156000000000001,18.418,5.2010000000000005,18.619999999999997,5.178,18.735C5.05442,19.3571,4.77426,19.9373,4.364,20.421C4.19065,20.6257,4.13977,20.9073,4.23057,21.1597C4.32136,21.412,4.54,21.5967,4.804,21.644ZM8.25,10.875C7.62868,10.875,7.125,11.37868,7.125,12C7.125,12.62132,7.62868,13.125,8.25,13.125C8.87132,13.125,9.375,12.62132,9.375,12C9.375,11.37868,8.87132,10.875,8.25,10.875ZM10.875,12C10.875,11.37868,11.37868,10.875,12,10.875C12.6213,10.875,13.125,11.37868,13.125,12C13.125,12.62132,12.6213,13.125,12,13.125C11.37868,13.125,10.875,12.62132,10.875,12ZM15.75,10.875C15.1287,10.875,14.625,11.37868,14.625,12C14.625,12.62132,15.1287,13.125,15.75,13.125C16.371299999999998,13.125,16.875,12.62132,16.875,12C16.875,11.37868,16.371299999999998,10.875,15.75,10.875Z" fill-rule="evenodd" fill="#000000" fill-opacity="1"/></g></g></svg>