<svg xmlns="http://www.w3.org/2000/svg" xmlns:xlink="http://www.w3.org/1999/xlink" fill="none" version="1.1" width="24" height="24" viewBox="0 0 24 24"><defs><clipPath id="master_svg0_497_0977"><rect x="0" y="0" width="24" height="24" rx="0"/></clipPath></defs><g clip-path="url(#master_svg0_497_0977)"><g><path d="M10.486854686813354,15.988824925231933Q9.292284686813353,15.418424925231934,8.520004686813355,14.368624925231934Q7.785594686813354,13.370324925231934,7.574354686813354,12.138284925231934Q7.363114686813354,10.906244925231933,7.723034686813355,9.720284925231933Q8.101504686813355,8.473174925231934,9.037854686813354,7.537484925231934L13.537624686813354,3.0376689252319338Q15.075824686813354,1.5009939252319335,17.249724686813355,1.5015249252319336Q19.423624686813355,1.5020559252319337,20.960824686813353,3.0392219252319337Q22.497924686813356,4.576384925231934,22.498524686813354,6.750274925231934Q22.499024686813353,8.924154925231933,20.962624686813353,10.462064925231934L19.205324686813356,12.219324925231934Q19.153124686813353,12.271524925231933,19.091724686813354,12.312624925231933Q19.030224686813355,12.353624925231934,18.962024686813354,12.381924925231933Q18.893724686813353,12.410224925231933,18.821324686813355,12.424624925231933Q18.748824686813354,12.439024925231934,18.675024686813355,12.439024925231934Q18.601124686813353,12.439024925231934,18.528724686813355,12.424624925231933Q18.456224686813353,12.410224925231933,18.388024686813356,12.381924925231933Q18.319724686813355,12.353624925231934,18.258324686813353,12.312624925231933Q18.196924686813354,12.271524925231933,18.144624686813355,12.219324925231934Q18.092424686813352,12.167094925231934,18.051424686813355,12.105674925231934Q18.010324686813355,12.044254925231934,17.982124686813357,11.976014925231933Q17.953824686813356,11.907764925231934,17.939424686813354,11.835314925231934Q17.925024686813355,11.762864925231934,17.925024686813355,11.688994925231933Q17.925024686813355,11.615124925231934,17.939424686813354,11.542674925231934Q17.953824686813356,11.470234925231933,17.982124686813357,11.401984925231934Q18.010324686813355,11.333734925231933,18.051424686813355,11.272324925231933Q18.092424686813352,11.210904925231933,18.144624686813355,11.158664925231934L19.901424686813353,9.401924925231935Q20.998824686813354,8.303414925231934,20.998524686813354,6.7506349252319335Q20.998124686813355,5.197864925231934,19.900124686813353,4.099884925231933Q18.802124686813354,3.0019039252319337,17.249324686813353,3.0015249252319336Q15.696624686813355,3.0011459252319335,14.598324686813354,4.098324925231934L10.098144686813354,8.598514925231934Q8.724664686813355,9.971024925231934,9.052784686813354,11.884804925231933Q9.380904686813356,13.798624925231934,11.133144686813354,14.635224925231933Q11.199804686813355,14.667024925231933,11.258974686813355,14.711224925231933Q11.318144686813355,14.755424925231933,11.367544686813355,14.810324925231933Q11.416954686813355,14.865324925231933,11.454694686813355,14.928724925231933Q11.492444686813354,14.992224925231934,11.517074686813354,15.061924925231933Q11.541704686813354,15.131524925231934,11.552274686813355,15.204624925231933Q11.562844686813355,15.277724925231933,11.558954686813355,15.351524925231933Q11.555064686813354,15.425324925231934,11.536854686813355,15.496924925231934Q11.518634686813355,15.568524925231934,11.486814686813355,15.635124925231933Q11.454984686813354,15.701824925231934,11.410764686813355,15.760924925231933Q11.366544686813354,15.820124925231934,11.311634686813354,15.869524925231934Q11.256714686813355,15.918924925231934,11.193224686813355,15.956724925231933Q11.129724686813354,15.994424925231934,11.060084686813354,16.019024925231932Q10.990444686813355,16.043724925231935,10.917334686813355,16.05432492523193Q10.844224686813355,16.06482492523193,10.770454686813354,16.060924925231934Q10.696694686813354,16.057024925231936,10.625104686813355,16.038824925231935Q10.553514686813354,16.020624925231935,10.486854686813354,15.988824925231933ZM5.855324686813354,12.841324925231934L4.0983246868133545,14.598324925231934Q3.0011456868133544,15.696624925231934,3.0015246868133545,17.24932492523193Q3.0019036868133546,18.802124925231933,4.099884686813354,19.900124925231932Q5.197864686813355,20.998124925231934,6.750634686813354,20.998424925231934Q8.303414686813355,20.998824925231933,9.401924686813356,19.901424925231932L13.901624686813355,15.401624925231934Q15.275324686813354,14.029024925231933,14.947224686813355,12.115194925231934Q14.619124686813354,10.201414925231933,12.866824686813354,9.364814925231933Q12.800224686813355,9.332984925231933,12.741024686813354,9.288764925231934Q12.681824686813355,9.244544925231933,12.632424686813355,9.189634925231934Q12.583024686813355,9.134714925231933,12.545324686813354,9.071224925231935Q12.507524686813355,9.007724925231933,12.482924686813355,8.938084925231934Q12.458324686813354,8.868444925231934,12.447724686813354,8.795334925231934Q12.437124686813355,8.722224925231934,12.441024686813355,8.648464925231934Q12.444924686813355,8.574694925231935,12.463124686813355,8.503104925231934Q12.481324686813354,8.431514925231934,12.513224686813354,8.364854925231935Q12.545024686813354,8.298194925231932,12.589224686813354,8.239024925231934Q12.633424686813354,8.179854925231933,12.688324686813354,8.130444925231934Q12.743324686813354,8.081044925231932,12.806824686813355,8.043294925231933Q12.870224686813355,8.005554925231934,12.939924686813354,7.980924925231934Q13.009524686813354,7.9562949252319335,13.082624686813354,7.9457149252319335Q13.155724686813354,7.935144925231934,13.229524686813354,7.939044925231934Q13.303324686813355,7.942934925231934,13.374924686813355,7.961144925231934Q13.446524686813355,7.979354925231934,13.513124686813354,8.011184925231934Q14.707724686813355,8.581524925231934,15.480024686813355,9.631334925231933Q16.214424686813352,10.629664925231934,16.425624686813354,11.861714925231933Q16.636924686813355,13.093724925231934,16.276924686813352,14.279724925231934Q15.898524686813355,15.526824925231933,14.962324686813355,16.462324925231933L10.462074686813354,20.962624925231932Q8.924154686813354,22.499024925231932,6.750274686813355,22.498424925231934Q4.576384686813355,22.497924925231935,3.0392226868133543,20.960824925231933Q1.5020556868133546,19.423624925231934,1.5015246868133545,17.249724925231934Q1.5009936868133544,15.075824925231933,3.0376696868133544,13.537624925231933L4.794664686813355,11.780664925231934Q4.846904686813355,11.728434925231934,4.908324686813355,11.687394925231933Q4.969744686813355,11.646354925231934,5.037984686813354,11.618084925231933Q5.106234686813354,11.589814925231934,5.178684686813355,11.575404925231934Q5.251134686813355,11.560994925231933,5.324994686813355,11.560994925231933Q5.398864686813354,11.560994925231933,5.471314686813354,11.575404925231934Q5.543764686813354,11.589814925231934,5.612014686813355,11.618084925231933Q5.680254686813354,11.646354925231934,5.741674686813354,11.687394925231933Q5.803094686813354,11.728434925231934,5.855324686813354,11.780664925231934Q5.9075646868133544,11.832904925231933,5.948604686813354,11.894324925231933Q5.989644686813355,11.955744925231933,6.017904686813354,12.023984925231934Q6.046174686813354,12.092234925231933,6.060584686813355,12.164674925231933Q6.074994686813355,12.237124925231933,6.074994686813355,12.311024925231933Q6.074994686813355,12.384824925231934,6.060584686813355,12.457324925231934Q6.046174686813354,12.529724925231934,6.017904686813354,12.598024925231934Q5.989644686813355,12.666224925231933,5.948604686813354,12.727624925231934Q5.9075646868133544,12.789124925231933,5.855324686813354,12.841324925231934ZM11.559994686813354,15.312024925231933Q11.559994686813354,15.385824925231933,11.545584686813354,15.458324925231933Q11.531174686813355,15.530724925231933,11.502904686813354,15.599024925231934Q11.474634686813355,15.667224925231933,11.433594686813354,15.728624925231934Q11.392564686813355,15.790124925231934,11.340324686813355,15.842324925231933Q11.288094686813354,15.894524925231934,11.226674686813354,15.935624925231934Q11.165254686813354,15.976624925231933,11.097014686813354,16.004924925231933Q11.028764686813355,16.033224925231934,10.956314686813354,16.047624925231933Q10.883864686813354,16.06202492523193,10.809994686813354,16.06202492523193Q10.736124686813355,16.06202492523193,10.663684686813355,16.047624925231933Q10.591224686813355,16.03312492523193,10.522984686813354,16.004924925231933Q10.454734686813355,15.976624925231933,10.393324686813354,15.935624925231934Q10.331904686813354,15.894524925231934,10.279664686813355,15.842324925231933Q10.227434686813353,15.790124925231934,10.186394686813355,15.728624925231934Q10.145354686813356,15.667224925231933,10.117084686813355,15.599024925231934Q10.088814686813354,15.530724925231933,10.074404686813354,15.458324925231933Q10.059994686813354,15.385824925231933,10.059994686813354,15.312024925231933Q10.059994686813354,15.238124925231933,10.074404686813354,15.165724925231933Q10.088814686813354,15.093224925231933,10.117084686813355,15.025024925231934Q10.145354686813356,14.956724925231933,10.186394686813355,14.895324925231934Q10.227434686813353,14.833924925231933,10.279664686813355,14.781624925231933Q10.331904686813354,14.729424925231934,10.393324686813354,14.688424925231933Q10.454734686813355,14.647324925231933,10.522984686813354,14.619124925231933Q10.591224686813355,14.590824925231933,10.663684686813355,14.576424925231933Q10.736124686813355,14.562024925231933,10.809994686813354,14.562024925231933Q10.883864686813354,14.562024925231933,10.956314686813354,14.576424925231933Q11.028764686813355,14.590824925231933,11.097004686813355,14.619124925231933Q11.165254686813354,14.647324925231933,11.226674686813354,14.688424925231933Q11.288094686813354,14.729424925231934,11.340324686813355,14.781624925231933Q11.392564686813355,14.833924925231933,11.433594686813354,14.895324925231934Q11.474634686813355,14.956724925231933,11.502904686813354,15.025024925231934Q11.531174686813355,15.093224925231933,11.545584686813354,15.165724925231933Q11.559994686813354,15.238124925231933,11.559994686813354,15.312024925231933ZM19.425024686813355,11.688994925231933Q19.425024686813355,11.762864925231934,19.410624686813353,11.835314925231934Q19.396224686813355,11.907764925231934,19.367924686813353,11.976014925231933Q19.339624686813355,12.044254925231934,19.298624686813355,12.105674925231934Q19.257524686813355,12.167094925231934,19.205324686813356,12.219324925231934Q19.153124686813353,12.271524925231933,19.091724686813354,12.312624925231933Q19.030224686813355,12.353624925231934,18.962024686813354,12.381924925231933Q18.893724686813353,12.410224925231933,18.821324686813355,12.424624925231933Q18.748824686813354,12.439024925231934,18.675024686813355,12.439024925231934Q18.601124686813353,12.439024925231934,18.528724686813355,12.424624925231933Q18.456224686813353,12.410224925231933,18.388024686813356,12.381924925231933Q18.319724686813355,12.353624925231934,18.258324686813353,12.312624925231933Q18.196924686813354,12.271524925231933,18.144624686813355,12.219324925231934Q18.092424686813352,12.167094925231934,18.051424686813355,12.105674925231934Q18.010324686813355,12.044254925231934,17.982124686813357,11.976014925231933Q17.953824686813356,11.907764925231934,17.939424686813354,11.835314925231934Q17.925024686813355,11.762864925231934,17.925024686813355,11.688994925231933Q17.925024686813355,11.615124925231934,17.939424686813354,11.542674925231934Q17.953824686813356,11.470234925231933,17.982124686813357,11.401984925231934Q18.010324686813355,11.333734925231933,18.051424686813355,11.272324925231933Q18.092424686813352,11.210904925231933,18.144624686813355,11.158664925231934Q18.196924686813354,11.106434925231934,18.258324686813353,11.065394925231933Q18.319724686813355,11.024354925231934,18.388024686813356,10.996084925231933Q18.456224686813353,10.967824925231934,18.528724686813355,10.953404925231933Q18.601124686813353,10.938994925231933,18.675024686813355,10.938994925231933Q18.748824686813354,10.938994925231933,18.821324686813355,10.953414925231934Q18.893724686813353,10.967824925231934,18.962024686813354,10.996084925231933Q19.030224686813355,11.024354925231934,19.091724686813354,11.065394925231933Q19.153124686813353,11.106434925231934,19.205324686813356,11.158664925231934Q19.257524686813355,11.210904925231933,19.298624686813355,11.272324925231933Q19.339624686813355,11.333734925231933,19.367924686813353,11.401984925231934Q19.396224686813355,11.470234925231933,19.410624686813353,11.542674925231934Q19.425024686813355,11.615124925231934,19.425024686813355,11.688994925231933ZM6.074994686813355,12.311024925231933Q6.074994686813355,12.384824925231934,6.060584686813355,12.457324925231934Q6.046174686813354,12.529724925231934,6.017904686813354,12.598024925231934Q5.989644686813355,12.666224925231933,5.948604686813354,12.727624925231934Q5.9075646868133544,12.789124925231933,5.855324686813354,12.841324925231934Q5.803094686813354,12.893524925231933,5.741674686813354,12.934624925231933Q5.680254686813354,12.975624925231934,5.612014686813355,13.003924925231933Q5.543764686813354,13.032224925231933,5.471314686813354,13.046624925231933Q5.398864686813354,13.061024925231933,5.324994686813355,13.061024925231933Q5.251134686813355,13.061024925231933,5.178684686813355,13.046624925231933Q5.106234686813354,13.032224925231933,5.037984686813354,13.003924925231933Q4.969744686813355,12.975624925231934,4.908324686813355,12.934624925231933Q4.846904686813355,12.893524925231933,4.794664686813355,12.841324925231934Q4.742434686813354,12.789124925231933,4.701394686813355,12.727724925231934Q4.6603546868133545,12.666224925231933,4.6320846868133545,12.598024925231934Q4.603824686813354,12.529724925231934,4.589414686813354,12.457324925231934Q4.574994686813355,12.384824925231934,4.574994686813355,12.311024925231933Q4.574994686813355,12.237124925231933,4.589414686813354,12.164684925231933Q4.603824686813354,12.092234925231933,4.6320846868133545,12.023984925231934Q4.6603546868133545,11.955744925231933,4.701394686813355,11.894324925231933Q4.742434686813354,11.832904925231933,4.794664686813355,11.780664925231934Q4.846904686813355,11.728434925231934,4.908324686813355,11.687394925231933Q4.969744686813355,11.646354925231934,5.037984686813354,11.618084925231933Q5.106234686813354,11.589814925231934,5.178684686813355,11.575404925231934Q5.251134686813355,11.560994925231933,5.324994686813355,11.560994925231933Q5.398864686813354,11.560994925231933,5.471314686813354,11.575404925231934Q5.543764686813354,11.589814925231934,5.612014686813355,11.618084925231933Q5.680254686813354,11.646354925231934,5.741674686813354,11.687394925231933Q5.803094686813354,11.728434925231934,5.855324686813354,11.780664925231934Q5.9075646868133544,11.832904925231933,5.948604686813354,11.894324925231933Q5.989644686813355,11.955744925231933,6.017904686813354,12.023984925231934Q6.046174686813354,12.092234925231933,6.060584686813355,12.164684925231933Q6.074994686813355,12.237124925231933,6.074994686813355,12.311024925231933ZM13.940024686813354,8.687994925231934Q13.940024686813354,8.761864925231933,13.925624686813354,8.834314925231933Q13.911224686813355,8.906764925231933,13.882924686813354,8.975014925231934Q13.854624686813354,9.043254925231935,13.813624686813354,9.104674925231933Q13.772524686813355,9.166094925231935,13.720324686813354,9.218324925231933Q13.668124686813355,9.270564925231934,13.606724686813354,9.311604925231933Q13.545224686813354,9.352644925231933,13.477024686813355,9.380904925231935Q13.408724686813354,9.409174925231934,13.336324686813354,9.423584925231934Q13.263824686813354,9.437994925231934,13.190024686813354,9.437994925231934Q13.116124686813354,9.437994925231934,13.043724686813354,9.423584925231934Q12.971224686813354,9.409174925231934,12.903024686813355,9.380904925231935Q12.834724686813354,9.352644925231933,12.773324686813355,9.311604925231933Q12.711924686813354,9.270564925231934,12.659624686813354,9.218324925231933Q12.607424686813355,9.166094925231935,12.566424686813354,9.104674925231933Q12.525324686813354,9.043254925231935,12.497124686813354,8.975014925231934Q12.468824686813354,8.906764925231933,12.454424686813354,8.834314925231933Q12.440024686813354,8.761864925231933,12.440024686813354,8.687994925231934Q12.440024686813354,8.614134925231934,12.454424686813354,8.541684925231934Q12.468824686813354,8.469234925231934,12.497124686813354,8.400984925231935Q12.525324686813354,8.332744925231934,12.566424686813354,8.271324925231934Q12.607424686813355,8.209904925231934,12.659624686813354,8.157664925231934Q12.711924686813354,8.105434925231933,12.773324686813355,8.064394925231934Q12.834724686813354,8.023354925231933,12.903024686813355,7.995084925231934Q12.971224686813354,7.966824925231934,13.043724686813354,7.952414925231934Q13.116124686813354,7.9379949252319335,13.190024686813354,7.9379949252319335Q13.263824686813354,7.9379949252319335,13.336324686813354,7.952414925231934Q13.408724686813354,7.966824925231934,13.477024686813355,7.995084925231934Q13.545224686813354,8.023354925231933,13.606724686813354,8.064394925231934Q13.668124686813355,8.105434925231933,13.720324686813354,8.157664925231934Q13.772524686813355,8.209904925231934,13.813624686813354,8.271324925231934Q13.854624686813354,8.332744925231934,13.882924686813354,8.400984925231935Q13.911224686813355,8.469234925231934,13.925624686813354,8.541684925231934Q13.940024686813354,8.614134925231934,13.940024686813354,8.687994925231934Z" fill="#000000" fill-opacity="1"/></g></g></svg>