<svg xmlns="http://www.w3.org/2000/svg" xmlns:xlink="http://www.w3.org/1999/xlink" fill="none" version="1.1" width="24" height="24" viewBox="0 0 24 24"><defs><clipPath id="master_svg0_819_7238"><rect x="0" y="0" width="24" height="24" rx="0"/></clipPath></defs><g clip-path="url(#master_svg0_819_7238)"><g><path d="M5.623824238739013,4.623210224838257Q8.368834238739014,2.2444012248382568,12.001154238739014,2.2500012248382566Q15.093714238739013,2.250000224838257,17.612414238739014,4.0271902248382565Q19.324714238739013,5.2324502248382565,20.383814238739014,7.0166802248382565Q21.403114238739015,8.733700224838257,21.665814238739014,10.723440224838257Q21.928414238739013,12.713180224838258,21.389714238739014,14.635890224838256Q20.829914238739015,16.633890224838257,19.488614238739014,18.242890224838256Q18.147214238739014,19.851890224838257,16.282614238739015,20.762090224838257Q14.488214238739014,21.63799022483826,12.483684238739013,21.737590224838257Q10.479144238739014,21.837190224838256,8.606754238739015,21.143590224838256Q6.6610542387390135,20.422790224838256,5.166744238739014,18.954790224838256Q3.6724282387390135,17.486690224838256,2.917260638739014,15.554090224838257Q2.1905362387390137,13.694290224838257,2.2546212387390137,11.688290224838257Q2.318705238739014,9.682310224838258,3.1626572387390137,7.872680224838257Q4.0396442387390135,5.9922102248382565,5.624614238739014,4.622530224838257Q5.6805042387390134,4.5742302248382565,5.744744238739013,4.537760224838257Q5.808984238739013,4.501300224838257,5.879104238739014,4.478060224838257Q5.9492242387390135,4.454830224838257,6.022524238739013,4.445720224838257Q6.095834238739014,4.436610224838256,6.169504238739014,4.441980224838257Q6.243174238739014,4.447350224838257,6.314384238739014,4.466990224838257Q6.385594238739014,4.486630224838256,6.451604238739014,4.519780224838257Q6.517624238739014,4.552930224838256,6.575894238739014,4.598330224838257Q6.634164238739014,4.6437202248382565,6.682464238739014,4.699610224838256Q6.730764238739013,4.755500224838257,6.767234238739014,4.819740224838257Q6.803704238739014,4.883980224838257,6.826934238739014,4.954100224838257Q6.850164238739014,5.024220224838257,6.8592742387390135,5.097530224838257Q6.868384238739013,5.170830224838257,6.863014238739014,5.244500224838257Q6.857644238739013,5.318180224838256,6.838014238739014,5.389390224838257Q6.818374238739014,5.460600224838257,6.785214238739014,5.526610224838256Q6.752064238739013,5.592620224838257,6.706674238739014,5.650890224838257Q6.661274238739013,5.709170224838257,6.605384238739013,5.757470224838257Q5.263364238739014,6.917200224838257,4.522084238739014,8.506670224838256Q3.8081212387390138,10.037590224838258,3.7538562387390138,11.736190224838257Q3.6995912387390137,13.434790224838256,4.314384238739014,15.008190224838257Q4.952694238739014,16.641690224838257,6.217964238739014,17.88469022483826Q7.483224238739013,19.127790224838257,9.127824238739013,19.736990224838255Q10.711834238739014,20.323790224838255,12.409224238739014,20.239490224838256Q14.106614238739013,20.155090224838258,15.624614238739014,19.414090224838258Q17.200714238739014,18.644790224838257,18.336414238739014,17.28239022483826Q19.472214238739014,15.919990224838257,19.945414238739012,14.231190224838256Q20.401114238739012,12.604630224838257,20.178714238739012,10.919780224838256Q19.956214238739015,9.234920224838257,19.094014238739014,7.782360224838257Q18.198714238739015,6.274240224838257,16.74761423873901,5.252810224838257Q14.617814238739014,3.750000224838257,11.998844238739014,3.7499992248382568Q8.927354238739014,3.745263224838257,6.606174238739014,5.756790224838257Q6.550354238739013,5.805160224838257,6.486164238739013,5.841720224838257Q6.421974238739013,5.878280224838257,6.3518842387390135,5.901610224838256Q6.281794238739014,5.924940224838257,6.208504238739014,5.934150224838257Q6.135214238739014,5.943360224838257,6.061534238739014,5.938090224838257Q5.987854238739013,5.932830224838257,5.9166142387390135,5.913290224838256Q5.845374238739014,5.893750224838257,5.779324238739013,5.860690224838256Q5.713264238739013,5.827620224838257,5.654924238739014,5.782310224838257Q5.596594238739014,5.737000224838257,5.548214238739014,5.681180224838257Q5.499834238739014,5.625350224838257,5.463284238739014,5.5611602248382574Q5.4267242387390136,5.4969702248382575,5.403394238739013,5.426890224838257Q5.380064238739013,5.356800224838256,5.370854238739014,5.283510224838257Q5.3616442387390135,5.2102102248382565,5.366904238739014,5.136530224838257Q5.372174238739014,5.062850224838257,5.391714238739014,4.991620224838257Q5.411254238739014,4.920380224838257,5.444314238739014,4.854320224838257Q5.477374238739014,4.788260224838257,5.522684238739014,4.729930224838257Q5.568004238739014,4.671590224838257,5.623824238739013,4.623210224838257ZM17.850814238739012,4.974410224838257L17.70481423873901,5.266410224838257Q17.081814238739014,6.5132302248382565,15.922214238739013,7.286890224838257L14.665914238739013,8.124110224838256L14.250014238739015,7.5000002248382565L14.920414238739014,7.1637802248382565L15.085414238739014,7.492780224838257Q15.311414238739014,7.9428702248382566,15.231114238739014,8.440440224838257Q15.150814238739013,8.938020224838258,14.794414238739014,9.294410224838256Q14.438014238739013,9.650790224838257,13.940414238739013,9.731110224838257Q13.442914238739014,9.811420224838256,12.992454238739013,9.585250224838257L12.390144238739014,9.283600224838256Q12.147714238739013,9.161960224838257,11.956314238739013,9.353350224838257L11.830364238739014,9.481270224838257Q11.716494238739013,9.595170224838256,11.716494238739013,9.750500224838257Q11.716494238739013,9.905830224838258,11.826324238739014,10.015670224838257L12.121324238739014,10.310670224838256Q12.257594238739014,10.446860224838257,12.447844238739014,10.415180224838256L13.617714238739014,10.220210224838258Q14.467814238739013,10.078080224838256,15.127314238739014,10.629780224838257L16.456014238739016,11.736770224838256Q16.862514238739013,12.075880224838256,17.026314238739012,12.578680224838257Q17.190114238739014,13.081490224838257,17.061514238739015,13.594390224838257Q16.427014238739012,16.13319022483826,14.576414238739014,17.984290224838254L13.853314238739014,18.707290224838257Q13.425414238739014,19.135190224838258,12.828064238739014,19.231990224838256Q12.230314238739014,19.328790224838258,11.688974238739014,19.057490224838258L11.538344238739013,18.982690224838258Q10.500004238739013,18.463490224838257,10.500004238739013,17.304990224838257L10.500004238739013,16.215990224838258Q10.500004238739013,16.060690224838257,10.390674238739013,15.951290224838257L9.042674238739014,14.603290224838258Q8.614804238739014,14.175490224838256,8.518024238739013,13.578090224838256Q8.421194238739012,12.980310224838258,8.692494238739013,12.438970224838258L9.079004238739014,11.664940224838256L9.750004238739013,12.000000224838256L9.219674238739014,12.530330224838258L7.579674238739013,10.890330224838257Q6.0496842387390135,9.360480224838257,5.694194238739014,7.226230224838257L5.375214238739014,5.313360224838257Q5.363064238739014,5.240500224838257,5.365364238739014,5.166670224838256Q5.367664238739014,5.092830224838257,5.384314238739014,5.020870224838257Q5.400974238739014,4.9489002248382565,5.431354238739013,4.881570224838256Q5.461734238739014,4.814240224838256,5.504664238739014,4.754120224838257Q5.547594238739014,4.694010224838257,5.601424238739014,4.643430224838257Q5.655254238739014,4.592840224838257,5.7179242387390135,4.553740224838257Q5.780594238739013,4.514630224838257,5.849684238739014,4.488500224838257Q5.918774238739013,4.462360224838257,5.991634238739014,4.450210224838257Q6.064504238739014,4.438060224838257,6.138334238739014,4.4403602248382565Q6.212164238739014,4.4426602248382565,6.284134238739014,4.459320224838256Q6.356094238739013,4.475980224838256,6.423434238739014,4.506350224838257Q6.490764238739014,4.536730224838257,6.550874238739014,4.579660224838257Q6.610984238739014,4.622590224838257,6.661574238739014,4.676430224838256Q6.712154238739014,4.730260224838257,6.751264238739013,4.792920224838257Q6.790374238739014,4.855590224838257,6.816504238739014,4.924680224838257Q6.842634238739014,4.993780224838257,6.854784238739014,5.066640224838257L7.173804238739014,6.979770224838257Q7.4503042387390135,8.639750224838256,8.640334238739014,9.829670224838257L10.280334238739012,11.469670224838257Q10.321794238739013,11.511140224838257,10.356314238739014,11.558550224838257Q10.390834238739014,11.605960224838256,10.417564238739015,11.658150224838257Q10.444294238739014,11.710350224838256,10.462584238739014,11.766070224838257Q10.480874238739013,11.821790224838256,10.490284238739013,11.879670224838257Q10.499694238739014,11.937560224838256,10.499994238739013,11.996200224838256Q10.500284238739013,12.054840224838257,10.491464238739013,12.112820224838257Q10.482644238739013,12.170800224838256,10.464914238739013,12.226700224838257Q10.447194238739014,12.282600224838257,10.420994238739013,12.335060224838257L10.033514238739013,13.110990224838257Q9.912714238739014,13.352090224838257,10.103334238739013,13.542690224838257L11.451324238739014,14.890690224838258Q12.000004238739013,15.439290224838256,12.000004238739013,16.215990224838258L12.000004238739013,17.304990224838257Q12.000004238739013,17.536490224838257,12.205654238739013,17.639290224838255L12.361024238739013,17.716490224838257Q12.602054238739013,17.837290224838256,12.792674238739014,17.646690224838256L13.515614238739014,16.923690224838257Q15.072514238739014,15.366490224838257,15.606514238739013,13.229590224838256Q15.657914238739014,13.024390224838257,15.495914238739013,12.889240224838257L14.164714238739014,11.780230224838256Q14.034614238739014,11.671330224838258,13.864314238739013,11.699800224838256L12.694164238739013,11.894820224838258Q11.742914238739013,12.053180224838258,11.060674238739013,11.371330224838257L10.765674238739013,11.076340224838257Q10.216494238739013,10.527160224838257,10.216494238739013,9.750500224838257Q10.216494238739013,8.973840224838256,10.761634238739013,8.428730224838258L10.895684238739014,8.292660224838258Q11.324214238739014,7.8641602248382565,11.922464238739014,7.767520224838257Q12.520714238739014,7.670880224838257,13.061814238739014,7.942400224838257L13.665514238739014,8.244750224838256Q13.703614238739014,8.263870224838257,13.733714238739013,8.233740224838257Q13.763914238739014,8.203620224838257,13.744614238739013,8.165220224838258L13.579614238739014,7.836220224838256Q13.549114238739014,7.775390224838257,13.530014238739014,7.710060224838257Q13.510914238739014,7.6447302248382565,13.504014238739014,7.577040224838257Q13.497014238739014,7.509340224838257,13.502314238739014,7.441500224838257Q13.507614238739013,7.373650224838257,13.525014238739013,7.307870224838257Q13.542414238739013,7.242090224838257,13.571414238739013,7.180520224838257Q13.600414238739013,7.118950224838257,13.640014238739013,7.063600224838257Q13.679614238739013,7.008260224838257,13.728514238739013,6.960940224838257Q13.777414238739013,6.913620224838256,13.834114238739014,6.8758902248382565L15.089714238739013,6.039110224838257Q15.918014238739014,5.486500224838257,16.363214238739012,4.595590224838257L16.509214238739013,4.303590224838257Q16.542214238739014,4.237520224838256,16.58751423873901,4.179160224838257Q16.632814238739016,4.120810224838257,16.688614238739014,4.072410224838257Q16.74441423873901,4.024010224838257,16.80861423873901,3.987429224838257Q16.872714238739015,3.950847224838257,16.94281423873901,3.9274882248382568Q17.012914238739015,3.904128224838257,17.086214238739014,3.894889224838257Q17.159514238739014,3.885650224838257,17.233214238739013,3.8908872248382567Q17.306814238739015,3.8961232248382567,17.378114238739016,3.9156342248382567Q17.449314238739014,3.935145224838257,17.515414238739012,3.9681802248382567Q17.58151423873901,4.001210224838257,17.639814238739014,4.046500224838256Q17.698214238739013,4.091790224838257,17.746614238739014,4.147600224838257Q17.795014238739014,4.203400224838257,17.831614238739014,4.267580224838257Q17.86811423873901,4.331750224838257,17.891514238739013,4.401830224838257Q17.914914238739016,4.471910224838257,17.924114238739016,4.545200224838257Q17.933314238739015,4.618480224838256,17.928114238739013,4.692170224838257Q17.92291423873901,4.765850224838257,17.903414238739014,4.837090224838256Q17.883814238739014,4.908340224838257,17.850814238739012,4.974410224838257ZM6.865004238739013,5.190000224838257Q6.865004238739013,5.263870224838257,6.850584238739014,5.336320224838257Q6.836174238739014,5.408770224838257,6.807904238739013,5.477010224838256Q6.779644238739014,5.545260224838257,6.738604238739013,5.606680224838257Q6.697564238739014,5.668100224838257,6.6453342387390135,5.720330224838257Q6.593094238739013,5.772560224838257,6.531674238739013,5.8136002248382574Q6.470254238739013,5.854640224838256,6.402014238739014,5.882910224838257Q6.333764238739014,5.911180224838256,6.261314238739013,5.925590224838257Q6.188864238739013,5.940000224838257,6.115004238739013,5.940000224838257Q6.041134238739014,5.940000224838257,5.968684238739014,5.925590224838257Q5.896234238739014,5.911180224838256,5.827984238739013,5.882910224838257Q5.759744238739014,5.854640224838256,5.698324238739014,5.8136002248382574Q5.636904238739014,5.772560224838257,5.584674238739014,5.720330224838257Q5.532434238739014,5.668100224838257,5.491394238739014,5.606680224838257Q5.450354238739013,5.545260224838257,5.422094238739014,5.477010224838256Q5.393824238739014,5.408770224838257,5.379414238739013,5.336320224838257Q5.365004238739013,5.263870224838257,5.365004238739013,5.190000224838257Q5.365004238739013,5.1161302248382565,5.379414238739013,5.043680224838257Q5.393824238739014,4.971230224838257,5.422094238739014,4.902990224838257Q5.450354238739013,4.8347402248382565,5.491394238739014,4.7733202248382565Q5.532434238739014,4.711900224838256,5.584674238739014,4.659670224838257Q5.636904238739014,4.607440224838257,5.698324238739014,4.566400224838257Q5.759744238739014,4.5253602248382565,5.827984238739013,4.4970902248382565Q5.896234238739014,4.468820224838257,5.968684238739014,4.454410224838257Q6.041134238739014,4.440000224838257,6.115004238739013,4.440000224838257Q6.188864238739013,4.440000224838257,6.261314238739013,4.454410224838257Q6.333764238739014,4.468820224838257,6.402014238739014,4.4970902248382565Q6.470254238739013,4.5253602248382565,6.531674238739013,4.566400224838257Q6.593094238739013,4.607440224838257,6.6453342387390135,4.659670224838257Q6.697564238739014,4.711900224838256,6.738604238739013,4.7733202248382565Q6.779644238739014,4.8347402248382565,6.807904238739013,4.902990224838257Q6.836174238739014,4.971230224838257,6.850584238739014,5.043680224838257Q6.865004238739013,5.1161302248382565,6.865004238739013,5.190000224838257ZM17.930014238739012,4.639000224838257Q17.930014238739012,4.712870224838257,17.915614238739014,4.785320224838257Q17.901214238739016,4.857770224838257,17.872914238739014,4.926010224838257Q17.844614238739013,4.994260224838257,17.803614238739016,5.055680224838257Q17.762514238739016,5.117100224838257,17.710314238739013,5.169330224838257Q17.658114238739014,5.221560224838257,17.59671423873901,5.262600224838257Q17.535214238739016,5.303640224838257,17.46701423873901,5.331910224838257Q17.398814238739014,5.360180224838256,17.326314238739016,5.374590224838257Q17.253914238739014,5.389000224838257,17.180014238739012,5.389000224838257Q17.106114238739014,5.389000224838257,17.033714238739016,5.374590224838257Q16.961214238739014,5.360180224838256,16.893014238739013,5.331910224838257Q16.824714238739013,5.303640224838257,16.763314238739014,5.262600224838257Q16.701914238739015,5.221560224838257,16.649714238739016,5.169330224838257Q16.597414238739013,5.117100224838257,16.556414238739016,5.055680224838257Q16.515314238739016,4.994260224838257,16.487114238739014,4.926010224838257Q16.458814238739013,4.857770224838257,16.444414238739014,4.785320224838257Q16.430014238739012,4.712870224838257,16.430014238739012,4.639000224838257Q16.430014238739012,4.565130224838256,16.444414238739014,4.4926802248382565Q16.458814238739013,4.420230224838257,16.487114238739014,4.351990224838257Q16.515314238739016,4.283740224838256,16.556414238739016,4.222320224838256Q16.597414238739013,4.160900224838257,16.649714238739016,4.1086702248382565Q16.701914238739015,4.056440224838257,16.763314238739014,4.015400224838257Q16.824714238739013,3.974359224838257,16.893014238739013,3.9460902248382568Q16.961214238739014,3.9178222248382566,17.033714238739016,3.9034112248382566Q17.106114238739014,3.8890002248382567,17.180014238739012,3.8890002248382567Q17.253914238739014,3.8890002248382567,17.326314238739016,3.9034112248382566Q17.398814238739014,3.9178222248382566,17.46701423873901,3.9460902248382568Q17.535214238739016,3.974359224838257,17.59671423873901,4.015400224838257Q17.658114238739014,4.056440224838257,17.710314238739013,4.1086702248382565Q17.762514238739016,4.160900224838257,17.803614238739016,4.222320224838256Q17.844614238739013,4.283740224838256,17.872914238739014,4.351990224838257Q17.901214238739016,4.420230224838257,17.915614238739014,4.4926802248382565Q17.930014238739012,4.565130224838256,17.930014238739012,4.639000224838257ZM6.865004238739013,5.190000224838257Q6.865004238739013,5.263870224838257,6.850584238739014,5.336320224838257Q6.836174238739014,5.408770224838257,6.807904238739013,5.477010224838256Q6.779644238739014,5.545260224838257,6.738604238739013,5.606680224838257Q6.697564238739014,5.668100224838257,6.6453342387390135,5.720330224838257Q6.593094238739013,5.772560224838257,6.531674238739013,5.8136002248382574Q6.470254238739013,5.854640224838256,6.402014238739014,5.882910224838257Q6.333764238739014,5.911180224838256,6.261314238739013,5.925590224838257Q6.188864238739013,5.940000224838257,6.115004238739013,5.940000224838257Q6.041134238739014,5.940000224838257,5.968684238739014,5.925590224838257Q5.896234238739014,5.911180224838256,5.827984238739013,5.882910224838257Q5.759744238739014,5.854640224838256,5.698324238739014,5.8136002248382574Q5.636904238739014,5.772560224838257,5.584674238739014,5.720330224838257Q5.532434238739014,5.668100224838257,5.491394238739014,5.606680224838257Q5.450354238739013,5.545260224838257,5.422094238739014,5.477010224838256Q5.393824238739014,5.408770224838257,5.379414238739013,5.336320224838257Q5.365004238739013,5.263870224838257,5.365004238739013,5.190000224838257Q5.365004238739013,5.1161302248382565,5.379414238739013,5.043680224838257Q5.393824238739014,4.971230224838257,5.422094238739014,4.902990224838257Q5.450354238739013,4.8347402248382565,5.491394238739014,4.7733202248382565Q5.532434238739014,4.711900224838256,5.584674238739014,4.659670224838257Q5.636904238739014,4.607440224838257,5.698324238739014,4.566400224838257Q5.759744238739014,4.5253602248382565,5.827984238739013,4.4970902248382565Q5.896234238739014,4.468820224838257,5.968684238739014,4.454410224838257Q6.041134238739014,4.440000224838257,6.115004238739013,4.440000224838257Q6.188864238739013,4.440000224838257,6.261314238739013,4.454410224838257Q6.333764238739014,4.468820224838257,6.402014238739014,4.4970902248382565Q6.470254238739013,4.5253602248382565,6.531674238739013,4.566400224838257Q6.593094238739013,4.607440224838257,6.6453342387390135,4.659670224838257Q6.697564238739014,4.711900224838256,6.738604238739013,4.7733202248382565Q6.779644238739014,4.8347402248382565,6.807904238739013,4.902990224838257Q6.836174238739014,4.971230224838257,6.850584238739014,5.043680224838257Q6.865004238739013,5.1161302248382565,6.865004238739013,5.190000224838257ZM6.865004238739013,5.190000224838257Q6.865004238739013,5.263870224838257,6.850584238739014,5.336320224838257Q6.836174238739014,5.408770224838257,6.807904238739013,5.477010224838256Q6.779644238739014,5.545260224838257,6.738604238739013,5.606680224838257Q6.697564238739014,5.668100224838257,6.6453342387390135,5.720330224838257Q6.593094238739013,5.772560224838257,6.531674238739013,5.8136002248382574Q6.470254238739013,5.854640224838256,6.402014238739014,5.882910224838257Q6.333764238739014,5.911180224838256,6.261314238739013,5.925590224838257Q6.188864238739013,5.940000224838257,6.115004238739013,5.940000224838257Q6.041134238739014,5.940000224838257,5.968684238739014,5.925590224838257Q5.896234238739014,5.911180224838256,5.827984238739013,5.882910224838257Q5.759744238739014,5.854640224838256,5.698324238739014,5.8136002248382574Q5.636904238739014,5.772560224838257,5.584674238739014,5.720330224838257Q5.532434238739014,5.668100224838257,5.491394238739014,5.606680224838257Q5.450354238739013,5.545260224838257,5.422094238739014,5.477010224838256Q5.393824238739014,5.408770224838257,5.379414238739013,5.336320224838257Q5.365004238739013,5.263870224838257,5.365004238739013,5.190000224838257Q5.365004238739013,5.1161302248382565,5.379414238739013,5.043680224838257Q5.393824238739014,4.971230224838257,5.422094238739014,4.902990224838257Q5.450354238739013,4.8347402248382565,5.491394238739014,4.7733202248382565Q5.532434238739014,4.711900224838256,5.584674238739014,4.659670224838257Q5.636904238739014,4.607440224838257,5.698324238739014,4.566400224838257Q5.759744238739014,4.5253602248382565,5.827984238739013,4.4970902248382565Q5.896234238739014,4.468820224838257,5.968684238739014,4.454410224838257Q6.041134238739014,4.440000224838257,6.115004238739013,4.440000224838257Q6.188864238739013,4.440000224838257,6.261314238739013,4.454410224838257Q6.333764238739014,4.468820224838257,6.402014238739014,4.4970902248382565Q6.470254238739013,4.5253602248382565,6.531674238739013,4.566400224838257Q6.593094238739013,4.607440224838257,6.6453342387390135,4.659670224838257Q6.697564238739014,4.711900224838256,6.738604238739013,4.7733202248382565Q6.779644238739014,4.8347402248382565,6.807904238739013,4.902990224838257Q6.836174238739014,4.971230224838257,6.850584238739014,5.043680224838257Q6.865004238739013,5.1161302248382565,6.865004238739013,5.190000224838257Z" fill="#000000" fill-opacity="1"/></g></g></svg>